# Blender 4.4.3
# www.blender.org
mtllib chicken.mtl
o chicken_001
v 0.000000 0.466071 -0.179623
v 0.000000 0.320135 0.193671
v 0.007340 0.474055 -0.166156
v 0.003508 0.464160 -0.178544
v 0.011494 0.466655 -0.153300
v 0.005078 0.460653 -0.176023
v 0.011817 0.476776 -0.147697
v 0.005216 0.494597 -0.144235
v 0.018695 0.492120 -0.094953
v 0.005170 0.460607 -0.152267
v 0.006001 0.484098 -0.156087
v 0.025507 0.445363 -0.106112
v 0.025850 0.458440 -0.126417
v 0.094427 0.290395 -0.029761
v 0.097650 0.273057 0.018193
v 0.033744 0.121388 0.036017
v 0.044407 0.119094 0.080279
v 0.045782 0.143448 0.131233
v 0.043299 0.203471 0.176819
v 0.095406 0.264289 0.082425
v 0.114710 0.204621 0.082136
v 0.104785 0.143281 0.076344
v 0.097261 0.149475 0.016162
v 0.083043 0.138673 0.112465
v 0.062132 0.010186 0.084601
v 0.067441 0.002220 0.085022
v 0.057932 0.002220 0.083228
v 0.076765 0.000001 -0.033778
v 0.068179 0.010434 -0.033467
v 0.059640 0.000001 -0.033467
v 0.125788 0.007626 0.012492
v 0.120480 0.000000 0.008147
v 0.126758 0.000000 0.017680
v 0.023819 0.000001 -0.003629
v 0.016249 0.010168 -0.003024
v 0.013710 0.000001 0.003514
v 0.133774 0.000000 0.005614
v 0.068549 -0.000000 -0.049594
v 0.012140 -0.000000 -0.009648
v 0.059917 -0.000003 0.095166
v 0.030374 0.343737 0.208116
v 0.015602 0.377164 0.239546
v 0.031436 0.350509 0.264617
v 0.000000 0.357783 0.249120
v 0.020449 0.331140 0.266155
v 0.000000 0.385257 0.287485
v 0.024465 0.358898 0.286404
v 0.045481 0.309301 0.025178
v 0.047676 0.335535 -0.024398
v 0.000000 0.445741 -0.138598
v 0.000000 0.346353 -0.139735
v 0.000000 0.257958 -0.140046
v 0.000000 0.355482 -0.002862
v 0.000000 0.196113 -0.101565
v 0.000000 0.120388 0.025048
v 0.000000 0.108810 0.080279
v 0.000000 0.217930 0.212055
v 0.000000 0.320814 0.129475
v 0.000000 0.330048 0.048977
v 0.023561 0.440013 -0.118559
v 0.019553 0.467887 -0.080742
v 0.007696 0.432338 -0.130469
v 0.042883 0.370261 -0.073634
v 0.039093 0.355466 -0.112223
v 0.028117 0.375548 -0.044028
v 0.025911 0.349269 -0.130023
v 0.063480 0.326879 -0.069655
v 0.055736 0.314082 -0.106149
v 0.053408 0.261971 -0.121016
v 0.079574 0.271662 -0.089147
v 0.037275 0.306138 -0.130984
v 0.105412 0.221606 -0.038848
v 0.065964 0.205754 -0.081387
v 0.067628 0.149877 -0.019298
v 0.022757 0.223069 0.196706
v 0.059317 0.271739 0.143032
v 0.112217 0.208210 0.013091
v 0.085641 0.210625 0.135672
v 0.075935 0.086981 0.067401
v 0.076996 0.087654 0.053091
v 0.064117 0.086901 0.069258
v 0.063610 0.087675 0.053933
v 0.043391 0.239881 0.170935
v 0.033559 0.304156 0.172301
v 0.058855 0.008047 0.063061
v 0.056778 0.004400 0.029301
v 0.079997 0.004400 0.027991
v 0.073534 0.008047 0.068445
v 0.098369 0.004400 0.041972
v 0.071734 0.022993 0.061325
v 0.062363 0.026586 0.059634
v 0.061625 0.026969 0.045388
v 0.075565 0.026466 0.046946
v 0.096178 0.012833 0.033250
v 0.067210 0.014670 0.014644
v 0.048423 0.014871 0.038475
v 0.013579 0.496852 -0.127812
v 0.015845 0.491610 -0.132097
v 0.015451 0.496741 -0.120965
v 0.020179 0.486256 -0.129511
v 0.022150 0.486144 -0.122664
v 0.019884 0.491387 -0.118385
v 0.022317 0.493740 -0.125731
v 0.073134 0.044322 0.063350
v 0.062948 0.046691 0.062842
v 0.062286 0.047204 0.048236
v 0.076042 0.046862 0.048994
v 0.068118 0.012474 -0.013982
v 0.067741 0.013739 0.001378
v 0.058686 0.001467 -0.012544
v 0.057732 0.002934 0.008378
v 0.078920 0.002934 0.007401
v 0.077842 0.001467 -0.013189
v 0.037698 0.013303 0.024642
v 0.026973 0.011736 0.010809
v 0.045792 0.002934 0.018324
v 0.034805 0.001467 0.007347
v 0.024037 0.001314 0.018852
v 0.036540 0.003692 0.034734
v 0.100238 0.002200 0.018069
v 0.108857 0.011028 0.023541
v 0.112563 0.002200 0.029826
v 0.062019 0.018486 0.074075
v 0.058541 0.005306 0.071681
v 0.066772 0.016685 0.074320
v 0.070461 0.006814 0.075513
v 0.087129 0.118564 0.034626
v 0.090360 0.115131 0.071872
v 0.074953 0.111727 0.086278
v 0.063595 0.110153 0.029526
v 0.049925 0.105962 0.044741
v 0.053584 0.107383 0.075173
v 0.000000 0.302673 -0.145354
v 0.034793 0.298958 0.085361
v 0.029173 0.302460 0.134892
v 0.017802 0.386494 -0.127765
v 0.000000 0.383252 -0.135637
v 0.022799 0.414078 -0.057951
v 0.031963 0.403623 -0.083591
v 0.028662 0.391893 -0.112976
v 0.000000 0.476992 -0.171089
v 0.000000 0.454939 -0.181591
v 0.000000 0.503739 -0.132147
v 0.000000 0.508633 -0.105206
v 0.000000 0.458962 -0.175896
v 0.000000 0.460338 -0.152561
v 0.000000 0.480442 -0.165821
v 0.000000 0.498465 -0.086344
v 0.000000 0.492661 -0.162762
v 0.000000 0.492962 -0.167165
v 0.000000 0.505665 -0.146075
v 0.000000 0.519949 -0.134582
v 0.000000 0.500882 -0.158283
v 0.000000 0.139750 0.143755
v 0.000000 0.184733 0.190136
v 0.000000 0.320980 0.087290
v 0.000000 0.340755 0.213310
v 0.000000 0.354407 0.159826
v 0.000000 0.368841 0.246139
v 0.000000 0.393681 0.279348
v 0.000000 0.392039 0.238386
v 0.000000 0.373747 0.187817
v -0.007340 0.474055 -0.166156
v -0.003508 0.464160 -0.178544
v -0.011494 0.466655 -0.153300
v -0.005078 0.460653 -0.176023
v -0.011817 0.476776 -0.147697
v -0.005216 0.494597 -0.144235
v -0.018695 0.492120 -0.094953
v -0.005170 0.460607 -0.152267
v -0.006001 0.484098 -0.156087
v -0.025507 0.445363 -0.106112
v -0.025850 0.458440 -0.126417
v -0.094427 0.290395 -0.029761
v -0.097650 0.273057 0.018193
v -0.033744 0.121388 0.036017
v -0.044407 0.119094 0.080279
v -0.045782 0.143448 0.131233
v -0.043299 0.203471 0.176819
v -0.095406 0.264289 0.082425
v -0.114710 0.204621 0.082136
v -0.104785 0.143281 0.076344
v -0.097261 0.149475 0.016162
v -0.083043 0.138673 0.112465
v -0.062132 0.010186 0.084601
v -0.067441 0.002220 0.085022
v -0.057932 0.002220 0.083228
v -0.076765 0.000001 -0.033778
v -0.068179 0.010434 -0.033467
v -0.059640 0.000001 -0.033467
v -0.125788 0.007626 0.012492
v -0.120480 0.000000 0.008147
v -0.126758 0.000000 0.017680
v -0.023819 0.000001 -0.003629
v -0.016249 0.010168 -0.003024
v -0.013710 0.000001 0.003514
v -0.133774 0.000000 0.005614
v -0.068549 -0.000000 -0.049594
v -0.012140 -0.000000 -0.009648
v -0.059917 -0.000003 0.095166
v -0.030374 0.343737 0.208116
v -0.015602 0.377164 0.239546
v -0.031436 0.350509 0.264617
v 0.000000 0.314502 0.283329
v -0.020449 0.331140 0.266155
v -0.024465 0.357743 0.284241
v 0.000000 0.339631 0.307029
v -0.045481 0.309301 0.025178
v -0.047676 0.335535 -0.024398
v 0.000000 0.479079 -0.072303
v 0.000000 0.430125 -0.134196
v 0.000000 0.380331 -0.024142
v 0.000000 0.143499 -0.029389
v -0.023561 0.440013 -0.118559
v -0.019553 0.467887 -0.080742
v -0.007696 0.432338 -0.130469
v -0.042883 0.370261 -0.073634
v -0.039093 0.355466 -0.112223
v -0.028117 0.375548 -0.044028
v -0.025911 0.349269 -0.130023
v -0.063480 0.326879 -0.069655
v -0.055736 0.314082 -0.106149
v -0.053408 0.261971 -0.121016
v -0.079574 0.271662 -0.089147
v -0.037275 0.306138 -0.130984
v -0.105412 0.221606 -0.038848
v -0.065964 0.205754 -0.081387
v -0.067628 0.149877 -0.019298
v -0.022757 0.223069 0.196706
v -0.059317 0.271739 0.143032
v -0.112217 0.208210 0.013091
v -0.085641 0.210625 0.135672
v -0.075935 0.086981 0.067401
v -0.076996 0.087654 0.053091
v -0.064117 0.086901 0.069259
v -0.063610 0.087675 0.053933
v -0.043391 0.239881 0.170935
v -0.033559 0.304156 0.172301
v -0.058855 0.008047 0.063061
v -0.056778 0.004400 0.029301
v -0.079997 0.004400 0.027991
v -0.073534 0.008047 0.068445
v -0.098369 0.004400 0.041972
v -0.071734 0.022993 0.061325
v -0.062363 0.026586 0.059634
v -0.061625 0.026969 0.045388
v -0.075565 0.026466 0.046946
v -0.096178 0.012833 0.033250
v -0.067210 0.014670 0.014644
v -0.048423 0.014871 0.038475
v -0.013579 0.496852 -0.127812
v -0.015845 0.491610 -0.132097
v -0.015451 0.496741 -0.120965
v -0.020179 0.486256 -0.129511
v -0.022150 0.486144 -0.122664
v -0.019884 0.491387 -0.118385
v -0.022317 0.493740 -0.125731
v -0.073134 0.044322 0.063350
v -0.062948 0.046691 0.062842
v -0.062286 0.047204 0.048236
v -0.076042 0.046862 0.048994
v -0.068118 0.012474 -0.013982
v -0.067741 0.013739 0.001378
v -0.058686 0.001467 -0.012544
v -0.057732 0.002934 0.008378
v -0.078920 0.002934 0.007401
v -0.077842 0.001467 -0.013189
v -0.037698 0.013303 0.024642
v -0.026973 0.011736 0.010809
v -0.045792 0.002934 0.018324
v -0.034805 0.001467 0.007347
v -0.024037 0.001314 0.018852
v -0.036540 0.003692 0.034734
v -0.100238 0.002200 0.018069
v -0.108857 0.011028 0.023541
v -0.112563 0.002200 0.029826
v -0.062019 0.018486 0.074075
v -0.058541 0.005306 0.071681
v -0.066772 0.016685 0.074320
v -0.070461 0.006814 0.075513
v -0.087129 0.118564 0.034626
v -0.090360 0.115131 0.071872
v -0.074953 0.111727 0.086278
v -0.063595 0.110153 0.029526
v -0.049925 0.105962 0.044741
v -0.053584 0.107383 0.075173
v -0.034793 0.298958 0.085361
v -0.029173 0.302460 0.134892
v -0.017802 0.386494 -0.127765
v 0.000000 0.423527 -0.043810
v -0.022799 0.414078 -0.057951
v -0.031963 0.403623 -0.083591
v -0.028662 0.391893 -0.112976
v -0.019168 0.285281 0.246447
v -0.031981 0.315593 0.234381
v 0.019168 0.285281 0.246447
v 0.031981 0.315593 0.234381
v 0.013099 0.335330 0.224669
v 0.000000 0.277086 0.253273
v 0.000000 0.247426 0.230832
v -0.021587 0.255019 0.224427
v -0.013100 0.335330 0.224669
v -0.038809 0.295803 0.208247
v 0.021587 0.255019 0.224427
v 0.038809 0.295803 0.208247
v 0.024024 0.320088 0.202536
v -0.024024 0.320088 0.202536
v 0.000000 0.339944 0.222434
v 0.000000 0.357387 0.273751
v 0.000000 0.366243 0.298673
v 0.000000 0.338208 0.276630
v 0.000000 0.325517 0.201708
v 0.012749 0.409416 -0.129117
v 0.021176 0.440982 -0.069346
v 0.028735 0.424493 -0.094852
v 0.026112 0.415953 -0.115768
v -0.012749 0.409416 -0.129117
v 0.000000 0.451303 -0.058057
v -0.021176 0.440982 -0.069346
v -0.028735 0.424493 -0.094852
v -0.026112 0.415953 -0.115768
v 0.000000 0.406689 -0.134916
v 0.074005 0.056032 0.064609
v 0.074954 0.070291 0.065982
v 0.076553 0.062784 0.067551
v 0.063717 0.071415 0.067061
v 0.063298 0.057217 0.064760
v 0.061434 0.064078 0.068234
v 0.063155 0.072061 0.051977
v 0.062684 0.057854 0.049947
v 0.060705 0.065276 0.048900
v 0.076668 0.071905 0.051682
v 0.076329 0.057628 0.050226
v 0.078825 0.064916 0.048931
v -0.074954 0.070291 0.065982
v -0.074005 0.056032 0.064609
v -0.076553 0.062784 0.067551
v -0.063298 0.057217 0.064760
v -0.063717 0.071415 0.067061
v -0.061434 0.064078 0.068234
v -0.062684 0.057854 0.049947
v -0.063155 0.072061 0.051977
v -0.060705 0.065276 0.048900
v -0.076329 0.057628 0.050226
v -0.076668 0.071905 0.051682
v -0.078825 0.064916 0.048931
v 0.039550 0.331952 -0.007685
v 0.036266 0.346615 -0.039693
v 0.058300 0.324373 -0.086245
v 0.059160 0.332984 -0.007986
v 0.075704 0.344962 -0.049594
v 0.073244 0.344248 -0.068971
v 0.095750 0.240228 -0.078790
v 0.118405 0.213788 -0.043551
v 0.124243 0.196476 -0.001390
v 0.051040 0.317524 0.025641
v 0.050296 0.307794 0.051880
v 0.057596 0.294438 0.105212
v 0.100189 0.277765 0.053346
v 0.065074 0.279179 0.126186
v 0.081092 0.249016 0.139873
v 0.092494 0.208062 0.132891
v 0.127207 0.190548 0.079529
v 0.125975 0.237667 0.035492
v 0.052735 0.301762 0.073473
v 0.127489 0.189955 0.037442
v 0.048130 0.345627 -0.059176
v 0.050986 0.336060 -0.073433
v 0.096180 0.299244 0.000479
v 0.111407 0.271651 -0.038622
v 0.093753 0.317115 -0.049160
v 0.085276 0.328264 -0.039589
v 0.084011 0.317078 -0.015158
v 0.103188 0.285064 0.024765
v 0.124591 0.251888 -0.014792
v 0.121229 0.234804 0.080376
v 0.094508 0.270180 0.084256
v 0.088737 0.271570 0.105753
v 0.101147 0.241097 0.112821
v 0.055100 0.325254 0.008828
v 0.077384 0.281946 -0.088699
v 0.090096 0.308161 -0.007340
v 0.102940 0.294028 -0.050073
v 0.039840 0.325590 -0.010589
v 0.035789 0.339875 -0.041522
v 0.054639 0.321458 -0.081039
v 0.057143 0.326924 -0.010851
v 0.072278 0.338877 -0.050082
v 0.070070 0.339290 -0.065184
v 0.089717 0.239117 -0.075417
v 0.111768 0.213355 -0.041371
v 0.117268 0.196558 -0.000796
v 0.047913 0.311847 0.022996
v 0.046789 0.302028 0.050023
v 0.053637 0.288868 0.103696
v 0.095222 0.273031 0.051964
v 0.060504 0.274529 0.123638
v 0.075739 0.246441 0.136169
v 0.086638 0.207280 0.129137
v 0.120485 0.189905 0.077683
v 0.119223 0.235900 0.034964
v 0.049022 0.296017 0.071986
v 0.120497 0.189634 0.037380
v 0.047988 0.338632 -0.058970
v 0.051639 0.330143 -0.069750
v 0.090948 0.294791 -0.000861
v 0.105029 0.269423 -0.036790
v 0.087595 0.314100 -0.047747
v 0.079795 0.324181 -0.041102
v 0.079014 0.312777 -0.017511
v 0.098013 0.280518 0.023519
v 0.117871 0.250121 -0.013939
v 0.114833 0.232779 0.078381
v 0.089494 0.265594 0.082573
v 0.083875 0.267150 0.103339
v 0.095384 0.238948 0.109480
v 0.053231 0.319270 0.005713
v 0.071935 0.280117 -0.084705
v 0.084903 0.303917 -0.009346
v 0.096747 0.291479 -0.048034
v -0.039550 0.331952 -0.007685
v -0.036266 0.346615 -0.039693
v -0.058300 0.324373 -0.086245
v -0.059160 0.332984 -0.007986
v -0.075704 0.344962 -0.049594
v -0.073244 0.344248 -0.068971
v -0.095750 0.240228 -0.078790
v -0.118405 0.213788 -0.043551
v -0.124243 0.196476 -0.001390
v -0.051040 0.317524 0.025641
v -0.050296 0.307794 0.051880
v -0.057596 0.294438 0.105212
v -0.100189 0.277765 0.053346
v -0.065074 0.279179 0.126186
v -0.081092 0.249016 0.139873
v -0.092494 0.208062 0.132891
v -0.127207 0.190548 0.079529
v -0.125975 0.237667 0.035492
v -0.052735 0.301762 0.073473
v -0.127489 0.189955 0.037442
v -0.048130 0.345627 -0.059176
v -0.050986 0.336060 -0.073433
v -0.096180 0.299244 0.000479
v -0.111407 0.271651 -0.038622
v -0.093753 0.317115 -0.049160
v -0.085276 0.328264 -0.039589
v -0.084011 0.317078 -0.015158
v -0.103188 0.285064 0.024765
v -0.124591 0.251888 -0.014792
v -0.121229 0.234804 0.080376
v -0.094508 0.270180 0.084256
v -0.088737 0.271570 0.105753
v -0.101147 0.241097 0.112821
v -0.055100 0.325254 0.008828
v -0.077384 0.281946 -0.088699
v -0.090096 0.308161 -0.007340
v -0.102940 0.294028 -0.050073
v -0.039840 0.325590 -0.010589
v -0.035789 0.339875 -0.041522
v -0.054639 0.321458 -0.081039
v -0.057143 0.326924 -0.010851
v -0.072278 0.338877 -0.050082
v -0.070070 0.339290 -0.065184
v -0.089717 0.239117 -0.075417
v -0.111768 0.213355 -0.041371
v -0.117268 0.196558 -0.000796
v -0.047913 0.311847 0.022996
v -0.046789 0.302028 0.050023
v -0.053637 0.288868 0.103696
v -0.095222 0.273031 0.051964
v -0.060504 0.274529 0.123638
v -0.075739 0.246441 0.136169
v -0.086638 0.207280 0.129137
v -0.120485 0.189905 0.077683
v -0.119223 0.235900 0.034964
v -0.049022 0.296017 0.071986
v -0.120497 0.189634 0.037380
v -0.047988 0.338632 -0.058970
v -0.051639 0.330143 -0.069750
v -0.090948 0.294791 -0.000861
v -0.105029 0.269423 -0.036790
v -0.087595 0.314100 -0.047747
v -0.079795 0.324181 -0.041102
v -0.079014 0.312777 -0.017511
v -0.098013 0.280518 0.023519
v -0.117871 0.250121 -0.013939
v -0.114833 0.232779 0.078381
v -0.089494 0.265594 0.082573
v -0.083875 0.267150 0.103339
v -0.095384 0.238948 0.109480
v -0.053231 0.319270 0.005713
v -0.071935 0.280117 -0.084705
v -0.084903 0.303917 -0.009346
v -0.096747 0.291479 -0.048034
vn -0.3331 0.7743 -0.5380
vn -0.4991 0.8592 -0.1122
vn -0.6891 0.6015 -0.4041
vn 0.2974 0.9497 -0.0977
vn 0.7055 0.6358 -0.3131
vn 0.6600 0.3938 0.6398
vn -0.1734 0.7372 0.6530
vn -0.9100 0.3715 0.1843
vn -0.1483 0.7272 0.6702
vn 0.5574 0.6265 0.5448
vn 0.7919 0.3668 0.4882
vn -0.7626 0.6425 -0.0755
vn -0.0070 0.9522 -0.3053
vn -0.7520 0.6211 -0.2206
vn -0.3145 0.8762 -0.3653
vn 0.5386 0.4982 -0.6795
vn -0.4450 0.6081 -0.6574
vn -0.8202 0.4551 0.3466
vn 0.7459 0.6310 -0.2132
vn 0.0085 0.8397 -0.5431
vn -0.0679 0.9645 -0.2554
vn 0.3834 0.7436 -0.5478
vn 0.5442 0.6151 0.5705
vn 0.1853 0.9797 -0.0768
vn -0.2392 0.6272 -0.7412
vn 0.3682 0.9167 -0.1551
vn 0.4699 0.8095 -0.3519
vn 0.6523 0.5188 0.5526
vn -0.4872 0.7488 0.4494
vn -0.9564 0.2702 0.1106
vn 0.5735 0.6484 0.5007
vn -0.6840 0.5683 0.4573
vn -0.1510 0.9875 -0.0442
vn 0.6989 0.4467 0.5586
vn -0.0000 -0.5839 0.8118
vn -0.0000 -0.6032 0.7976
vn 0.7180 -0.3782 0.5844
vn -0.0000 -0.9903 0.1391
vn 0.3341 -0.6952 0.6365
vn -0.0000 -0.7832 0.6218
vn -0.7822 0.5187 -0.3450
vn -0.0000 0.8015 -0.5981
vn -0.8618 0.4951 -0.1102
vn 0.9797 0.1945 -0.0479
vn -0.0441 0.8155 -0.5770
vn -0.0000 0.8130 -0.5822
vn 0.7110 -0.4168 0.5663
vn 0.3786 -0.5843 0.7178
vn -0.0000 -0.6861 0.7275
vn -0.1265 0.9883 -0.0847
vn 0.5540 0.6159 -0.5601
vn -0.4992 -0.6421 0.5818
vn -0.6068 -0.6131 0.5059
vn -0.6550 -0.7063 -0.2687
vn 0.5482 0.7898 -0.2751
vn 0.8358 0.4407 -0.3275
vn -0.0000 0.9997 0.0242
vn 0.4289 -0.6565 0.6206
vn -0.0000 -0.8008 0.5990
vn -0.0000 -0.7395 0.6732
vn -0.0000 0.9827 -0.1854
vn -0.0000 0.9992 -0.0401
vn 0.7111 0.6783 -0.1851
vn -0.0000 0.8741 -0.4857
vn 0.7822 0.5187 -0.3450
vn 0.7909 -0.0134 0.6118
vn 0.6235 -0.2637 0.7360
vn 0.9287 0.3686 0.0398
vn 0.8890 0.1622 -0.4283
vn 0.9735 0.2212 0.0581
vn 0.7886 0.4686 0.3981
vn 0.6622 0.7440 -0.0893
vn 0.8618 0.4951 -0.1102
vn 0.8231 0.0546 0.5652
vn -0.0000 0.7351 -0.6780
vn 0.7075 0.2213 -0.6711
vn -0.0000 0.4576 -0.8892
vn -0.1495 -0.9151 0.3744
vn 0.5241 -0.5349 0.6627
vn 0.6604 -0.3247 0.6770
vn -0.0000 -0.8544 -0.5196
vn 0.5409 -0.5190 -0.6618
vn 0.4444 -0.7123 -0.5433
vn 0.5592 0.8286 0.0271
vn 0.7894 0.5087 0.3437
vn 0.8403 0.5379 0.0675
vn 0.9220 -0.1473 -0.3582
vn 0.9913 0.1314 0.0093
vn 0.8761 -0.0942 -0.4727
vn 0.9969 0.0771 0.0142
vn 0.5629 0.0419 -0.8254
vn 0.5851 0.1113 -0.8033
vn 0.7377 0.4459 0.5070
vn -0.0000 0.7927 0.6096
vn 0.6683 0.6594 0.3445
vn -0.0000 -0.5574 -0.8303
vn 0.5480 -0.1131 -0.8288
vn -0.0000 -0.0976 -0.9952
vn 0.5933 -0.1307 0.7943
vn 0.7910 0.0450 -0.6101
vn 0.8299 0.2690 -0.4887
vn 0.5656 0.1666 -0.8077
vn 0.8506 0.2660 -0.4536
vn 0.2181 -0.6185 0.7549
vn 0.6771 -0.5751 0.4591
vn 0.8519 -0.4794 0.2108
vn 0.8326 -0.4387 -0.3382
vn -0.0199 -0.7255 -0.6880
vn 0.6368 -0.6315 -0.4424
vn -0.5377 -0.7474 -0.3902
vn -0.1380 -0.9363 -0.3229
vn 0.8610 0.0892 -0.5006
vn 0.8804 0.4740 -0.0162
vn 0.5772 -0.1900 -0.7942
vn -0.0000 0.9391 0.3436
vn 0.5414 0.8290 0.1401
vn 0.5557 0.7803 0.2870
vn -0.0000 -0.6544 -0.7561
vn -0.0000 -0.3178 -0.9481
vn 0.5590 0.0848 -0.8248
vn 0.8315 0.5202 -0.1950
vn 0.6470 0.5064 -0.5700
vn 0.8429 -0.4830 -0.2370
vn -0.0000 -0.9269 -0.3753
vn -0.0000 -0.9452 0.3266
vn 0.8231 0.3567 -0.4419
vn -0.0000 0.6292 -0.7772
vn 0.8838 0.3194 -0.3419
vn -0.0000 0.9151 -0.4031
vn -0.0000 0.6752 -0.7377
vn -0.0000 0.8088 -0.5880
vn -0.0000 0.7176 -0.6964
vn -0.0000 0.9566 0.2914
vn 0.9067 -0.2316 -0.3526
vn 0.9338 -0.1144 -0.3391
vn 0.4469 -0.8243 -0.3475
vn 0.8821 0.2640 -0.3902
vn 0.1392 -0.9543 -0.2644
vn 0.1018 -0.9592 -0.2637
vn 0.1384 -0.9556 -0.2600
vn -0.0000 -0.8326 -0.5538
vn 0.0297 -0.9984 -0.0486
vn -0.0271 -0.9961 0.0840
vn -0.0612 -0.9946 0.0841
vn 0.0034 -0.9975 0.0703
vn 0.0296 -0.9953 0.0923
vn 0.7365 -0.5457 -0.3997
vn 0.9208 -0.3423 0.1868
vn -0.0000 -0.6766 0.7364
vn 0.2394 -0.6561 0.7157
vn -0.0000 -0.6726 0.7400
vn 0.1683 -0.6630 0.7294
vn -0.0000 0.9046 -0.4262
vn 0.9726 0.0293 0.2307
vn -0.0000 -0.5795 0.8150
vn -0.0000 -0.5446 0.8387
vn -0.0000 -0.9554 -0.2954
vn -0.0000 0.9912 0.1321
vn 0.8084 0.5434 0.2260
vn 0.9863 -0.0618 -0.1527
vn 0.5769 0.7644 -0.2881
vn 0.9834 0.1482 0.1046
vn 0.9790 0.1334 0.1543
vn -0.0757 -0.9939 0.0801
vn -0.9186 0.3368 0.2070
vn -0.0000 0.5059 0.8626
vn 0.8254 0.3023 0.4768
vn -0.0000 0.4413 0.8974
vn 0.8254 0.2895 0.4846
vn -0.0000 0.9902 0.1397
vn -0.0000 0.7302 0.6833
vn 0.7447 0.6636 -0.0707
vn -0.0087 0.9937 -0.1113
vn -0.0000 0.0867 -0.9962
vn 0.7907 0.3151 0.5250
vn -0.0000 0.5633 0.8262
vn -0.0000 0.4317 0.9020
vn 0.8495 0.5147 0.1164
vn -0.6979 0.1132 -0.7072
vn -0.7387 0.3356 0.5846
vn -0.7255 -0.0686 0.6848
vn 0.6981 -0.4018 0.5926
vn 0.0362 -0.9987 0.0355
vn 0.0351 -0.9988 0.0345
vn -0.0000 -1.0000 0.0001
vn 0.0365 -0.9993 -0.0107
vn 0.0008 -0.9991 0.0420
vn 0.0011 -0.9991 0.0430
vn 0.1038 -0.9584 -0.2659
vn 0.0356 -0.9814 -0.1887
vn -0.0493 -0.9979 0.0431
vn -0.0482 -0.9980 0.0421
vn -0.0000 -1.0000 -0.0000
vn 0.9929 0.1167 -0.0211
vn 0.8732 0.2375 -0.4255
vn 0.6156 -0.3362 0.7128
vn 0.7399 -0.1855 -0.6467
vn -0.7443 0.0906 -0.6616
vn -0.6378 0.1511 0.7553
vn -0.6226 -0.0724 0.7792
vn -0.7051 -0.1051 -0.7013
vn -0.6840 -0.3009 0.6645
vn 0.7247 0.2768 -0.6310
vn -0.6999 0.3159 -0.6405
vn -0.7394 0.0432 -0.6719
vn -0.6959 0.0989 0.7113
vn -0.7180 -0.1050 0.6881
vn 0.7180 -0.1050 0.6881
vn -0.2764 0.7190 -0.6377
vn 0.7042 0.7071 -0.0637
vn -0.0290 0.9941 -0.1046
vn 0.0025 -0.9975 0.0703
vn 0.0022 -0.9975 0.0706
vn 0.0031 -0.9975 0.0707
vn -0.7562 0.6497 -0.0778
vn 0.4940 0.6984 -0.5178
vn -0.6993 0.5437 0.4641
vn -0.0770 -0.9940 0.0780
vn 0.7783 0.3855 0.4956
vn 0.0663 -0.9939 0.0885
vn 0.0695 -0.9940 0.0842
vn 0.0672 -0.9955 0.0666
vn 0.0684 -0.9953 0.0679
vn -0.0000 0.1247 -0.9922
vn 0.8731 0.4751 -0.1091
vn 0.3326 0.7744 -0.5381
vn 0.6891 0.6015 -0.4041
vn 0.4991 0.8592 -0.1122
vn -0.2974 0.9498 -0.0976
vn -0.6600 0.3938 0.6398
vn -0.7055 0.6358 -0.3131
vn 0.1734 0.7372 0.6530
vn 0.1483 0.7272 0.6702
vn 0.9100 0.3715 0.1843
vn -0.5574 0.6265 0.5448
vn -0.7919 0.3669 0.4881
vn -0.7783 0.3855 0.4956
vn 0.7626 0.6425 -0.0755
vn 0.0070 0.9522 -0.3053
vn 0.0087 0.9937 -0.1113
vn 0.3145 0.8762 -0.3653
vn 0.4450 0.6081 -0.6574
vn -0.5386 0.4982 -0.6795
vn 0.8202 0.4551 0.3466
vn -0.0085 0.8397 -0.5431
vn -0.7459 0.6310 -0.2132
vn 0.7520 0.6211 -0.2206
vn 0.0679 0.9645 -0.2554
vn -0.3834 0.7436 -0.5478
vn -0.5442 0.6151 0.5705
vn -0.1853 0.9797 -0.0768
vn 0.2392 0.6272 -0.7412
vn -0.4699 0.8095 -0.3519
vn -0.3682 0.9167 -0.1551
vn -0.6523 0.5188 0.5526
vn 0.4872 0.7488 0.4494
vn 0.9564 0.2702 0.1106
vn -0.5735 0.6484 0.5007
vn 0.6841 0.5683 0.4572
vn 0.1510 0.9875 -0.0442
vn -0.6989 0.4467 0.5586
vn -0.7180 -0.3782 0.5844
vn -0.3341 -0.6952 0.6365
vn -0.9811 0.1886 -0.0429
vn -0.7118 -0.4127 0.5683
vn -0.4038 -0.5676 0.7174
vn 0.1265 0.9883 -0.0847
vn -0.5540 0.6159 -0.5601
vn 0.4991 -0.6421 0.5818
vn 0.6550 -0.7063 -0.2687
vn 0.6068 -0.6131 0.5059
vn -0.5482 0.7898 -0.2751
vn -0.8358 0.4407 -0.3275
vn -0.6470 0.5064 -0.5700
vn -0.4289 -0.6565 0.6206
vn -0.7111 0.6783 -0.1851
vn -0.7909 -0.0134 0.6118
vn -0.6235 -0.2637 0.7360
vn -0.9287 0.3686 0.0398
vn -0.8890 0.1622 -0.4283
vn -0.8506 0.2660 -0.4536
vn -0.7886 0.4686 0.3981
vn -0.6622 0.7440 -0.0893
vn -0.8231 0.0546 0.5652
vn -0.7075 0.2213 -0.6711
vn -0.8231 0.3567 -0.4419
vn -0.5241 -0.5349 0.6627
vn 0.1495 -0.9151 0.3744
vn -0.6604 -0.3247 0.6770
vn -0.5409 -0.5190 -0.6618
vn -0.5592 0.8286 0.0271
vn -0.7894 0.5087 0.3437
vn -0.9220 -0.1473 -0.3582
vn -0.4444 -0.7123 -0.5433
vn -0.9913 0.1314 0.0093
vn -0.8762 -0.0942 -0.4727
vn -0.8837 0.0664 -0.4633
vn -0.5629 0.0419 -0.8254
vn -0.7377 0.4459 0.5070
vn -0.6683 0.6594 0.3445
vn -0.5480 -0.1131 -0.8288
vn -0.5933 -0.1307 0.7943
vn -0.8299 0.2690 -0.4887
vn -0.5656 0.1667 -0.8077
vn -0.5590 0.0848 -0.8248
vn -0.5851 0.1113 -0.8033
vn -0.2181 -0.6185 0.7549
vn -0.6771 -0.5751 0.4590
vn -0.8519 -0.4794 0.2108
vn 0.0199 -0.7255 -0.6880
vn -0.8326 -0.4387 -0.3382
vn -0.6368 -0.6315 -0.4424
vn 0.5377 -0.7474 -0.3902
vn 0.1380 -0.9363 -0.3229
vn -0.8611 0.0891 -0.5005
vn -0.8804 0.4740 -0.0162
vn -0.5772 -0.1900 -0.7942
vn -0.5414 0.8290 0.1401
vn -0.0000 0.0038 -1.0000
vn -0.0000 0.0352 -0.9994
vn -0.8315 0.5202 -0.1950
vn -0.8732 0.2375 -0.4255
vn -0.8429 -0.4830 -0.2370
vn -0.8838 0.3194 -0.3419
vn -0.9067 -0.2316 -0.3526
vn -0.4469 -0.8243 -0.3475
vn -0.9338 -0.1144 -0.3391
vn -0.8821 0.2640 -0.3902
vn -0.1018 -0.9592 -0.2637
vn -0.1392 -0.9543 -0.2644
vn -0.1384 -0.9556 -0.2600
vn 0.0271 -0.9961 0.0840
vn -0.0297 -0.9984 -0.0486
vn 0.0612 -0.9946 0.0841
vn -0.0034 -0.9975 0.0703
vn -0.0031 -0.9975 0.0707
vn -0.7365 -0.5457 -0.3997
vn -0.9208 -0.3423 0.1868
vn -0.2394 -0.6561 0.7157
vn -0.9726 0.0293 0.2307
vn -0.8084 0.5434 0.2260
vn -0.9863 -0.0618 -0.1527
vn -0.5769 0.7644 -0.2881
vn -0.9753 0.1930 0.1071
vn -0.5096 0.7325 -0.4515
vn 0.0757 -0.9939 0.0801
vn 0.0771 -0.9940 0.0780
vn 0.9186 0.3368 0.2070
vn -0.8254 0.3023 0.4768
vn -0.8254 0.2895 0.4846
vn -0.9969 0.0771 0.0142
vn -0.8731 0.4751 -0.1091
vn -0.7447 0.6636 -0.0707
vn -0.9735 0.2212 0.0581
vn -0.7907 0.3151 0.5250
vn 0.6979 0.1132 -0.7072
vn -0.7910 0.0450 -0.6101
vn 0.7387 0.3356 0.5846
vn 0.7255 -0.0686 0.6848
vn -0.9790 0.1334 0.1543
vn -0.6981 -0.4018 0.5926
vn -0.0362 -0.9987 0.0355
vn -0.0351 -0.9988 0.0345
vn -0.0365 -0.9993 -0.0107
vn -0.0296 -0.9953 0.0923
vn -0.0008 -0.9991 0.0420
vn -0.0011 -0.9991 0.0430
vn -0.0356 -0.9814 -0.1887
vn -0.1038 -0.9584 -0.2660
vn 0.0493 -0.9979 0.0431
vn 0.0482 -0.9980 0.0421
vn -0.9929 0.1167 -0.0211
vn -0.8403 0.5379 0.0675
vn -0.6156 -0.3362 0.7128
vn 0.6378 0.1510 0.7553
vn 0.6225 -0.0724 0.7792
vn 0.7051 -0.1051 -0.7013
vn 0.7443 0.0906 -0.6616
vn -0.7247 0.2768 -0.6310
vn -0.7399 -0.1855 -0.6467
vn 0.6840 -0.3009 0.6645
vn 0.6999 0.3159 -0.6405
vn -0.7042 0.7071 -0.0637
vn 0.0290 0.9941 -0.1046
vn -0.0025 -0.9975 0.0703
vn -0.0022 -0.9975 0.0706
vn 0.7562 0.6497 -0.0778
vn -0.4940 0.6984 -0.5178
vn 0.6993 0.5437 0.4641
vn 0.2764 0.7190 -0.6377
vn -0.0663 -0.9939 0.0885
vn -0.0672 -0.9955 0.0666
vn -0.0695 -0.9940 0.0842
vn -0.0684 -0.9953 0.0679
vn -0.8495 0.5147 0.1164
vn -0.5557 0.7803 0.2869
vn 0.5204 0.7237 -0.4533
vn -0.0000 0.8424 -0.5388
vn -0.0000 -0.4420 0.8970
vn -0.1618 -0.4362 0.8852
vn -0.0056 0.9450 -0.3270
vn -0.1235 0.9393 -0.3200
vn -0.0015 0.9450 -0.3271
vn -0.0144 -0.6081 0.7937
vn -0.0000 0.9989 -0.0468
vn 0.3059 0.9510 -0.0445
vn -0.0000 0.8719 -0.4896
vn -0.0000 -0.5902 0.8073
vn -0.0000 0.8910 -0.4540
vn 0.1124 0.9375 -0.3293
vn 0.1618 -0.4362 0.8852
vn -0.3059 0.9510 -0.0445
vn 0.8837 0.0664 -0.4633
vn 0.6733 -0.1298 0.7279
vn -0.6777 -0.0499 0.7336
vn 0.6959 0.0989 0.7113
vn -0.7203 0.0904 -0.6878
vn 0.7506 0.0518 -0.6588
vn 0.6777 -0.0499 0.7336
vn -0.6733 -0.1298 0.7279
vn 0.7203 0.0904 -0.6878
vn -0.7506 0.0518 -0.6588
vn 0.7394 0.0432 -0.6719
vn 0.7393 0.6494 0.1779
vn -0.2830 0.8448 0.4541
vn -0.2926 0.9035 0.3132
vn 0.8234 0.3070 0.4773
vn 0.1818 0.1894 0.9649
vn 0.2882 -0.4783 0.8296
vn 0.6212 -0.5649 -0.5431
vn 0.9112 0.3183 -0.2617
vn 0.9599 0.2526 -0.1218
vn -0.7020 0.4921 -0.5148
vn 0.4534 0.7083 -0.5410
vn -0.1601 0.2046 -0.9657
vn 0.6669 -0.7002 -0.2549
vn 0.6945 0.6315 0.3448
vn -0.0476 0.6358 0.7704
vn 0.9138 0.2893 0.2851
vn 0.7263 -0.6855 -0.0507
vn 0.9646 0.2525 0.0755
vn 0.7830 0.5833 0.2161
vn 0.2880 0.8657 0.4093
vn 0.7139 0.6143 0.3361
vn 0.8846 0.3642 -0.2913
vn 0.3503 -0.3781 -0.8569
vn 0.1702 -0.0337 -0.9848
vn 0.4894 0.8693 0.0696
vn 0.8797 0.4307 -0.2018
vn -0.2317 0.9210 0.3132
vn 0.7162 0.6551 0.2404
vn 0.7096 0.6764 0.1975
vn -0.1747 0.8828 0.4360
vn -0.5306 0.8026 -0.2726
vn -0.6965 0.7175 0.0134
vn -0.6914 0.5974 0.4063
vn 0.2669 0.8548 0.4450
vn 0.7475 0.6361 0.1914
vn 0.7418 0.6063 0.2867
vn 0.7244 -0.6187 0.3039
vn -0.9123 -0.3945 -0.1099
vn -0.7370 -0.6513 -0.1807
vn -0.9621 -0.2647 -0.0652
vn -0.8229 -0.3068 -0.4782
vn -0.7480 -0.6355 0.1914
vn -0.8855 -0.3083 0.3475
vn -0.9109 -0.3180 0.2628
vn -0.6772 -0.7194 -0.1546
vn -0.9600 -0.2512 0.1235
vn -0.6368 -0.7498 0.1793
vn -0.9440 -0.3281 -0.0337
vn -0.4392 -0.7113 0.5489
vn -0.6983 -0.7006 -0.1467
vn -0.6924 -0.6343 -0.3439
vn -0.9198 -0.2309 0.3172
vn -0.6469 -0.7597 -0.0659
vn -0.9140 -0.2884 -0.2852
vn -0.9652 -0.2508 -0.0744
vn -0.2853 -0.8666 -0.4094
vn -0.7798 -0.5828 -0.2285
vn -0.7157 -0.6122 -0.3360
vn -0.8854 -0.3639 0.2894
vn -0.7702 -0.5864 -0.2510
vn -0.8815 -0.4284 0.1986
vn -0.4940 -0.8656 -0.0819
vn -0.9694 -0.2453 0.0096
vn -0.7141 -0.6574 -0.2406
vn -0.9722 -0.1632 0.1676
vn -0.6906 -0.6821 -0.2404
vn -0.7969 -0.5005 -0.3382
vn -0.7191 -0.6777 -0.1539
vn -0.2709 -0.8564 -0.4396
vn -0.7439 -0.6385 -0.1973
vn -0.7078 -0.6777 -0.1991
vn -0.5513 -0.8337 -0.0313
vn -0.7406 -0.6062 -0.2897
vn -0.8996 -0.3865 -0.2034
vn 0.2830 0.8448 0.4541
vn -0.7393 0.6494 0.1779
vn 0.2926 0.9035 0.3132
vn -0.8234 0.3070 0.4773
vn -0.2882 -0.4782 0.8296
vn -0.1818 0.1894 0.9649
vn -0.9112 0.3183 -0.2617
vn -0.6212 -0.5650 -0.5430
vn -0.9599 0.2526 -0.1218
vn 0.7020 0.4921 -0.5148
vn 0.1601 0.2046 -0.9657
vn -0.4534 0.7083 -0.5410
vn -0.6669 -0.7002 -0.2549
vn -0.6945 0.6315 0.3448
vn 0.0476 0.6358 0.7704
vn -0.7263 -0.6855 -0.0507
vn -0.9138 0.2893 0.2851
vn -0.9646 0.2525 0.0755
vn -0.2880 0.8657 0.4093
vn -0.7830 0.5833 0.2161
vn -0.7139 0.6143 0.3361
vn -0.8846 0.3642 -0.2913
vn -0.3503 -0.3782 -0.8569
vn -0.8797 0.4307 -0.2018
vn -0.4894 0.8693 0.0696
vn 0.2317 0.9210 0.3132
vn -0.7162 0.6551 0.2404
vn 0.1747 0.8828 0.4361
vn 0.5306 0.8026 -0.2726
vn 0.6965 0.7175 0.0134
vn 0.6914 0.5974 0.4063
vn -0.2669 0.8548 0.4450
vn -0.7475 0.6361 0.1914
vn -0.7096 0.6764 0.1975
vn -0.7244 -0.6187 0.3039
vn -0.7418 0.6063 0.2867
vn -0.1702 -0.0337 -0.9848
vn 0.7370 -0.6513 -0.1807
vn 0.9123 -0.3945 -0.1099
vn 0.9621 -0.2647 -0.0652
vn 0.8229 -0.3068 -0.4782
vn 0.8855 -0.3084 0.3475
vn 0.7480 -0.6355 0.1914
vn 0.6772 -0.7194 -0.1546
vn 0.9109 -0.3180 0.2628
vn 0.9600 -0.2512 0.1235
vn 0.6369 -0.7498 0.1794
vn 0.4392 -0.7113 0.5489
vn 0.9440 -0.3281 -0.0337
vn 0.6983 -0.7006 -0.1467
vn 0.6924 -0.6343 -0.3439
vn 0.9198 -0.2309 0.3172
vn 0.9140 -0.2884 -0.2852
vn 0.6469 -0.7597 -0.0659
vn 0.9652 -0.2508 -0.0744
vn 0.7798 -0.5828 -0.2285
vn 0.2853 -0.8666 -0.4094
vn 0.7157 -0.6122 -0.3360
vn 0.8854 -0.3639 0.2894
vn 0.7702 -0.5864 -0.2509
vn 0.8996 -0.3865 -0.2034
vn 0.4940 -0.8656 -0.0819
vn 0.8815 -0.4284 0.1986
vn 0.9694 -0.2453 0.0096
vn 0.7141 -0.6574 -0.2406
vn 0.7078 -0.6777 -0.1991
vn 0.9722 -0.1632 0.1676
vn 0.6906 -0.6821 -0.2404
vn 0.7969 -0.5005 -0.3382
vn 0.7191 -0.6777 -0.1539
vn 0.2709 -0.8564 -0.4396
vn 0.7439 -0.6385 -0.1973
vn 0.7406 -0.6063 -0.2897
vn 0.5513 -0.8337 -0.0313
vn -0.1683 -0.6630 0.7294
vn -0.0078 -0.6083 0.7936
vt 0.667470 0.337550
vt 0.667470 0.337371
vt 0.667470 0.337236
vt 0.667470 0.339014
vt 0.667470 0.338660
vt 0.667470 0.338379
vt 0.667470 0.340475
vt 0.667470 0.340502
vt 0.667470 0.340269
vt 0.667470 0.337722
vt 0.667470 0.338241
vt 0.667470 0.337519
vt 0.667470 0.338743
vt 0.667470 0.339152
vt 0.667470 0.337614
vt 0.667470 0.337466
vt 0.667470 0.337695
vt 0.667470 0.342057
vt 0.667470 0.342185
vt 0.667470 0.342314
vt 0.667470 0.339931
vt 0.667470 0.339937
vt 0.667470 0.340245
vt 0.667470 0.339490
vt 0.667470 0.337613
vt 0.667470 0.338213
vt 0.667470 0.337927
vt 0.667470 0.337589
vt 0.667470 0.336989
vt 0.667470 0.336959
vt 0.667470 0.338273
vt 0.667470 0.338732
vt 0.667470 0.338992
vt 0.667470 0.338161
vt 0.667470 0.337716
vt 0.667470 0.338994
vt 0.667470 0.339173
vt 0.667470 0.337372
vt 0.667470 0.337267
vt 0.667470 0.337113
vt 0.667470 0.339332
vt 0.667470 0.339231
vt 0.667470 0.339466
vt 0.667470 0.337757
vt 0.667470 0.337925
vt 0.667470 0.340699
vt 0.667470 0.340719
vt 0.667470 0.338757
vt 0.667470 0.341292
vt 0.667470 0.341375
vt 0.667470 0.341645
vt 0.667470 0.337917
vt 0.667470 0.337719
vt 0.823612 0.131302
vt 0.823869 0.130622
vt 0.823846 0.130779
vt 0.825118 0.127586
vt 0.824823 0.128201
vt 0.824810 0.128123
vt 0.823653 0.131897
vt 0.823720 0.132128
vt 0.823935 0.131180
vt 0.823481 0.131987
vt 0.823484 0.132133
vt 0.823255 0.132623
vt 0.823573 0.131624
vt 0.823387 0.132130
vt 0.823431 0.131757
vt 0.667470 0.337911
vt 0.667470 0.337252
vt 0.825252 0.127183
vt 0.825137 0.127562
vt 0.825219 0.127555
vt 0.009127 0.739253
vt 0.009127 0.739245
vt 0.009127 0.739153
vt 0.823412 0.132502
vt 0.823234 0.132785
vt 0.823437 0.132342
vt 0.823342 0.132781
vt 0.823556 0.132471
vt 0.824483 0.129454
vt 0.824417 0.129294
vt 0.824215 0.132574
vt 0.824205 0.133004
vt 0.824076 0.133205
vt 0.824166 0.130592
vt 0.824035 0.131172
vt 0.824253 0.129979
vt 0.718039 0.347516
vt 0.718039 0.348002
vt 0.718039 0.347793
vt 0.825067 0.127778
vt 0.824892 0.128123
vt 0.824272 0.129648
vt 0.825217 0.128305
vt 0.825040 0.129503
vt 0.825161 0.128418
vt 0.823711 0.134970
vt 0.823670 0.134867
vt 0.823731 0.134868
vt 0.824858 0.129772
vt 0.824001 0.133602
vt 0.823983 0.133908
vt 0.823927 0.134000
vt 0.824159 0.133342
vt 0.824268 0.132913
vt 0.824116 0.132654
vt 0.824113 0.132252
vt 0.824264 0.131893
vt 0.824004 0.134028
vt 0.824050 0.133772
vt 0.824070 0.133733
vt 0.667470 0.338627
vt 0.667470 0.338869
vt 0.824570 0.131544
vt 0.824456 0.132218
vt 0.824382 0.132322
vt 0.825089 0.127636
vt 0.825256 0.127186
vt 0.825107 0.127709
vt 0.825076 0.128387
vt 0.825236 0.127643
vt 0.825288 0.127207
vt 0.825286 0.127207
vt 0.825165 0.127849
vt 0.824736 0.130740
vt 0.824498 0.131052
vt 0.824861 0.130579
vt 0.824111 0.131743
vt 0.824174 0.131139
vt 0.824271 0.131371
vt 0.825136 0.129335
vt 0.824928 0.130517
vt 0.824670 0.131412
vt 0.886678 0.559568
vt 0.886681 0.559405
vt 0.886806 0.559507
vt 0.718039 0.348359
vt 0.718039 0.348716
vt 0.718039 0.348544
vt 0.007257 0.740748
vt 0.007257 0.740747
vt 0.007152 0.741334
vt 0.007152 0.741330
vt 0.007152 0.741331
vt 0.007257 0.740749
vt 0.718039 0.348581
vt 0.718039 0.348322
vt 0.718039 0.347824
vt 0.007257 0.741382
vt 0.007257 0.741376
vt 0.007257 0.741372
vt 0.007257 0.740750
vt 0.667470 0.341954
vt 0.667470 0.342081
vt 0.667470 0.341884
vt 0.718039 0.348464
vt 0.667470 0.341793
vt 0.667470 0.341004
vt 0.667470 0.341276
vt 0.667470 0.340621
vt 0.667470 0.341029
vt 0.825182 0.127797
vt 0.824959 0.128233
vt 0.823655 0.131838
vt 0.823804 0.131465
vt 0.823959 0.131519
vt 0.824644 0.129376
vt 0.824476 0.128935
vt 0.824260 0.129542
vt 0.825197 0.127838
vt 0.824061 0.131549
vt 0.824351 0.130492
vt 0.824796 0.129488
vt 0.823783 0.131458
vt 0.823727 0.131354
vt 0.823888 0.131001
vt 0.007257 0.741367
vt 0.007257 0.741371
vt 0.823912 0.134257
vt 0.667470 0.340810
vt 0.007152 0.741338
vt 0.667470 0.340896
vt 0.667470 0.341240
vt 0.823678 0.134609
vt 0.823754 0.134405
vt 0.823780 0.134080
vt 0.823858 0.133894
vt 0.823614 0.135182
vt 0.823618 0.134980
vt 0.667470 0.339868
vt 0.667470 0.339228
vt 0.824303 0.132857
vt 0.823962 0.133384
vt 0.824044 0.132731
vt 0.823881 0.133551
vt 0.824466 0.130697
vt 0.667470 0.339063
vt 0.667470 0.339459
vt 0.667470 0.338877
vt 0.667470 0.338288
vt 0.824048 0.130227
vt 0.667470 0.340387
vt 0.667470 0.340526
vt 0.667470 0.341688
vt 0.667470 0.339799
vt 0.667470 0.339805
vt 0.667470 0.342116
vt 0.667470 0.340802
vt 0.667470 0.340616
vt 0.667470 0.340567
vt 0.823767 0.134773
vt 0.007257 0.741370
vt 0.823705 0.135108
vt 0.886803 0.559670
vt 0.886675 0.559732
vt 0.886550 0.559630
vt 0.007257 0.741375
vt 0.007152 0.741333
vt 0.007152 0.741337
vt 0.009127 0.739236
vt 0.667470 0.338886
vt 0.667470 0.338272
vt 0.667470 0.338692
vt 0.667470 0.338290
vt 0.667470 0.338826
vt 0.667470 0.338683
vt 0.667470 0.338544
vt 0.667470 0.339166
vt 0.667470 0.339062
vt 0.667470 0.339453
vt 0.667470 0.339465
vt 0.667470 0.337492
vt 0.667470 0.337767
vt 0.667470 0.339134
vt 0.667470 0.338915
vt 0.667470 0.340213
vt 0.667470 0.340602
vt 0.667470 0.338335
vt 0.667470 0.336824
vt 0.667470 0.337641
vt 0.667470 0.337038
vt 0.667470 0.341915
vt 0.667470 0.341039
vt 0.667470 0.340962
vt 0.667470 0.338079
vt 0.667470 0.340885
vt 0.667470 0.340741
vt 0.824494 0.132170
vt 0.824417 0.131760
vt 0.823398 0.132110
vt 0.009127 0.739298
vt 0.824094 0.133456
vt 0.667470 0.338218
vt 0.824722 0.131356
vt 0.824187 0.133295
vt 0.886553 0.559466
vt 0.823654 0.131729
vt 0.667470 0.338274
vt 0.823637 0.131817
vt 0.823425 0.132110
vt 0.823321 0.132260
vt 0.823512 0.131750
vt 0.823758 0.131560
vt 0.824069 0.130081
vt 0.667470 0.339043
vt 0.667470 0.338876
vt 0.667470 0.338668
vt 0.824391 0.130918
vt 0.824229 0.131524
vt 0.824213 0.131325
vt 0.824390 0.130039
vt 0.824285 0.130169
vt 0.824502 0.129408
vt 0.824907 0.129628
vt 0.824612 0.130708
vt 0.824650 0.130323
vt 0.824382 0.131934
vt 0.824331 0.132085
vt 0.824470 0.131724
vt 0.824889 0.129278
vt 0.824258 0.130613
vt 0.824171 0.130742
vt 0.824500 0.129942
vt 0.824825 0.129131
vt 0.824596 0.130024
vt 0.824337 0.131767
vt 0.824236 0.131835
vt 0.824332 0.131542
vt 0.824530 0.131133
vt 0.824864 0.130146
vt 0.824684 0.130932
vt 0.824280 0.132086
vt 0.824415 0.131565
vt 0.824189 0.131199
vt 0.824318 0.130601
vt 0.824356 0.130763
vt 0.824147 0.131041
vt 0.824300 0.132104
vt 0.824247 0.132110
vt 0.824241 0.131815
vt 0.824233 0.131680
vt 0.824381 0.131198
vt 0.824356 0.131370
vt 0.824719 0.129115
vt 0.824264 0.131420
vt 0.824416 0.130833
vt 0.824246 0.131219
vt 0.824409 0.130001
vt 0.824516 0.129396
vt 0.824306 0.130124
vt 0.824618 0.130665
vt 0.824904 0.129619
vt 0.824657 0.130289
vt 0.824402 0.131821
vt 0.824472 0.131666
vt 0.824346 0.131990
vt 0.824887 0.129279
vt 0.824286 0.130532
vt 0.824200 0.130657
vt 0.824827 0.129125
vt 0.824515 0.129905
vt 0.824606 0.129992
vt 0.824273 0.131723
vt 0.824361 0.131692
vt 0.824359 0.131463
vt 0.824538 0.131084
vt 0.824862 0.130123
vt 0.824426 0.131507
vt 0.824311 0.131972
vt 0.824221 0.131092
vt 0.824344 0.130516
vt 0.824178 0.130938
vt 0.824334 0.131973
vt 0.824285 0.131985
vt 0.824279 0.131698
vt 0.824270 0.131570
vt 0.824406 0.131116
vt 0.824383 0.130675
vt 0.824727 0.129104
vt 0.824382 0.131292
vt 0.824683 0.130895
vt 0.667470 0.338181
vt 0.667470 0.339056
s 1
usemtl material.001
f 86/1/1 96/2/2 92/3/3
f 94/4/4 93/5/5 90/6/6
f 25/7/7 27/8/8 40/9/9
f 125/10/10 88/11/11 90/12/6
f 110/13/12 29/14/13 30/14/14
f 35/15/15 34/16/16 39/17/17
f 36/18/18 35/19/15 39/20/17
f 29/21/13 28/22/19 38/23/20
f 30/14/14 29/14/13 38/24/20
f 92/25/3 95/26/21 86/27/1
f 95/28/21 92/29/3 93/30/5
f 93/31/5 87/32/22 95/33/21
f 87/34/22 93/31/5 94/35/4
f 94/4/4 122/36/23 121/37/24
f 32/38/25 31/39/26 37/40/27
f 31/41/26 33/42/28 37/43/27
f 123/44/29 25/45/7 125/10/10
f 124/46/30 25/7/7 123/47/29
f 88/11/11 89/48/31 94/4/4
f 94/4/4 90/6/6 88/11/11
f 119/49/32 96/50/2 114/51/33
f 26/52/34 25/45/7 40/53/9
f 204/54/35 299/55/36 296/56/37
f 56/57/38 18/58/39 154/59/40
f 201/60/41 158/61/42 238/62/43
f 43/63/44 44/64/45 46/65/46
f 45/66/47 43/63/44 47/67/48
f 204/54/35 45/66/47 207/68/49
f 34/16/16 115/69/50 117/70/51
f 81/71/52 132/72/53 131/73/54
f 97/74/55 8/75/56 143/76/57
f 42/77/58 160/78/59 159/79/60
f 161/80/61 160/78/62 42/77/63
f 162/81/64 161/80/61 42/77/63
f 42/77/63 41/60/65 162/81/64
f 41/60/65 158/61/42 162/81/64
f 78/82/66 19/83/67 18/58/39
f 63/84/68 140/85/69 139/86/70
f 76/87/71 135/88/72 84/62/73
f 84/62/73 83/89/74 76/87/71
f 141/90/75 4/91/76 1/92/77
f 18/58/39 17/93/78 24/94/79
f 75/95/80 19/83/67 83/89/74
f 213/96/81 73/97/82 74/98/83
f 99/99/84 9/100/85 102/101/86
f 72/102/87 74/98/83 73/97/82
f 315/103/88 60/104/89 12/105/90
f 313/106/91 140/85/69 136/107/92
f 65/108/93 53/109/94 49/110/95
f 50/111/96 62/112/97 211/113/98
f 104/114/99 93/31/5 107/115/100
f 68/116/101 66/117/102 64/118/103
f 136/107/92 64/118/103 66/117/102
f 17/93/78 129/119/104 24/94/79
f 79/120/105 128/121/106 129/119/104
f 23/122/107 130/123/108 74/98/83
f 80/124/109 82/125/110 130/123/108
f 16/126/111 130/123/108 131/73/54
f 70/127/112 14/128/113 72/102/87
f 69/129/114 68/116/101 70/127/112
f 56/57/38 16/126/111 17/93/78
f 59/130/115 134/131/116 48/132/117
f 54/133/118 69/129/114 73/97/82
f 52/134/119 71/135/120 69/129/114
f 313/106/91 211/113/98 62/112/97
f 103/136/121 98/137/122 97/138/55
f 6/139/123 146/140/124 145/141/125
f 3/142/126 141/142/75 147/142/127
f 147/142/127 11/142/128 3/142/126
f 149/142/129 11/142/128 150/142/130
f 149/142/129 153/143/131 11/142/128
f 11/142/128 153/143/131 151/143/132
f 11/144/128 151/145/132 8/146/56
f 151/143/132 152/143/133 8/143/56
f 8/143/56 152/143/133 143/143/57
f 5/147/134 13/147/135 10/147/136
f 10/148/136 6/139/123 5/149/134
f 5/149/134 6/139/123 4/91/76
f 4/91/76 3/150/126 5/149/134
f 13/151/135 5/152/134 7/153/137
f 13/147/135 50/154/96 10/147/136
f 10/147/136 50/154/96 146/147/124
f 126/155/138 27/156/139 124/157/140
f 6/139/123 145/141/125 142/158/141
f 6/139/123 142/158/141 4/91/76
f 4/91/76 142/158/141 1/92/77
f 88/159/142 87/160/143 89/161/144
f 111/162/145 87/160/143 86/163/146
f 127/164/147 22/165/148 128/121/106
f 42/77/58 157/166/149 41/60/150
f 41/60/150 2/167/151 84/62/152
f 135/88/72 58/168/153 158/61/42
f 24/94/79 21/169/154 78/82/66
f 154/59/40 19/83/67 155/170/155
f 155/170/155 75/95/80 57/171/156
f 83/89/74 78/82/66 76/87/71
f 213/96/81 16/126/111 55/172/157
f 156/173/158 135/88/72 134/131/116
f 20/174/159 78/82/66 21/169/154
f 21/169/154 23/122/107 77/175/160
f 306/176/161 297/177/162 305/178/163
f 11/179/128 5/152/134 3/180/126
f 13/181/135 62/112/97 50/111/96
f 120/182/164 89/161/144 87/160/143
f 7/183/137 11/144/128 8/146/56
f 85/184/165 92/185/3 96/50/2
f 9/100/85 210/186/166 61/187/167
f 318/188/168 61/187/167 210/186/166
f 61/187/167 13/181/135 9/100/85
f 314/189/169 12/105/90 61/187/167
f 49/110/95 63/84/68 65/108/93
f 9/100/85 144/190/170 148/191/171
f 113/192/172 29/21/13 108/193/173
f 66/117/102 137/194/174 136/107/92
f 73/97/82 70/127/112 72/102/87
f 13/181/135 12/105/90 60/104/89
f 65/108/93 139/86/70 138/195/175
f 212/196/176 138/195/175 290/197/177
f 20/174/159 77/175/160 15/198/178
f 106/199/179 93/43/5 92/200/3
f 106/199/179 91/43/180 105/201/181
f 91/202/180 104/114/99 105/201/181
f 305/178/163 296/56/37 304/203/182
f 34/204/183 36/205/184 39/9/185
f 131/73/54 17/93/78 16/126/111
f 80/124/109 128/121/106 79/120/105
f 85/206/186 86/163/146 87/160/143
f 28/207/187 30/208/188 38/24/185
f 27/156/139 26/209/189 40/20/190
f 33/210/191 32/211/192 37/212/193
f 101/213/194 9/100/85 13/181/135
f 100/214/195 13/151/135 7/153/137
f 99/99/84 143/215/57 144/190/170
f 150/142/130 11/142/128 147/142/127
f 103/136/121 99/216/84 102/217/86
f 101/218/194 103/136/121 102/217/86
f 101/213/194 102/101/86 9/100/85
f 100/214/195 101/219/194 13/151/135
f 98/220/122 100/221/195 7/183/137
f 99/222/84 97/74/55 143/76/57
f 323/223/196 107/115/100 333/115/197
f 82/224/198 326/225/199 81/226/200
f 330/227/201 105/201/181 327/201/202
f 82/224/198 332/228/203 329/229/204
f 330/227/201 107/115/100 106/199/179
f 234/43/205 335/230/206 233/43/207
f 326/231/199 79/232/208 81/233/200
f 105/201/181 323/223/196 327/201/202
f 121/234/24 32/38/25 120/235/209
f 95/33/21 112/236/210 109/237/211
f 109/237/211 113/192/172 108/193/173
f 30/208/188 113/192/212 110/238/213
f 110/238/213 112/239/214 111/162/145
f 95/26/21 111/240/215 86/27/1
f 109/237/211 110/13/12 111/240/215
f 86/241/1 114/242/33 96/2/2
f 117/70/51 114/242/33 116/243/216
f 36/18/18 115/244/50 35/19/15
f 118/49/217 114/51/33 115/244/50
f 94/35/4 120/235/209 87/34/22
f 32/211/192 122/245/218 120/182/164
f 121/37/24 33/42/28 31/41/26
f 88/159/142 124/157/140 85/206/186
f 85/184/165 123/47/29 91/246/180
f 123/44/29 90/12/6 91/28/180
f 25/45/7 126/247/219 125/10/10
f 86/163/146 119/49/220 116/248/221
f 36/205/184 117/249/222 118/49/223
f 116/248/221 118/49/223 117/249/222
f 130/123/108 127/164/147 80/124/109
f 129/119/104 132/72/53 81/71/52
f 129/119/104 81/71/52 79/120/105
f 131/73/54 130/123/108 82/125/110
f 129/119/104 22/165/148 24/94/79
f 77/175/160 74/98/83 72/102/87
f 72/102/87 15/198/178 77/175/160
f 48/132/117 20/174/159 15/198/178
f 14/128/113 48/132/117 15/198/178
f 48/132/117 53/109/94 59/130/115
f 71/135/120 51/250/224 66/117/102
f 134/131/116 76/87/71 20/174/159
f 64/118/103 67/251/225 68/116/101
f 49/110/95 14/128/113 67/251/225
f 70/127/112 67/251/225 14/128/113
f 24/94/79 78/82/66 18/58/39
f 82/125/110 81/71/52 131/73/54
f 240/1/226 246/3/227 250/2/228
f 248/4/229 244/6/230 247/5/231
f 185/7/232 200/9/233 187/8/234
f 279/10/235 242/11/236 280/247/237
f 264/13/238 189/14/239 262/193/240
f 195/15/241 199/17/242 194/16/243
f 196/18/244 199/20/242 195/19/241
f 189/21/239 198/23/245 188/22/246
f 190/14/247 198/24/245 189/14/239
f 246/25/227 240/27/226 249/26/248
f 249/28/248 247/30/231 246/29/227
f 247/31/231 249/33/248 241/32/249
f 241/34/249 248/35/229 247/31/231
f 276/36/250 248/4/229 275/37/251
f 192/38/252 197/40/253 191/39/254
f 191/41/254 197/43/253 193/42/255
f 277/44/256 279/10/235 185/45/232
f 185/7/232 278/46/257 277/47/256
f 242/11/236 248/4/229 243/48/258
f 248/4/229 242/11/236 244/6/230
f 250/50/228 273/49/259 268/51/260
f 186/52/261 200/53/233 185/45/232
f 204/54/35 294/56/262 299/55/36
f 178/58/263 56/57/38 154/59/40
f 41/60/65 84/62/73 158/61/42
f 203/63/264 46/65/46 44/64/45
f 205/66/265 206/252/266 203/63/264
f 204/54/35 207/68/49 205/66/265
f 269/69/267 194/16/243 271/70/268
f 235/71/269 285/73/270 286/72/271
f 251/74/272 168/75/273 252/253/274
f 202/77/275 159/79/60 160/78/59
f 161/80/61 202/77/276 160/78/62
f 162/81/64 202/77/276 161/80/61
f 202/77/276 162/81/64 201/60/41
f 201/60/41 162/81/64 158/61/42
f 232/82/277 178/58/263 179/83/278
f 217/84/279 293/85/280 218/118/281
f 230/87/282 238/62/43 288/88/283
f 238/62/43 230/87/282 237/89/284
f 141/90/75 164/91/285 163/150/286
f 178/58/263 184/94/287 177/93/288
f 229/95/289 237/89/284 179/83/278
f 213/96/81 227/97/290 54/133/118
f 253/99/291 169/100/292 144/190/170
f 226/102/293 227/97/290 228/98/294
f 320/103/295 214/104/296 321/254/297
f 317/106/298 293/85/280 321/254/297
f 53/109/94 219/108/299 209/110/300
f 50/111/96 211/113/98 216/112/301
f 258/114/302 247/31/231 244/255/230
f 222/116/303 220/117/304 225/135/305
f 289/107/306 218/118/281 293/85/280
f 283/119/307 177/93/288 184/94/287
f 233/120/308 283/119/307 282/121/309
f 284/123/310 183/122/311 228/98/294
f 234/124/312 284/123/310 236/125/313
f 176/126/314 284/123/310 228/98/294
f 224/127/315 226/102/293 174/128/316
f 222/116/303 223/129/317 224/127/315
f 56/57/38 176/126/314 55/172/157
f 59/130/115 287/131/318 156/173/158
f 54/133/118 223/129/317 52/134/119
f 52/134/119 225/135/305 133/256/319
f 317/106/298 211/113/98 322/257/320
f 257/136/321 252/137/274 254/258/322
f 146/140/124 166/139/323 145/141/125
f 163/142/286 147/142/127 141/142/75
f 147/142/127 163/142/286 171/142/324
f 149/142/129 150/142/130 171/142/324
f 149/142/129 171/142/324 153/143/131
f 171/142/324 151/143/132 153/143/131
f 171/144/324 168/146/273 151/145/132
f 151/143/132 168/143/273 152/143/133
f 168/143/273 143/143/57 152/143/133
f 165/147/325 170/147/326 173/147/327
f 170/148/326 165/149/325 166/139/323
f 165/149/325 164/91/285 166/139/323
f 164/91/285 165/149/325 163/150/286
f 173/151/327 167/153/328 165/152/325
f 173/147/327 170/147/326 50/154/96
f 170/147/326 146/147/124 50/154/96
f 187/156/329 280/155/330 278/157/331
f 166/139/323 142/158/141 145/141/125
f 166/139/323 164/91/285 142/158/141
f 164/91/285 1/92/77 142/158/141
f 241/160/332 242/159/333 243/161/334
f 265/162/335 241/160/332 266/239/336
f 281/164/337 182/165/338 183/122/311
f 202/77/275 157/166/149 159/79/60
f 201/60/339 2/167/151 157/166/149
f 158/61/42 58/168/153 288/88/283
f 181/169/340 184/94/287 232/82/277
f 154/59/40 179/83/278 178/58/263
f 229/95/289 155/170/155 57/171/156
f 237/89/284 232/82/277 179/83/278
f 213/96/81 176/126/314 228/98/294
f 156/173/158 288/88/283 58/168/153
f 180/174/341 232/82/277 230/87/282
f 183/122/311 181/169/340 231/175/342
f 307/176/343 295/177/344 302/259/345
f 165/152/325 171/179/324 163/180/286
f 173/181/327 216/112/301 214/104/296
f 274/182/346 243/161/334 276/245/347
f 168/146/273 171/144/324 167/183/328
f 246/185/227 239/184/348 250/50/228
f 210/186/166 169/100/292 215/187/349
f 318/188/168 215/187/349 319/189/350
f 215/187/349 173/181/327 172/105/351
f 319/189/350 172/105/351 320/103/295
f 209/110/300 217/84/279 221/251/352
f 169/100/292 148/191/171 144/190/170
f 189/21/239 267/192/353 262/193/240
f 220/117/304 137/194/174 51/250/224
f 227/97/290 224/127/315 223/129/317
f 173/181/327 214/104/296 172/105/351
f 219/108/299 292/86/354 217/84/279
f 212/196/176 291/195/355 219/108/299
f 180/174/341 231/175/342 181/169/340
f 260/199/356 247/43/231 261/115/357
f 260/199/356 245/43/358 246/200/227
f 258/114/302 245/202/358 259/201/359
f 294/56/262 303/178/360 301/203/361
f 194/204/362 199/9/185 196/205/363
f 285/73/270 177/93/288 286/72/271
f 234/124/312 282/121/309 281/164/337
f 239/206/364 241/160/332 240/163/365
f 188/207/366 198/24/185 190/208/367
f 187/156/329 200/20/368 186/209/369
f 193/210/370 197/212/193 192/211/371
f 255/213/372 173/181/327 169/100/292
f 254/214/322 167/153/328 173/151/327
f 253/99/291 144/190/170 143/215/57
f 150/142/130 147/142/127 171/142/324
f 253/216/291 257/136/321 256/217/373
f 255/218/372 257/136/321 254/258/322
f 255/213/372 169/100/292 256/101/373
f 254/214/322 173/151/327 255/219/372
f 252/220/274 167/183/328 254/221/322
f 253/222/291 143/76/57 251/74/272
f 336/223/374 261/115/357 258/114/302
f 233/43/207 339/231/375 235/233/376
f 341/227/377 259/201/359 260/199/356
f 236/260/378 345/228/379 234/31/205
f 341/227/377 261/115/357 344/115/380
f 336/223/374 259/201/359 338/201/381
f 236/260/378 339/225/375 342/229/382
f 275/234/251 192/38/252 191/39/254
f 249/33/248 266/236/383 241/32/249
f 263/237/384 267/192/353 266/236/383
f 190/208/367 267/192/385 188/207/366
f 264/238/386 266/239/336 267/192/385
f 265/240/387 249/26/248 240/27/226
f 264/13/238 263/237/384 265/240/387
f 240/241/226 268/242/260 270/243/388
f 268/242/260 271/70/268 270/243/388
f 269/244/267 196/18/244 195/19/241
f 268/51/260 272/49/389 269/244/267
f 248/35/229 274/235/390 275/234/251
f 192/211/371 276/245/347 193/210/370
f 193/42/255 275/37/251 191/41/254
f 278/157/331 242/159/333 239/206/364
f 277/47/256 239/184/348 245/246/358
f 244/12/230 277/44/256 245/28/358
f 185/45/232 280/247/237 186/52/261
f 240/163/365 273/49/391 239/206/364
f 196/205/363 271/249/392 194/204/362
f 270/248/393 272/49/394 273/49/391
f 284/123/310 234/124/312 281/164/337
f 283/119/307 235/71/269 286/72/271
f 283/119/307 233/120/308 235/71/269
f 285/73/270 236/125/313 284/123/310
f 283/119/307 182/165/338 282/121/309
f 228/98/294 231/175/342 226/102/293
f 226/102/293 175/198/395 174/128/316
f 208/132/396 180/174/341 287/131/318
f 174/128/316 208/132/396 209/110/300
f 208/132/396 53/109/94 209/110/300
f 225/135/305 51/250/224 133/256/319
f 287/131/318 230/87/282 288/88/283
f 221/251/352 218/118/281 222/116/303
f 209/110/300 221/251/352 174/128/316
f 221/251/352 224/127/315 174/128/316
f 184/94/287 178/58/263 232/82/277
f 236/125/313 285/73/270 235/71/269
f 298/259/397 308/261/398 44/64/45
f 46/65/399 203/63/400 309/262/399
f 309/262/401 206/252/402 310/263/403
f 311/264/404 206/252/266 205/66/265
f 207/68/405 45/66/406 311/264/405
f 302/259/345 312/265/407 307/176/343
f 298/259/397 44/64/45 43/63/44
f 304/203/182 57/171/156 75/95/80
f 44/64/45 308/261/398 302/259/345
f 301/203/361 57/171/156 300/266/408
f 294/56/262 204/54/35 205/66/265
f 307/176/343 2/167/409 238/62/43
f 295/177/344 205/66/265 203/63/264
f 297/177/162 43/63/44 45/66/47
f 296/56/37 297/177/162 45/66/47
f 299/55/36 301/203/361 300/266/408
f 299/55/36 304/203/182 296/56/37
f 301/203/361 237/89/284 229/95/289
f 238/62/43 237/89/284 303/178/360
f 83/89/74 304/203/182 75/95/80
f 84/62/73 306/176/161 305/178/163
f 297/177/162 298/259/397 43/63/44
f 302/259/345 203/63/264 44/64/45
f 47/67/48 311/264/404 45/66/47
f 47/67/410 309/262/401 310/263/403
f 43/63/411 46/65/399 309/262/399
f 205/66/412 207/68/405 311/264/405
f 312/265/407 298/259/397 306/176/161
f 2/167/409 306/176/161 84/62/73
f 84/62/73 135/88/72 158/61/42
f 238/62/43 158/61/42 288/88/283
f 295/177/344 294/56/262 205/66/265
f 204/54/35 296/56/37 45/66/47
f 98/220/122 7/183/137 8/146/56
f 252/220/274 168/146/273 167/183/328
f 83/89/74 84/62/73 305/178/163
f 307/176/343 238/62/43 303/178/360
f 291/195/355 320/103/295 292/86/354
f 290/197/177 319/189/350 291/195/355
f 289/107/306 322/257/320 137/194/174
f 216/112/301 321/254/297 214/104/296
f 292/86/354 321/254/297 293/85/280
f 138/195/175 315/103/88 314/189/169
f 290/197/177 314/189/169 318/188/168
f 136/107/92 322/257/320 313/106/91
f 62/112/97 316/254/413 313/106/91
f 139/86/70 316/254/413 315/103/88
f 327/201/202 325/267/414 328/268/415
f 328/268/415 324/230/416 326/231/199
f 327/201/202 331/269/417 330/227/201
f 328/268/415 329/229/204 331/269/417
f 333/115/197 331/269/417 334/115/418
f 334/115/418 329/229/204 332/228/203
f 333/115/197 325/267/414 323/223/196
f 334/115/418 324/230/416 325/267/414
f 335/230/206 340/268/419 339/231/375
f 337/267/420 338/201/381 340/268/419
f 342/229/382 340/268/419 343/269/421
f 343/269/421 338/201/381 341/227/377
f 342/229/382 346/115/422 345/228/379
f 343/269/421 344/115/380 346/115/422
f 335/230/206 346/115/422 337/267/420
f 337/267/420 344/115/380 336/223/374
f 324/230/416 80/43/423 79/232/208
f 374/270/424 356/271/425 357/272/426
f 379/273/427 361/274/428 362/275/429
f 354/276/430 370/277/431 375/278/432
f 368/279/433 352/280/434 349/281/435
f 375/278/432 355/282/436 354/276/430
f 361/274/428 378/283/437 360/284/438
f 376/285/439 366/286/440 364/287/441
f 372/288/442 350/289/443 373/290/444
f 383/291/445 353/292/446 381/293/447
f 351/294/448 371/295/449 352/280/434
f 365/296/450 377/297/451 359/298/452
f 378/283/437 358/299/453 360/284/438
f 367/300/454 352/280/434 368/279/433
f 348/301/455 351/294/448 367/300/454
f 347/302/456 380/303/457 350/289/443
f 373/290/444 371/295/449 372/288/442
f 377/297/451 379/273/427 376/285/439
f 369/304/458 375/278/432 370/277/431
f 364/287/441 374/270/424 359/298/452
f 380/303/457 369/304/458 382/305/459
f 376/285/439 359/298/452 377/297/451
f 357/272/426 359/298/452 374/270/424
f 364/287/441 355/282/436 375/278/432
f 379/273/427 363/306/460 376/285/439
f 352/280/434 371/295/449 349/281/435
f 383/291/445 373/290/444 382/305/459
f 348/301/455 347/302/456 350/289/443
f 369/304/458 383/291/445 382/305/459
f 380/303/457 373/290/444 350/289/443
f 371/295/449 381/293/447 349/281/435
f 393/307/461 411/308/462 394/309/463
f 416/310/464 399/311/465 398/312/466
f 407/313/467 391/314/468 412/315/469
f 405/316/470 386/317/471 389/318/472
f 412/315/469 391/314/468 392/319/473
f 415/320/474 398/312/466 397/321/475
f 403/322/476 413/323/477 401/324/478
f 387/325/479 409/326/480 410/327/481
f 420/328/482 390/329/483 407/313/467
f 408/330/484 388/331/485 389/318/472
f 402/332/486 414/333/487 395/334/488
f 415/320/474 395/334/488 414/333/487
f 404/335/489 389/318/472 388/331/485
f 385/336/490 388/331/485 387/325/479
f 384/337/491 417/338/492 393/307/461
f 410/327/481 409/326/480 408/330/484
f 416/310/464 414/333/487 413/323/477
f 406/339/493 412/315/469 411/308/462
f 401/324/478 411/308/462 412/315/469
f 417/338/492 406/339/493 393/307/461
f 413/323/477 396/340/494 401/324/478
f 394/309/463 396/340/494 402/332/486
f 392/319/473 401/324/478 412/315/469
f 400/341/495 416/310/464 413/323/477
f 389/318/472 386/317/471 408/330/484
f 410/327/481 420/328/482 419/342/496
f 385/336/490 387/325/479 384/337/491
f 419/342/496 407/313/467 406/339/493
f 410/327/481 417/338/492 387/325/479
f 408/330/484 418/343/497 420/328/482
f 368/279/433 404/335/489 367/300/454
f 367/300/454 385/336/490 348/301/455
f 368/279/433 386/317/471 405/316/470
f 347/302/456 385/336/490 384/337/491
f 347/302/456 393/307/461 356/271/425
f 356/271/425 394/309/463 357/272/426
f 381/293/447 386/317/471 349/281/435
f 353/292/446 391/314/468 390/329/483
f 355/282/436 391/314/468 354/276/430
f 355/282/436 403/322/476 392/319/473
f 362/275/429 400/341/495 363/306/460
f 362/275/429 398/312/466 399/311/465
f 360/284/438 398/312/466 361/274/428
f 360/284/438 395/334/488 397/321/475
f 365/296/450 395/334/488 358/299/453
f 357/272/426 402/332/486 365/296/450
f 366/286/440 400/341/495 403/322/476
f 381/293/447 390/329/483 418/343/497
f 430/271/498 448/270/499 431/272/500
f 453/273/501 436/275/502 435/274/503
f 444/277/504 428/276/505 449/278/506
f 442/279/507 423/281/508 426/280/509
f 449/278/506 428/276/505 429/282/510
f 452/283/511 435/274/503 434/284/512
f 440/286/513 450/285/514 438/287/515
f 424/289/516 446/288/517 447/290/518
f 457/291/519 427/292/520 444/277/504
f 445/295/521 425/294/522 426/280/509
f 439/296/523 451/297/524 432/299/525
f 452/283/511 432/299/525 451/297/524
f 441/300/526 426/280/509 425/294/522
f 422/301/527 425/294/522 424/289/516
f 421/302/528 454/303/529 430/271/498
f 447/290/518 446/288/517 445/295/521
f 453/273/501 451/297/524 450/285/514
f 443/304/530 449/278/506 448/270/499
f 438/287/515 448/270/499 449/278/506
f 454/303/529 443/304/530 430/271/498
f 450/285/514 433/298/531 438/287/515
f 431/272/500 433/298/531 439/296/523
f 429/282/510 438/287/515 449/278/506
f 437/306/532 453/273/501 450/285/514
f 426/280/509 423/281/508 445/295/521
f 447/290/518 457/291/519 456/305/533
f 422/301/527 424/289/516 421/302/528
f 443/304/530 457/291/519 444/277/504
f 447/290/518 454/303/529 424/289/516
f 445/295/521 455/293/534 457/291/519
f 485/308/535 467/307/536 468/309/537
f 490/310/538 472/312/539 473/311/540
f 465/314/541 481/313/542 486/315/543
f 479/316/544 463/318/545 460/317/546
f 486/315/543 466/319/547 465/314/541
f 472/312/539 489/320/548 471/321/549
f 487/323/550 477/322/551 475/324/552
f 483/326/553 461/325/554 484/327/555
f 494/328/556 464/329/557 492/343/558
f 462/331/559 482/330/560 463/318/545
f 476/332/561 488/333/562 470/340/563
f 489/320/548 469/334/564 471/321/549
f 478/335/565 463/318/545 479/316/544
f 459/336/566 462/331/559 478/335/565
f 458/337/567 491/338/568 461/325/554
f 484/327/555 482/330/560 483/326/553
f 488/333/562 490/310/538 487/323/550
f 480/339/569 486/315/543 481/313/542
f 475/324/552 485/308/535 470/340/563
f 491/338/568 480/339/569 493/342/570
f 487/323/550 470/340/563 488/333/562
f 468/309/537 470/340/563 485/308/535
f 475/324/552 466/319/547 486/315/543
f 490/310/538 474/341/571 487/323/550
f 463/318/545 482/330/560 460/317/546
f 494/328/556 484/327/555 493/342/570
f 459/336/566 458/337/567 461/325/554
f 481/313/542 493/342/570 480/339/569
f 491/338/568 484/327/555 461/325/554
f 482/330/560 492/343/558 460/317/546
f 478/335/565 442/279/507 441/300/526
f 459/336/566 441/300/526 422/301/527
f 442/279/507 460/317/546 423/281/508
f 421/302/528 459/336/566 422/301/527
f 467/307/536 421/302/528 430/271/498
f 468/309/537 430/271/498 431/272/500
f 460/317/546 455/293/534 423/281/508
f 427/292/520 465/314/541 428/276/505
f 465/314/541 429/282/510 428/276/505
f 429/282/510 477/322/551 440/286/513
f 474/341/571 436/275/502 437/306/532
f 436/275/502 472/312/539 435/274/503
f 472/312/539 434/284/512 435/274/503
f 434/284/512 469/334/564 432/299/525
f 469/334/564 439/296/523 432/299/525
f 476/332/561 431/272/500 439/296/523
f 440/286/513 474/341/571 437/306/532
f 455/293/534 464/329/557 427/292/520
f 125/10/10 126/247/219 88/11/11
f 110/13/12 108/193/173 29/14/13
f 94/4/4 89/48/31 122/36/23
f 124/46/30 27/8/8 25/7/7
f 119/49/32 85/184/165 96/50/2
f 56/57/38 17/93/78 18/58/39
f 34/16/16 35/344/15 115/69/50
f 97/74/55 98/253/122 8/75/56
f 63/84/68 64/118/103 140/85/69
f 141/90/75 3/150/126 4/91/76
f 213/96/81 54/133/118 73/97/82
f 99/99/84 144/190/170 9/100/85
f 315/103/88 316/254/413 60/104/89
f 313/106/91 316/254/413 140/85/69
f 65/108/93 212/196/176 53/109/94
f 104/114/99 90/255/6 93/31/5
f 68/116/101 71/135/120 66/117/102
f 136/107/92 140/85/69 64/118/103
f 17/93/78 132/72/53 129/119/104
f 23/122/107 127/164/147 130/123/108
f 16/126/111 74/98/83 130/123/108
f 69/129/114 71/135/120 68/116/101
f 56/57/38 55/172/157 16/126/111
f 59/130/115 156/173/158 134/131/116
f 54/133/118 52/134/119 69/129/114
f 52/134/119 133/256/319 71/135/120
f 313/106/91 322/257/320 211/113/98
f 103/136/121 100/258/195 98/137/122
f 6/139/123 10/148/136 146/140/124
f 126/155/138 26/209/189 27/156/139
f 88/159/142 85/206/186 87/160/143
f 111/162/145 112/239/214 87/160/143
f 127/164/147 23/122/107 22/165/148
f 42/77/58 159/79/60 157/166/149
f 41/60/150 157/166/149 2/167/151
f 24/94/79 22/165/148 21/169/154
f 154/59/40 18/58/39 19/83/67
f 155/170/155 19/83/67 75/95/80
f 83/89/74 19/83/67 78/82/66
f 213/96/81 74/98/83 16/126/111
f 156/173/158 58/168/153 135/88/72
f 20/174/159 76/87/71 78/82/66
f 21/169/154 22/165/148 23/122/107
f 306/176/161 298/259/397 297/177/162
f 11/179/128 7/153/137 5/152/134
f 13/181/135 60/104/89 62/112/97
f 120/182/164 122/245/218 89/161/144
f 85/184/165 91/246/180 92/185/3
f 9/100/85 148/191/171 210/186/166
f 318/188/168 314/189/169 61/187/167
f 61/187/167 12/105/90 13/181/135
f 314/189/169 315/103/88 12/105/90
f 49/110/95 67/251/225 63/84/68
f 113/192/172 28/22/19 29/21/13
f 66/117/102 51/250/224 137/194/174
f 73/97/82 69/129/114 70/127/112
f 65/108/93 63/84/68 139/86/70
f 212/196/176 65/108/93 138/195/175
f 20/174/159 21/169/154 77/175/160
f 106/199/179 107/115/100 93/43/5
f 106/199/179 92/200/3 91/43/180
f 91/202/180 90/255/6 104/114/99
f 305/178/163 297/177/162 296/56/37
f 131/73/54 132/72/53 17/93/78
f 80/124/109 127/164/147 128/121/106
f 103/136/121 97/138/55 99/216/84
f 101/218/194 100/258/195 103/136/121
f 323/223/196 104/114/99 107/115/100
f 82/224/198 329/229/204 326/225/199
f 330/227/201 106/199/179 105/201/181
f 82/224/198 80/31/423 332/228/203
f 330/227/201 333/115/197 107/115/100
f 234/43/205 345/345/379 335/230/206
f 326/231/199 324/230/416 79/232/208
f 105/201/181 104/114/99 323/223/196
f 121/234/24 31/39/26 32/38/25
f 95/33/21 87/32/22 112/236/210
f 109/237/211 112/236/210 113/192/172
f 30/208/188 28/207/187 113/192/212
f 110/238/213 113/192/212 112/239/214
f 95/26/21 109/237/211 111/240/215
f 109/237/211 108/193/173 110/13/12
f 86/241/1 116/243/216 114/242/33
f 117/70/51 115/69/50 114/242/33
f 36/18/18 118/49/217 115/244/50
f 118/49/217 119/49/32 114/51/33
f 94/35/4 121/234/24 120/235/209
f 32/211/192 33/210/191 122/245/218
f 121/37/24 122/36/23 33/42/28
f 88/159/142 126/155/138 124/157/140
f 85/184/165 124/46/30 123/47/29
f 123/44/29 125/10/10 90/12/6
f 25/45/7 26/52/34 126/247/219
f 86/163/146 85/206/186 119/49/220
f 36/205/184 34/204/183 117/249/222
f 116/248/221 119/49/220 118/49/223
f 129/119/104 128/121/106 22/165/148
f 77/175/160 23/122/107 74/98/83
f 72/102/87 14/128/113 15/198/178
f 48/132/117 134/131/116 20/174/159
f 14/128/113 49/110/95 48/132/117
f 48/132/117 49/110/95 53/109/94
f 71/135/120 133/256/319 51/250/224
f 134/131/116 135/88/72 76/87/71
f 64/118/103 63/84/68 67/251/225
f 70/127/112 68/116/101 67/251/225
f 279/10/235 244/12/230 242/11/236
f 264/13/238 190/14/247 189/14/239
f 276/36/250 243/48/258 248/4/229
f 185/7/232 187/8/234 278/46/257
f 250/50/228 239/184/348 273/49/259
f 178/58/263 177/93/288 56/57/38
f 269/69/267 195/344/241 194/16/243
f 251/74/272 143/76/57 168/75/273
f 217/84/279 292/86/354 293/85/280
f 141/90/75 1/92/77 164/91/285
f 213/96/81 228/98/294 227/97/290
f 253/99/291 256/101/373 169/100/292
f 320/103/295 172/105/351 214/104/296
f 317/106/298 289/107/306 293/85/280
f 53/109/94 212/196/176 219/108/299
f 258/114/302 261/115/357 247/31/231
f 222/116/303 218/118/281 220/117/304
f 289/107/306 220/117/304 218/118/281
f 283/119/307 286/72/271 177/93/288
f 284/123/310 281/164/337 183/122/311
f 176/126/314 285/73/270 284/123/310
f 222/116/303 225/135/305 223/129/317
f 56/57/38 177/93/288 176/126/314
f 59/130/115 208/132/396 287/131/318
f 54/133/118 227/97/290 223/129/317
f 52/134/119 223/129/317 225/135/305
f 317/106/298 216/112/301 211/113/98
f 257/136/321 251/138/272 252/137/274
f 146/140/124 170/148/326 166/139/323
f 187/156/329 186/209/369 280/155/330
f 241/160/332 239/206/364 242/159/333
f 265/162/335 240/163/365 241/160/332
f 281/164/337 282/121/309 182/165/338
f 202/77/275 201/60/339 157/166/149
f 201/60/339 238/62/572 2/167/151
f 181/169/340 182/165/338 184/94/287
f 154/59/40 155/170/155 179/83/278
f 229/95/289 179/83/278 155/170/155
f 237/89/284 230/87/282 232/82/277
f 213/96/81 55/172/157 176/126/314
f 156/173/158 287/131/318 288/88/283
f 180/174/341 181/169/340 232/82/277
f 183/122/311 182/165/338 181/169/340
f 307/176/343 303/178/360 295/177/344
f 165/152/325 167/153/328 171/179/324
f 173/181/327 50/111/96 216/112/301
f 274/182/346 241/160/332 243/161/334
f 246/185/227 245/246/358 239/184/348
f 210/186/166 148/191/171 169/100/292
f 318/188/168 210/186/166 215/187/349
f 215/187/349 169/100/292 173/181/327
f 319/189/350 215/187/349 172/105/351
f 209/110/300 219/108/299 217/84/279
f 189/21/239 188/22/246 267/192/353
f 220/117/304 289/107/306 137/194/174
f 227/97/290 226/102/293 224/127/315
f 219/108/299 291/195/355 292/86/354
f 212/196/176 290/197/177 291/195/355
f 180/174/341 175/198/395 231/175/342
f 260/199/356 246/200/227 247/43/231
f 260/199/356 259/201/359 245/43/358
f 258/114/302 244/255/230 245/202/358
f 294/56/262 295/177/344 303/178/360
f 285/73/270 176/126/314 177/93/288
f 234/124/312 233/120/308 282/121/309
f 253/216/291 251/138/272 257/136/321
f 255/218/372 256/217/373 257/136/321
f 336/223/374 344/115/380 261/115/357
f 233/43/207 335/230/206 339/231/375
f 341/227/377 338/201/381 259/201/359
f 236/260/378 342/229/382 345/228/379
f 341/227/377 260/199/356 261/115/357
f 336/223/374 258/114/302 259/201/359
f 236/260/378 235/226/376 339/225/375
f 275/234/251 274/235/390 192/38/252
f 249/33/248 263/237/384 266/236/383
f 263/237/384 262/193/240 267/192/353
f 190/208/367 264/238/386 267/192/385
f 264/238/386 265/162/335 266/239/336
f 265/240/387 263/237/384 249/26/248
f 264/13/238 262/193/240 263/237/384
f 240/241/226 250/2/228 268/242/260
f 268/242/260 269/69/267 271/70/268
f 269/244/267 272/49/389 196/18/244
f 268/51/260 273/49/259 272/49/389
f 248/35/229 241/34/249 274/235/390
f 192/211/371 274/182/346 276/245/347
f 193/42/255 276/36/250 275/37/251
f 278/157/331 280/155/330 242/159/333
f 277/47/256 278/46/257 239/184/348
f 244/12/230 279/10/235 277/44/256
f 185/45/232 279/10/235 280/247/237
f 240/163/365 270/248/393 273/49/391
f 196/205/363 272/49/394 271/249/392
f 270/248/393 271/249/392 272/49/394
f 283/119/307 184/94/287 182/165/338
f 228/98/294 183/122/311 231/175/342
f 226/102/293 231/175/342 175/198/395
f 208/132/396 175/198/395 180/174/341
f 174/128/316 175/198/395 208/132/396
f 208/132/396 59/130/115 53/109/94
f 225/135/305 220/117/304 51/250/224
f 287/131/318 180/174/341 230/87/282
f 221/251/352 217/84/279 218/118/281
f 221/251/352 222/116/303 224/127/315
f 309/262/401 203/63/402 206/252/402
f 311/264/404 310/263/573 206/252/266
f 302/259/345 308/261/398 312/265/407
f 304/203/182 300/266/408 57/171/156
f 301/203/361 229/95/289 57/171/156
f 307/176/343 312/265/407 2/167/409
f 299/55/36 294/56/262 301/203/361
f 299/55/36 300/266/408 304/203/182
f 301/203/361 303/178/360 237/89/284
f 83/89/74 305/178/163 304/203/182
f 302/259/345 295/177/344 203/63/264
f 47/67/48 310/263/573 311/264/404
f 47/67/410 43/63/410 309/262/401
f 312/265/407 308/261/398 298/259/397
f 2/167/409 312/265/407 306/176/161
f 291/195/355 319/189/350 320/103/295
f 290/197/177 318/188/168 319/189/350
f 289/107/306 317/106/298 322/257/320
f 216/112/301 317/106/298 321/254/297
f 292/86/354 320/103/295 321/254/297
f 138/195/175 139/86/70 315/103/88
f 290/197/177 138/195/175 314/189/169
f 136/107/92 137/194/174 322/257/320
f 62/112/97 60/104/89 316/254/413
f 139/86/70 140/85/69 316/254/413
f 327/201/202 323/223/196 325/267/414
f 328/268/415 325/267/414 324/230/416
f 327/201/202 328/268/415 331/269/417
f 328/268/415 326/225/199 329/229/204
f 333/115/197 330/227/201 331/269/417
f 334/115/418 331/269/417 329/229/204
f 333/115/197 334/115/418 325/267/414
f 334/115/418 332/345/203 324/230/416
f 335/230/206 337/267/420 340/268/419
f 337/267/420 336/223/374 338/201/381
f 342/229/382 339/225/375 340/268/419
f 343/269/421 340/268/419 338/201/381
f 342/229/382 343/269/421 346/115/422
f 343/269/421 341/227/377 344/115/380
f 335/230/206 345/345/379 346/115/422
f 337/267/420 346/115/422 344/115/380
f 324/230/416 332/345/203 80/43/423
f 374/270/424 369/304/458 356/271/425
f 354/276/430 353/292/446 370/277/431
f 361/274/428 379/273/427 378/283/437
f 376/285/439 363/306/460 366/286/440
f 372/288/442 351/294/448 350/289/443
f 383/291/445 370/277/431 353/292/446
f 351/294/448 372/288/442 371/295/449
f 365/296/450 358/299/453 377/297/451
f 378/283/437 377/297/451 358/299/453
f 367/300/454 351/294/448 352/280/434
f 348/301/455 350/289/443 351/294/448
f 347/302/456 356/271/425 380/303/457
f 377/297/451 378/283/437 379/273/427
f 369/304/458 374/270/424 375/278/432
f 364/287/441 375/278/432 374/270/424
f 380/303/457 356/271/425 369/304/458
f 376/285/439 364/287/441 359/298/452
f 357/272/426 365/296/450 359/298/452
f 364/287/441 366/286/440 355/282/436
f 379/273/427 362/275/429 363/306/460
f 383/291/445 371/295/449 373/290/444
f 369/304/458 370/277/431 383/291/445
f 380/303/457 382/305/459 373/290/444
f 371/295/449 383/291/445 381/293/447
f 393/307/461 406/339/493 411/308/462
f 407/313/467 390/329/483 391/314/468
f 415/320/474 416/310/464 398/312/466
f 403/322/476 400/341/495 413/323/477
f 387/325/479 388/331/485 409/326/480
f 420/328/482 418/343/497 390/329/483
f 408/330/484 409/326/480 388/331/485
f 402/332/486 396/340/494 414/333/487
f 415/320/474 397/321/475 395/334/488
f 404/335/489 405/316/470 389/318/472
f 385/336/490 404/335/489 388/331/485
f 384/337/491 387/325/479 417/338/492
f 416/310/464 415/320/474 414/333/487
f 406/339/493 407/313/467 412/315/469
f 401/324/478 396/340/494 411/308/462
f 417/338/492 419/342/496 406/339/493
f 413/323/477 414/333/487 396/340/494
f 394/309/463 411/308/462 396/340/494
f 392/319/473 403/322/476 401/324/478
f 400/341/495 399/311/465 416/310/464
f 410/327/481 408/330/484 420/328/482
f 419/342/496 420/328/482 407/313/467
f 410/327/481 419/342/496 417/338/492
f 408/330/484 386/317/471 418/343/497
f 368/279/433 405/316/470 404/335/489
f 367/300/454 404/335/489 385/336/490
f 368/279/433 349/281/435 386/317/471
f 347/302/456 348/301/455 385/336/490
f 347/302/456 384/337/491 393/307/461
f 356/271/425 393/307/461 394/309/463
f 381/293/447 418/343/497 386/317/471
f 353/292/446 354/276/430 391/314/468
f 355/282/436 392/319/473 391/314/468
f 355/282/436 366/286/440 403/322/476
f 362/275/429 399/311/465 400/341/495
f 362/275/429 361/274/428 398/312/466
f 360/284/438 397/321/475 398/312/466
f 360/284/438 358/299/453 395/334/488
f 365/296/450 402/332/486 395/334/488
f 357/272/426 394/309/463 402/332/486
f 366/286/440 363/306/460 400/341/495
f 381/293/447 353/292/446 390/329/483
f 430/271/498 443/304/530 448/270/499
f 444/277/504 427/292/520 428/276/505
f 452/283/511 453/273/501 435/274/503
f 440/286/513 437/306/532 450/285/514
f 424/289/516 425/294/522 446/288/517
f 457/291/519 455/293/534 427/292/520
f 445/295/521 446/288/517 425/294/522
f 439/296/523 433/298/531 451/297/524
f 452/283/511 434/284/512 432/299/525
f 441/300/526 442/279/507 426/280/509
f 422/301/527 441/300/526 425/294/522
f 421/302/528 424/289/516 454/303/529
f 453/273/501 452/283/511 451/297/524
f 443/304/530 444/277/504 449/278/506
f 438/287/515 433/298/531 448/270/499
f 454/303/529 456/305/533 443/304/530
f 450/285/514 451/297/524 433/298/531
f 431/272/500 448/270/499 433/298/531
f 429/282/510 440/286/513 438/287/515
f 437/306/532 436/275/502 453/273/501
f 447/290/518 445/295/521 457/291/519
f 443/304/530 456/305/533 457/291/519
f 447/290/518 456/305/533 454/303/529
f 445/295/521 423/281/508 455/293/534
f 485/308/535 480/339/569 467/307/536
f 465/314/541 464/329/557 481/313/542
f 472/312/539 490/310/538 489/320/548
f 487/323/550 474/341/571 477/322/551
f 483/326/553 462/331/559 461/325/554
f 494/328/556 481/313/542 464/329/557
f 462/331/559 483/326/553 482/330/560
f 476/332/561 469/334/564 488/333/562
f 489/320/548 488/333/562 469/334/564
f 478/335/565 462/331/559 463/318/545
f 459/336/566 461/325/554 462/331/559
f 458/337/567 467/307/536 491/338/568
f 488/333/562 489/320/548 490/310/538
f 480/339/569 485/308/535 486/315/543
f 475/324/552 486/315/543 485/308/535
f 491/338/568 467/307/536 480/339/569
f 487/323/550 475/324/552 470/340/563
f 468/309/537 476/332/561 470/340/563
f 475/324/552 477/322/551 466/319/547
f 490/310/538 473/311/540 474/341/571
f 494/328/556 482/330/560 484/327/555
f 481/313/542 494/328/556 493/342/570
f 491/338/568 493/342/570 484/327/555
f 482/330/560 494/328/556 492/343/558
f 478/335/565 479/316/544 442/279/507
f 459/336/566 478/335/565 441/300/526
f 442/279/507 479/316/544 460/317/546
f 421/302/528 458/337/567 459/336/566
f 467/307/536 458/337/567 421/302/528
f 468/309/537 467/307/536 430/271/498
f 460/317/546 492/343/558 455/293/534
f 427/292/520 464/329/557 465/314/541
f 465/314/541 466/319/547 429/282/510
f 429/282/510 466/319/547 477/322/551
f 474/341/571 473/311/540 436/275/502
f 436/275/502 473/311/540 472/312/539
f 472/312/539 471/321/549 434/284/512
f 434/284/512 471/321/549 469/334/564
f 469/334/564 476/332/561 439/296/523
f 476/332/561 468/309/537 431/272/500
f 440/286/513 477/322/551 474/341/571
f 455/293/534 492/343/558 464/329/557
