# Blender 4.4.3
# www.blender.org
mtllib maison.mtl
o House
v 1.384886 2.884003 -3.064304
v 1.644508 2.877371 -3.041089
v 1.620346 2.877371 -3.064304
v -2.831756 2.623276 -0.129718
v -2.775379 2.623276 -3.145781
v -2.831756 2.623276 -3.104722
v 2.792907 2.881792 -3.104722
v 2.792907 2.840891 -3.145781
v 2.833967 2.840891 -3.104722
v -2.831756 2.840891 -3.104722
v -2.775379 2.840891 -3.145781
v -2.775379 2.881792 -3.104722
v 2.520020 2.877371 -0.292943
v 2.517178 2.877371 3.034131
v 2.517178 5.343619 1.374068
v 2.520020 0.613735 -0.292943
v 2.517178 0.613735 3.031763
v -2.559659 0.613735 -0.291679
v -0.001184 0.613734 -3.060504
v 2.557132 0.613734 -3.060504
v -0.001184 0.613735 -0.291679
v -0.001184 0.613735 3.060504
v 0.505444 3.336106 -2.699268
v 0.505444 3.336106 -3.003658
v 0.505444 3.208688 -3.003658
v 0.505444 3.208214 -2.699268
v -0.506956 3.336106 -3.003658
v -0.506956 3.208688 -3.003658
v -0.506956 3.336106 -2.699268
v -0.506956 3.208214 -2.699268
v 0.002132 5.243813 -3.064935
v 0.002132 5.243814 3.112344
v 0.002132 5.667988 -3.064935
v 1.643876 2.877371 0.146235
v 0.002132 5.695466 1.512859
v 0.002132 5.695466 -3.041721
v -1.380622 2.877686 -3.064304
v -1.380622 2.877371 3.112344
v -1.615924 2.877213 -3.064304
v -1.639770 2.877370 0.146235
v -1.640402 2.877686 -3.041089
v -0.145245 5.740235 -3.218882
v 0.159774 5.740235 -3.218882
v 0.159774 5.740236 3.138431
v -0.145245 5.740236 3.138431
v -0.145245 5.421316 3.138431
v -0.145245 5.421316 -3.218882
v 0.159774 5.421316 -3.218882
v 0.159774 5.421316 3.138431
v 2.833967 2.623276 -3.104722
v 2.792907 2.623276 -3.145781
v 0.008765 2.840891 -3.145781
v 0.008765 2.881792 -3.104722
v 2.792907 2.881792 -0.291837
v 0.008765 2.881792 -0.291837
v -2.831756 2.840891 -0.291837
v -2.775379 2.881792 -0.291837
v -2.521126 5.343619 1.374068
v -2.523969 1.427501 0.924784
v -2.336201 1.427501 0.924784
v -2.333358 1.427501 1.850673
v -2.521126 1.427501 1.850673
v -2.333358 2.877371 1.851147
v -2.521126 2.877371 1.851147
v -2.523969 2.877371 0.924784
v -2.336201 2.877371 0.924784
v -2.521126 2.877371 3.034131
v -2.523969 2.877371 -0.292943
v -2.521126 0.613735 3.031763
v -2.523969 0.613735 -0.292943
v -0.677243 2.426033 -0.292943
v -0.677243 0.613735 -0.292943
v 0.673295 0.613735 -0.292943
v 0.673295 2.426033 -0.292943
v -2.773641 5.581605 1.374068
v -2.771904 2.776770 3.182261
v -2.832072 2.769664 3.159678
v -2.833967 5.554127 1.374068
v -2.771588 2.848471 -0.316315
v 2.793382 5.581605 1.374068
v 2.830492 5.551601 1.374068
v 2.828756 2.776770 3.161258
v 2.791644 2.776770 3.182261
v 0.009870 5.581605 1.374068
v 0.009870 2.776770 3.182261
v -2.833967 5.089829 1.374068
v -2.832172 2.623276 2.942827
v 2.796855 2.840891 -0.337477
v 2.833967 2.840891 -0.291837
v 0.010186 2.848471 -0.316315
v 2.829703 2.626113 2.937800
v 2.831440 5.050656 1.374068
v 2.833967 2.623276 -0.129718
v -0.644746 0.613735 -0.427017
v -0.644746 0.613735 -0.291048
v -0.644746 2.460234 -0.291048
v -0.644746 2.460234 -0.427018
v -0.855254 0.613735 -0.427017
v -0.855254 2.460234 -0.427018
v -0.855254 2.460234 -0.291048
v -0.855254 0.613735 -0.291048
v 0.644746 0.613735 -0.291048
v 0.644746 2.460234 -0.291048
v 0.644746 2.460234 -0.427018
v 0.644746 0.613735 -0.427017
v 0.855254 2.460234 -0.427018
v 0.855254 2.460234 -0.291048
v 0.855254 0.613735 -0.291048
v 0.855254 0.613735 -0.427017
v 2.557132 0.613735 3.060504
v 2.557132 0.613735 -0.291679
v -0.368480 4.640234 -2.819025
v -0.368480 2.877376 -2.819025
v 0.409223 2.877376 -2.819025
v 0.409223 4.640234 -2.819025
v -2.349940 3.039513 1.961334
v -2.349940 1.339827 1.961334
v -2.349940 1.339827 0.856480
v -2.349940 3.039512 0.856480
v -0.303919 3.302651 -2.861375
v 1.384886 2.877371 -2.861375
v 0.301392 3.302966 -2.861375
v 0.301392 4.204694 -2.861376
v -1.380622 2.877371 -2.861375
v 0.002132 5.243813 -2.861376
v -0.303919 4.204852 -2.861376
v 0.926592 2.354979 -0.296694
v -0.959233 2.348672 -0.296694
v -0.959233 2.348672 -0.453306
v 0.926592 2.354979 -0.453306
v -0.959233 2.571795 -0.453306
v -0.959233 2.571795 -0.296694
v 0.926592 2.565488 -0.296694
v 0.926592 2.565488 -0.453306
v 1.096504 0.435223 -0.216691
v -1.129145 0.428916 -0.216692
v -1.129145 0.428916 -0.482439
v 1.096504 0.435223 -0.482439
v -1.129145 0.677623 -0.482439
v -1.129145 0.677623 -0.216692
v 1.096504 0.671316 -0.216691
v 1.096504 0.671316 -0.482439
v 1.891244 2.807825 -2.499575
v 1.891244 2.807825 -2.790422
v 2.219126 2.807825 -2.790422
v 2.219126 2.807825 -2.499575
v 2.171154 1.359125 -2.542265
v 2.171154 1.359125 -2.747732
v 1.939216 1.359125 -2.542265
v 1.939216 1.359125 -2.747732
v 1.939216 1.359125 -0.824151
v 1.939216 1.359125 -0.618684
v 2.171154 1.359125 -0.824151
v 2.171154 1.359125 -0.618684
v 2.219125 2.841436 -0.575994
v 2.219125 2.841436 -0.866841
v 1.891244 2.841436 -0.866841
v 1.891244 2.841436 -0.575994
v -2.559659 0.613735 3.060504
v -2.559659 0.613734 -3.060504
v 2.557132 -0.000416 3.060504
v 2.557132 -0.000417 -3.060504
v -2.559659 -0.000416 3.060504
v -2.559659 -0.000416 -0.291679
v -0.001184 -0.000417 -3.060504
v -2.559659 -0.000417 -3.060504
v 1.930556 0.758555 -2.534728
v 2.179814 0.758555 -2.534728
v 2.179814 0.758555 -2.755269
v 1.930556 0.758555 -2.755269
v 1.749983 0.763429 -2.353899
v 1.746058 0.508760 -2.350956
v 1.746058 0.508760 -2.939041
v 2.364312 0.508760 -2.939041
v 2.364312 0.508760 -2.350956
v 2.360387 0.763429 -2.353899
v 1.749983 0.763429 -2.936097
v 1.930556 0.758555 -0.611147
v 2.179814 0.758555 -0.611147
v 2.179814 0.758555 -0.831687
v 1.930556 0.758555 -0.831687
v 1.749983 0.763429 -0.430318
v 1.746057 0.508760 -0.427375
v 1.746057 0.508760 -1.015460
v 2.364312 0.508760 -1.015460
v 2.364312 0.508760 -0.427375
v 2.360386 0.763429 -0.430318
v 2.360386 0.763429 -1.012516
v 1.749983 0.763429 -1.012516
v -2.338941 2.713662 -2.499575
v -2.338941 2.713662 -2.790422
v -2.011060 2.713662 -2.790422
v -2.011060 2.713662 -2.499575
v -2.059032 1.359125 -2.542265
v -2.059032 1.359125 -2.747732
v -2.290969 1.359125 -2.542265
v -2.290969 1.359125 -2.747732
v -2.290969 1.359125 -0.824151
v -2.290969 1.359125 -0.618684
v -2.059031 1.359125 -0.824151
v -2.059031 1.359125 -0.618684
v -2.011059 2.834575 -0.575994
v -2.011059 2.834575 -0.866841
v -2.338941 2.834575 -0.866841
v -2.338941 2.834575 -0.575994
v -2.299629 0.758555 -2.534728
v -2.050371 0.758555 -2.534728
v -2.050371 0.758555 -2.755269
v -2.299629 0.758555 -2.755269
v -2.480202 0.763429 -2.353899
v -2.484128 0.508760 -2.350956
v -2.484128 0.508760 -2.939041
v -1.865873 0.508760 -2.939041
v -1.865873 0.508760 -2.350956
v -1.869798 0.763429 -2.353899
v -1.869798 0.763429 -2.936097
v -2.480202 0.763429 -2.936097
v -2.299629 0.758555 -0.611147
v -2.050371 0.758555 -0.611147
v -2.050371 0.758555 -0.831687
v -2.299629 0.758555 -0.831687
v -2.480202 0.763429 -0.430318
v -2.484127 0.508760 -0.427375
v -2.484127 0.508760 -1.015460
v -1.865873 0.508760 -1.015460
v -1.865873 0.508760 -0.427375
v -1.869798 0.763429 -0.430318
v -1.869798 0.763429 -1.012516
v -2.480202 0.763429 -1.012516
v -1.213941 2.713662 -2.499575
v -1.213941 2.713662 -2.790422
v -0.886059 2.713662 -2.790422
v -0.886059 2.713662 -2.499575
v -0.934032 1.359125 -2.542265
v -1.165969 1.359125 -2.542265
v -1.165969 1.359125 -2.747732
v -1.174629 0.758555 -2.534728
v -0.925371 0.758555 -2.534728
v -0.925371 0.758555 -2.755269
v -1.174629 0.758555 -2.755269
v -1.355202 0.763429 -2.353899
v -1.359127 0.508760 -2.350956
v -1.359127 0.508760 -2.939041
v -0.740873 0.508760 -2.939041
v -0.740873 0.508760 -2.350956
v -0.744798 0.763429 -2.353899
v -0.744798 0.763429 -2.936097
v 0.886059 2.713662 -2.499575
v 0.886059 2.713662 -2.790422
v 1.213940 2.713662 -2.790422
v 1.213940 2.713662 -2.499575
v 1.165968 1.359125 -2.542265
v 1.165968 1.359125 -2.747732
v 0.934031 1.359125 -2.542265
v 0.934031 1.359125 -2.747732
v 0.925371 0.758555 -2.534728
v 1.174629 0.758555 -2.534728
v 1.174629 0.758555 -2.755269
v 0.925371 0.758555 -2.755269
v 0.744798 0.763429 -2.353899
v 0.740873 0.508760 -2.350956
v 0.740873 0.508760 -2.939041
v 1.359127 0.508760 -2.939041
v 1.359127 0.508760 -2.350956
v 1.355202 0.763429 -2.353899
v 1.355202 0.763429 -2.936097
v 2.016889 1.425677 -0.825559
v 2.103828 1.425677 -0.825559
v 2.107075 1.282096 -0.830280
v 2.013643 1.282096 -0.830280
v 2.022773 1.485254 -2.843853
v 2.097944 1.485254 -2.843853
v 2.100751 1.361109 -2.847935
v 2.019966 1.361109 -2.847935
v 2.256848 1.469430 -2.621364
v 2.256848 1.469430 -2.676592
v 2.252127 1.378655 -2.678654
v 2.252127 1.378655 -2.619302
v 0.829897 1.396825 -2.609331
v 0.829897 1.396825 -2.657083
v 0.825816 1.272679 -2.658866
v 0.825816 1.272679 -2.607548
v -2.120217 1.425677 -0.814811
v -2.196111 1.425677 -0.814811
v -2.198945 1.282096 -0.814811
v -2.117383 1.282096 -0.814811
v -2.154438 1.485254 -2.862222
v -2.220058 1.485254 -2.862222
v -2.222508 1.361109 -2.866304
v -2.151988 1.361109 -2.866304
v -2.347011 1.461867 -2.583341
v -2.347011 1.461867 -2.646296
v -2.342290 1.375707 -2.648646
v -2.342290 1.375707 -2.580991
v -0.818327 1.490246 -2.605991
v -0.818327 1.490246 -2.660423
v -0.814245 1.362389 -2.662456
v -0.814245 1.362389 -2.603958
v -0.038670 4.237953 -2.793698
v -0.038670 4.237953 -2.833525
v 0.035866 4.237953 -2.833525
v 0.036143 4.237953 -2.793698
v -0.038670 3.266379 -2.833525
v 0.035866 3.266379 -2.833525
v -0.038670 3.266379 -2.793698
v 0.036143 3.266379 -2.793698
v -0.339223 3.753501 -2.793698
v -0.339223 3.753501 -2.833525
v -0.339223 3.828037 -2.833525
v -0.339223 3.828314 -2.793698
v 0.336696 3.753501 -2.833525
v 0.336696 3.828037 -2.833525
v 0.336696 3.753501 -2.793698
v 0.336696 3.828314 -2.793698
v -0.423284 4.271473 -2.699268
v -0.423284 4.271473 -2.916744
v -0.295866 4.271473 -2.916744
v -0.295392 4.271473 -2.699268
v -0.423284 3.336106 -2.916744
v -0.295866 3.336106 -2.916744
v -0.423284 3.336106 -2.699268
v -0.295392 3.336106 -2.699268
v 0.294354 4.271473 -2.699268
v 0.294354 4.271473 -2.916744
v 0.421772 4.271473 -2.916744
v 0.422246 4.271473 -2.699268
v 0.294353 3.336106 -2.916744
v 0.421772 3.336106 -2.916744
v 0.294353 3.336106 -2.699268
v 0.422245 3.336106 -2.699268
v 0.421772 4.316808 -2.699268
v 0.421772 4.316808 -2.916744
v 0.421772 4.189389 -2.916744
v 0.421772 4.188916 -2.699268
v -0.423284 4.316808 -2.916744
v -0.423284 4.189389 -2.916744
v -0.423284 4.316808 -2.699268
v -0.423284 4.188916 -2.699268
v -2.422797 1.444803 0.690452
v -2.809452 1.444803 0.690452
v -2.809452 1.282948 0.690452
v -2.422797 1.282347 0.690452
v -2.809452 1.444803 2.091183
v -2.809452 1.282948 2.091183
v -2.422797 1.444803 2.091183
v -2.422797 1.282347 2.091183
v -2.542748 2.787871 1.438334
v -2.593339 2.787871 1.438333
v -2.593339 2.787871 1.343653
v -2.542748 2.787871 1.343302
v -2.593339 1.322425 1.438334
v -2.593339 1.322425 1.343654
v -2.542748 1.322425 1.438334
v -2.542748 1.322425 1.343302
v -2.542748 2.143767 1.900246
v -2.593339 2.143767 1.900246
v -2.593339 2.238446 1.900246
v -2.542748 2.238799 1.900246
v -2.593339 2.143767 0.881390
v -2.593339 2.238446 0.881390
v -2.542748 2.143767 0.881390
v -2.542748 2.238799 0.881390
v -2.422797 2.801726 1.984898
v -2.699049 2.801726 1.984898
v -2.699049 2.801726 1.823043
v -2.422797 2.801726 1.822442
v -2.699049 1.351480 1.984898
v -2.699049 1.351480 1.823043
v -2.422797 1.351480 1.984898
v -2.422797 1.351480 1.822442
v -2.422797 2.801726 0.958592
v -2.699049 2.801726 0.958592
v -2.699049 2.801726 0.796737
v -2.422797 2.801726 0.796136
v -2.699049 1.351480 0.958592
v -2.699049 1.351480 0.796737
v -2.422797 1.351480 0.958592
v -2.422797 1.351480 0.796136
v -2.422797 2.924015 0.796737
v -2.699049 2.924015 0.796737
v -2.699049 2.762161 0.796737
v -2.422797 2.761559 0.796737
v -2.699049 2.924015 1.984898
v -2.699049 2.762161 1.984898
v -2.422797 2.924015 1.984898
v -2.422797 2.761559 1.984898
v -1.638981 2.877213 3.112344
v 0.002132 5.695467 3.112344
v 1.384886 2.883688 3.112344
v 1.643086 2.877371 3.112344
v -1.384886 2.877371 2.979458
v 1.380623 2.877371 2.979457
v -0.002132 5.243813 2.979458
v 1.648893 1.309084 -2.605540
v 1.648893 1.309084 -2.660875
v 1.653294 1.442947 -2.607462
v 1.652295 1.412570 -2.659389
v 1.380698 1.427678 -2.658334
v 1.653294 1.442947 -2.628556
v 1.906060 1.457106 -2.659526
v -0.931676 2.161006 -2.749829
v -0.934032 1.359125 -2.681134
v -0.930331 1.102485 -2.750952
v -1.000630 1.359125 -2.747732
v 0.805681 0.762803 -2.871046
v 1.007055 0.763429 -2.936097
v 0.744042 0.714375 -2.936664
v 0.744798 0.763429 -2.712615
v 2.362931 0.598389 -2.938005
v 2.270595 0.763428 -2.936097
v 2.316951 0.762626 -2.906307
v 2.360387 0.763429 -2.886417
v -1.276994 0.761318 -2.857778
v -0.958266 0.763429 -2.936097
v -1.356480 0.680526 -2.937056
v -1.355202 0.763429 -2.840623
v 1.189954 2.036393 -2.520920
v 0.910045 2.036393 -2.769077
v 0.910045 2.036393 -2.520920
v 1.207429 2.529814 -2.784628
v 1.189954 2.036393 -2.677720
v 1.176642 1.660503 -2.757230
v 1.114324 2.036393 -2.769077
v 2.175484 1.058840 -2.538496
v 2.175484 1.058840 -2.751500
v 1.934886 1.058840 -2.538496
v 1.935328 1.281073 -2.751116
v 1.965509 1.058840 -2.751500
v 1.934445 0.852093 -2.751884
v 1.934886 1.058840 -2.720878
v 2.829624 4.164186 2.267663
v 2.792513 4.179187 2.278165
v 0.009870 4.179187 2.278165
v -2.772773 4.179187 2.278165
v -2.833020 4.161895 2.266873
v 2.830572 3.838385 2.155934
v -2.833069 3.856553 2.158448
v 2.795119 4.211248 0.518296
v 2.832230 4.196246 0.541116
v 0.010028 4.215038 0.528877
v -2.772615 4.215038 0.528877
v 2.832704 3.836967 0.622175
v -2.832861 3.856553 0.622175
v -2.832861 4.197509 0.541116
v -2.831756 2.623276 -1.617220
v 2.792907 2.881792 -1.698280
v 0.008765 2.881792 -1.698280
v -2.831756 2.840891 -1.698280
v -2.775379 2.881792 -1.698280
v 2.833967 2.623276 -1.617220
v 2.833967 2.840891 -1.698280
v 0.693509 4.063908 -3.064620
v 0.823320 4.286418 -3.041405
v 0.811239 4.272679 -3.064620
v 0.822937 4.286418 0.652666
v 0.822609 4.286418 3.112344
v 0.693509 4.063750 3.112344
v -0.818728 4.286400 0.833754
v -0.819135 4.286576 -3.041405
v -0.689245 4.060749 -3.064620
v -0.689245 4.060592 3.112344
v -0.806896 4.272600 -3.064620
v -0.818424 4.286340 3.112344
v -0.702225 0.703385 -0.162363
v -0.702225 2.395429 -0.162363
v -0.702225 0.703385 -0.349205
v -0.702225 2.395429 -0.349205
v 0.699698 0.703385 -0.162363
v 0.699698 2.395429 -0.162363
v 0.699698 0.703385 -0.349205
v 0.699698 2.395429 -0.349205
v -0.001263 0.703385 -0.349205
v -0.001263 2.395429 -0.349205
v -0.001263 2.395429 -0.162363
v -0.702225 1.354187 -0.162363
v -0.702225 1.354187 -0.349205
v 0.699698 1.354187 -0.349205
v 0.699698 1.354187 -0.162363
v -0.001263 1.354187 -0.349205
v 0.126676 1.444638 -0.349205
v 0.126676 2.239747 -0.349205
v 0.571759 2.239747 -0.349205
v 0.571759 1.444638 -0.349205
v -0.574286 1.444638 -0.349205
v -0.574286 2.239747 -0.349205
v -0.129202 2.239747 -0.349205
v -0.129202 1.444638 -0.349205
v 0.126676 2.239747 -0.311517
v 0.126676 1.444638 -0.311517
v 0.571759 1.444638 -0.311517
v 0.571759 2.239747 -0.311517
v -0.574286 2.239747 -0.311517
v -0.574286 1.444638 -0.311517
v -0.129202 1.444638 -0.311517
v -0.129202 2.239747 -0.311517
v 0.865011 0.438339 -3.638653
v 0.865011 0.438339 -4.022843
v 0.865011 0.002426 -4.022843
v 0.865011 -0.000417 -3.625073
v -0.865011 0.438339 -4.022843
v -0.865011 0.002426 -4.022843
v -0.865011 0.438339 -3.638653
v -0.865011 -0.000417 -3.625073
v 0.865011 0.625365 -3.184715
v 0.865011 0.625365 -3.638653
v 0.865011 0.002584 -3.638653
v 0.865011 0.002584 -3.184715
v -0.865011 0.625365 -3.184715
v -0.865011 0.625365 -3.638653
v -0.865011 0.002584 -3.638653
v -0.865011 0.002584 -3.184715
v 0.865011 0.215745 -4.019228
v 0.865011 0.215745 -4.416998
v 0.865011 0.005269 -4.416998
v 0.865011 0.002426 -4.019228
v -0.865011 0.215745 -4.416998
v -0.865011 0.005269 -4.416998
v -0.865011 0.215745 -4.019228
v -0.865011 0.002426 -4.019228
v 2.490702 -0.000417 -3.184715
v 2.680033 -0.000417 -3.184715
v 2.680033 -0.000417 -3.007055
v 2.681736 0.629545 -3.005831
v 2.681736 0.629545 -3.185939
v 2.488998 0.629545 -3.185939
v 2.488998 0.629545 -3.005831
v 2.489432 0.480255 -3.185627
v 2.489432 0.480255 -3.006143
v 2.681303 0.480255 -3.006143
v 2.681303 0.480255 -3.185627
v -0.000000 0.476076 -3.185627
v -0.000000 0.625365 -3.185939
v -0.000000 0.625365 -3.005831
v -0.000000 0.476076 -3.006143
v 2.488998 0.623118 0.000000
v 2.681736 0.623118 0.000000
v 2.681303 0.473828 0.000000
v 2.489432 0.473828 0.000000
v 2.490385 0.125323 -3.006827
v 2.490385 0.125323 -3.184943
v 2.680350 0.125323 -3.006827
v 2.680350 0.125323 -3.184943
v -0.000000 -0.007455 -3.184715
v -0.000000 0.125323 -3.006827
v -0.000000 0.125323 -3.184943
v 2.680033 -0.010732 0.000000
v 2.490385 0.125323 0.000000
v 2.680350 0.125323 0.000000
v 2.111282 0.480255 -3.069971
v 2.111282 0.480255 -3.001225
v 2.269835 0.480255 -3.001225
v 2.269835 0.480255 -3.069971
v 2.112069 0.125323 -3.001487
v 2.112069 0.125323 -3.069709
v 2.269048 0.125323 -3.001487
v 2.269048 0.125323 -3.069709
v 1.751143 0.480255 -3.069971
v 1.751143 0.480255 -3.001225
v 1.909696 0.480255 -3.001225
v 1.909696 0.480255 -3.069971
v 1.751930 0.125323 -3.001487
v 1.751930 0.125323 -3.069709
v 1.908909 0.125323 -3.001487
v 1.908909 0.125323 -3.069709
v 1.391005 0.480255 -3.069971
v 1.391005 0.480255 -3.001225
v 1.549558 0.480255 -3.001225
v 1.549558 0.480255 -3.069971
v 1.391792 0.125323 -3.001487
v 1.391792 0.125323 -3.069709
v 1.548771 0.125323 -3.001487
v 1.548771 0.125323 -3.069709
v 1.030866 0.480255 -3.069971
v 1.030866 0.480255 -3.001225
v 1.189419 0.480255 -3.001225
v 1.189419 0.480255 -3.069971
v 1.031653 0.125323 -3.001487
v 1.031653 0.125323 -3.069709
v 1.188632 0.125323 -3.001487
v 1.188632 0.125323 -3.069709
v 0.670727 0.480255 -3.069971
v 0.670727 0.480255 -3.001225
v 0.829281 0.480255 -3.001225
v 0.829281 0.480255 -3.069971
v 0.671515 0.125323 -3.001487
v 0.671515 0.125323 -3.069709
v 0.828494 0.125323 -3.001487
v 0.828494 0.125323 -3.069709
v 0.310589 0.480255 -3.069971
v 0.310589 0.480255 -3.001225
v 0.469142 0.480255 -3.001225
v 0.469142 0.480255 -3.069971
v 0.311376 0.125323 -3.001487
v 0.311376 0.125323 -3.069709
v 0.468355 0.125323 -3.001487
v 0.468355 0.125323 -3.069709
v -0.000000 0.480255 -3.069971
v 0.085879 0.480255 -3.001225
v 0.085879 0.480255 -3.069971
v -0.000000 0.125323 -3.069709
v 0.085092 0.125323 -3.001487
v 0.085092 0.125323 -3.069709
v 2.575919 0.480255 -0.344749
v 2.507174 0.480255 -0.344749
v 2.507174 0.480255 -0.161602
v 2.575919 0.480255 -0.161602
v 2.507435 0.125323 -0.343840
v 2.575657 0.125323 -0.343840
v 2.507435 0.125323 -0.162511
v 2.575657 0.125323 -0.162511
v 2.575919 0.480255 -0.760750
v 2.507174 0.480255 -0.760750
v 2.507174 0.480255 -0.577603
v 2.575919 0.480255 -0.577603
v 2.507435 0.125323 -0.759841
v 2.575657 0.125323 -0.759841
v 2.507435 0.125323 -0.578512
v 2.575657 0.125323 -0.578512
v 2.575919 0.480255 -1.176752
v 2.507174 0.480255 -1.176752
v 2.507174 0.480255 -0.993605
v 2.575919 0.480255 -0.993605
v 2.507435 0.125323 -1.175843
v 2.575657 0.125323 -1.175843
v 2.507435 0.125323 -0.994513
v 2.575657 0.125323 -0.994513
v 2.575919 0.480255 -1.592753
v 2.507174 0.480255 -1.592753
v 2.507174 0.480255 -1.409606
v 2.575919 0.480255 -1.409606
v 2.507435 0.125323 -1.591844
v 2.575657 0.125323 -1.591844
v 2.507435 0.125323 -1.410515
v 2.575657 0.125323 -1.410515
v 2.575919 0.480255 -2.008754
v 2.507174 0.480255 -2.008754
v 2.507174 0.480255 -1.825607
v 2.575919 0.480255 -1.825607
v 2.507435 0.125323 -2.007845
v 2.575657 0.125323 -2.007845
v 2.507435 0.125323 -1.826516
v 2.575657 0.125323 -1.826516
v 2.575919 0.480255 -2.424755
v 2.507174 0.480255 -2.424755
v 2.507174 0.480255 -2.241608
v 2.575919 0.480255 -2.241608
v 2.507435 0.125323 -2.423846
v 2.575657 0.125323 -2.423846
v 2.507435 0.125323 -2.242517
v 2.575657 0.125323 -2.242517
v 2.575919 0.480255 -2.783521
v 2.507174 0.480255 -2.783521
v 2.507174 0.480255 -2.684321
v 2.575919 0.480255 -2.684321
v 2.507435 0.125323 -2.783521
v 2.575657 0.125323 -2.783521
v 2.507435 0.125323 -2.685230
v 2.575657 0.125323 -2.685230
v -2.490703 -0.000417 -3.184715
v -2.680033 -0.000417 -3.184715
v -2.680033 -0.000417 -3.007055
v -2.681736 0.629545 -3.005831
v -2.681736 0.629545 -3.185939
v -2.488998 0.629545 -3.185939
v -2.488998 0.629545 -3.005831
v -2.489433 0.480255 -3.185627
v -2.489433 0.480255 -3.006143
v -2.681303 0.480255 -3.006143
v -2.681303 0.480255 -3.185627
v -2.488998 0.623118 0.000000
v -2.681736 0.623118 0.000000
v -2.681303 0.473828 0.000000
v -2.489433 0.473828 0.000000
v -2.490385 0.125323 -3.006827
v -2.490385 0.125323 -3.184943
v -2.680350 0.125323 -3.006827
v -2.680350 0.125323 -3.184943
v -2.680033 -0.010732 0.000000
v -2.490385 0.125323 0.000000
v -2.680350 0.125323 0.000000
v -2.111282 0.480255 -3.069971
v -2.111282 0.480255 -3.001225
v -2.269835 0.480255 -3.001225
v -2.269835 0.480255 -3.069971
v -2.112069 0.125323 -3.001487
v -2.112069 0.125323 -3.069709
v -2.269048 0.125323 -3.001487
v -2.269048 0.125323 -3.069709
v -1.751143 0.480255 -3.069971
v -1.751143 0.480255 -3.001225
v -1.909697 0.480255 -3.001225
v -1.909697 0.480255 -3.069971
v -1.751931 0.125323 -3.001487
v -1.751931 0.125323 -3.069709
v -1.908910 0.125323 -3.001487
v -1.908910 0.125323 -3.069709
v -1.391005 0.480255 -3.069971
v -1.391005 0.480255 -3.001225
v -1.549558 0.480255 -3.001225
v -1.549558 0.480255 -3.069971
v -1.391792 0.125323 -3.001487
v -1.391792 0.125323 -3.069709
v -1.548771 0.125323 -3.001487
v -1.548771 0.125323 -3.069709
v -1.030866 0.480255 -3.069971
v -1.030866 0.480255 -3.001225
v -1.189419 0.480255 -3.001225
v -1.189419 0.480255 -3.069971
v -1.031653 0.125323 -3.001487
v -1.031653 0.125323 -3.069709
v -1.188632 0.125323 -3.001487
v -1.188632 0.125323 -3.069709
v -0.670728 0.480255 -3.069971
v -0.670728 0.480255 -3.001225
v -0.829281 0.480255 -3.001225
v -0.829281 0.480255 -3.069971
v -0.671515 0.125323 -3.001487
v -0.671515 0.125323 -3.069709
v -0.828494 0.125323 -3.001487
v -0.828494 0.125323 -3.069709
v -0.310589 0.480255 -3.069971
v -0.310589 0.480255 -3.001225
v -0.469142 0.480255 -3.001225
v -0.469142 0.480255 -3.069971
v -0.311376 0.125323 -3.001487
v -0.311376 0.125323 -3.069709
v -0.468355 0.125323 -3.001487
v -0.468355 0.125323 -3.069709
v -0.085879 0.480255 -3.001225
v -0.085879 0.480255 -3.069971
v -0.085092 0.125323 -3.001487
v -0.085092 0.125323 -3.069709
v -2.575919 0.480255 -0.344749
v -2.507174 0.480255 -0.344749
v -2.507174 0.480255 -0.161602
v -2.575919 0.480255 -0.161602
v -2.507436 0.125323 -0.343840
v -2.575657 0.125323 -0.343840
v -2.507436 0.125323 -0.162511
v -2.575657 0.125323 -0.162511
v -2.575919 0.480255 -0.760750
v -2.507174 0.480255 -0.760750
v -2.507174 0.480255 -0.577603
v -2.575919 0.480255 -0.577603
v -2.507436 0.125323 -0.759841
v -2.575657 0.125323 -0.759841
v -2.507436 0.125323 -0.578512
v -2.575657 0.125323 -0.578512
v -2.575919 0.480255 -1.176752
v -2.507174 0.480255 -1.176752
v -2.507174 0.480255 -0.993605
v -2.575919 0.480255 -0.993605
v -2.507436 0.125323 -1.175843
v -2.575657 0.125323 -1.175843
v -2.507436 0.125323 -0.994513
v -2.575657 0.125323 -0.994513
v -2.575919 0.480255 -1.592753
v -2.507174 0.480255 -1.592753
v -2.507174 0.480255 -1.409606
v -2.575919 0.480255 -1.409606
v -2.507436 0.125323 -1.591844
v -2.575657 0.125323 -1.591844
v -2.507436 0.125323 -1.410515
v -2.575657 0.125323 -1.410515
v -2.575919 0.480255 -2.008754
v -2.507174 0.480255 -2.008754
v -2.507174 0.480255 -1.825607
v -2.575919 0.480255 -1.825607
v -2.507436 0.125323 -2.007845
v -2.575657 0.125323 -2.007845
v -2.507436 0.125323 -1.826516
v -2.575657 0.125323 -1.826516
v -2.575919 0.480255 -2.424755
v -2.507174 0.480255 -2.424755
v -2.507174 0.480255 -2.241608
v -2.575919 0.480255 -2.241608
v -2.507436 0.125323 -2.423846
v -2.575657 0.125323 -2.423846
v -2.507436 0.125323 -2.242517
v -2.575657 0.125323 -2.242517
v -2.575919 0.480255 -2.783521
v -2.507174 0.480255 -2.783521
v -2.507174 0.480255 -2.684321
v -2.575919 0.480255 -2.684321
v -2.507436 0.125323 -2.783521
v -2.575657 0.125323 -2.783521
v -2.507436 0.125323 -2.685230
v -2.575657 0.125323 -2.685230
v 2.490702 -0.000417 3.184715
v 2.680033 -0.000417 3.184715
v 2.680033 -0.000417 3.007055
v 2.681736 0.629545 3.005831
v 2.681736 0.629545 3.185939
v 2.488998 0.629545 3.185939
v 2.488998 0.629545 3.005831
v 2.489432 0.480255 3.185627
v 2.489432 0.480255 3.006143
v 2.681303 0.480255 3.006143
v 2.681303 0.480255 3.185627
v -0.000000 0.476076 3.185627
v -0.000000 0.625365 3.185939
v -0.000000 0.625365 3.005831
v -0.000000 0.476076 3.006143
v 2.490385 0.125323 3.006827
v 2.490385 0.125323 3.184943
v 2.680350 0.125323 3.006827
v 2.680350 0.125323 3.184943
v -0.000000 -0.007455 3.184715
v -0.000000 0.125323 3.006827
v -0.000000 0.125323 3.184943
v 2.111282 0.480255 3.069971
v 2.111282 0.480255 3.001225
v 2.269835 0.480255 3.001225
v 2.269835 0.480255 3.069971
v 2.112069 0.125323 3.001487
v 2.112069 0.125323 3.069709
v 2.269048 0.125323 3.001487
v 2.269048 0.125323 3.069709
v 1.751143 0.480255 3.069971
v 1.751143 0.480255 3.001225
v 1.909696 0.480255 3.001225
v 1.909696 0.480255 3.069971
v 1.751930 0.125323 3.001487
v 1.751930 0.125323 3.069709
v 1.908909 0.125323 3.001487
v 1.908909 0.125323 3.069709
v 1.391005 0.480255 3.069971
v 1.391005 0.480255 3.001225
v 1.549558 0.480255 3.001225
v 1.549558 0.480255 3.069971
v 1.391792 0.125323 3.001487
v 1.391792 0.125323 3.069709
v 1.548771 0.125323 3.001487
v 1.548771 0.125323 3.069709
v 1.030866 0.480255 3.069971
v 1.030866 0.480255 3.001225
v 1.189419 0.480255 3.001225
v 1.189419 0.480255 3.069971
v 1.031653 0.125323 3.001487
v 1.031653 0.125323 3.069709
v 1.188632 0.125323 3.001487
v 1.188632 0.125323 3.069709
v 0.670727 0.480255 3.069971
v 0.670727 0.480255 3.001225
v 0.829281 0.480255 3.001225
v 0.829281 0.480255 3.069971
v 0.671515 0.125323 3.001487
v 0.671515 0.125323 3.069709
v 0.828494 0.125323 3.001487
v 0.828494 0.125323 3.069709
v 0.310589 0.480255 3.069971
v 0.310589 0.480255 3.001225
v 0.469142 0.480255 3.001225
v 0.469142 0.480255 3.069971
v 0.311376 0.125323 3.001487
v 0.311376 0.125323 3.069709
v 0.468355 0.125323 3.001487
v 0.468355 0.125323 3.069709
v -0.000000 0.480255 3.069971
v 0.085879 0.480255 3.001225
v 0.085879 0.480255 3.069971
v -0.000000 0.125323 3.069709
v 0.085092 0.125323 3.001487
v 0.085092 0.125323 3.069709
v 2.575919 0.480255 0.344749
v 2.507174 0.480255 0.344749
v 2.507174 0.480255 0.161602
v 2.575919 0.480255 0.161602
v 2.507435 0.125323 0.343840
v 2.575657 0.125323 0.343840
v 2.507435 0.125323 0.162511
v 2.575657 0.125323 0.162511
v 2.575919 0.480255 0.760750
v 2.507174 0.480255 0.760750
v 2.507174 0.480255 0.577603
v 2.575919 0.480255 0.577603
v 2.507435 0.125323 0.759841
v 2.575657 0.125323 0.759841
v 2.507435 0.125323 0.578512
v 2.575657 0.125323 0.578512
v 2.575919 0.480255 1.176752
v 2.507174 0.480255 1.176752
v 2.507174 0.480255 0.993605
v 2.575919 0.480255 0.993605
v 2.507435 0.125323 1.175843
v 2.575657 0.125323 1.175843
v 2.507435 0.125323 0.994513
v 2.575657 0.125323 0.994513
v 2.575919 0.480255 1.592753
v 2.507174 0.480255 1.592753
v 2.507174 0.480255 1.409606
v 2.575919 0.480255 1.409606
v 2.507435 0.125323 1.591844
v 2.575657 0.125323 1.591844
v 2.507435 0.125323 1.410515
v 2.575657 0.125323 1.410515
v 2.575919 0.480255 2.008754
v 2.507174 0.480255 2.008754
v 2.507174 0.480255 1.825607
v 2.575919 0.480255 1.825607
v 2.507435 0.125323 2.007845
v 2.575657 0.125323 2.007845
v 2.507435 0.125323 1.826516
v 2.575657 0.125323 1.826516
v 2.575919 0.480255 2.424755
v 2.507174 0.480255 2.424755
v 2.507174 0.480255 2.241608
v 2.575919 0.480255 2.241608
v 2.507435 0.125323 2.423846
v 2.575657 0.125323 2.423846
v 2.507435 0.125323 2.242517
v 2.575657 0.125323 2.242517
v 2.575919 0.480255 2.783521
v 2.507174 0.480255 2.783521
v 2.507174 0.480255 2.684321
v 2.575919 0.480255 2.684321
v 2.507435 0.125323 2.783521
v 2.575657 0.125323 2.783521
v 2.507435 0.125323 2.685230
v 2.575657 0.125323 2.685230
v -2.490703 -0.000417 3.184715
v -2.680033 -0.000417 3.184715
v -2.680033 -0.000417 3.007055
v -2.681736 0.629545 3.005831
v -2.681736 0.629545 3.185939
v -2.488998 0.629545 3.185939
v -2.488998 0.629545 3.005831
v -2.489433 0.480255 3.185627
v -2.489433 0.480255 3.006143
v -2.681303 0.480255 3.006143
v -2.681303 0.480255 3.185627
v -2.490385 0.125323 3.006827
v -2.490385 0.125323 3.184943
v -2.680350 0.125323 3.006827
v -2.680350 0.125323 3.184943
v -2.111282 0.480255 3.069971
v -2.111282 0.480255 3.001225
v -2.269835 0.480255 3.001225
v -2.269835 0.480255 3.069971
v -2.112069 0.125323 3.001487
v -2.112069 0.125323 3.069709
v -2.269048 0.125323 3.001487
v -2.269048 0.125323 3.069709
v -1.751143 0.480255 3.069971
v -1.751143 0.480255 3.001225
v -1.909697 0.480255 3.001225
v -1.909697 0.480255 3.069971
v -1.751931 0.125323 3.001487
v -1.751931 0.125323 3.069709
v -1.908910 0.125323 3.001487
v -1.908910 0.125323 3.069709
v -1.391005 0.480255 3.069971
v -1.391005 0.480255 3.001225
v -1.549558 0.480255 3.001225
v -1.549558 0.480255 3.069971
v -1.391792 0.125323 3.001487
v -1.391792 0.125323 3.069709
v -1.548771 0.125323 3.001487
v -1.548771 0.125323 3.069709
v -1.030866 0.480255 3.069971
v -1.030866 0.480255 3.001225
v -1.189419 0.480255 3.001225
v -1.189419 0.480255 3.069971
v -1.031653 0.125323 3.001487
v -1.031653 0.125323 3.069709
v -1.188632 0.125323 3.001487
v -1.188632 0.125323 3.069709
v -0.670728 0.480255 3.069971
v -0.670728 0.480255 3.001225
v -0.829281 0.480255 3.001225
v -0.829281 0.480255 3.069971
v -0.671515 0.125323 3.001487
v -0.671515 0.125323 3.069709
v -0.828494 0.125323 3.001487
v -0.828494 0.125323 3.069709
v -0.310589 0.480255 3.069971
v -0.310589 0.480255 3.001225
v -0.469142 0.480255 3.001225
v -0.469142 0.480255 3.069971
v -0.311376 0.125323 3.001487
v -0.311376 0.125323 3.069709
v -0.468355 0.125323 3.001487
v -0.468355 0.125323 3.069709
v -0.085879 0.480255 3.001225
v -0.085879 0.480255 3.069971
v -0.085092 0.125323 3.001487
v -0.085092 0.125323 3.069709
v -2.575919 0.480255 0.344749
v -2.507174 0.480255 0.344749
v -2.507174 0.480255 0.161602
v -2.575919 0.480255 0.161602
v -2.507436 0.125323 0.343840
v -2.575657 0.125323 0.343840
v -2.507436 0.125323 0.162511
v -2.575657 0.125323 0.162511
v -2.575919 0.480255 0.760750
v -2.507174 0.480255 0.760750
v -2.507174 0.480255 0.577603
v -2.575919 0.480255 0.577603
v -2.507436 0.125323 0.759841
v -2.575657 0.125323 0.759841
v -2.507436 0.125323 0.578512
v -2.575657 0.125323 0.578512
v -2.575919 0.480255 1.176752
v -2.507174 0.480255 1.176752
v -2.507174 0.480255 0.993605
v -2.575919 0.480255 0.993605
v -2.507436 0.125323 1.175843
v -2.575657 0.125323 1.175843
v -2.507436 0.125323 0.994513
v -2.575657 0.125323 0.994513
v -2.575919 0.480255 1.592753
v -2.507174 0.480255 1.592753
v -2.507174 0.480255 1.409606
v -2.575919 0.480255 1.409606
v -2.507436 0.125323 1.591844
v -2.575657 0.125323 1.591844
v -2.507436 0.125323 1.410515
v -2.575657 0.125323 1.410515
v -2.575919 0.480255 2.008754
v -2.507174 0.480255 2.008754
v -2.507174 0.480255 1.825607
v -2.575919 0.480255 1.825607
v -2.507436 0.125323 2.007845
v -2.575657 0.125323 2.007845
v -2.507436 0.125323 1.826516
v -2.575657 0.125323 1.826516
v -2.575919 0.480255 2.424755
v -2.507174 0.480255 2.424755
v -2.507174 0.480255 2.241608
v -2.575919 0.480255 2.241608
v -2.507436 0.125323 2.423846
v -2.575657 0.125323 2.423846
v -2.507436 0.125323 2.242517
v -2.575657 0.125323 2.242517
v -2.575919 0.480255 2.783521
v -2.507174 0.480255 2.783521
v -2.507174 0.480255 2.684321
v -2.575919 0.480255 2.684321
v -2.507436 0.125323 2.783521
v -2.575657 0.125323 2.783521
v -2.507436 0.125323 2.685230
v -2.575657 0.125323 2.685230
v -0.712666 0.643916 -0.291679
v 0.705700 0.643916 -2.339138
v 0.705700 0.643916 -0.291679
v -0.712666 0.643916 -2.339138
v 0.561960 0.643916 -0.291679
v 0.561960 0.643916 -2.339138
v -0.508332 0.643916 -0.291679
v -0.508332 0.643916 -2.339138
vn -0.0000 -1.0000 -0.0000
vn 0.5766 0.5788 -0.5766
vn -0.4571 0.6301 -0.6277
vn 1.0000 0.0006 0.0009
vn -0.0028 -0.5371 -0.8435
vn -0.0024 -0.5411 -0.8409
vn -0.0014 -0.5416 -0.8407
vn -1.0000 -0.0000 -0.0000
vn 0.2126 0.5292 0.8214
vn 0.4294 0.4891 0.7592
vn 0.4155 0.4923 0.7648
vn 0.8634 -0.5045 -0.0000
vn 0.8634 -0.5046 -0.0000
vn -0.0002 -0.0001 -1.0000
vn -0.0000 -0.0002 -1.0000
vn -0.8640 0.5036 0.0002
vn -0.8640 0.5034 0.0002
vn -0.8641 0.5034 0.0001
vn -0.6895 0.3996 -0.6041
vn -0.6360 0.3705 -0.6769
vn -0.6355 0.3703 -0.6776
vn 0.8641 0.5033 -0.0000
vn 0.8642 0.5032 0.0001
vn 0.8641 0.5033 0.0001
vn 0.6929 0.4026 -0.5981
vn 0.7429 0.4307 -0.5124
vn 0.6922 0.4024 -0.5991
vn 0.8640 0.5035 0.0001
vn -0.0000 1.0000 -0.0000
vn -0.0000 0.0003 -1.0000
vn 1.0000 -0.0000 -0.0000
vn -0.0000 -0.0000 -1.0000
vn 1.0000 -0.0000 0.0009
vn 1.0000 0.0003 0.0003
vn 1.0000 0.0003 0.0004
vn -1.0000 -0.0025 0.0017
vn -1.0000 -0.0004 0.0006
vn -0.2993 0.5160 0.8026
vn -0.3536 0.5048 0.7875
vn -0.2979 0.5161 0.8031
vn -0.0000 -0.0000 1.0000
vn -0.8641 0.5033 0.0002
vn -0.8641 0.5032 0.0001
vn -1.0000 0.0012 0.0009
vn -1.0000 0.0004 0.0012
vn -0.3795 0.4839 -0.7885
vn -0.3105 0.4986 -0.8093
vn -0.3086 0.4988 -0.8099
vn 0.3102 0.5010 -0.8079
vn 0.3967 0.4865 -0.7784
vn 0.5925 0.4223 -0.6860
vn -0.0000 0.5418 0.8405
vn -1.0000 -0.0002 -0.0010
vn -1.0000 -0.0002 -0.0003
vn -1.0000 -0.0003 -0.0004
vn -0.0000 0.5260 -0.8505
vn -0.0008 0.5263 -0.8503
vn -1.0000 -0.0002 0.0009
vn -1.0000 -0.0003 0.0007
vn -1.0000 -0.0001 0.0009
vn 1.0000 0.0019 0.0015
vn 1.0000 0.0017 0.0037
vn 1.0000 0.0017 0.0036
vn 0.1994 0.5309 0.8237
vn 0.1559 0.5226 -0.8382
vn -0.0000 0.7085 -0.7057
vn 0.7071 -0.0000 -0.7071
vn -0.0000 -0.0010 1.0000
vn -0.5887 -0.0000 -0.8083
vn -0.8628 -0.5055 -0.0000
vn -0.8628 -0.5056 -0.0000
vn -0.5872 0.8094 -0.0000
vn 0.7057 0.7085 -0.0000
vn -1.0000 0.0006 0.0009
vn -0.0000 -0.8422 0.5391
vn 0.0009 -0.8510 0.5252
vn -0.0000 -0.8419 0.5397
vn 0.3021 -0.7898 0.5338
vn -0.1114 -0.8236 0.5561
vn 0.0033 -1.0000 -0.0000
vn 0.0033 1.0000 -0.0000
vn 0.0028 1.0000 -0.0000
vn 0.0095 -0.0075 -0.9999
vn -0.0000 -0.0295 -0.9996
vn -0.0000 -0.0086 -1.0000
vn -1.0000 -0.0095 -0.0000
vn -0.9995 -0.0331 -0.0000
vn -0.9999 -0.0083 0.0110
vn 0.9995 -0.0331 -0.0000
vn 1.0000 -0.0095 -0.0000
vn -0.0000 -0.0295 0.9996
vn -0.0000 -0.0086 1.0000
vn -0.0000 0.0125 0.9999
vn 0.9999 0.0144 -0.0000
vn -0.7040 -0.0944 -0.7039
vn -0.7071 0.0061 -0.7071
vn -0.9998 0.0176 -0.0062
vn -0.9999 0.0127 0.0003
vn -0.9998 0.0192 -0.0096
vn -0.0000 -0.0288 0.9996
vn -0.0000 -0.0082 1.0000
vn 1.0000 -0.0091 -0.0000
vn -1.0000 -0.0091 -0.0000
vn -0.9995 -0.0323 -0.0000
vn -0.9999 0.0144 -0.0000
vn -0.0000 -0.0082 -1.0000
vn -0.0000 -0.0288 -0.9996
vn -0.0000 0.0125 -0.9999
vn 0.9995 -0.0323 -0.0000
vn -0.0000 0.0116 -0.9999
vn 0.0270 0.9996 -0.0000
vn -0.0000 0.9996 0.0269
vn -0.9999 0.0154 -0.0000
vn -0.0270 0.9996 0.0002
vn -0.0217 0.9998 0.0027
vn -0.0221 0.9998 0.0028
vn -0.0000 0.0116 0.9999
vn -0.0000 0.9996 -0.0269
vn -0.0270 0.9996 -0.0000
vn 0.9999 0.0154 -0.0000
vn -0.0000 -0.0096 -1.0000
vn -0.0000 -0.0315 -0.9995
vn -0.9999 -0.0106 -0.0000
vn -0.9994 -0.0354 -0.0000
vn 0.9994 -0.0354 -0.0000
vn 0.9999 -0.0106 -0.0000
vn -0.0000 -0.0315 0.9995
vn -0.0000 -0.0096 1.0000
vn -0.0000 -0.0289 0.9996
vn -0.0000 -0.0083 1.0000
vn 1.0000 -0.0092 -0.0000
vn -1.0000 -0.0092 -0.0000
vn -0.9995 -0.0325 -0.0000
vn -0.0000 -0.0083 -1.0000
vn -0.0000 -0.0289 -0.9996
vn 0.9995 -0.0325 -0.0000
vn 0.0082 -0.0090 -0.9999
vn 0.0279 -0.0338 -0.9990
vn 0.9999 0.0031 -0.0100
vn 0.0277 0.9996 0.0030
vn 0.0276 0.9996 0.0025
vn -0.0000 0.0329 -0.9995
vn -0.0000 -0.9992 -0.0391
vn 0.9997 0.0227 -0.0022
vn -0.9997 0.0227 -0.0022
vn -0.0000 0.9996 0.0295
vn 0.9987 -0.0519 -0.0000
vn -0.9995 0.0329 -0.0000
vn 0.0792 -0.9969 -0.0000
vn 0.0442 -0.9990 -0.0000
vn 0.0798 -0.9968 -0.0000
vn -0.1248 0.7088 -0.6943
vn -0.0407 0.7124 -0.7006
vn -0.0472 0.7123 -0.7003
vn 0.0082 0.0141 0.9999
vn -0.0031 0.0145 0.9999
vn -0.0434 0.9990 0.0057
vn -0.0496 0.9988 0.0036
vn -0.0499 0.9988 -0.0000
vn -0.0000 -0.9993 -0.0385
vn -0.9997 0.0197 0.0122
vn -0.9997 0.0193 0.0123
vn 0.9997 0.0202 -0.0161
vn 0.9997 0.0198 -0.0161
vn 0.9997 0.0197 -0.0161
vn -0.0000 0.9996 0.0291
vn -0.9985 -0.0547 -0.0000
vn 0.9995 0.0319 -0.0000
vn -0.0087 -1.0000 -0.0000
vn -0.0089 0.0160 -0.9998
vn -0.0097 0.0262 -0.9996
vn -0.0097 0.0267 -0.9996
vn 0.0143 0.0275 0.9995
vn 0.0151 0.0168 0.9997
vn 0.0143 0.0281 0.9995
vn -0.0186 0.9998 -0.0000
vn 1.0000 -0.0000 -0.0070
vn -0.0000 1.0000 -0.0070
vn 1.0000 -0.0000 -0.0022
vn -0.0070 -0.0000 -1.0000
vn -0.0070 1.0000 -0.0000
vn -0.0022 -0.0000 -1.0000
vn -0.0000 -1.0000 -0.0022
vn -0.0000 -1.0000 -0.0016
vn -0.0016 -1.0000 -0.0000
vn -0.0022 -1.0000 -0.0000
vn 0.0002 -0.0001 -1.0000
vn 1.0000 0.0013 -0.0003
vn 1.0000 0.0012 -0.0001
vn -0.0175 0.0232 -0.9996
vn -0.0031 0.0145 -0.9999
vn 0.0220 0.0206 0.9995
vn 0.0098 0.0144 0.9998
vn -0.0559 0.9984 -0.0000
vn 0.1146 -0.9934 -0.0000
vn 0.0368 0.7113 -0.7019
vn -0.0453 0.0349 -0.9984
vn -0.0264 0.1254 -0.9917
vn 0.7057 0.0632 -0.7057
vn 0.6930 0.1985 -0.6930
vn 0.7057 0.0631 -0.7057
vn 0.9954 -0.0382 -0.0876
vn 0.9972 -0.0694 -0.0285
vn 0.7057 -0.0625 -0.7057
vn -0.3260 0.8807 -0.3437
vn -0.1593 0.8599 -0.4850
vn -0.3185 0.8806 -0.3507
vn 0.0009 0.9996 0.0273
vn 0.0031 0.9997 0.0241
vn 0.0025 0.9996 0.0288
vn -0.4765 0.8592 -0.1865
vn 0.4604 0.2908 -0.8387
vn 0.5194 0.2999 -0.8002
vn 0.4644 0.2914 -0.8363
vn 0.3955 0.2796 -0.8749
vn -0.1449 0.7619 -0.6312
vn -0.1425 0.7611 -0.6328
vn -0.1214 0.7535 -0.6462
vn 0.7699 -0.0304 -0.6374
vn 0.7659 0.1070 -0.6340
vn 0.7699 -0.0300 -0.6374
vn 0.7600 -0.1632 -0.6291
vn -0.0153 0.0143 -0.9998
vn 0.0001 0.0132 -0.9999
vn -0.7031 0.1069 -0.7030
vn 0.1607 0.5347 0.8296
vn 1.0000 0.0014 0.0033
vn -1.0000 -0.0000 -0.0001
vn -0.2407 0.5258 0.8159
vn -0.2396 0.5260 0.8161
vn 0.4013 0.4961 0.7700
vn -0.0018 -0.5375 -0.8433
vn -0.0005 -0.5420 -0.8404
vn -0.0017 0.5266 -0.8501
vn 0.3287 0.5006 -0.8009
vn 0.7199 0.3682 -0.5884
vn -0.2345 0.5112 -0.8269
vn -0.2329 0.5114 -0.8272
vn 0.8641 0.5034 0.0002
vn 0.8640 0.5035 0.0002
vn 0.8641 0.5033 0.0002
vn -0.8641 0.5033 -0.0000
vn -0.8642 0.5032 -0.0000
vn -0.8640 0.5035 0.0001
vn -0.7418 0.4323 -0.5127
vn -0.0008 1.0000 -0.0000
vn -0.0000 -0.0020 -1.0000
vn -0.0000 -0.0021 -1.0000
vn 1.0000 -0.0029 -0.0000
vn 1.0000 -0.0028 -0.0000
vn 1.0000 -0.0026 -0.0000
vn -0.0000 -0.0019 -1.0000
vn -1.0000 -0.0027 -0.0000
vn -0.0000 -0.0019 1.0000
vn 0.0017 -1.0000 -0.0000
vn -0.0000 1.0000 0.0021
vn -0.0000 -1.0000 -0.0021
vn -0.0000 -0.0018 -1.0000
vn -0.0000 -0.0017 -1.0000
vn 1.0000 -0.0025 -0.0000
vn 1.0000 -0.0023 -0.0000
vn 1.0000 -0.0022 -0.0000
vn -0.0000 -0.0007 -1.0000
vn -1.0000 -0.0022 -0.0000
vn -0.0000 -0.0026 1.0000
vn 1.0000 -0.0007 -0.0000
vn -0.0000 -0.0026 -1.0000
vn 0.0008 1.0000 -0.0000
vn -1.0000 -0.0028 -0.0000
vn -1.0000 -0.0029 -0.0000
vn -1.0000 -0.0026 -0.0000
vn 1.0000 -0.0027 -0.0000
vn -0.0017 -1.0000 -0.0000
vn -1.0000 -0.0025 -0.0000
vn -1.0000 -0.0023 -0.0000
vn -1.0000 -0.0007 -0.0000
vn -0.0000 -0.0021 1.0000
vn -0.0000 -0.0020 1.0000
vn -0.0000 1.0000 -0.0021
vn -0.0000 -1.0000 0.0021
vn -0.0000 -0.0017 1.0000
vn -0.0000 -0.0018 1.0000
vn -0.0000 -0.0007 1.0000
vn -0.0037 -0.5367 -0.8438
vn -0.0000 -0.0003 -1.0000
vn -0.8639 0.5036 0.0002
vn 0.8642 0.5032 -0.0000
vn 0.6425 0.3743 -0.6687
vn 0.6430 0.3745 -0.6681
vn 0.7439 0.4313 -0.5105
vn -0.3550 0.5045 0.7871
vn -0.3814 0.4834 -0.7879
vn 0.0009 -0.8513 0.5247
vn -0.9991 0.0415 -0.0000
vn -0.0297 0.9996 -0.0000
vn 0.9951 -0.0857 -0.0485
vn 1.0000 0.0062 -0.0000
vn 0.0286 0.9996 0.0071
vn -0.0438 0.9990 -0.0000
vn -0.0206 0.9621 0.2720
vn 0.9997 0.0203 -0.0161
vn -0.0089 0.0156 -0.9998
vn 0.0152 0.0164 0.9998
vn -0.0161 0.0149 -0.9998
vn 0.0221 0.0216 0.9995
vn -0.0495 0.0253 -0.9985
vn 0.9966 -0.0823 -0.0000
vn -0.0000 0.9993 0.0367
vn -0.1581 0.7664 -0.6226
vn -0.9656 0.0369 0.2574
vn -0.3008 0.0470 -0.9525
vn 0.2187 0.0314 -0.9753
vn -0.7422 0.4325 -0.5120
vt 0.023433 0.622220
vt 0.023433 0.624828
vt 0.023433 0.619612
vt 0.053152 0.523654
vt 0.075410 0.555655
vt 0.216173 0.576373
vt 0.188063 0.661488
vt 0.159953 0.575858
vt 0.011078 0.621259
vt 0.023159 0.618239
vt 0.023159 0.621259
vt 0.022144 0.623773
vt 0.024081 0.623239
vt 0.024081 0.623773
vt 0.113594 0.590667
vt 0.113594 0.524501
vt 0.007382 0.630818
vt 0.020870 0.627311
vt 0.020870 0.630818
vt 0.012995 0.636516
vt 0.003951 0.635783
vt 0.013483 0.635783
vt 0.113473 0.527779
vt 0.046157 0.591374
vt 0.031628 0.527779
vt 0.015675 0.643657
vt 0.005197 0.643657
vt 0.077182 0.527779
vt 0.113473 0.591374
vt 0.057658 0.591374
vt 0.013698 0.642521
vt 0.019360 0.642521
vt 0.046157 0.527779
vt 0.124177 0.591373
vt 0.015883 0.628397
vt 0.013275 0.628122
vt 0.015883 0.628122
vt 0.028814 0.694409
vt 0.058479 0.643263
vt 0.058479 0.694409
vt 0.407256 0.849833
vt 0.412098 0.850802
vt 0.407256 0.850802
vt 0.011265 0.634982
vt 0.004871 0.624207
vt 0.011265 0.624207
vt 0.014462 0.624207
vt 0.216173 0.640317
vt 0.159953 0.563701
vt 0.216173 0.563701
vt 0.020962 0.633339
vt 0.016021 0.633613
vt 0.011079 0.644046
vt 0.023097 0.636497
vt 0.005056 0.637395
vt 0.005056 0.636497
vt 0.113567 0.591514
vt 0.113567 0.523654
vt 0.012894 0.624094
vt 0.010219 0.624375
vt 0.010219 0.624094
vt 0.179119 0.592851
vt 0.159953 0.640305
vt 0.159953 0.565033
vt 0.200202 0.627214
vt 0.161231 0.565033
vt 0.200202 0.565033
vt 0.411129 0.852738
vt 0.406287 0.851770
vt 0.411129 0.851770
vt 0.028814 0.643263
vt 0.005975 0.623302
vt 0.023407 0.623969
vt 0.005975 0.623969
vt 0.099646 0.562099
vt 0.052835 0.562099
vt 0.005432 0.634280
vt 0.004527 0.632400
vt 0.005432 0.632400
vt 0.097862 0.527779
vt 0.046157 0.527779
vt 0.004712 0.623773
vt 0.002775 0.623239
vt 0.004712 0.623239
vt 0.407256 0.851770
vt 0.215534 0.565033
vt 0.197646 0.592851
vt 0.052835 0.554452
vt 0.099646 0.554452
vt 0.053152 0.524501
vt 0.053152 0.590667
vt 0.175925 0.624760
vt 0.214895 0.565033
vt 0.214895 0.640305
vt 0.161231 0.641941
vt 0.216173 0.640305
vt 0.197646 0.640305
vt 0.018354 0.651733
vt 0.025080 0.651184
vt 0.025080 0.651733
vt 0.113594 0.523654
vt 0.053152 0.591514
vt 0.053152 0.523653
vt 0.018080 0.651285
vt 0.024806 0.651733
vt 0.017668 0.651733
vt 0.004513 0.631776
vt 0.010987 0.631213
vt 0.011409 0.631776
vt 0.053152 0.591514
vt 0.053152 0.523654
vt 0.013720 0.628096
vt 0.013720 0.627814
vt 0.161231 0.652614
vt 0.214895 0.563701
vt 0.214895 0.652614
vt 0.020856 0.624207
vt 0.014462 0.634982
vt 0.020962 0.633613
vt 0.020870 0.634325
vt 0.007112 0.630818
vt 0.005314 0.629869
vt 0.023354 0.631257
vt 0.005314 0.631257
vt 0.471483 0.991999
vt 0.605504 0.868516
vt 0.605504 0.991999
vt 0.023354 0.634035
vt 0.005314 0.632646
vt 0.023354 0.632646
vt 0.100245 0.554452
vt 0.004712 0.621638
vt 0.022144 0.621905
vt 0.004712 0.621905
vt 0.473475 0.990511
vt 0.604217 0.870004
vt 0.604217 0.990511
vt 0.052235 0.562099
vt 0.052235 0.554452
vt 0.216173 0.587921
vt 0.159953 0.587921
vt 0.188063 0.661242
vt 0.412098 0.852738
vt 0.407256 0.852738
vt 0.190480 0.582693
vt 0.182075 0.581734
vt 0.167476 0.564462
vt 0.182075 0.618195
vt 0.205079 0.564462
vt 0.186056 0.659454
vt 0.190480 0.618195
vt 0.011417 0.617193
vt 0.020856 0.634982
vt 0.014701 0.633443
vt 0.011222 0.649328
vt 0.011222 0.633443
vt 0.021658 0.633443
vt 0.014701 0.649328
vt 0.004266 0.633443
vt 0.004266 0.649328
vt 0.021658 0.627866
vt 0.004266 0.627866
vt 0.011222 0.627866
vt 0.014701 0.628435
vt 0.014258 0.627866
vt 0.015701 0.627866
vt 0.021658 0.622289
vt 0.014701 0.627297
vt 0.011222 0.622289
vt 0.004266 0.622289
vt 0.014701 0.622289
vt 0.076800 0.581376
vt 0.075549 0.547286
vt 0.076718 0.547286
vt 0.076646 0.557775
vt 0.075476 0.528056
vt 0.076646 0.528056
vt 0.074880 0.547286
vt 0.076049 0.547286
vt 0.076646 0.586621
vt 0.075799 0.581376
vt 0.075476 0.586621
vt 0.076646 0.586621
vt 0.014701 0.617559
vt 0.011734 0.622289
vt 0.011222 0.619223
vt 0.021658 0.617559
vt 0.010629 0.622289
vt 0.011300 0.622289
vt 0.004266 0.617559
vt 0.011223 0.617559
vt 0.021658 0.649328
vt 0.012221 0.633443
vt 0.011222 0.628677
vt 0.012221 0.633443
vt 0.015842 0.622289
vt 0.012439 0.622289
vt 0.014701 0.620749
vt 0.021658 0.641385
vt 0.014701 0.641385
vt 0.012358 0.641385
vt 0.011223 0.636977
vt 0.004266 0.641385
vt 0.017371 0.622289
vt 0.013206 0.622289
vt 0.014701 0.621378
vt 0.017888 0.620213
vt 0.011109 0.625994
vt 0.011109 0.620213
vt 0.017888 0.625994
vt 0.011109 0.625994
vt 0.011109 0.624682
vt 0.015111 0.625994
vt 0.015111 0.625994
vt 0.005975 0.628825
vt 0.023407 0.629808
vt 0.005975 0.629808
vt 0.004712 0.626371
vt 0.022144 0.626765
vt 0.004712 0.626765
vt 0.022144 0.626371
vt 0.002775 0.629519
vt 0.024081 0.629519
vt 0.022144 0.629519
vt 0.024081 0.628732
vt 0.004712 0.629519
vt 0.002775 0.628732
vt 0.004712 0.628732
vt 0.022144 0.621638
vt 0.002775 0.623773
vt 0.022144 0.628983
vt 0.024081 0.628250
vt 0.024081 0.628983
vt 0.005975 0.628337
vt 0.023407 0.629253
vt 0.005975 0.629253
vt 0.004712 0.628983
vt 0.002775 0.628250
vt 0.004712 0.628250
vt 0.004712 0.626051
vt 0.022144 0.626418
vt 0.004712 0.626418
vt 0.022144 0.626051
vt 0.002775 0.628983
vt 0.013728 0.638960
vt 0.004440 0.638227
vt 0.013483 0.638227
vt 0.002742 0.621035
vt 0.012711 0.618798
vt 0.012199 0.620476
vt 0.012966 0.626068
vt 0.003253 0.624390
vt 0.012711 0.624390
vt 0.158773 0.568622
vt 0.216446 0.568622
vt 0.187270 0.658550
vt 0.011128 0.631776
vt 0.004794 0.631213
vt 0.011691 0.631072
vt 0.011109 0.625994
vt 0.008968 0.633443
vt 0.011223 0.634223
vt 0.011222 0.634223
vt 0.014986 0.622289
vt 0.014701 0.621378
vt 0.008661 0.641385
vt 0.011223 0.647172
vt 0.015701 0.627866
vt 0.113594 0.524501
vt 0.018306 0.631213
vt 0.018306 0.631776
vt 0.011353 0.651184
vt 0.010530 0.651733
vt 0.011077 0.624280
vt 0.023159 0.624279
vt 0.018588 0.631776
vt 0.018588 0.630931
vt 0.113594 0.523654
vt 0.113594 0.523653
vt 0.011628 0.651733
vt 0.017942 0.651184
vt 0.099646 0.554452
vt 0.053152 0.523654
vt 0.015568 0.624094
vt 0.012894 0.624375
vt 0.018491 0.628397
vt 0.018491 0.628122
vt 0.021657 0.619916
vt 0.022680 0.618798
vt 0.022527 0.638227
vt 0.007112 0.627311
vt 0.057658 0.527779
vt 0.022168 0.624390
vt 0.082447 0.527779
vt 0.113473 0.527779
vt 0.031627 0.591373
vt 0.017276 0.527780
vt 0.022038 0.636272
vt 0.023016 0.635783
vt 0.007382 0.634325
vt 0.026152 0.643657
vt 0.012503 0.645236
vt 0.012503 0.627697
vt 0.012503 0.607207
vt 0.012503 0.614979
vt 0.012503 0.614547
vt 0.012503 0.643725
vt 0.012503 0.629208
vt 0.577175 0.993794
vt 0.494177 0.869625
vt 0.577175 0.869625
vt 0.020336 0.612961
vt 0.013766 0.613340
vt 0.013766 0.612961
vt 0.009824 0.614068
vt 0.016832 0.614775
vt 0.009824 0.614775
vt 0.020336 0.613435
vt 0.013811 0.614806
vt 0.004822 0.615653
vt 0.004822 0.614806
vt 0.011138 0.615141
vt 0.012014 0.613151
vt 0.012014 0.615141
vt 0.012890 0.615247
vt 0.011576 0.614445
vt 0.012890 0.614445
vt 0.020203 0.614018
vt 0.007019 0.616784
vt 0.007019 0.614018
vt 0.016832 0.614068
vt 0.020336 0.611531
vt 0.013766 0.611738
vt 0.013766 0.611531
vt 0.020336 0.611789
vt 0.011138 0.612721
vt 0.012014 0.611634
vt 0.012014 0.612721
vt 0.020203 0.612108
vt 0.007019 0.613618
vt 0.007019 0.612108
vt 0.012984 0.621793
vt 0.015792 0.621793
vt 0.012984 0.620542
vt 0.011580 0.621793
vt 0.011580 0.620542
vt 0.008772 0.620542
vt 0.008772 0.621793
vt 0.008772 0.617799
vt 0.011580 0.617799
vt 0.012984 0.617799
vt 0.015792 0.617799
vt 0.015792 0.620542
vt 0.012984 0.616885
vt 0.011580 0.616885
vt 0.008772 0.616885
vt 0.011950 0.633113
vt 0.010624 0.621198
vt 0.011950 0.621198
vt 0.012613 0.621198
vt 0.013940 0.621198
vt 0.012613 0.633113
vt 0.010624 0.633113
vt 0.040372 0.950370
vt 0.036322 0.950908
vt 0.036322 0.943986
vt 0.036321 0.951048
vt 0.040371 0.950370
vt 0.040371 0.957292
vt 0.032331 0.960454
vt 0.032208 0.960454
vt 0.032722 0.997934
vt 0.040372 0.957292
vt 0.036321 0.944126
vt 0.032844 0.997934
vt 0.011079 0.618239
vt 0.022144 0.623239
vt 0.007382 0.627311
vt 0.003951 0.636761
vt 0.008036 0.642521
vt 0.142353 0.527781
vt 0.013275 0.628397
vt 0.412098 0.849833
vt 0.004871 0.634982
vt 0.159953 0.639802
vt 0.023097 0.637395
vt 0.179119 0.640305
vt 0.406287 0.852738
vt 0.023407 0.623302
vt 0.004527 0.634280
vt 0.412098 0.851770
vt 0.175925 0.565033
vt 0.113594 0.591514
vt 0.024806 0.651386
vt 0.003668 0.631213
vt 0.161231 0.563701
vt 0.007112 0.634325
vt 0.023354 0.629869
vt 0.471483 0.868516
vt 0.005314 0.634035
vt 0.473475 0.870004
vt 0.075476 0.557775
vt 0.074797 0.581376
vt 0.008968 0.633443
vt 0.023407 0.628825
vt 0.022144 0.628732
vt 0.022144 0.628250
vt 0.023407 0.628337
vt 0.003951 0.639205
vt 0.002742 0.618798
vt 0.002742 0.626627
vt 0.003668 0.631776
vt 0.014701 0.628435
vt 0.010804 0.651184
vt 0.053152 0.591514
vt 0.015568 0.624375
vt 0.023505 0.638716
vt 0.124177 0.527780
vt 0.023191 0.625508
vt 0.097862 0.591374
vt 0.494177 0.993794
vt 0.020336 0.613340
vt 0.013766 0.613435
vt 0.013811 0.615653
vt 0.011138 0.613151
vt 0.011576 0.615247
vt 0.020203 0.616784
vt 0.020336 0.611738
vt 0.013766 0.611789
vt 0.011138 0.611634
vt 0.020203 0.613618
vt 0.013940 0.633113
s 1
usemtl Diffuse
f 445/1/1 5/2/1 4/3/1
f 7/4/2 9/4/2 8/4/2
f 10/5/3 12/5/3 11/5/3
f 13/6/4 15/7/4 14/8/4
f 437/9/5 92/10/6 436/11/7
f 29/12/8 28/13/8 30/14/8
f 432/15/9 82/16/10 431/15/11
f 461/17/12 37/18/12 460/19/13
f 460/20/14 39/21/15 462/22/14
f 459/23/16 40/24/17 458/25/18
f 459/26/19 39/27/20 41/27/21
f 35/28/22 456/29/23 455/30/24
f 454/31/25 36/32/26 453/31/27
f 36/33/28 455/34/24 453/24/28
f 448/35/8 6/36/8 445/37/8
f 22/38/29 111/39/29 21/40/29
f 62/41/30 63/42/30 61/43/30
f 97/44/31 95/45/31 94/46/31
f 98/47/32 97/44/32 94/46/32
f 13/48/33 17/49/33 16/50/33
f 5/51/32 52/52/32 8/53/32
f 45/54/29 43/55/29 42/56/29
f 55/57/29 446/4/29 447/58/29
f 450/59/31 89/60/34 93/61/35
f 59/62/36 68/63/8 70/64/37
f 74/65/32 16/66/32 73/67/32
f 105/47/32 106/44/32 109/46/32
f 64/68/1 66/69/1 63/70/1
f 22/71/29 18/40/29 159/38/29
f 24/72/29 29/73/29 23/74/29
f 435/75/38 76/76/39 434/75/40
f 49/77/41 45/78/41 46/79/41
f 458/80/18 387/24/42 463/81/43
f 23/82/31 25/83/31 24/84/31
f 62/42/29 60/85/29 59/43/29
f 70/64/37 69/86/44 62/87/45
f 79/88/46 444/89/47 441/89/48
f 70/64/37 62/87/45 59/62/36
f 438/90/49 81/91/50 439/90/51
f 76/90/52 433/15/52 434/91/52
f 71/92/32 70/93/32 68/94/32
f 71/92/32 13/95/32 74/65/32
f 71/92/32 68/94/32 13/95/32
f 62/87/8 67/96/8 64/97/8
f 443/98/53 56/99/54 4/100/55
f 441/101/56 84/102/56 440/103/57
f 437/104/58 77/105/59 435/106/60
f 92/107/61 431/108/62 436/109/63
f 433/91/52 83/16/64 432/15/9
f 440/101/57 80/110/65 438/111/49
f 8/4/66 53/101/66 7/4/66
f 57/57/29 447/4/29 449/58/29
f 48/77/32 42/78/32 43/79/32
f 21/38/29 20/39/29 19/40/29
f 9/112/67 51/113/67 8/112/67
f 67/114/68 17/115/68 14/116/68
f 101/117/8 99/118/8 98/47/8
f 11/119/69 6/51/69 10/119/69
f 32/120/70 452/121/71 457/19/70
f 47/122/8 45/123/8 42/124/8
f 119/125/8 117/126/8 116/127/8
f 49/128/31 43/129/31 44/130/31
f 448/88/72 57/131/72 449/88/72
f 21/71/29 160/40/29 18/38/29
f 102/117/8 104/118/8 105/47/8
f 25/132/32 27/133/32 24/134/32
f 115/135/32 113/136/32 112/137/32
f 52/138/66 12/139/66 53/138/66
f 106/44/31 108/45/31 109/46/31
f 446/90/73 89/102/73 451/90/73
f 68/140/74 67/141/74 58/142/74
f 60/85/41 65/143/41 59/144/41
f 120/145/32 122/146/32 121/147/32
f 123/148/32 121/147/32 122/146/32
f 120/145/32 121/147/32 124/149/32
f 125/150/32 121/147/32 123/148/32
f 124/149/32 126/151/32 120/145/32
f 126/151/32 125/150/32 123/148/32
f 124/149/32 125/150/32 126/151/32
f 87/152/75 83/152/76 85/152/77
f 91/152/78 82/152/78 83/152/78
f 76/152/79 77/152/79 87/152/79
f 134/46/32 129/118/32 131/44/32
f 127/117/80 129/118/80 130/47/80
f 131/44/81 133/45/81 134/46/81
f 130/47/31 133/45/31 127/117/31
f 128/153/8 131/44/8 129/118/8
f 138/47/32 139/44/32 142/46/32
f 139/44/82 141/45/82 142/46/82
f 138/47/31 141/45/31 135/117/31
f 136/153/8 139/44/8 137/118/8
f 150/154/83 145/155/84 148/156/85
f 149/157/86 144/158/87 150/154/88
f 145/155/89 147/159/90 148/156/90
f 146/160/91 149/157/92 147/159/92
f 147/159/92 426/161/93 424/162/93
f 148/156/90 424/162/94 425/163/94
f 427/164/95 428/165/96 430/166/96
f 167/167/97 430/166/98 429/168/99
f 155/160/100 152/157/101 154/159/101
f 180/169/94 154/159/102 179/170/94
f 152/157/103 157/158/104 151/154/103
f 179/170/93 152/157/101 178/167/93
f 181/171/105 152/157/103 151/154/103
f 151/154/106 156/155/107 153/156/106
f 181/171/108 153/156/106 180/169/108
f 156/155/109 154/159/102 153/156/102
f 164/172/8 160/173/8 166/174/8
f 19/175/32 166/176/32 160/177/32
f 110/173/31 162/178/31 20/179/31
f 159/180/41 161/176/41 110/177/41
f 18/181/8 163/178/8 159/179/8
f 162/182/32 19/175/32 20/183/32
f 173/184/110 410/185/110 409/186/110
f 167/167/111 177/171/111 171/167/111
f 169/169/112 410/185/112 177/171/112
f 172/187/113 177/171/113 173/184/113
f 168/170/114 412/188/115 411/189/116
f 176/170/117 172/187/117 175/190/117
f 167/167/118 176/170/118 168/170/118
f 180/169/119 187/170/119 188/169/119
f 181/171/111 182/167/111 178/167/111
f 184/184/110 188/169/110 185/191/110
f 184/184/113 182/167/113 189/171/113
f 185/191/120 187/170/120 186/190/120
f 187/170/117 183/187/117 186/190/117
f 181/171/112 188/169/112 189/171/112
f 178/167/118 187/170/118 179/170/118
f 197/154/121 192/155/122 195/156/121
f 196/157/123 191/158/124 197/154/123
f 192/155/125 194/159/126 195/156/126
f 193/160/127 196/157/128 194/159/128
f 194/159/128 206/167/93 207/170/93
f 195/156/126 207/170/94 208/169/94
f 209/171/105 196/157/123 197/154/123
f 209/171/108 195/156/121 208/169/108
f 202/160/129 199/157/130 201/159/130
f 220/169/94 201/159/131 219/170/94
f 198/154/132 205/192/133 204/158/133
f 219/170/93 199/157/130 218/167/93
f 221/171/105 199/157/132 198/154/132
f 200/156/134 204/158/135 203/155/135
f 221/171/108 200/156/134 220/169/108
f 200/156/131 202/160/136 201/159/131
f 207/170/119 216/169/119 208/169/119
f 206/167/111 217/171/111 210/167/111
f 212/184/110 216/169/110 213/191/110
f 211/187/113 217/171/113 212/184/113
f 216/169/120 214/190/120 213/191/120
f 215/170/117 211/187/117 214/190/117
f 208/169/112 217/171/112 209/171/112
f 207/170/118 210/167/118 215/170/118
f 220/169/119 227/170/119 228/169/119
f 221/171/111 222/167/111 218/167/111
f 224/184/110 228/169/110 225/191/110
f 224/184/113 222/167/113 229/171/113
f 225/191/120 227/170/120 226/190/120
f 227/170/117 223/187/117 226/190/117
f 220/169/112 229/171/112 221/171/112
f 219/170/118 222/167/118 227/170/118
f 235/157/123 231/158/124 236/154/123
f 240/171/108 404/193/137 403/194/108
f 233/160/127 235/157/128 234/159/128
f 234/159/128 237/167/93 238/170/93
f 404/195/137 231/158/122 232/155/138
f 237/167/105 236/154/123 240/171/105
f 403/194/94 234/159/139 238/170/94
f 238/170/119 247/169/119 239/169/119
f 240/171/111 416/196/111 241/167/111
f 243/184/110 414/197/110 247/169/110
f 247/169/120 245/190/120 244/191/120
f 246/170/117 242/187/117 245/190/117
f 242/187/113 416/196/113 415/198/113
f 237/167/118 246/170/118 238/170/118
f 419/199/124 249/158/124 418/200/124
f 255/154/121 423/201/122 422/202/122
f 251/160/127 419/199/127 417/203/127
f 252/159/128 256/167/93 257/170/93
f 258/169/94 252/159/126 257/170/94
f 259/171/105 254/157/123 255/154/123
f 259/171/108 253/156/121 258/169/108
f 257/170/119 266/169/119 258/169/119
f 259/171/140 408/204/141 260/167/111
f 262/184/110 406/205/110 266/169/110
f 266/169/120 264/190/120 263/191/120
f 265/170/117 261/187/117 264/190/117
f 261/187/113 408/204/113 407/206/113
f 256/167/118 265/170/118 257/170/118
f 274/207/142 272/208/142 273/209/142
f 270/207/143 273/209/143 269/209/143
f 268/208/144 273/209/144 272/208/144
f 267/210/145 274/207/145 270/207/145
f 268/208/146 271/210/146 267/210/146
f 276/208/147 278/207/147 277/209/147
f 282/207/148 280/208/148 281/209/148
f 394/207/149 281/209/150 395/209/151
f 400/211/152 397/212/153 399/213/154
f 394/207/155 279/210/156 282/207/156
f 276/208/157 399/214/158 396/210/159
f 288/208/142 290/207/142 289/209/142
f 285/209/160 290/207/160 286/207/160
f 284/208/161 289/209/162 285/209/161
f 290/207/163 283/210/164 286/207/165
f 287/210/166 284/208/166 283/210/166
f 294/207/167 292/208/167 293/209/167
f 296/208/168 298/207/168 297/209/168
f 293/209/169 298/207/169 294/207/169
f 296/208/170 293/209/171 292/208/172
f 294/207/173 295/210/174 291/210/175
f 295/210/176 292/208/176 291/210/176
f 300/215/8 305/216/8 299/217/8
f 301/218/32 303/219/32 300/220/32
f 304/221/177 302/222/177 306/223/177
f 313/224/31 312/225/31 314/223/31
f 308/215/1 313/216/1 307/217/1
f 307/226/8 309/227/8 308/228/8
f 309/218/32 311/219/32 308/220/32
f 312/221/178 310/222/178 314/223/178
f 316/72/8 321/73/8 315/74/8
f 317/132/32 319/133/32 316/134/32
f 320/229/179 318/230/179 322/14/179
f 324/72/8 329/73/8 323/74/8
f 325/132/32 327/133/32 324/134/32
f 328/229/179 326/230/179 330/14/179
f 337/12/8 336/13/8 338/14/8
f 332/72/29 337/73/29 331/74/29
f 331/82/31 333/83/31 332/84/31
f 333/132/32 335/133/32 332/134/32
f 345/231/41 344/232/41 346/233/41
f 340/234/29 345/235/29 339/236/29
f 339/237/32 341/238/32 340/239/32
f 341/240/8 343/241/8 340/242/8
f 348/234/41 353/235/41 347/236/41
f 349/240/8 351/241/8 348/242/8
f 352/243/180 350/244/180 354/233/180
f 356/234/1 361/235/1 355/236/1
f 357/240/8 359/241/8 356/242/8
f 360/243/181 358/244/181 362/233/181
f 364/234/41 369/235/41 363/236/41
f 365/240/8 367/241/8 364/242/8
f 368/243/182 366/244/182 370/233/182
f 372/234/41 377/235/41 371/236/41
f 372/242/8 376/243/8 375/241/8
f 376/243/182 374/244/182 378/233/182
f 385/231/41 384/232/41 386/233/41
f 380/234/29 385/235/29 379/236/29
f 379/237/32 381/238/32 380/239/32
f 381/240/8 383/241/8 380/242/8
f 336/229/183 334/230/183 338/14/183
f 28/229/184 26/230/184 30/14/184
f 344/243/185 342/244/185 346/233/185
f 384/243/186 382/244/186 386/233/186
f 454/245/187 1/246/15 452/247/187
f 389/248/41 456/249/41 457/250/41
f 463/251/41 38/252/41 461/253/41
f 391/254/41 392/255/41 393/256/41
f 439/257/188 92/258/61 442/259/189
f 397/212/190 281/209/191 280/208/191
f 278/207/192 396/210/193 394/207/155
f 399/213/158 280/208/194 279/210/194
f 278/207/195 395/209/151 277/209/195
f 397/212/153 398/260/196 399/213/154
f 277/209/197 397/212/190 400/211/198
f 402/261/199 403/194/200 404/193/201
f 401/262/202 233/160/203 234/159/139
f 401/263/204 402/261/199 404/193/201
f 405/264/205 406/205/206 407/265/207
f 258/169/208 406/205/209 405/264/210
f 408/204/211 405/264/205 407/265/207
f 409/186/212 410/185/213 411/189/214
f 409/186/120 176/170/120 175/190/120
f 412/188/215 409/186/212 411/189/214
f 413/171/216 415/198/217 416/196/218
f 239/169/112 414/197/112 413/171/112
f 417/203/127 254/157/128 252/159/128
f 423/201/122 249/158/122 250/155/122
f 254/157/123 418/200/124 255/154/123
f 422/202/125 417/203/125 252/159/126
f 421/266/219 422/202/220 423/201/221
f 420/267/125 251/160/125 417/203/125
f 420/267/222 421/266/219 423/201/221
f 430/268/98 149/157/86 150/154/88
f 170/171/223 428/165/224 425/163/108
f 169/169/94 424/162/94 168/170/94
f 424/162/93 167/167/93 168/170/93
f 428/165/96 429/168/225 430/166/96
f 428/165/224 150/154/83 148/156/85
f 84/91/52 432/269/9 80/15/226
f 436/109/63 82/270/227 91/271/227
f 86/272/228 435/106/60 78/273/228
f 434/90/52 84/15/52 75/91/52
f 78/75/229 434/76/40 75/75/230
f 432/269/9 81/15/231 80/15/226
f 87/274/232 436/11/7 91/275/233
f 89/276/34 442/259/189 93/277/35
f 90/278/234 438/110/49 88/111/235
f 79/279/56 440/102/57 90/103/234
f 86/280/228 444/281/53 443/98/53
f 438/91/49 89/90/236 88/90/235
f 441/88/48 78/89/237 75/89/238
f 7/4/73 451/91/73 9/4/73
f 10/139/72 449/282/72 12/139/72
f 449/57/29 53/283/29 12/58/29
f 50/284/31 451/285/31 450/59/31
f 447/57/29 7/283/29 53/58/29
f 56/286/54 445/37/8 4/287/55
f 32/288/41 456/249/41 388/289/41
f 31/290/32 454/245/187 452/247/187
f 457/19/70 1/291/71 389/18/70
f 453/81/28 34/29/239 2/24/240
f 455/292/24 390/29/241 34/24/239
f 32/293/41 463/251/41 461/253/41
f 35/294/242 463/24/43 388/33/243
f 36/295/244 458/296/18 35/297/242
f 31/298/32 462/22/14 33/299/32
f 32/300/12 460/19/13 31/120/13
f 459/26/19 33/301/245 462/26/19
f 465/302/8 476/303/8 475/303/8
f 480/304/29 490/304/29 483/304/29
f 471/302/31 478/303/31 477/303/31
f 473/302/29 469/302/29 471/302/29
f 467/302/29 474/302/29 473/302/29
f 483/304/8 491/305/8 482/305/8
f 476/303/32 472/306/32 466/306/32
f 477/303/31 468/306/31 470/306/31
f 479/303/32 470/306/32 472/306/32
f 475/303/8 466/306/8 464/306/8
f 479/303/32 481/307/32 480/308/32
f 471/302/32 481/307/32 473/302/32
f 477/303/32 482/307/32 471/302/32
f 477/303/32 480/308/32 483/308/32
f 476/303/32 485/307/32 484/308/32
f 473/302/32 485/307/32 467/302/32
f 479/303/32 486/307/32 473/302/32
f 476/303/32 487/308/32 479/303/32
f 488/309/32 490/310/32 489/311/32
f 492/309/32 494/310/32 493/311/32
f 486/305/1 492/305/1 485/305/1
f 485/305/31 493/304/31 484/304/31
f 482/305/1 488/305/1 481/305/1
f 487/304/8 495/305/8 486/305/8
f 481/305/31 489/304/31 480/304/31
f 484/304/29 494/304/29 487/304/29
f 496/312/31 498/313/31 497/314/31
f 507/315/31 505/316/31 504/317/31
f 502/318/8 501/314/8 503/312/8
f 509/319/29 504/320/29 505/321/29
f 498/322/32 500/323/32 497/324/32
f 510/325/32 505/326/32 506/327/32
f 496/328/29 500/329/29 502/330/29
f 509/317/8 511/331/8 508/316/8
f 512/332/31 514/333/31 513/334/31
f 518/335/8 517/334/8 519/332/8
f 514/336/32 516/337/32 513/338/32
f 512/339/29 516/340/29 518/341/29
f 525/342/246 533/343/29 526/343/246
f 527/344/247 524/345/248 530/346/247
f 524/345/249 529/347/250 530/346/250
f 525/342/246 523/348/29 524/345/29
f 530/346/250 541/349/251 542/350/251
f 540/351/252 530/346/247 542/350/252
f 539/352/253 527/344/253 540/351/253
f 529/347/254 539/352/254 541/349/254
f 528/353/255 531/344/1 527/344/255
f 527/344/248 532/342/248 525/342/248
f 526/343/256 536/348/256 523/348/256
f 529/347/249 536/348/249 537/347/249
f 529/347/257 538/353/1 528/353/257
f 539/352/29 548/349/29 541/349/29
f 520/354/258 545/351/259 540/351/258
f 521/355/258 540/351/252 542/350/252
f 521/355/260 541/349/251 522/356/260
f 540/351/29 544/352/29 539/352/29
f 522/356/260 548/349/261 546/356/261
f 552/357/262 555/358/262 556/359/262
f 554/360/263 552/357/263 556/359/263
f 553/361/264 549/362/264 554/360/264
f 560/357/262 563/358/262 564/359/262
f 562/360/263 560/357/263 564/359/263
f 561/361/264 557/362/264 562/360/264
f 568/357/262 571/358/262 572/359/262
f 570/360/263 568/357/263 572/359/263
f 569/361/264 565/362/264 570/360/264
f 576/357/262 579/358/262 580/359/262
f 578/360/263 576/357/263 580/359/263
f 577/361/264 573/362/264 578/360/264
f 584/357/262 587/358/262 588/359/262
f 586/360/263 584/357/263 588/359/263
f 585/361/264 581/362/264 586/360/264
f 592/357/262 595/358/262 596/359/262
f 596/359/263 589/362/263 592/357/263
f 593/361/264 589/362/264 594/360/264
f 599/357/262 601/358/262 602/359/262
f 602/359/263 597/362/263 599/357/263
f 606/357/265 609/358/265 610/359/265
f 608/360/266 606/357/266 610/359/266
f 607/361/267 603/362/267 608/360/267
f 614/357/265 617/358/265 618/359/265
f 618/359/266 611/362/266 614/357/266
f 615/361/267 611/362/267 616/360/267
f 626/359/265 621/363/265 625/358/265
f 624/360/266 622/357/266 626/359/266
f 623/361/267 619/362/267 624/360/267
f 630/357/265 633/358/265 634/359/265
f 634/359/266 627/362/266 630/357/266
f 631/361/267 627/362/267 632/360/267
f 638/357/265 641/358/265 642/359/265
f 640/360/266 638/357/266 642/359/266
f 639/361/267 635/362/267 640/360/267
f 646/357/265 649/358/265 650/359/265
f 648/360/266 646/357/266 650/359/266
f 647/361/267 643/362/267 648/360/267
f 654/357/265 657/358/265 658/359/265
f 658/359/266 651/362/266 654/357/266
f 655/361/32 651/362/32 656/360/32
f 533/343/29 664/342/268 665/343/268
f 663/345/248 666/344/247 669/346/247
f 668/347/269 663/345/270 669/346/269
f 662/348/29 664/342/268 663/345/29
f 676/349/271 669/346/269 677/350/271
f 669/346/247 675/351/252 677/350/252
f 666/344/272 674/352/272 675/351/272
f 674/352/254 668/347/254 676/349/254
f 531/344/1 667/353/273 666/344/273
f 532/342/248 666/344/248 664/342/248
f 671/348/256 665/343/256 662/348/256
f 668/347/270 671/348/270 662/348/270
f 673/353/1 668/347/257 667/353/257
f 680/349/29 674/352/29 676/349/29
f 545/351/259 659/354/258 675/351/258
f 660/355/258 675/351/252 659/354/258
f 660/355/274 676/349/271 677/350/271
f 544/352/29 675/351/29 674/352/29
f 661/356/274 680/349/275 676/349/274
f 687/358/264 684/357/264 688/359/264
f 684/357/263 686/360/263 688/359/263
f 681/362/262 685/361/262 686/360/262
f 695/358/264 692/357/264 696/359/264
f 692/357/263 694/360/263 696/359/263
f 689/362/262 693/361/262 694/360/262
f 703/358/264 700/357/264 704/359/264
f 700/357/263 702/360/263 704/359/263
f 697/362/262 701/361/262 702/360/262
f 711/358/264 708/357/264 712/359/264
f 708/357/263 710/360/263 712/359/263
f 705/362/262 709/361/262 710/360/262
f 719/358/264 716/357/264 720/359/264
f 716/357/263 718/360/263 720/359/263
f 713/362/262 717/361/262 718/360/262
f 727/358/264 724/357/264 728/359/264
f 728/359/263 721/362/263 726/360/263
f 721/362/262 725/361/262 726/360/262
f 731/358/264 730/357/264 732/359/264
f 732/359/263 597/362/263 600/360/263
f 739/358/265 736/357/265 740/359/265
f 736/357/276 738/360/276 740/359/276
f 733/362/267 737/361/267 738/360/267
f 747/358/265 744/357/265 748/359/265
f 748/359/276 741/362/276 746/360/276
f 741/362/267 745/361/267 746/360/267
f 755/358/265 752/357/265 756/359/265
f 752/357/276 754/360/276 756/359/276
f 749/362/267 753/361/267 754/360/267
f 763/358/265 760/357/265 764/359/265
f 764/359/276 757/362/276 762/360/276
f 757/362/267 761/361/267 762/360/267
f 771/358/265 768/357/265 772/359/265
f 768/357/276 770/360/276 772/359/276
f 765/362/267 769/361/267 770/360/267
f 780/359/265 775/363/265 776/357/265
f 776/357/276 778/360/276 780/359/276
f 773/362/267 777/361/267 778/360/267
f 787/358/265 784/357/265 788/359/265
f 788/359/276 781/362/276 786/360/276
f 781/362/32 785/361/32 786/360/32
f 802/343/29 794/342/246 795/343/246
f 793/345/277 796/344/278 799/346/278
f 798/347/250 793/345/249 799/346/250
f 792/348/29 794/342/246 793/345/29
f 806/349/251 799/346/250 807/350/251
f 799/346/278 805/351/254 807/350/254
f 796/344/253 804/352/253 805/351/253
f 804/352/252 798/347/252 806/349/252
f 800/344/1 797/353/255 796/344/255
f 801/342/277 796/344/277 794/342/277
f 536/348/279 795/343/279 792/348/279
f 798/347/249 536/348/249 792/348/249
f 538/353/1 798/347/280 797/353/280
f 548/349/29 804/352/29 806/349/29
f 810/351/281 789/354/282 805/351/282
f 790/355/282 805/351/254 789/354/282
f 790/355/260 806/349/251 807/350/251
f 809/352/29 805/351/29 804/352/29
f 791/356/260 548/349/261 806/349/260
f 817/358/262 814/357/262 818/359/262
f 814/357/283 816/360/283 818/359/283
f 811/362/264 815/361/264 816/360/264
f 825/358/262 822/357/262 826/359/262
f 822/357/283 824/360/283 826/359/283
f 819/362/264 823/361/264 824/360/264
f 833/358/262 830/357/262 834/359/262
f 830/357/283 832/360/283 834/359/283
f 827/362/264 831/361/264 832/360/264
f 841/358/262 838/357/262 842/359/262
f 838/357/283 840/360/283 842/359/283
f 835/362/264 839/361/264 840/360/264
f 849/358/262 846/357/262 850/359/262
f 846/357/283 848/360/283 850/359/283
f 843/362/264 847/361/264 848/360/264
f 857/358/262 854/357/262 858/359/262
f 858/359/283 851/362/283 856/360/283
f 851/362/264 855/361/264 856/360/264
f 863/358/262 861/357/262 864/359/262
f 864/359/283 859/362/283 862/360/283
f 871/358/267 868/357/267 872/359/267
f 868/357/266 870/360/266 872/359/266
f 865/362/265 869/361/265 870/360/265
f 879/358/267 876/357/267 880/359/267
f 880/359/266 873/362/266 878/360/266
f 873/362/265 877/361/265 878/360/265
f 887/358/267 884/357/267 888/359/267
f 884/357/266 886/360/266 888/359/266
f 881/362/265 885/361/265 886/360/265
f 895/358/267 892/357/267 896/359/267
f 896/359/266 889/362/266 894/360/266
f 889/362/265 893/361/265 894/360/265
f 903/358/267 900/357/267 904/359/267
f 900/357/266 902/360/266 904/359/266
f 897/362/265 901/361/265 902/360/265
f 912/359/267 907/363/267 908/357/267
f 908/357/266 910/360/266 912/359/266
f 905/362/265 909/361/265 910/360/265
f 919/358/267 916/357/267 920/359/267
f 920/359/266 913/362/266 918/360/266
f 913/362/41 917/361/41 918/360/41
f 926/342/268 802/343/29 927/343/268
f 928/344/278 925/345/277 931/346/278
f 925/345/270 930/347/269 931/346/269
f 926/342/268 924/348/29 925/345/29
f 931/346/269 934/349/271 935/350/271
f 933/351/254 931/346/278 935/350/254
f 932/352/272 928/344/272 933/351/272
f 930/347/252 932/352/252 934/349/252
f 929/353/273 800/344/1 928/344/273
f 928/344/277 801/342/277 926/342/277
f 927/343/279 671/348/279 924/348/279
f 930/347/270 671/348/270 672/347/270
f 930/347/280 673/353/1 929/353/280
f 932/352/29 680/349/29 934/349/29
f 921/354/282 810/351/281 933/351/282
f 922/355/282 933/351/254 935/350/254
f 922/355/274 934/349/271 923/356/274
f 933/351/29 809/352/29 932/352/29
f 923/356/274 680/349/275 678/356/275
f 939/357/264 942/358/264 943/359/264
f 941/360/283 939/357/283 943/359/283
f 940/361/262 936/362/262 941/360/262
f 947/357/264 950/358/264 951/359/264
f 949/360/283 947/357/283 951/359/283
f 948/361/262 944/362/262 949/360/262
f 955/357/264 958/358/264 959/359/264
f 957/360/283 955/357/283 959/359/283
f 956/361/262 952/362/262 957/360/262
f 963/357/264 966/358/264 967/359/264
f 965/360/283 963/357/283 967/359/283
f 964/361/262 960/362/262 965/360/262
f 971/357/264 974/358/264 975/359/264
f 973/360/283 971/357/283 975/359/283
f 972/361/262 968/362/262 973/360/262
f 979/357/264 982/358/264 983/359/264
f 983/359/283 976/362/283 979/357/283
f 980/361/262 976/362/262 981/360/262
f 985/357/264 986/358/264 987/359/264
f 987/359/283 859/362/283 985/357/283
f 991/357/267 994/358/267 995/359/267
f 993/360/276 991/357/276 995/359/276
f 992/361/265 988/362/265 993/360/265
f 999/357/267 1002/358/267 1003/359/267
f 1003/359/276 996/362/276 999/357/276
f 1000/361/265 996/362/265 1001/360/265
f 1011/359/267 1006/363/267 1010/358/267
f 1009/360/276 1007/357/276 1011/359/276
f 1008/361/265 1004/362/265 1009/360/265
f 1015/357/267 1018/358/267 1019/359/267
f 1019/359/276 1012/362/276 1015/357/276
f 1016/361/265 1012/362/265 1017/360/265
f 1023/357/267 1026/358/267 1027/359/267
f 1025/360/276 1023/357/276 1027/359/276
f 1024/361/265 1020/362/265 1025/360/265
f 1031/357/267 1034/358/267 1035/359/267
f 1033/360/276 1031/357/276 1035/359/276
f 1032/361/265 1028/362/265 1033/360/265
f 1039/357/267 1042/358/267 1043/359/267
f 1043/359/276 1036/362/276 1039/357/276
f 1040/361/41 1036/362/41 1041/360/41
f 1046/364/29 1049/365/29 1048/366/29
f 1050/367/29 1047/368/29 1044/369/29
f 1048/370/29 1051/371/29 1050/372/29
f 1046/364/29 1045/373/29 1049/365/29
f 1050/367/29 1051/374/29 1047/368/29
f 1048/370/29 1049/375/29 1051/371/29
f 445/1/1 6/2/1 5/2/1
f 437/9/5 86/376/284 92/10/6
f 29/12/8 27/377/8 28/13/8
f 432/15/9 83/16/64 82/16/10
f 461/17/12 38/378/12 37/18/12
f 460/20/14 37/379/285 39/21/15
f 459/23/16 41/29/286 40/24/17
f 459/26/19 462/26/19 39/27/20
f 35/28/22 388/295/287 456/29/23
f 453/31/27 2/380/288 3/380/289
f 454/31/25 33/32/290 36/32/26
f 453/31/27 3/380/289 454/31/25
f 36/33/28 35/381/22 455/34/24
f 448/35/8 10/382/8 6/36/8
f 22/38/29 110/71/29 111/39/29
f 62/41/30 64/383/30 63/42/30
f 97/44/31 96/384/31 95/45/31
f 98/47/32 99/118/32 97/44/32
f 13/48/33 14/385/33 17/49/33
f 8/53/32 51/53/32 5/51/32
f 5/51/32 11/119/32 52/52/32
f 45/54/29 44/386/29 43/55/29
f 55/57/29 54/102/29 446/4/29
f 450/59/31 451/285/31 89/60/34
f 59/62/36 65/387/8 68/63/8
f 74/65/32 13/95/32 16/66/32
f 105/47/32 104/118/32 106/44/32
f 64/68/1 65/388/1 66/69/1
f 22/71/29 21/39/29 18/40/29
f 24/72/29 27/389/29 29/73/29
f 435/75/38 77/76/291 76/76/39
f 49/77/41 44/390/41 45/78/41
f 458/80/18 40/29/17 387/24/42
f 23/82/31 26/230/31 25/83/31
f 62/42/29 61/391/29 60/85/29
f 79/88/46 56/88/292 444/89/47
f 438/90/49 80/91/65 81/91/50
f 76/90/52 85/16/52 433/15/52
f 71/92/32 72/392/32 70/93/32
f 62/87/8 69/86/8 67/96/8
f 443/98/53 444/281/53 56/99/54
f 441/101/56 75/393/56 84/102/56
f 437/104/58 87/394/59 77/105/59
f 92/107/61 81/395/61 431/108/62
f 433/91/52 85/90/52 83/16/64
f 440/101/57 84/393/56 80/110/65
f 8/4/66 52/101/66 53/101/66
f 57/57/29 55/102/29 447/4/29
f 48/77/32 47/390/32 42/78/32
f 21/38/29 111/71/29 20/39/29
f 9/112/67 50/113/67 51/113/67
f 67/114/68 69/396/68 17/115/68
f 101/117/8 100/153/8 99/118/8
f 11/119/69 5/51/69 6/51/69
f 32/120/70 31/397/71 452/121/71
f 47/122/8 46/398/8 45/123/8
f 119/125/8 118/399/8 117/126/8
f 49/128/31 48/400/31 43/129/31
f 448/88/72 56/131/72 57/131/72
f 21/71/29 19/39/29 160/40/29
f 102/117/8 103/153/8 104/118/8
f 25/132/32 28/229/32 27/133/32
f 115/135/32 114/401/32 113/136/32
f 52/138/66 11/139/66 12/139/66
f 106/44/31 107/384/31 108/45/31
f 446/90/73 54/102/73 89/102/73
f 60/85/41 66/391/41 65/143/41
f 85/152/77 76/152/77 87/152/75
f 87/152/75 91/152/293 83/152/76
f 134/46/32 130/47/32 129/118/32
f 127/117/80 128/153/80 129/118/80
f 131/44/81 132/384/81 133/45/81
f 130/47/31 134/46/31 133/45/31
f 128/153/8 132/384/8 131/44/8
f 138/47/32 137/118/32 139/44/32
f 139/44/82 140/384/82 141/45/82
f 138/47/31 142/46/31 141/45/31
f 136/153/8 140/384/8 139/44/8
f 150/154/83 144/158/84 145/155/84
f 149/157/86 143/192/87 144/158/87
f 145/155/89 146/160/89 147/159/90
f 146/160/91 143/192/91 149/157/92
f 147/159/92 149/157/92 426/161/93
f 148/156/90 147/159/90 424/162/94
f 429/168/99 170/171/294 167/167/97
f 167/167/97 426/161/105 430/166/98
f 155/160/100 158/192/100 152/157/101
f 180/169/94 153/156/102 154/159/102
f 152/157/103 158/192/104 157/158/104
f 179/170/93 154/159/101 152/157/101
f 181/171/105 178/167/105 152/157/103
f 151/154/106 157/158/107 156/155/107
f 181/171/108 151/154/106 153/156/106
f 156/155/109 155/160/109 154/159/102
f 164/172/8 18/181/8 160/173/8
f 19/175/32 165/402/32 166/176/32
f 110/173/31 161/174/31 162/178/31
f 159/180/41 163/182/41 161/176/41
f 18/181/8 164/403/8 163/178/8
f 162/182/32 165/402/32 19/175/32
f 409/186/110 174/191/110 173/184/110
f 173/184/110 177/171/110 410/185/110
f 167/167/111 170/171/111 177/171/111
f 177/171/112 170/171/112 169/169/112
f 169/169/112 411/189/112 410/185/112
f 172/187/113 171/167/113 177/171/113
f 411/189/116 169/169/295 168/170/114
f 168/170/114 176/170/119 412/188/115
f 176/170/117 171/167/117 172/187/117
f 167/167/118 171/167/118 176/170/118
f 180/169/119 179/170/119 187/170/119
f 181/171/111 189/171/111 182/167/111
f 184/184/110 189/171/110 188/169/110
f 184/184/113 183/187/113 182/167/113
f 185/191/120 188/169/120 187/170/120
f 187/170/117 182/167/117 183/187/117
f 181/171/112 180/169/112 188/169/112
f 178/167/118 182/167/118 187/170/118
f 197/154/121 191/158/122 192/155/122
f 196/157/123 190/192/124 191/158/124
f 192/155/125 193/160/125 194/159/126
f 193/160/127 190/192/127 196/157/128
f 194/159/128 196/157/128 206/167/93
f 195/156/126 194/159/126 207/170/94
f 209/171/105 206/167/105 196/157/123
f 209/171/108 197/154/121 195/156/121
f 202/160/129 205/192/129 199/157/130
f 220/169/94 200/156/131 201/159/131
f 198/154/132 199/157/132 205/192/133
f 219/170/93 201/159/130 199/157/130
f 221/171/105 218/167/105 199/157/132
f 200/156/134 198/154/134 204/158/135
f 221/171/108 198/154/134 200/156/134
f 200/156/131 203/155/136 202/160/136
f 207/170/119 215/170/119 216/169/119
f 206/167/111 209/171/111 217/171/111
f 212/184/110 217/171/110 216/169/110
f 211/187/113 210/167/113 217/171/113
f 216/169/120 215/170/120 214/190/120
f 215/170/117 210/167/117 211/187/117
f 208/169/112 216/169/112 217/171/112
f 207/170/118 206/167/118 210/167/118
f 220/169/119 219/170/119 227/170/119
f 221/171/111 229/171/111 222/167/111
f 224/184/110 229/171/110 228/169/110
f 224/184/113 223/187/113 222/167/113
f 225/191/120 228/169/120 227/170/120
f 227/170/117 222/167/117 223/187/117
f 220/169/112 228/169/112 229/171/112
f 219/170/118 218/167/118 222/167/118
f 235/157/123 230/192/124 231/158/124
f 403/194/108 239/169/108 240/171/108
f 240/171/108 236/154/121 404/193/137
f 233/160/127 230/192/127 235/157/128
f 234/159/128 235/157/128 237/167/93
f 232/155/138 401/263/296 404/195/137
f 404/195/137 236/154/121 231/158/122
f 237/167/105 235/157/123 236/154/123
f 238/170/94 239/169/94 403/194/94
f 403/194/94 402/404/297 234/159/139
f 238/170/119 246/170/119 247/169/119
f 241/167/111 237/167/111 240/171/111
f 240/171/111 413/171/111 416/196/111
f 247/169/110 244/191/110 243/184/110
f 243/184/110 415/198/110 414/197/110
f 247/169/120 246/170/120 245/190/120
f 246/170/117 241/167/117 242/187/117
f 415/198/113 243/184/113 242/187/113
f 242/187/113 241/167/113 416/196/113
f 237/167/118 241/167/118 246/170/118
f 419/199/124 248/192/124 249/158/124
f 422/202/122 253/156/121 255/154/121
f 255/154/121 418/200/122 423/201/122
f 251/160/127 248/192/127 419/199/127
f 252/159/128 254/157/128 256/167/93
f 258/169/94 253/156/126 252/159/126
f 259/171/105 256/167/105 254/157/123
f 259/171/108 255/154/121 253/156/121
f 257/170/119 265/170/119 266/169/119
f 260/167/111 256/167/111 259/171/140
f 259/171/140 405/264/298 408/204/141
f 266/169/110 263/191/110 262/184/110
f 262/184/110 407/265/110 406/205/110
f 266/169/120 265/170/120 264/190/120
f 265/170/117 260/167/117 261/187/117
f 407/206/113 262/184/113 261/187/113
f 261/187/113 260/167/113 408/204/113
f 256/167/118 260/167/118 265/170/118
f 274/207/142 271/210/142 272/208/142
f 270/207/143 274/207/143 273/209/143
f 268/208/144 269/209/144 273/209/144
f 267/210/145 271/210/145 274/207/145
f 268/208/146 272/208/146 271/210/146
f 276/208/147 275/210/147 278/207/147
f 282/207/148 279/210/148 280/208/148
f 394/207/149 282/207/150 281/209/150
f 394/207/155 396/210/193 279/210/156
f 396/210/159 275/210/299 276/208/157
f 276/208/157 400/211/300 399/214/158
f 288/208/142 287/210/142 290/207/142
f 285/209/160 289/209/160 290/207/160
f 284/208/161 288/208/162 289/209/162
f 290/207/163 287/210/301 283/210/164
f 287/210/166 288/208/166 284/208/166
f 294/207/167 291/210/167 292/208/167
f 296/208/168 295/210/168 298/207/168
f 293/209/169 297/209/169 298/207/169
f 296/208/170 297/209/302 293/209/171
f 294/207/173 298/207/303 295/210/174
f 295/210/176 296/208/176 292/208/176
f 300/215/8 303/405/8 305/216/8
f 301/218/32 304/221/32 303/219/32
f 304/221/177 301/227/177 302/222/177
f 313/224/31 311/406/31 312/225/31
f 308/215/1 311/405/1 313/216/1
f 307/226/8 310/222/8 309/227/8
f 309/218/32 312/221/32 311/219/32
f 312/221/178 309/227/178 310/222/178
f 316/72/8 319/389/8 321/73/8
f 317/132/32 320/229/32 319/133/32
f 320/229/179 317/83/179 318/230/179
f 324/72/8 327/389/8 329/73/8
f 325/132/32 328/229/32 327/133/32
f 328/229/179 325/83/179 326/230/179
f 337/12/8 335/377/8 336/13/8
f 332/72/29 335/389/29 337/73/29
f 331/82/31 334/230/31 333/83/31
f 333/132/32 336/229/32 335/133/32
f 345/231/41 343/407/41 344/232/41
f 340/234/29 343/408/29 345/235/29
f 339/237/32 342/244/32 341/238/32
f 341/240/8 344/243/8 343/241/8
f 348/234/41 351/408/41 353/235/41
f 349/240/8 352/243/8 351/241/8
f 352/243/180 349/238/180 350/244/180
f 356/234/1 359/408/1 361/235/1
f 357/240/8 360/243/8 359/241/8
f 360/243/181 357/238/181 358/244/181
f 364/234/41 367/408/41 369/235/41
f 365/240/8 368/243/8 367/241/8
f 368/243/182 365/238/182 366/244/182
f 372/234/41 375/408/41 377/235/41
f 372/242/8 373/240/8 376/243/8
f 376/243/182 373/238/182 374/244/182
f 385/231/41 383/407/41 384/232/41
f 380/234/29 383/408/29 385/235/29
f 379/237/32 382/244/32 381/238/32
f 381/240/8 384/243/8 383/241/8
f 336/229/183 333/83/183 334/230/183
f 28/229/184 25/83/184 26/230/184
f 344/243/185 341/238/185 342/244/185
f 384/243/186 381/238/186 382/244/186
f 454/245/187 3/409/15 1/246/15
f 389/248/41 390/410/41 456/249/41
f 463/251/41 387/411/41 38/252/41
f 439/257/188 81/412/61 92/258/61
f 280/208/191 398/260/191 397/212/190
f 397/212/190 395/209/304 281/209/191
f 278/207/192 275/210/305 396/210/193
f 279/210/194 396/210/159 399/213/158
f 399/213/158 398/260/194 280/208/194
f 278/207/195 394/207/149 395/209/151
f 400/211/198 276/208/306 277/209/197
f 277/209/197 395/209/304 397/212/190
f 234/159/139 402/261/297 401/262/202
f 401/262/202 232/155/307 233/160/203
f 405/264/210 259/171/308 258/169/208
f 258/169/208 266/169/112 406/205/209
f 175/190/120 174/191/120 409/186/120
f 409/186/120 412/188/120 176/170/120
f 413/171/216 414/197/309 415/198/217
f 413/171/112 240/171/112 239/169/112
f 239/169/112 247/169/112 414/197/112
f 417/203/127 419/199/127 254/157/128
f 250/155/122 420/267/122 423/201/122
f 423/201/122 418/200/122 249/158/122
f 254/157/123 419/199/124 418/200/124
f 252/159/126 253/156/126 422/202/125
f 422/202/125 421/266/125 417/203/125
f 417/203/125 421/266/125 420/267/125
f 420/267/125 250/155/125 251/160/125
f 150/154/88 427/164/310 430/268/98
f 430/268/98 426/161/105 149/157/86
f 425/163/108 169/169/108 170/171/223
f 170/171/223 429/168/311 428/165/224
f 169/169/94 425/163/94 424/162/94
f 424/162/93 426/161/93 167/167/93
f 148/156/85 425/163/108 428/165/224
f 428/165/224 427/413/312 150/154/83
f 84/91/52 433/90/52 432/269/9
f 436/109/63 431/108/62 82/270/227
f 86/272/228 437/104/58 435/106/60
f 434/90/52 433/269/52 84/15/52
f 78/75/229 435/76/38 434/76/40
f 432/269/9 431/269/11 81/15/231
f 87/274/232 437/9/5 436/11/7
f 89/276/34 439/257/188 442/259/189
f 90/278/234 440/393/57 438/110/49
f 79/279/56 441/393/56 440/102/57
f 86/280/228 78/414/228 444/281/53
f 438/91/49 439/91/51 89/90/236
f 441/88/48 444/88/47 78/89/237
f 7/4/73 446/91/73 451/91/73
f 10/139/72 448/282/72 449/282/72
f 449/57/29 447/415/29 53/283/29
f 50/284/31 9/416/31 451/285/31
f 447/57/29 446/415/29 7/283/29
f 56/286/54 448/35/8 445/37/8
f 32/288/41 457/250/41 456/249/41
f 31/290/32 33/417/32 454/245/187
f 457/19/70 452/121/71 1/291/71
f 453/81/28 455/418/24 34/29/239
f 455/292/24 456/23/23 390/29/241
f 32/293/41 388/419/41 463/251/41
f 35/294/242 458/420/18 463/24/43
f 36/295/244 459/29/16 458/296/18
f 31/298/32 460/20/14 462/22/14
f 32/300/12 461/17/12 460/19/13
f 459/26/19 36/301/313 33/301/245
f 465/302/8 467/302/8 476/303/8
f 480/304/29 489/304/29 490/304/29
f 471/302/31 469/302/31 478/303/31
f 473/302/29 474/302/29 469/302/29
f 467/302/29 465/302/29 474/302/29
f 483/304/8 490/304/8 491/305/8
f 476/303/32 479/303/32 472/306/32
f 477/303/31 478/303/31 468/306/31
f 479/303/32 477/303/32 470/306/32
f 475/303/8 476/303/8 466/306/8
f 479/303/32 473/302/32 481/307/32
f 471/302/32 482/307/32 481/307/32
f 477/303/32 483/308/32 482/307/32
f 477/303/32 479/303/32 480/308/32
f 476/303/32 467/302/32 485/307/32
f 473/302/32 486/307/32 485/307/32
f 479/303/32 487/308/32 486/307/32
f 476/303/32 484/308/32 487/308/32
f 488/309/32 491/421/32 490/310/32
f 492/309/32 495/421/32 494/310/32
f 486/305/1 495/305/1 492/305/1
f 485/305/31 492/305/31 493/304/31
f 482/305/1 491/305/1 488/305/1
f 487/304/8 494/304/8 495/305/8
f 481/305/31 488/305/31 489/304/31
f 484/304/29 493/304/29 494/304/29
f 496/312/31 499/422/31 498/313/31
f 507/315/31 506/331/31 505/316/31
f 502/318/8 500/423/8 501/314/8
f 509/319/29 508/424/29 504/320/29
f 498/322/32 501/425/32 500/323/32
f 510/325/32 509/426/32 505/326/32
f 496/328/29 497/427/29 500/329/29
f 509/317/8 510/315/8 511/331/8
f 512/332/31 515/428/31 514/333/31
f 518/335/8 516/429/8 517/334/8
f 514/336/32 517/430/32 516/337/32
f 512/339/29 513/431/29 516/340/29
f 525/342/246 532/342/29 533/343/29
f 527/344/247 525/342/248 524/345/248
f 524/345/249 523/348/249 529/347/250
f 525/342/246 526/343/246 523/348/29
f 530/346/250 529/347/250 541/349/251
f 540/351/252 527/344/247 530/346/247
f 539/352/253 528/353/253 527/344/253
f 529/347/254 528/353/254 539/352/254
f 528/353/255 534/353/1 531/344/1
f 527/344/248 531/344/248 532/342/248
f 526/343/256 535/343/256 536/348/256
f 529/347/249 523/348/249 536/348/249
f 529/347/257 537/347/1 538/353/1
f 539/352/29 547/352/29 548/349/29
f 520/354/258 543/354/259 545/351/259
f 521/355/258 520/354/258 540/351/252
f 521/355/260 542/350/251 541/349/251
f 540/351/29 545/351/29 544/352/29
f 522/356/260 541/349/260 548/349/261
f 552/357/262 551/363/262 555/358/262
f 554/360/263 549/362/263 552/357/263
f 553/361/264 550/432/264 549/362/264
f 560/357/262 559/363/262 563/358/262
f 562/360/263 557/362/263 560/357/263
f 561/361/264 558/432/264 557/362/264
f 568/357/262 567/363/262 571/358/262
f 570/360/263 565/362/263 568/357/263
f 569/361/264 566/432/264 565/362/264
f 576/357/262 575/363/262 579/358/262
f 578/360/263 573/362/263 576/357/263
f 577/361/264 574/432/264 573/362/264
f 584/357/262 583/363/262 587/358/262
f 586/360/263 581/362/263 584/357/263
f 585/361/264 582/432/264 581/362/264
f 592/357/262 591/363/262 595/358/262
f 596/359/263 594/360/263 589/362/263
f 593/361/264 590/432/264 589/362/264
f 599/357/262 598/363/262 601/358/262
f 602/359/263 600/360/263 597/362/263
f 606/357/265 605/363/265 609/358/265
f 608/360/266 603/362/266 606/357/266
f 607/361/267 604/432/267 603/362/267
f 614/357/265 613/363/265 617/358/265
f 618/359/266 616/360/266 611/362/266
f 615/361/267 612/432/267 611/362/267
f 626/359/265 622/357/265 621/363/265
f 624/360/266 619/362/266 622/357/266
f 623/361/267 620/432/267 619/362/267
f 630/357/265 629/363/265 633/358/265
f 634/359/266 632/360/266 627/362/266
f 631/361/267 628/432/267 627/362/267
f 638/357/265 637/363/265 641/358/265
f 640/360/266 635/362/266 638/357/266
f 639/361/267 636/432/267 635/362/267
f 646/357/265 645/363/265 649/358/265
f 648/360/266 643/362/266 646/357/266
f 647/361/267 644/432/267 643/362/267
f 654/357/265 653/363/265 657/358/265
f 658/359/266 656/360/266 651/362/266
f 655/361/32 652/432/32 651/362/32
f 533/343/29 532/342/29 664/342/268
f 663/345/248 664/342/248 666/344/247
f 668/347/269 662/348/270 663/345/270
f 662/348/29 665/343/268 664/342/268
f 676/349/271 668/347/269 669/346/269
f 669/346/247 666/344/247 675/351/252
f 666/344/272 667/353/272 674/352/272
f 674/352/254 667/353/254 668/347/254
f 531/344/1 534/353/1 667/353/273
f 532/342/248 531/344/248 666/344/248
f 671/348/256 670/343/256 665/343/256
f 668/347/270 672/347/270 671/348/270
f 673/353/1 672/347/1 668/347/257
f 680/349/29 679/352/29 674/352/29
f 545/351/259 543/354/259 659/354/258
f 660/355/258 677/350/252 675/351/252
f 660/355/274 661/356/274 676/349/271
f 544/352/29 545/351/29 675/351/29
f 661/356/274 678/356/275 680/349/275
f 687/358/264 683/363/264 684/357/264
f 684/357/263 681/362/263 686/360/263
f 681/362/262 682/432/262 685/361/262
f 695/358/264 691/363/264 692/357/264
f 692/357/263 689/362/263 694/360/263
f 689/362/262 690/432/262 693/361/262
f 703/358/264 699/363/264 700/357/264
f 700/357/263 697/362/263 702/360/263
f 697/362/262 698/432/262 701/361/262
f 711/358/264 707/363/264 708/357/264
f 708/357/263 705/362/263 710/360/263
f 705/362/262 706/432/262 709/361/262
f 719/358/264 715/363/264 716/357/264
f 716/357/263 713/362/263 718/360/263
f 713/362/262 714/432/262 717/361/262
f 727/358/264 723/363/264 724/357/264
f 728/359/263 724/357/263 721/362/263
f 721/362/262 722/432/262 725/361/262
f 731/358/264 729/363/264 730/357/264
f 732/359/263 730/357/263 597/362/263
f 739/358/265 735/363/265 736/357/265
f 736/357/276 733/362/276 738/360/276
f 733/362/267 734/432/267 737/361/267
f 747/358/265 743/363/265 744/357/265
f 748/359/276 744/357/276 741/362/276
f 741/362/267 742/432/267 745/361/267
f 755/358/265 751/363/265 752/357/265
f 752/357/276 749/362/276 754/360/276
f 749/362/267 750/432/267 753/361/267
f 763/358/265 759/363/265 760/357/265
f 764/359/276 760/357/276 757/362/276
f 757/362/267 758/432/267 761/361/267
f 771/358/265 767/363/265 768/357/265
f 768/357/276 765/362/276 770/360/276
f 765/362/267 766/432/267 769/361/267
f 780/359/265 779/358/265 775/363/265
f 776/357/276 773/362/276 778/360/276
f 773/362/267 774/432/267 777/361/267
f 787/358/265 783/363/265 784/357/265
f 788/359/276 784/357/276 781/362/276
f 781/362/32 782/432/32 785/361/32
f 802/343/29 801/342/29 794/342/246
f 793/345/277 794/342/277 796/344/278
f 798/347/250 792/348/249 793/345/249
f 792/348/29 795/343/246 794/342/246
f 806/349/251 798/347/250 799/346/250
f 799/346/278 796/344/278 805/351/254
f 796/344/253 797/353/253 804/352/253
f 804/352/252 797/353/252 798/347/252
f 800/344/1 803/353/1 797/353/255
f 801/342/277 800/344/277 796/344/277
f 536/348/279 535/343/279 795/343/279
f 798/347/249 537/347/249 536/348/249
f 538/353/1 537/347/1 798/347/280
f 548/349/29 547/352/29 804/352/29
f 810/351/281 808/354/281 789/354/282
f 790/355/282 807/350/254 805/351/254
f 790/355/260 791/356/260 806/349/251
f 809/352/29 810/351/29 805/351/29
f 791/356/260 546/356/261 548/349/261
f 817/358/262 813/363/262 814/357/262
f 814/357/283 811/362/283 816/360/283
f 811/362/264 812/432/264 815/361/264
f 825/358/262 821/363/262 822/357/262
f 822/357/283 819/362/283 824/360/283
f 819/362/264 820/432/264 823/361/264
f 833/358/262 829/363/262 830/357/262
f 830/357/283 827/362/283 832/360/283
f 827/362/264 828/432/264 831/361/264
f 841/358/262 837/363/262 838/357/262
f 838/357/283 835/362/283 840/360/283
f 835/362/264 836/432/264 839/361/264
f 849/358/262 845/363/262 846/357/262
f 846/357/283 843/362/283 848/360/283
f 843/362/264 844/432/264 847/361/264
f 857/358/262 853/363/262 854/357/262
f 858/359/283 854/357/283 851/362/283
f 851/362/264 852/432/264 855/361/264
f 863/358/262 860/363/262 861/357/262
f 864/359/283 861/357/283 859/362/283
f 871/358/267 867/363/267 868/357/267
f 868/357/266 865/362/266 870/360/266
f 865/362/265 866/432/265 869/361/265
f 879/358/267 875/363/267 876/357/267
f 880/359/266 876/357/266 873/362/266
f 873/362/265 874/432/265 877/361/265
f 887/358/267 883/363/267 884/357/267
f 884/357/266 881/362/266 886/360/266
f 881/362/265 882/432/265 885/361/265
f 895/358/267 891/363/267 892/357/267
f 896/359/266 892/357/266 889/362/266
f 889/362/265 890/432/265 893/361/265
f 903/358/267 899/363/267 900/357/267
f 900/357/266 897/362/266 902/360/266
f 897/362/265 898/432/265 901/361/265
f 912/359/267 911/358/267 907/363/267
f 908/357/266 905/362/266 910/360/266
f 905/362/265 906/432/265 909/361/265
f 919/358/267 915/363/267 916/357/267
f 920/359/266 916/357/266 913/362/266
f 913/362/41 914/432/41 917/361/41
f 926/342/268 801/342/29 802/343/29
f 928/344/278 926/342/277 925/345/277
f 925/345/270 924/348/270 930/347/269
f 926/342/268 927/343/268 924/348/29
f 931/346/269 930/347/269 934/349/271
f 933/351/254 928/344/278 931/346/278
f 932/352/272 929/353/272 928/344/272
f 930/347/252 929/353/252 932/352/252
f 929/353/273 803/353/1 800/344/1
f 928/344/277 800/344/277 801/342/277
f 927/343/279 670/343/279 671/348/279
f 930/347/270 924/348/270 671/348/270
f 930/347/280 672/347/1 673/353/1
f 932/352/29 679/352/29 680/349/29
f 921/354/282 808/354/281 810/351/281
f 922/355/282 921/354/282 933/351/254
f 922/355/274 935/350/271 934/349/271
f 933/351/29 810/351/29 809/352/29
f 923/356/274 934/349/274 680/349/275
f 939/357/264 938/363/264 942/358/264
f 941/360/283 936/362/283 939/357/283
f 940/361/262 937/432/262 936/362/262
f 947/357/264 946/363/264 950/358/264
f 949/360/283 944/362/283 947/357/283
f 948/361/262 945/432/262 944/362/262
f 955/357/264 954/363/264 958/358/264
f 957/360/283 952/362/283 955/357/283
f 956/361/262 953/432/262 952/362/262
f 963/357/264 962/363/264 966/358/264
f 965/360/283 960/362/283 963/357/283
f 964/361/262 961/432/262 960/362/262
f 971/357/264 970/363/264 974/358/264
f 973/360/283 968/362/283 971/357/283
f 972/361/262 969/432/262 968/362/262
f 979/357/264 978/363/264 982/358/264
f 983/359/283 981/360/283 976/362/283
f 980/361/262 977/432/262 976/362/262
f 985/357/264 984/363/264 986/358/264
f 987/359/283 862/360/283 859/362/283
f 991/357/267 990/363/267 994/358/267
f 993/360/276 988/362/276 991/357/276
f 992/361/265 989/432/265 988/362/265
f 999/357/267 998/363/267 1002/358/267
f 1003/359/276 1001/360/276 996/362/276
f 1000/361/265 997/432/265 996/362/265
f 1011/359/267 1007/357/267 1006/363/267
f 1009/360/276 1004/362/276 1007/357/276
f 1008/361/265 1005/432/265 1004/362/265
f 1015/357/267 1014/363/267 1018/358/267
f 1019/359/276 1017/360/276 1012/362/276
f 1016/361/265 1013/432/265 1012/362/265
f 1023/357/267 1022/363/267 1026/358/267
f 1025/360/276 1020/362/276 1023/357/276
f 1024/361/265 1021/432/265 1020/362/265
f 1031/357/267 1030/363/267 1034/358/267
f 1033/360/276 1028/362/276 1031/357/276
f 1032/361/265 1029/432/265 1028/362/265
f 1039/357/267 1038/363/267 1042/358/267
f 1043/359/276 1041/360/276 1036/362/276
f 1040/361/41 1037/432/41 1036/362/41
