# Blender 5.0.0
# www.blender.org
mtllib petiteMaison.mtl
o house_t1_Material.001_0
v 0.003594 0.434096 1.023747
v 0.003594 0.434096 -1.023747
v 0.003594 0.696163 1.023747
v 0.003594 0.696163 -1.023747
v 0.008666 0.434096 1.040373
v 0.008666 0.434096 1.040373
v 0.008666 0.434096 -1.040373
v 0.008666 0.434096 -1.040373
v 0.008666 0.696163 1.040373
v 0.008666 0.696163 1.040373
v 0.008666 0.696163 -1.040373
v 0.008666 0.696163 -1.040373
v 0.016048 1.759662 -0.853932
v 0.016048 1.759662 -0.853932
v 0.016048 1.812017 -0.898251
v 0.016048 1.812017 -0.898251
v 0.016048 1.812017 -0.898251
v 0.037848 1.541148 -1.112067
v 0.037848 1.541148 -1.112067
v 0.037848 1.593502 -1.156386
v 0.037848 1.593502 -1.156386
v 0.037848 1.593502 -1.156386
v 0.051133 0.434096 1.040373
v 0.051133 0.434096 1.040373
v 0.051133 0.434096 -1.040373
v 0.051133 0.434096 -1.040373
v 0.051133 0.696163 1.040373
v 0.051133 0.696163 1.040373
v 0.051133 0.696163 1.040373
v 0.051133 0.696163 -1.040373
v 0.051133 0.696163 -1.040373
v 0.051133 0.696163 -1.040373
v 0.052857 0.451108 1.023747
v 0.052857 0.451108 -1.023747
v 0.056205 0.434096 1.023747
v 0.056205 0.434096 1.023747
v 0.056205 0.434096 -1.023747
v 0.056205 0.434096 -1.023747
v 0.056205 0.696163 1.023747
v 0.056205 0.696163 -1.023747
v 0.095274 0.451108 1.023747
v 0.095274 0.451108 -1.023747
v 0.109116 0.896998 1.023747
v 0.109116 0.896998 -1.023747
v 0.216332 0.896998 1.023747
v 0.216332 0.896998 -1.023747
v 0.247961 0.451108 1.023747
v 0.247961 0.451108 1.023747
v 0.247961 0.451108 1.023747
v 0.247961 0.451108 -1.023747
v 0.247961 0.451108 -1.023747
v 0.247961 0.451108 -1.023747
v 0.247961 0.639531 1.023747
v 0.247961 0.639531 -1.023747
v 0.247961 0.691954 1.023747
v 0.247961 0.691954 -1.023747
v 0.247961 0.896998 1.023747
v 0.247961 0.896998 1.023747
v 0.247961 0.896998 1.023747
v 0.247961 0.896998 -1.023747
v 0.247961 0.896998 -1.023747
v 0.247961 0.896998 -1.023747
v 0.259142 0.439927 1.066558
v 0.259142 0.439927 1.066558
v 0.259142 0.439927 1.066558
v 0.259142 0.439927 -1.066558
v 0.259142 0.439927 -1.066558
v 0.259142 0.439927 -1.066558
v 0.259142 0.908179 1.066558
v 0.259142 0.908179 1.066558
v 0.259142 0.908179 1.066558
v 0.259142 0.908179 -1.066558
v 0.259142 0.908179 -1.066558
v 0.259142 0.908179 -1.066558
v 0.287578 0.684567 1.023747
v 0.287578 0.684567 -1.023747
v 0.287578 0.687178 1.051189
v 0.287578 0.687178 1.051189
v 0.287578 0.687178 -1.051189
v 0.287578 0.687178 -1.051189
v 0.287578 0.729644 1.051189
v 0.287578 0.729644 1.051189
v 0.287578 0.729644 -1.051189
v 0.287578 0.729644 -1.051189
v 0.287578 0.732255 1.023747
v 0.287578 0.732255 -1.023747
v 0.321046 0.378024 0.998651
v 0.321046 0.378024 0.998651
v 0.321046 0.378024 1.066558
v 0.321046 0.378024 1.066558
v 0.321046 0.378024 1.066558
v 0.321046 0.378024 -0.998651
v 0.321046 0.378024 -0.998651
v 0.321046 0.378024 -1.066558
v 0.321046 0.378024 -1.066558
v 0.321046 0.378024 -1.066558
v 0.321046 0.970083 0.998651
v 0.321046 0.970083 0.998651
v 0.321046 0.970083 1.066558
v 0.321046 0.970083 1.066558
v 0.321046 0.970083 1.066558
v 0.321046 0.970083 -0.998651
v 0.321046 0.970083 -0.998651
v 0.321046 0.970083 -1.066558
v 0.321046 0.970083 -1.066558
v 0.321046 0.970083 -1.066558
v 0.376052 1.541148 -1.112067
v 0.376052 1.541148 -1.112067
v 0.376052 1.593502 -1.156386
v 0.376052 1.593502 -1.156386
v 0.376052 1.593502 -1.156386
v 0.397853 1.759662 -0.853932
v 0.397853 1.759662 -0.853932
v 0.397853 1.812017 -0.898251
v 0.397853 1.812017 -0.898251
v 0.397853 1.812017 -0.898251
v 0.490485 2.370579 0.124058
v 0.490485 2.370579 0.124058
v 0.490485 2.422933 0.168377
v 0.490485 2.422933 0.168377
v 0.490485 2.422933 0.168377
v 0.512285 2.152064 0.382193
v 0.512285 2.152064 0.382193
v 0.512285 2.204419 0.426512
v 0.512285 2.204419 0.426512
v 0.512285 2.204419 0.426512
v 0.582411 1.244251 -1.270010
v 0.582411 1.244251 -1.270010
v 0.582411 1.244251 -1.270010
v 0.582411 1.350343 -1.359818
v 0.582411 1.350343 -1.359818
v 0.582411 1.350343 -1.359818
v 0.608259 1.319093 -1.181599
v 0.608259 1.319093 -1.181599
v 0.608259 1.319093 -1.181599
v 0.608259 1.425185 -1.271407
v 0.608259 1.425185 -1.271407
v 0.608259 1.425185 -1.271407
v 0.747509 1.244251 -1.270010
v 0.747509 1.244251 -1.270010
v 0.747509 1.244251 -1.270010
v 0.747509 1.350343 -1.359818
v 0.747509 1.350343 -1.359818
v 0.747509 1.350343 -1.359818
v 0.850489 2.152064 0.382193
v 0.850489 2.152064 0.382193
v 0.850489 2.204419 0.426512
v 0.850489 2.204419 0.426512
v 0.850489 2.204419 0.426512
v 0.872290 2.370579 0.124058
v 0.872290 2.370579 0.124058
v 0.872290 2.422933 0.168377
v 0.872290 2.422933 0.168377
v 0.872290 2.422933 0.168377
v 0.929432 1.464185 1.017218
v 0.929432 1.464185 -1.017218
v 0.929432 1.588159 1.017218
v 0.929432 1.588159 -1.017218
v 0.950921 0.559442 -1.000000
v 0.950921 0.559442 -1.000000
v 0.950921 0.559442 -1.000000
v 0.973232 1.279206 0.658364
v 0.973232 1.279206 0.658364
v 0.973232 1.279206 0.704280
v 0.973232 1.279206 0.704280
v 0.973232 1.279206 -0.658364
v 0.973232 1.279206 -0.658364
v 0.973232 1.279206 -0.704280
v 0.973232 1.279206 -0.704280
v 0.973232 1.325123 0.658364
v 0.973232 1.325123 0.658364
v 0.973232 1.325123 0.704280
v 0.973232 1.325123 0.704280
v 0.973232 1.325123 -0.658364
v 0.973232 1.325123 -0.658364
v 0.973232 1.325123 -0.704280
v 0.973232 1.325123 -0.704280
v 0.994251 1.235756 0.614914
v 0.994251 1.235756 0.614914
v 0.994251 1.235756 0.747730
v 0.994251 1.235756 0.747730
v 0.994251 1.235756 -0.614914
v 0.994251 1.235756 -0.614914
v 0.994251 1.235756 -0.747730
v 0.994251 1.235756 -0.747730
v 0.994251 1.368573 0.614914
v 0.994251 1.368573 0.614914
v 0.994251 1.368573 0.747730
v 0.994251 1.368573 0.747730
v 0.994251 1.368573 -0.614914
v 0.994251 1.368573 -0.614914
v 0.994251 1.368573 -0.747730
v 0.994251 1.368573 -0.747730
v 1.000000 0.000609 0.353104
v 1.000000 0.000609 1.000000
v 1.000000 0.000609 1.000000
v 1.000000 0.000609 -0.353104
v 1.000000 0.000609 -1.000000
v 1.000000 0.000609 -1.000000
v 1.000000 0.458433 -1.000000
v 1.000000 0.458433 -1.000000
v 1.000000 0.458433 -1.000000
v 1.000000 0.543766 -0.899536
v 1.000000 0.543766 -0.899536
v 1.000000 0.543766 -0.899536
v 1.000000 0.871225 -1.000000
v 1.000000 0.871225 -1.000000
v 1.000000 0.871225 -1.000000
v 1.000000 1.077451 0.353104
v 1.000000 1.077451 0.353104
v 1.000000 1.077451 -0.353104
v 1.000000 1.077451 -0.353104
v 1.000000 1.527379 1.000000
v 1.000000 1.527379 1.000000
v 1.000000 1.527379 -1.000000
v 1.000000 1.527379 -1.000000
v 1.000000 2.373891 0.000000
v 1.028607 0.497058 0.111608
v 1.028607 0.497058 0.111608
v 1.028607 0.497058 0.111608
v 1.028607 0.497058 0.182384
v 1.028607 0.497058 0.182384
v 1.028607 0.567835 0.111608
v 1.028607 0.567835 0.111608
v 1.028607 0.567835 0.182384
v 1.028607 0.567835 0.182384
v 1.028607 0.567835 0.182384
v 1.031058 1.235756 0.614914
v 1.031058 1.235756 0.614914
v 1.031058 1.235756 0.614914
v 1.031058 1.235756 0.747730
v 1.031058 1.235756 0.747730
v 1.031058 1.235756 0.747730
v 1.031058 1.235756 -0.614914
v 1.031058 1.235756 -0.614914
v 1.031058 1.235756 -0.614914
v 1.031058 1.235756 -0.747730
v 1.031058 1.235756 -0.747730
v 1.031058 1.235756 -0.747730
v 1.031058 1.368573 0.614914
v 1.031058 1.368573 0.614914
v 1.031058 1.368573 0.614914
v 1.031058 1.368573 0.747730
v 1.031058 1.368573 0.747730
v 1.031058 1.368573 0.747730
v 1.031058 1.368573 -0.614914
v 1.031058 1.368573 -0.614914
v 1.031058 1.368573 -0.614914
v 1.031058 1.368573 -0.747730
v 1.031058 1.368573 -0.747730
v 1.031058 1.368573 -0.747730
v 1.038994 0.000609 0.000000
v 1.038994 0.000609 0.138284
v 1.038994 0.000609 0.276568
v 1.038994 0.000609 0.276568
v 1.038994 0.000609 -0.138284
v 1.038994 0.000609 -0.276568
v 1.038994 0.000609 -0.276568
v 1.038994 0.311152 0.130216
v 1.038994 0.373766 0.108055
v 1.038994 0.445543 0.130216
v 1.038994 0.579935 -0.138284
v 1.038994 0.781086 -0.144596
v 1.038994 0.815120 -0.122117
v 1.038994 0.845663 -0.138284
v 1.038994 0.998188 0.000000
v 1.038994 0.998188 0.138284
v 1.038994 0.998188 0.276568
v 1.038994 0.998188 0.276568
v 1.038994 0.998188 0.276568
v 1.038994 0.998188 -0.138284
v 1.038994 0.998188 -0.276568
v 1.038994 0.998188 -0.276568
v 1.038994 0.998188 -0.276568
v 1.053406 1.464185 1.017218
v 1.053406 1.464185 1.017218
v 1.053406 1.464185 -1.017218
v 1.053406 1.464185 -1.017218
v 1.053406 1.588159 1.017218
v 1.053406 1.588159 1.017218
v 1.053406 1.588159 -1.017218
v 1.053406 1.588159 -1.017218
v 1.058242 1.763286 0.656865
v 1.058242 1.763286 0.656865
v 1.058242 1.763286 0.656865
v 1.058242 1.869378 0.746673
v 1.058242 1.869378 0.746673
v 1.058242 1.869378 0.746673
v 1.073201 0.000609 0.281402
v 1.073201 0.000609 0.281402
v 1.073201 0.000609 0.353104
v 1.073201 0.000609 0.353104
v 1.073201 0.000609 -0.281402
v 1.073201 0.000609 -0.281402
v 1.073201 0.000609 -0.353104
v 1.073201 0.000609 -0.353104
v 1.073201 1.005749 0.281402
v 1.073201 1.005749 0.281402
v 1.073201 1.005749 0.281402
v 1.073201 1.005749 -0.281402
v 1.073201 1.005749 -0.281402
v 1.073201 1.005749 -0.281402
v 1.073201 1.077451 0.353104
v 1.073201 1.077451 0.353104
v 1.073201 1.077451 0.353104
v 1.073201 1.077451 -0.353104
v 1.073201 1.077451 -0.353104
v 1.073201 1.077451 -0.353104
v 1.074813 0.499865 0.114415
v 1.074813 0.499865 0.114415
v 1.074813 0.499865 0.114415
v 1.074813 0.499865 0.179577
v 1.074813 0.499865 0.179577
v 1.074813 0.499865 0.179577
v 1.074813 0.499865 0.179577
v 1.074813 0.565027 0.114415
v 1.074813 0.565027 0.114415
v 1.074813 0.565027 0.114415
v 1.074813 0.565027 0.114415
v 1.074813 0.565027 0.179577
v 1.074813 0.565027 0.179577
v 1.074813 0.565027 0.179577
v 1.128222 1.187556 0.604289
v 1.128222 1.187556 0.604289
v 1.128222 1.187556 0.604289
v 1.128222 1.187556 0.758355
v 1.128222 1.187556 0.758355
v 1.128222 1.187556 0.758355
v 1.128222 1.187556 -0.604289
v 1.128222 1.187556 -0.604289
v 1.128222 1.187556 -0.604289
v 1.128222 1.187556 -0.758355
v 1.128222 1.187556 -0.758355
v 1.128222 1.187556 -0.758355
v 1.129667 1.161673 0.631698
v 1.129667 1.161673 0.631698
v 1.129667 1.161673 0.631698
v 1.129667 1.161673 0.730946
v 1.129667 1.161673 0.730946
v 1.129667 1.161673 0.730946
v 1.129667 1.161673 0.730946
v 1.129667 1.161673 -0.631698
v 1.129667 1.161673 -0.631698
v 1.129667 1.161673 -0.631698
v 1.129667 1.161673 -0.730946
v 1.129667 1.161673 -0.730946
v 1.129667 1.161673 -0.730946
v 1.129667 1.161673 -0.730946
v 1.140277 0.971640 0.642308
v 1.140277 0.971640 0.642308
v 1.140277 0.971640 0.642308
v 1.140277 0.971640 0.642308
v 1.140277 0.971640 0.720336
v 1.140277 0.971640 0.720336
v 1.140277 0.971640 0.720336
v 1.140277 0.971640 0.720336
v 1.140277 0.971640 -0.642308
v 1.140277 0.971640 -0.642308
v 1.140277 0.971640 -0.642308
v 1.140277 0.971640 -0.642308
v 1.140277 0.971640 -0.720336
v 1.140277 0.971640 -0.720336
v 1.140277 0.971640 -0.720336
v 1.140277 0.971640 -0.720336
v 1.141722 0.945757 0.617789
v 1.141722 0.945757 0.617789
v 1.141722 0.945757 0.617789
v 1.141722 0.945757 0.744855
v 1.141722 0.945757 0.744855
v 1.141722 0.945757 0.744855
v 1.141722 0.945757 -0.617789
v 1.141722 0.945757 -0.617789
v 1.141722 0.945757 -0.617789
v 1.141722 0.945757 -0.744855
v 1.141722 0.945757 -0.744855
v 1.141722 0.945757 -0.744855
v 1.149341 1.153114 0.638798
v 1.149341 1.153114 0.638798
v 1.149341 1.153114 0.638798
v 1.149341 1.153114 0.638798
v 1.149341 1.153114 0.723846
v 1.149341 1.153114 0.723846
v 1.149341 1.153114 0.723846
v 1.149341 1.153114 -0.638798
v 1.149341 1.153114 -0.638798
v 1.149341 1.153114 -0.638798
v 1.149341 1.153114 -0.638798
v 1.149341 1.153114 -0.723846
v 1.149341 1.153114 -0.723846
v 1.149341 1.153114 -0.723846
v 1.155630 1.161673 0.605734
v 1.155630 1.161673 0.605734
v 1.155630 1.161673 0.605734
v 1.155630 1.161673 0.605734
v 1.155630 1.161673 0.756910
v 1.155630 1.161673 0.756910
v 1.155630 1.161673 0.756910
v 1.155630 1.161673 -0.605734
v 1.155630 1.161673 -0.605734
v 1.155630 1.161673 -0.605734
v 1.155630 1.161673 -0.605734
v 1.155630 1.161673 -0.756910
v 1.155630 1.161673 -0.756910
v 1.155630 1.161673 -0.756910
v 1.159951 0.982396 0.647890
v 1.159951 0.982396 0.647890
v 1.159951 0.982396 0.647890
v 1.159951 0.982396 0.647890
v 1.159951 0.982396 0.714754
v 1.159951 0.982396 0.714754
v 1.159951 0.982396 0.714754
v 1.159951 0.982396 0.714754
v 1.159951 0.982396 -0.647890
v 1.159951 0.982396 -0.647890
v 1.159951 0.982396 -0.647890
v 1.159951 0.982396 -0.647890
v 1.159951 0.982396 -0.714754
v 1.159951 0.982396 -0.714754
v 1.159951 0.982396 -0.714754
v 1.159951 0.982396 -0.714754
v 1.161052 1.153114 0.625408
v 1.161052 1.153114 0.625408
v 1.161052 1.153114 0.625408
v 1.161052 1.153114 0.737236
v 1.161052 1.153114 0.737236
v 1.161052 1.153114 0.737236
v 1.161052 1.153114 0.737236
v 1.161052 1.153114 -0.625408
v 1.161052 1.153114 -0.625408
v 1.161052 1.153114 -0.625408
v 1.161052 1.153114 -0.737236
v 1.161052 1.153114 -0.737236
v 1.161052 1.153114 -0.737236
v 1.161052 1.153114 -0.737236
v 1.166240 0.971640 0.616344
v 1.166240 0.971640 0.616344
v 1.166240 0.971640 0.616344
v 1.166240 0.971640 0.746300
v 1.166240 0.971640 0.746300
v 1.166240 0.971640 0.746300
v 1.166240 0.971640 0.746300
v 1.166240 0.971640 -0.616344
v 1.166240 0.971640 -0.616344
v 1.166240 0.971640 -0.616344
v 1.166240 0.971640 -0.746300
v 1.166240 0.971640 -0.746300
v 1.166240 0.971640 -0.746300
v 1.166240 0.971640 -0.746300
v 1.169425 1.244251 1.270010
v 1.169425 1.244251 1.270010
v 1.169425 1.244251 1.270010
v 1.169425 1.244251 -1.270010
v 1.169425 1.244251 -1.270010
v 1.169425 1.244251 -1.270010
v 1.169425 1.350343 1.359818
v 1.169425 1.350343 1.359818
v 1.169425 1.350343 1.359818
v 1.169425 1.350343 -1.359818
v 1.169425 1.350343 -1.359818
v 1.169425 1.350343 -1.359818
v 1.169425 1.714232 0.714814
v 1.169425 1.714232 0.714814
v 1.169425 1.714232 0.714814
v 1.169425 1.778777 0.638565
v 1.169425 1.778777 0.638565
v 1.169425 1.778777 0.638565
v 1.169425 1.820324 0.804622
v 1.169425 1.820324 0.804622
v 1.169425 1.820324 0.804622
v 1.169425 1.884869 0.728373
v 1.169425 1.884869 0.728373
v 1.169425 1.884869 0.728373
v 1.169425 2.319330 0.000000
v 1.169425 2.319330 0.000000
v 1.169425 2.319330 0.000000
v 1.169425 2.501446 -0.000000
v 1.169425 2.501446 -0.000000
v 1.169425 2.501446 -0.000000
v 1.170502 0.982396 0.636018
v 1.170502 0.982396 0.636018
v 1.170502 0.982396 0.636018
v 1.170502 0.982396 0.636018
v 1.170502 0.982396 0.726626
v 1.170502 0.982396 0.726626
v 1.170502 0.982396 0.726626
v 1.170502 0.982396 -0.636018
v 1.170502 0.982396 -0.636018
v 1.170502 0.982396 -0.636018
v 1.170502 0.982396 -0.636018
v 1.170502 0.982396 -0.726626
v 1.170502 0.982396 -0.726626
v 1.170502 0.982396 -0.726626
v 1.193795 1.168725 0.669862
v 1.193795 1.168725 0.669862
v 1.193795 1.168725 0.692782
v 1.193795 1.168725 0.692782
v 1.193795 1.168725 -0.669862
v 1.193795 1.168725 -0.669862
v 1.193795 1.168725 -0.692782
v 1.193795 1.168725 -0.692782
v 1.193795 1.294976 0.669862
v 1.193795 1.294976 0.669862
v 1.193795 1.294976 0.692782
v 1.193795 1.294976 0.692782
v 1.193795 1.294976 -0.669862
v 1.193795 1.294976 -0.669862
v 1.193795 1.294976 -0.692782
v 1.193795 1.294976 -0.692782
v 1.216715 1.168725 0.669862
v 1.216715 1.168725 0.669862
v 1.216715 1.168725 0.692782
v 1.216715 1.168725 0.692782
v 1.216715 1.168725 -0.669862
v 1.216715 1.168725 -0.669862
v 1.216715 1.168725 -0.692782
v 1.216715 1.168725 -0.692782
v 1.216715 1.294976 0.669862
v 1.216715 1.294976 0.669862
v 1.216715 1.294976 0.692782
v 1.216715 1.294976 0.692782
v 1.216715 1.294976 -0.669862
v 1.216715 1.294976 -0.669862
v 1.216715 1.294976 -0.692782
v 1.216715 1.294976 -0.692782
v 1.237086 1.279206 0.658364
v 1.237086 1.279206 0.658364
v 1.237086 1.279206 0.658364
v 1.237086 1.279206 0.704280
v 1.237086 1.279206 0.704280
v 1.237086 1.279206 0.704280
v 1.237086 1.279206 -0.658364
v 1.237086 1.279206 -0.658364
v 1.237086 1.279206 -0.658364
v 1.237086 1.279206 -0.704280
v 1.237086 1.279206 -0.704280
v 1.237086 1.279206 -0.704280
v 1.237086 1.325123 0.658364
v 1.237086 1.325123 0.658364
v 1.237086 1.325123 0.658364
v 1.237086 1.325123 0.704280
v 1.237086 1.325123 0.704280
v 1.237086 1.325123 0.704280
v 1.237086 1.325123 -0.658364
v 1.237086 1.325123 -0.658364
v 1.237086 1.325123 -0.658364
v 1.237086 1.325123 -0.704280
v 1.237086 1.325123 -0.704280
v 1.237086 1.325123 -0.704280
v 1.240007 0.982396 0.636018
v 1.240007 0.982396 0.636018
v 1.240007 0.982396 0.636018
v 1.240007 0.982396 0.726626
v 1.240007 0.982396 0.726626
v 1.240007 0.982396 0.726626
v 1.240007 0.982396 0.726626
v 1.240007 0.982396 -0.636018
v 1.240007 0.982396 -0.636018
v 1.240007 0.982396 -0.636018
v 1.240007 0.982396 -0.726626
v 1.240007 0.982396 -0.726626
v 1.240007 0.982396 -0.726626
v 1.240007 0.982396 -0.726626
v 1.244269 0.971640 0.616344
v 1.244269 0.971640 0.616344
v 1.244269 0.971640 0.616344
v 1.244269 0.971640 0.616344
v 1.244269 0.971640 0.746300
v 1.244269 0.971640 0.746300
v 1.244269 0.971640 0.746300
v 1.244269 0.971640 -0.616344
v 1.244269 0.971640 -0.616344
v 1.244269 0.971640 -0.616344
v 1.244269 0.971640 -0.616344
v 1.244269 0.971640 -0.746300
v 1.244269 0.971640 -0.746300
v 1.244269 0.971640 -0.746300
v 1.249458 1.153114 0.625408
v 1.249458 1.153114 0.625408
v 1.249458 1.153114 0.625408
v 1.249458 1.153114 0.625408
v 1.249458 1.153114 0.737236
v 1.249458 1.153114 0.737236
v 1.249458 1.153114 0.737236
v 1.249458 1.153114 -0.625408
v 1.249458 1.153114 -0.625408
v 1.249458 1.153114 -0.625408
v 1.249458 1.153114 -0.625408
v 1.249458 1.153114 -0.737236
v 1.249458 1.153114 -0.737236
v 1.249458 1.153114 -0.737236
v 1.250558 0.982396 0.647890
v 1.250558 0.982396 0.647890
v 1.250558 0.982396 0.647890
v 1.250558 0.982396 0.647890
v 1.250558 0.982396 0.714754
v 1.250558 0.982396 0.714754
v 1.250558 0.982396 0.714754
v 1.250558 0.982396 0.714754
v 1.250558 0.982396 -0.647890
v 1.250558 0.982396 -0.647890
v 1.250558 0.982396 -0.647890
v 1.250558 0.982396 -0.647890
v 1.250558 0.982396 -0.714754
v 1.250558 0.982396 -0.714754
v 1.250558 0.982396 -0.714754
v 1.250558 0.982396 -0.714754
v 1.254879 1.161673 0.605734
v 1.254879 1.161673 0.605734
v 1.254879 1.161673 0.605734
v 1.254879 1.161673 0.756910
v 1.254879 1.161673 0.756910
v 1.254879 1.161673 0.756910
v 1.254879 1.161673 0.756910
v 1.254879 1.161673 -0.605734
v 1.254879 1.161673 -0.605734
v 1.254879 1.161673 -0.605734
v 1.254879 1.161673 -0.756910
v 1.254879 1.161673 -0.756910
v 1.254879 1.161673 -0.756910
v 1.254879 1.161673 -0.756910
v 1.261168 1.153114 0.638798
v 1.261168 1.153114 0.638798
v 1.261168 1.153114 0.638798
v 1.261168 1.153114 0.723846
v 1.261168 1.153114 0.723846
v 1.261168 1.153114 0.723846
v 1.261168 1.153114 0.723846
v 1.261168 1.153114 -0.638798
v 1.261168 1.153114 -0.638798
v 1.261168 1.153114 -0.638798
v 1.261168 1.153114 -0.723846
v 1.261168 1.153114 -0.723846
v 1.261168 1.153114 -0.723846
v 1.261168 1.153114 -0.723846
v 1.268788 0.945757 0.617789
v 1.268788 0.945757 0.617789
v 1.268788 0.945757 0.617789
v 1.268788 0.945757 0.744855
v 1.268788 0.945757 0.744855
v 1.268788 0.945757 0.744855
v 1.268788 0.945757 -0.617789
v 1.268788 0.945757 -0.617789
v 1.268788 0.945757 -0.617789
v 1.268788 0.945757 -0.744855
v 1.268788 0.945757 -0.744855
v 1.268788 0.945757 -0.744855
v 1.270233 0.971640 0.642308
v 1.270233 0.971640 0.642308
v 1.270233 0.971640 0.642308
v 1.270233 0.971640 0.642308
v 1.270233 0.971640 0.720336
v 1.270233 0.971640 0.720336
v 1.270233 0.971640 0.720336
v 1.270233 0.971640 0.720336
v 1.270233 0.971640 -0.642308
v 1.270233 0.971640 -0.642308
v 1.270233 0.971640 -0.642308
v 1.270233 0.971640 -0.642308
v 1.270233 0.971640 -0.720336
v 1.270233 0.971640 -0.720336
v 1.270233 0.971640 -0.720336
v 1.270233 0.971640 -0.720336
v 1.280842 1.161673 0.631698
v 1.280842 1.161673 0.631698
v 1.280842 1.161673 0.631698
v 1.280842 1.161673 0.631698
v 1.280842 1.161673 0.730946
v 1.280842 1.161673 0.730946
v 1.280842 1.161673 0.730946
v 1.280842 1.161673 -0.631698
v 1.280842 1.161673 -0.631698
v 1.280842 1.161673 -0.631698
v 1.280842 1.161673 -0.631698
v 1.280842 1.161673 -0.730946
v 1.280842 1.161673 -0.730946
v 1.280842 1.161673 -0.730946
v 1.282287 1.187556 0.604289
v 1.282287 1.187556 0.604289
v 1.282287 1.187556 0.604289
v 1.282287 1.187556 0.758355
v 1.282287 1.187556 0.758355
v 1.282287 1.187556 0.758355
v 1.282287 1.187556 -0.604289
v 1.282287 1.187556 -0.604289
v 1.282287 1.187556 -0.604289
v 1.282287 1.187556 -0.758355
v 1.282287 1.187556 -0.758355
v 1.282287 1.187556 -0.758355
v 1.283497 2.107818 -0.000000
v 1.283497 2.107818 -0.000000
v 1.283497 2.107818 -0.000000
v 1.283497 2.223738 0.115920
v 1.283497 2.223738 0.115920
v 1.283497 2.223738 0.115920
v 1.283497 2.223738 -0.115920
v 1.283497 2.223738 -0.115920
v 1.283497 2.223738 -0.115920
v 1.283497 2.339658 -0.000000
v 1.283497 2.339658 -0.000000
v 1.283497 2.339658 -0.000000
v -0.110309 1.280541 1.227141
v -0.110309 1.280541 1.227141
v -0.110309 1.280541 1.227141
v -0.110309 1.386633 1.316949
v -0.110309 1.386633 1.316949
v -0.110309 1.386633 1.316949
v -0.111939 1.244251 1.270010
v -0.111939 1.244251 1.270010
v -0.111939 1.244251 1.270010
v -0.111939 1.350343 1.359818
v -0.111939 1.350343 1.359818
v -0.111939 1.350343 1.359818
v -0.174599 0.451108 1.023747
v -0.174599 0.451108 -1.023747
v -0.197929 0.451108 1.023747
v -0.197929 0.451108 1.023747
v -0.197929 0.451108 1.023747
v -0.197929 0.451108 -1.023747
v -0.197929 0.451108 -1.023747
v -0.197929 0.451108 -1.023747
v -0.197929 0.561194 1.023747
v -0.197929 0.561194 -1.023747
v -0.197929 0.896998 1.023747
v -0.197929 0.896998 1.023747
v -0.197929 0.896998 1.023747
v -0.197929 0.896998 -1.023747
v -0.197929 0.896998 -1.023747
v -0.197929 0.896998 -1.023747
v -0.209109 0.439927 1.066558
v -0.209109 0.439927 1.066558
v -0.209109 0.439927 1.066558
v -0.209109 0.439927 -1.066558
v -0.209109 0.439927 -1.066558
v -0.209109 0.439927 -1.066558
v -0.209109 0.908179 1.066558
v -0.209109 0.908179 1.066558
v -0.209109 0.908179 1.066558
v -0.209109 0.908179 -1.066558
v -0.209109 0.908179 -1.066558
v -0.209109 0.908179 -1.066558
v -0.227779 0.684567 1.023747
v -0.227779 0.684567 -1.023747
v -0.227779 0.687178 1.051189
v -0.227779 0.687178 1.051189
v -0.227779 0.687178 -1.051189
v -0.227779 0.687178 -1.051189
v -0.227779 0.729644 1.051189
v -0.227779 0.729644 1.051189
v -0.227779 0.729644 -1.051189
v -0.227779 0.729644 -1.051189
v -0.227779 0.732255 1.023747
v -0.227779 0.732255 -1.023747
v -0.271013 0.378024 0.998651
v -0.271013 0.378024 0.998651
v -0.271013 0.378024 1.066558
v -0.271013 0.378024 1.066558
v -0.271013 0.378024 1.066558
v -0.271013 0.378024 -0.998651
v -0.271013 0.378024 -0.998651
v -0.271013 0.378024 -1.066558
v -0.271013 0.378024 -1.066558
v -0.271013 0.378024 -1.066558
v -0.271013 0.970083 0.998651
v -0.271013 0.970083 0.998651
v -0.271013 0.970083 1.066558
v -0.271013 0.970083 1.066558
v -0.271013 0.970083 1.066558
v -0.271013 0.970083 -0.998651
v -0.271013 0.970083 -0.998651
v -0.271013 0.970083 -1.066558
v -0.271013 0.970083 -1.066558
v -0.271013 0.970083 -1.066558
v -0.283272 1.719109 -0.903580
v -0.283272 1.719109 -0.903580
v -0.283272 1.719109 -0.903580
v -0.283272 2.042661 -0.523176
v -0.283272 2.042661 -0.523176
v -0.283272 2.042661 -0.523176
v -0.295681 2.245641 -0.566429
v -0.295681 2.245641 -0.566429
v -0.295681 2.245641 -0.566429
v -0.295681 2.245641 -0.941132
v -0.295681 2.245641 -0.941132
v -0.295681 2.245641 -0.941132
v -0.295681 2.399373 -0.566429
v -0.295681 2.399373 -0.566429
v -0.295681 2.399373 -0.566429
v -0.295681 2.399373 -0.941132
v -0.295681 2.399373 -0.941132
v -0.295681 2.399373 -0.941132
v -0.300808 1.782693 -0.923586
v -0.300808 1.782693 -0.923586
v -0.300808 1.782693 -0.923586
v -0.300808 2.077258 -0.577263
v -0.300808 2.077258 -0.577263
v -0.300808 2.077258 -0.577263
v -0.344982 1.681550 -0.615730
v -0.344982 1.681550 -0.615730
v -0.344982 1.681550 -0.615730
v -0.344982 1.681550 -0.891831
v -0.344982 1.681550 -0.891831
v -0.344982 1.681550 -0.891831
v -0.344982 2.108276 -0.615730
v -0.344982 2.108276 -0.615730
v -0.344982 2.108276 -0.891831
v -0.344982 2.108276 -0.891831
v -0.344982 2.245641 -0.615730
v -0.344982 2.245641 -0.615730
v -0.344982 2.245641 -0.891831
v -0.344982 2.245641 -0.891831
v -0.367397 2.399373 -0.638144
v -0.367397 2.399373 -0.638144
v -0.367397 2.399373 -0.638144
v -0.367397 2.399373 -0.869416
v -0.367397 2.399373 -0.869416
v -0.367397 2.399373 -0.869416
v -0.380246 2.346656 -0.650994
v -0.380246 2.346656 -0.650994
v -0.380246 2.346656 -0.650994
v -0.380246 2.346656 -0.856567
v -0.380246 2.346656 -0.856567
v -0.380246 2.346656 -0.856567
v -0.449691 1.277723 1.230470
v -0.449691 1.277723 1.230470
v -0.449691 1.277723 1.230470
v -0.449691 1.383815 1.320278
v -0.449691 1.383815 1.320278
v -0.449691 1.383815 1.320278
v -0.449691 1.383815 1.320278
v -0.459936 1.244251 1.270010
v -0.459936 1.244251 1.270010
v -0.459936 1.244251 1.270010
v -0.459936 1.350343 1.359818
v -0.459936 1.350343 1.359818
v -0.459936 1.350343 1.359818
v -0.468300 2.033996 0.521669
v -0.468300 2.033996 0.521669
v -0.468300 2.086350 0.565988
v -0.468300 2.086350 0.565988
v -0.468300 2.086350 0.565988
v -0.490101 1.815482 0.779804
v -0.490101 1.815482 0.779804
v -0.490101 1.867836 0.824123
v -0.490101 1.867836 0.824123
v -0.490101 1.867836 0.824123
v -0.585819 2.346656 -0.650994
v -0.585819 2.346656 -0.650994
v -0.585819 2.346656 -0.650994
v -0.585819 2.346656 -0.856567
v -0.585819 2.346656 -0.856567
v -0.585819 2.346656 -0.856567
v -0.598668 2.399373 -0.638144
v -0.598668 2.399373 -0.638144
v -0.598668 2.399373 -0.638144
v -0.598668 2.399373 -0.869416
v -0.598668 2.399373 -0.869416
v -0.598668 2.399373 -0.869416
v -0.621083 1.681550 -0.615730
v -0.621083 1.681550 -0.615730
v -0.621083 1.681550 -0.615730
v -0.621083 1.681550 -0.891831
v -0.621083 1.681550 -0.891831
v -0.621083 1.681550 -0.891831
v -0.621083 2.108276 -0.615730
v -0.621083 2.108276 -0.615730
v -0.621083 2.108276 -0.891831
v -0.621083 2.108276 -0.891831
v -0.621083 2.245641 -0.615730
v -0.621083 2.245641 -0.615730
v -0.621083 2.245641 -0.891831
v -0.621083 2.245641 -0.891831
v -0.665257 1.782693 -0.923586
v -0.665257 1.782693 -0.923586
v -0.665257 1.782693 -0.923586
v -0.665257 2.077258 -0.577263
v -0.665257 2.077258 -0.577263
v -0.665257 2.077258 -0.577263
v -0.670384 2.245641 -0.566429
v -0.670384 2.245641 -0.566429
v -0.670384 2.245641 -0.566429
v -0.670384 2.245641 -0.941132
v -0.670384 2.245641 -0.941132
v -0.670384 2.245641 -0.941132
v -0.670384 2.399373 -0.566429
v -0.670384 2.399373 -0.566429
v -0.670384 2.399373 -0.566429
v -0.670384 2.399373 -0.941132
v -0.670384 2.399373 -0.941132
v -0.670384 2.399373 -0.941132
v -0.682794 1.719109 -0.903580
v -0.682794 1.719109 -0.903580
v -0.682794 1.719109 -0.903580
v -0.682794 2.042661 -0.523176
v -0.682794 2.042661 -0.523176
v -0.682794 2.042661 -0.523176
v -0.828305 1.815482 0.779804
v -0.828305 1.815482 0.779804
v -0.828305 1.867836 0.824123
v -0.828305 1.867836 0.824123
v -0.828305 1.867836 0.824123
v -0.850105 2.033996 0.521669
v -0.850105 2.033996 0.521669
v -0.850105 2.086350 0.565988
v -0.850105 2.086350 0.565988
v -0.850105 2.086350 0.565988
v -0.930262 1.464185 1.017218
v -0.930262 1.464185 -1.017218
v -0.930262 1.588159 1.017218
v -0.930262 1.588159 -1.017218
v -0.994919 0.378024 0.160622
v -0.994919 0.378024 0.160622
v -0.994919 0.378024 0.752681
v -0.994919 0.378024 0.752681
v -0.994919 0.378024 -0.165500
v -0.994919 0.378024 -0.165500
v -0.994919 0.378024 -0.757560
v -0.994919 0.378024 -0.757560
v -0.994919 0.970083 0.160622
v -0.994919 0.970083 0.160622
v -0.994919 0.970083 0.752681
v -0.994919 0.970083 0.752681
v -0.994919 0.970083 -0.165500
v -0.994919 0.970083 -0.165500
v -0.994919 0.970083 -0.757560
v -0.994919 0.970083 -0.757560
v -1.000000 0.000609 1.000000
v -1.000000 0.000609 1.000000
v -1.000000 0.000609 -1.000000
v -1.000000 0.000609 -1.000000
v -1.000000 1.527379 1.000000
v -1.000000 1.527379 1.000000
v -1.000000 1.527379 -1.000000
v -1.000000 1.527379 -1.000000
v -1.000000 2.373891 0.000000
v -1.020015 0.434096 0.435229
v -1.020015 0.434096 0.487840
v -1.020015 0.434096 0.487840
v -1.020015 0.434096 -0.430342
v -1.020015 0.434096 -0.430342
v -1.020015 0.434096 -0.482952
v -1.020015 0.451108 0.233706
v -1.020015 0.451108 0.233706
v -1.020015 0.451108 0.233706
v -1.020015 0.451108 0.257035
v -1.020015 0.451108 0.484492
v -1.020015 0.451108 0.526909
v -1.020015 0.451108 0.679596
v -1.020015 0.451108 0.679596
v -1.020015 0.451108 0.679596
v -1.020015 0.451108 -0.238585
v -1.020015 0.451108 -0.238585
v -1.020015 0.451108 -0.238585
v -1.020015 0.451108 -0.391273
v -1.020015 0.451108 -0.433689
v -1.020015 0.451108 -0.661146
v -1.020015 0.451108 -0.684475
v -1.020015 0.451108 -0.684475
v -1.020015 0.451108 -0.684475
v -1.020015 0.561194 0.233706
v -1.020015 0.561194 -0.684475
v -1.020015 0.639531 0.679596
v -1.020015 0.639531 -0.238585
v -1.020015 0.684567 0.203856
v -1.020015 0.684567 -0.714325
v -1.020015 0.684567 0.719213
v -1.020015 0.684567 -0.198969
v -1.020015 0.691954 0.679596
v -1.020015 0.691954 -0.238585
v -1.020015 0.696163 0.435229
v -1.020015 0.696163 0.435229
v -1.020015 0.696163 0.487840
v -1.020015 0.696163 -0.430342
v -1.020015 0.696163 -0.482952
v -1.020015 0.696163 -0.482952
v -1.020015 0.732255 0.203856
v -1.020015 0.732255 -0.714325
v -1.020015 0.732255 0.719213
v -1.020015 0.732255 -0.198969
v -1.020015 0.896998 0.233706
v -1.020015 0.896998 0.233706
v -1.020015 0.896998 0.233706
v -1.020015 0.896998 0.540751
v -1.020015 0.896998 0.647967
v -1.020015 0.896998 0.679596
v -1.020015 0.896998 0.679596
v -1.020015 0.896998 0.679596
v -1.020015 0.896998 -0.238585
v -1.020015 0.896998 -0.238585
v -1.020015 0.896998 -0.238585
v -1.020015 0.896998 -0.270214
v -1.020015 0.896998 -0.377430
v -1.020015 0.896998 -0.684475
v -1.020015 0.896998 -0.684475
v -1.020015 0.896998 -0.684475
v -1.036641 0.434096 0.440301
v -1.036641 0.434096 0.440301
v -1.036641 0.434096 0.440301
v -1.036641 0.434096 0.482768
v -1.036641 0.434096 0.482768
v -1.036641 0.434096 -0.435414
v -1.036641 0.434096 -0.435414
v -1.036641 0.434096 -0.477880
v -1.036641 0.434096 -0.477880
v -1.036641 0.434096 -0.477880
v -1.036641 0.696163 0.440301
v -1.036641 0.696163 0.440301
v -1.036641 0.696163 0.482768
v -1.036641 0.696163 0.482768
v -1.036641 0.696163 0.482768
v -1.036641 0.696163 -0.435414
v -1.036641 0.696163 -0.435414
v -1.036641 0.696163 -0.435414
v -1.036641 0.696163 -0.477880
v -1.036641 0.696163 -0.477880
v -1.047457 0.687178 0.203856
v -1.047457 0.687178 0.203856
v -1.047457 0.687178 -0.714325
v -1.047457 0.687178 -0.714325
v -1.047457 0.687178 0.719213
v -1.047457 0.687178 0.719213
v -1.047457 0.687178 -0.198969
v -1.047457 0.687178 -0.198969
v -1.047457 0.729644 0.203856
v -1.047457 0.729644 0.203856
v -1.047457 0.729644 -0.714325
v -1.047457 0.729644 -0.714325
v -1.047457 0.729644 0.719213
v -1.047457 0.729644 0.719213
v -1.047457 0.729644 -0.198969
v -1.047457 0.729644 -0.198969
v -1.054236 1.464185 1.017218
v -1.054236 1.464185 1.017218
v -1.054236 1.464185 -1.017218
v -1.054236 1.464185 -1.017218
v -1.054236 1.588159 1.017218
v -1.054236 1.588159 1.017218
v -1.054236 1.588159 -1.017218
v -1.054236 1.588159 -1.017218
v -1.062826 0.378024 0.160622
v -1.062826 0.378024 0.160622
v -1.062826 0.378024 0.160622
v -1.062826 0.378024 0.752681
v -1.062826 0.378024 0.752681
v -1.062826 0.378024 0.752681
v -1.062826 0.378024 -0.165501
v -1.062826 0.378024 -0.165501
v -1.062826 0.378024 -0.165501
v -1.062826 0.378024 -0.757560
v -1.062826 0.378024 -0.757560
v -1.062826 0.378024 -0.757560
v -1.062826 0.439927 0.222526
v -1.062826 0.439927 0.222526
v -1.062826 0.439927 0.222526
v -1.062826 0.439927 0.690777
v -1.062826 0.439927 0.690777
v -1.062826 0.439927 0.690777
v -1.062826 0.439927 -0.227404
v -1.062826 0.439927 -0.227404
v -1.062826 0.439927 -0.227404
v -1.062826 0.439927 -0.695656
v -1.062826 0.439927 -0.695656
v -1.062826 0.439927 -0.695656
v -1.062826 0.908179 0.222526
v -1.062826 0.908179 0.222526
v -1.062826 0.908179 0.222526
v -1.062826 0.908179 0.690777
v -1.062826 0.908179 0.690777
v -1.062826 0.908179 0.690777
v -1.062826 0.908179 -0.227404
v -1.062826 0.908179 -0.227404
v -1.062826 0.908179 -0.227404
v -1.062826 0.908179 -0.695656
v -1.062826 0.908179 -0.695656
v -1.062826 0.908179 -0.695656
v -1.062826 0.970083 0.160622
v -1.062826 0.970083 0.160622
v -1.062826 0.970083 0.160622
v -1.062826 0.970083 0.752681
v -1.062826 0.970083 0.752681
v -1.062826 0.970083 0.752681
v -1.062826 0.970083 -0.165501
v -1.062826 0.970083 -0.165501
v -1.062826 0.970083 -0.165501
v -1.062826 0.970083 -0.757560
v -1.062826 0.970083 -0.757560
v -1.062826 0.970083 -0.757560
v -1.097811 1.797489 -0.616460
v -1.097811 1.797489 -0.616460
v -1.097811 1.797489 -0.616460
v -1.097811 1.903581 -0.706268
v -1.097811 1.903581 -0.706268
v -1.097811 1.903581 -0.706268
v -1.105947 1.602923 -0.846304
v -1.105947 1.602923 -0.846304
v -1.105947 1.602923 -0.846304
v -1.105947 1.709015 -0.936113
v -1.105947 1.709015 -0.936113
v -1.105947 1.709015 -0.936113
v -1.169425 1.244251 1.270010
v -1.169425 1.244251 1.270010
v -1.169425 1.244251 1.270010
v -1.169425 1.244251 -1.270010
v -1.169425 1.244251 -1.270010
v -1.169425 1.244251 -1.270010
v -1.169425 1.350343 1.359818
v -1.169425 1.350343 1.359818
v -1.169425 1.350343 1.359818
v -1.169425 1.350343 1.359818
v -1.169425 1.350343 -1.359818
v -1.169425 1.350343 -1.359818
v -1.169425 1.350343 -1.359818
v -1.169425 1.602611 0.846673
v -1.169425 1.602611 0.846673
v -1.169425 1.602611 0.846673
v -1.169425 1.602611 0.846673
v -1.169425 1.602611 -0.846673
v -1.169425 1.602611 -0.846673
v -1.169425 1.602611 -0.846673
v -1.169425 1.708703 0.936482
v -1.169425 1.708703 0.936482
v -1.169425 1.708703 0.936482
v -1.169425 1.708703 -0.936482
v -1.169425 1.708703 -0.936482
v -1.169425 1.708703 -0.936482
v -1.169425 1.772885 0.645526
v -1.169425 1.772885 0.645526
v -1.169425 1.772885 0.645526
v -1.169425 1.784494 -0.631812
v -1.169425 1.784494 -0.631812
v -1.169425 1.784494 -0.631812
v -1.169425 1.878977 0.735334
v -1.169425 1.878977 0.735334
v -1.169425 1.878977 0.735334
v -1.169425 1.890586 -0.721620
v -1.169425 1.890586 -0.721620
v -1.169425 1.890586 -0.721620
v -1.169425 2.319330 0.000000
v -1.169425 2.319330 0.000000
v -1.169425 2.319330 0.000000
v -1.169425 2.501446 -0.000000
v -1.169425 2.501446 -0.000000
v -1.169425 2.501446 -0.000000
v -1.212504 1.615950 0.830916
v -1.212504 1.615950 0.830916
v -1.212504 1.615950 0.830916
v -1.212504 1.722042 0.920724
v -1.212504 1.722042 0.920724
v -1.212504 1.722042 0.920724
v -1.212504 1.758132 0.662954
v -1.212504 1.758132 0.662954
v -1.212504 1.758132 0.662954
v -1.212504 1.758132 0.662954
v -1.212504 1.864224 0.752762
v -1.212504 1.864224 0.752762
v -1.212504 1.864224 0.752762
v -1.262842 2.107818 0.000000
v -1.262842 2.107818 0.000000
v -1.262842 2.107818 0.000000
v -1.262842 2.223738 0.115920
v -1.262842 2.223738 0.115920
v -1.262842 2.223738 0.115920
v -1.262842 2.223738 -0.115920
v -1.262842 2.223738 -0.115920
v -1.262842 2.223738 -0.115920
v -1.262842 2.339658 0.000000
v -1.262842 2.339658 0.000000
v -1.262842 2.339658 0.000000
vn 1.0000 -0.0000 -0.0000
vn 0.8811 -0.1387 -0.4521
vn 0.8432 0.4097 -0.3480
vn -0.0000 1.0000 -0.0000
vn -0.9979 -0.0416 0.0491
vn 0.9979 -0.0416 0.0491
vn -0.9979 -0.0416 -0.0491
vn -0.0000 -0.0000 1.0000
vn -0.0000 -1.0000 -0.0000
vn 0.1399 -0.0000 0.9902
vn 0.0606 -0.0000 0.9982
vn -1.0000 -0.0000 -0.0000
vn 0.0606 -0.9982 -0.0000
vn 0.0606 0.9982 -0.0000
vn -0.0000 0.7633 0.6461
vn -0.0000 0.6461 -0.7633
vn -0.0000 -0.7071 0.7071
vn -0.0000 0.7071 -0.7071
vn -0.0000 -0.6461 -0.7633
vn -0.0000 -0.6461 0.7633
vn 0.9979 -0.0416 -0.0491
vn -0.0000 0.6461 0.7633
vn -0.0000 0.7633 -0.6461
vn 0.1399 -0.0000 -0.9902
vn -0.0000 -0.7071 -0.7071
vn -0.0000 0.7071 0.7071
vn -0.0000 -0.0000 -1.0000
vn 0.0606 -0.0000 -0.9982
vn 0.2158 -0.9764 -0.0000
vn 0.2159 -0.9764 -0.0000
vn -0.9716 0.2368 -0.0000
vn -0.0000 0.2368 0.9716
vn -0.0000 0.2368 -0.9716
vn 0.9716 0.2368 -0.0000
vn -0.0000 -0.7633 -0.6461
vn -0.0076 0.6461 0.7632
vn -0.4683 0.5709 -0.6744
vn 0.9760 -0.1407 -0.1662
vn 0.2704 -0.6220 -0.7348
vn -0.9996 0.0174 0.0206
vn -0.9996 0.0175 0.0206
vn 0.2108 -0.6316 0.7461
vn 0.9810 -0.1253 0.1481
vn -0.4322 -0.5826 0.6883
vn 0.0128 -0.6460 0.7632
vn 0.0129 -0.6460 0.7632
vn 0.5639 0.5336 -0.6303
vn -0.6395 -0.4967 -0.5868
vn -0.9996 0.0187 -0.0221
vn -0.0000 -0.7633 0.6461
vn -0.0000 -0.7632 -0.6461
vn -0.9615 0.2092 -0.1779
vn -0.0000 -0.3001 -0.9539
vn 0.9615 0.2092 -0.1779
vn -0.0000 0.8424 0.5388
vn -0.0000 -0.7617 0.6479
vn -0.0000 0.7617 -0.6479
vn -0.4797 0.8774 -0.0000
vn 0.9675 0.0380 0.2500
vn 0.9719 0.0394 -0.2321
vn -0.0000 0.8774 0.4797
vn -0.0000 -0.0557 0.9984
vn -0.0000 -0.0557 -0.9984
vn -0.9984 -0.0557 -0.0000
vn 0.9984 -0.0557 -0.0000
vn -0.0000 -0.0620 0.9981
vn -0.0000 -0.0620 -0.9981
vn -0.9981 -0.0620 -0.0000
vn 0.9981 -0.0620 -0.0000
vn -0.0000 0.8774 -0.4797
vn 0.2894 0.0330 0.9566
vn -0.9719 0.0394 0.2321
vn -0.3278 0.0299 0.9443
vn -0.0000 -0.9170 -0.3989
vn 0.4797 0.8774 -0.0000
vn -0.0000 -0.9170 0.3989
vn -0.2894 0.0330 -0.9566
vn -0.9675 0.0380 -0.2501
vn 0.3989 -0.9170 -0.0000
vn -0.3989 -0.9170 -0.0000
vn 0.3278 0.0299 -0.9443
vn 0.9716 0.0412 -0.2330
vn 0.9676 0.0401 0.2492
vn 0.3259 0.0345 -0.9448
vn -0.9676 0.0401 -0.2492
vn -0.2915 0.0371 -0.9559
vn -0.3259 0.0345 0.9448
vn -0.9716 0.0412 0.2330
vn 0.2915 0.0371 0.9559
vn 0.9565 -0.0000 0.2918
vn 0.9675 -0.0000 0.2527
vn -0.0000 -0.9675 0.2527
vn -0.9675 -0.0000 0.2527
vn -0.0000 -0.9955 0.0947
vn -0.0000 0.9955 0.0947
vn -0.9565 -0.0000 0.2918
vn -0.0000 0.9675 0.2527
vn 0.9565 -0.0000 -0.2918
vn 0.9675 -0.0000 -0.2527
vn -0.0000 -0.9675 -0.2527
vn -0.9675 -0.0000 -0.2527
vn -0.0000 -0.9955 -0.0947
vn -0.0000 0.9955 -0.0947
vn -0.9565 -0.0000 -0.2918
vn -0.0000 0.9675 -0.2527
vn -0.2918 -0.0000 0.9565
vn -0.2527 -0.0000 0.9675
vn -0.2527 -0.9675 -0.0000
vn -0.2527 -0.0000 -0.9675
vn -0.0947 -0.9955 -0.0000
vn -0.0947 0.9955 -0.0000
vn -0.2918 -0.0000 -0.9565
vn -0.2527 0.9675 -0.0000
vn 0.9716 0.0412 0.2330
vn 0.9676 0.0401 -0.2492
vn 0.3259 0.0345 0.9448
vn -0.9676 0.0401 0.2492
vn -0.2915 0.0371 0.9559
vn -0.3259 0.0345 -0.9448
vn -0.9716 0.0412 -0.2330
vn 0.2915 0.0371 -0.9559
vn 0.9675 0.0380 -0.2500
vn 0.9719 0.0394 0.2321
vn 0.2894 0.0330 -0.9566
vn -0.9719 0.0394 -0.2321
vn -0.3278 0.0299 -0.9443
vn -0.2894 0.0330 0.9566
vn -0.9675 0.0380 0.2501
vn 0.3278 0.0299 0.9443
vt 0.509300 0.675470
vt 0.527072 0.967096
vt 0.509300 0.967097
vt 0.286702 0.121343
vt 0.430047 0.000000
vt 0.573393 0.121353
vt 0.663398 0.894224
vt 0.676576 0.851489
vt 0.676576 0.900590
vt 0.856271 0.931154
vt 0.841818 0.931154
vt 0.844104 0.916699
vt 0.461637 0.884536
vt 0.438756 0.914645
vt 0.438756 0.885194
vt 0.629613 0.950095
vt 0.619780 0.901615
vt 0.629613 0.901616
vt 0.639446 0.901621
vt 0.649279 0.950082
vt 0.639446 0.950088
vt 0.663398 0.900590
vt 0.673231 0.949080
vt 0.663398 0.949079
vt 0.236387 0.831749
vt 0.251134 0.885455
vt 0.236387 0.885463
vt 0.174785 0.870816
vt 0.196823 0.924527
vt 0.174785 0.924528
vt 0.273046 0.808484
vt 0.283539 0.705189
vt 0.283539 0.808490
vt 0.176898 0.845477
vt 0.166415 0.766540
vt 0.176898 0.766842
vt 0.591703 0.848616
vt 0.561834 0.888528
vt 0.561834 0.848952
vt 0.536806 0.877520
vt 0.541710 0.782340
vt 0.541710 0.878038
vt 0.818533 0.339056
vt 0.825157 0.332838
vt 0.825157 0.339628
vt 0.619780 0.786308
vt 0.659359 0.766617
vt 0.659359 0.786308
vt 0.072434 0.908696
vt 0.072434 0.898551
vt 0.077427 0.902891
vt 0.710107 0.935567
vt 0.710107 0.925188
vt 0.714719 0.929966
vt 0.438756 0.829838
vt 0.390297 0.881445
vt 0.390297 0.832963
vt 0.286702 0.121348
vt 0.000000 0.340213
vt 0.000000 0.121349
vt 0.113012 0.874095
vt 0.120994 0.830459
vt 0.120995 0.884139
vt 0.031746 0.943379
vt 0.022084 0.888616
vt 0.031746 0.888681
vt 0.481250 0.685751
vt 0.400575 0.685748
vt 0.390297 0.675469
vt 0.976626 0.705227
vt 0.953182 0.340216
vt 0.976626 0.340237
vt 0.220323 0.887768
vt 0.243822 0.911268
vt 0.220323 0.911269
vt 0.649279 0.901621
vt 0.659111 0.950082
vt 0.649279 0.950088
vt 1.000000 0.705094
vt 0.976625 0.340216
vt 1.000000 0.340302
vt 0.052540 0.952678
vt 0.042774 0.904183
vt 0.052540 0.904205
vt 0.062259 0.952681
vt 0.052540 0.904183
vt 0.062259 0.904203
vt 0.220323 0.911268
vt 0.196823 0.887768
vt 0.220323 0.887768
vt 0.283638 0.941872
vt 0.273805 0.893364
vt 0.283638 0.893362
vt 0.639446 0.950095
vt 0.629613 0.901615
vt 0.639446 0.901616
vt 0.957202 0.753735
vt 0.947483 0.705237
vt 0.957202 0.705257
vt 0.860360 0.277967
vt 0.811901 0.329574
vt 0.811901 0.281092
vt 0.111105 0.885340
vt 0.120849 0.940071
vt 0.111105 0.940072
vt 0.253485 0.942530
vt 0.243823 0.887768
vt 0.253485 0.887832
vt 0.438756 0.884536
vt 0.487228 0.832997
vt 0.487228 0.881448
vt 0.253955 0.681668
vt 0.249034 0.779657
vt 0.249034 0.682002
vt 0.278763 0.705183
vt 0.255277 0.340213
vt 0.278763 0.340228
vt 0.953182 0.705237
vt 0.929714 0.340216
vt 0.953182 0.340216
vt 0.359170 0.928336
vt 0.368511 0.918996
vt 0.368511 0.928337
vt 0.196823 0.845995
vt 0.236387 0.831741
vt 0.236387 0.845187
vt 0.542044 0.787443
vt 0.581622 0.767753
vt 0.581622 0.787445
vt 0.619780 0.860657
vt 0.659360 0.847502
vt 0.659360 0.860679
vt 0.527072 0.781097
vt 0.537561 0.675469
vt 0.537561 0.780883
vt 0.922933 0.331681
vt 0.900895 0.277967
vt 0.922933 0.277967
vt 0.596668 0.821763
vt 0.581622 0.767752
vt 0.596668 0.768059
vt 0.079289 0.885339
vt 0.087271 0.874835
vt 0.900896 0.277967
vt 0.860360 0.332133
vt 0.860360 0.278424
vt 0.780287 0.629996
vt 0.926749 0.916617
vt 0.780287 0.916699
vt 0.273046 0.925482
vt 0.255277 0.705183
vt 0.273046 0.705383
vt 0.780287 0.908754
vt 0.762533 0.681713
vt 0.780287 0.682224
vt 0.811901 0.339628
vt 0.818533 0.333133
vt 0.818533 0.339512
vt 0.536807 0.938926
vt 0.541691 0.879327
vt 0.541691 0.939169
vt 0.875020 0.349183
vt 0.929714 0.343264
vt 0.929714 0.629915
vt 0.573393 0.340216
vt 0.301103 0.262345
vt 0.286702 0.340206
vt 0.286702 0.274577
vt 0.286702 0.215403
vt 0.780286 0.626866
vt 0.780286 0.340216
vt 0.844505 0.341526
vt 0.884906 0.342350
vt 0.087271 0.841703
vt 0.079289 0.831659
vt 0.113012 0.840963
vt 0.574111 0.945885
vt 0.581666 0.914578
vt 0.581666 0.944047
vt 0.824727 0.916699
vt 0.818301 0.948012
vt 0.818301 0.918543
vt 0.866591 0.949831
vt 0.872783 0.918706
vt 0.872783 0.948157
vt 0.021296 0.912819
vt 0.013746 0.944146
vt 0.013746 0.914679
vt 0.491528 0.675469
vt 0.509300 0.967108
vt 0.491528 0.967108
vt 0.762533 0.908754
vt 0.744780 0.681713
vt 0.762533 0.682223
vt 0.947483 0.925537
vt 0.929714 0.705237
vt 0.947483 0.705437
vt 0.143351 0.000000
vt 0.619780 0.901593
vt 0.659360 0.901615
vt 0.542044 0.848615
vt 0.581622 0.848616
vt 0.196823 0.887768
vt 0.236387 0.886961
vt 0.619780 0.847480
vt 0.659359 0.847480
vt 0.780287 0.340216
vt 0.772245 0.523641
vt 0.665266 0.356259
vt 0.143208 0.950210
vt 0.162902 0.766579
vt 0.162902 0.950249
vt 0.042774 0.904183
vt 0.062700 0.824674
vt 0.062700 0.904183
vt 0.286702 0.778114
vt 0.312807 0.778351
vt 0.374972 0.884331
vt 0.908915 0.916707
vt 0.918015 0.936443
vt 0.908915 0.936451
vt 0.140920 0.830459
vt 0.120995 0.909969
vt 0.120995 0.830459
vt 0.344378 0.918995
vt 0.350668 0.939141
vt 0.344378 0.938576
vt 0.120995 0.909968
vt 0.137634 0.929905
vt 0.120994 0.929894
vt 0.856271 0.916699
vt 0.866591 0.936802
vt 0.856271 0.936489
vt 0.716196 0.882022
vt 0.696270 0.925188
vt 0.696270 0.882022
vt 0.079289 0.910973
vt 0.095181 0.930112
vt 0.079289 0.930667
vt 0.542044 0.909087
vt 0.561834 0.848660
vt 0.561834 0.909131
vt 0.336959 0.918995
vt 0.344378 0.938934
vt 0.336959 0.938920
vt 0.352957 0.918995
vt 0.359170 0.939127
vt 0.352957 0.938689
vt 0.676576 0.930660
vt 0.696270 0.882099
vt 0.696270 0.930738
vt 0.461637 0.916082
vt 0.481563 0.884536
vt 0.481563 0.916082
vt 0.196823 0.766540
vt 0.176898 0.870815
vt 0.176898 0.766541
vt 0.720216 0.918922
vt 0.739910 0.817263
vt 0.739910 0.918961
vt 0.062700 0.911668
vt 0.078235 0.929127
vt 0.062700 0.931249
vt 0.599990 0.932795
vt 0.619780 0.681757
vt 0.619780 0.932839
vt 0.742894 0.910733
vt 0.762533 0.928544
vt 0.742894 0.930523
vt 0.724621 0.918961
vt 0.732673 0.938887
vt 0.724621 0.938887
vt 0.115105 0.356153
vt 0.117233 0.675492
vt 0.008048 0.523665
vt 0.462482 0.666317
vt 0.419323 0.665120
vt 0.525443 0.420784
vt 0.689164 0.010286
vt 0.732329 0.009112
vt 0.795297 0.254815
vt 0.946823 0.000000
vt 0.950113 0.019652
vt 0.831827 0.039449
vt 0.118540 0.340215
vt 0.255277 0.340217
vt 0.255277 0.675494
vt 0.113962 0.681668
vt 0.079472 0.675492
vt 0.082431 0.681667
vt -0.000000 0.675490
vt 0.007423 0.572316
vt 0.286062 0.443655
vt 0.278763 0.342211
vt 0.286062 0.340213
vt 0.000000 0.340213
vt 0.104226 0.340215
vt 0.000000 0.523898
vt 0.286702 0.340216
vt 0.542044 0.340403
vt 0.542044 0.400847
vt 0.542044 0.424499
vt 0.542044 0.675469
vt 0.422206 0.675381
vt 0.286702 0.675282
vt 0.462551 0.675411
vt 0.780287 0.573744
vt 0.780287 0.675432
vt 0.772869 0.572283
vt 0.700872 0.675506
vt 0.143189 0.944987
vt 0.137634 0.940983
vt 0.143189 0.909968
vt 0.663139 0.675542
vt 0.542044 0.675655
vt 0.542044 0.340439
vt 0.666408 0.681713
vt 0.780287 0.523867
vt 0.661833 0.340326
vt 0.676137 0.340313
vt 0.732398 0.000014
vt 0.811901 0.000000
vt 0.811901 0.251107
vt 0.811901 0.274772
vt 0.811901 0.335249
vt 0.573393 0.335290
vt 0.573393 0.000041
vt 0.692047 0.000021
vt 0.079289 0.681670
vt 0.079289 0.824674
vt 0.058311 0.760891
vt 0.000000 0.681668
vt 0.019822 0.703533
vt 0.018918 0.712790
vt 0.019822 0.741625
vt 0.022140 0.707911
vt 0.039645 0.681669
vt 0.055134 0.771181
vt 0.058311 0.780156
vt 0.375042 0.884331
vt 0.383845 0.952204
vt 0.375042 0.955920
vt 0.950713 0.335229
vt 0.942395 0.280391
vt 0.950713 0.277967
vt 0.174785 0.942400
vt 0.165976 0.873531
vt 0.174785 0.870815
vt 0.031746 0.888616
vt 0.040826 0.943375
vt 0.031746 0.945888
vt 0.733843 0.753305
vt 0.676576 0.681713
vt 0.733843 0.681721
vt 0.249034 0.831698
vt 0.196823 0.766583
vt 0.249034 0.766540
vt 0.140923 0.839869
vt 0.140923 0.830459
vt 0.143208 0.837545
vt 0.542045 0.928171
vt 0.561083 0.909131
vt 0.561083 0.928171
vt 0.319337 0.931741
vt 0.324614 0.919003
vt 0.324614 0.931744
vt 0.302524 0.933429
vt 0.297249 0.919001
vt 0.302524 0.919060
vt 0.373782 0.933936
vt 0.368511 0.918995
vt 0.373782 0.919147
vt 0.954607 0.276423
vt 0.950113 0.238514
vt 0.954607 0.238606
vt 0.825157 0.339387
vt 0.831738 0.332805
vt 0.831739 0.339387
vt 0.720216 0.918963
vt 0.724621 0.956785
vt 0.720216 0.956787
vt 0.908915 0.916699
vt 0.903948 0.954575
vt 0.903948 0.916755
vt 0.898980 0.916699
vt 0.893870 0.954646
vt 0.893870 0.916846
vt 0.326938 0.937099
vt 0.330223 0.919001
vt 0.330223 0.937099
vt 0.932612 0.937962
vt 0.935897 0.925537
vt 0.935897 0.937895
vt 0.178071 0.942626
vt 0.181356 0.924528
vt 0.181356 0.942626
vt 0.542044 0.940282
vt 0.545330 0.928172
vt 0.545330 0.940284
vt 0.302524 0.932110
vt 0.307799 0.919000
vt 0.307799 0.932002
vt 0.422112 0.909650
vt 0.422112 0.935702
vt 0.419541 0.911323
vt 0.926749 0.792357
vt 0.926749 0.766313
vt 0.929495 0.790675
vt 0.452502 0.914645
vt 0.438756 0.933013
vt 0.438756 0.914800
vt 0.779681 0.908754
vt 0.762533 0.931319
vt 0.762533 0.909247
vt 0.551653 0.939356
vt 0.554780 0.928782
vt 0.554780 0.938745
vt 0.019826 0.912819
vt 0.005162 0.910229
vt 0.016346 0.910229
vt 0.001613 0.912819
vt 0.003894 0.891207
vt -0.000000 0.888616
vt 0.018120 0.891207
vt 0.022084 0.888616
vt 0.401507 0.909650
vt 0.403909 0.887255
vt 0.405071 0.906965
vt 0.400030 0.884571
vt 0.418134 0.887255
vt 0.422112 0.884571
vt 0.416254 0.906965
vt 0.419719 0.909650
vt 0.351025 0.918995
vt 0.336325 0.915285
vt 0.347510 0.915285
vt 0.332810 0.918995
vt 0.334801 0.888042
vt 0.330871 0.884331
vt 0.349028 0.888042
vt 0.352957 0.884331
vt 0.288621 0.919001
vt 0.290629 0.888043
vt 0.292137 0.915289
vt 0.286702 0.884331
vt 0.304856 0.888043
vt 0.308787 0.884331
vt 0.303322 0.915289
vt 0.306835 0.919001
vt 0.816720 0.933904
vt 0.805629 0.916699
vt 0.818301 0.916699
vt 0.781320 0.934518
vt 0.792957 0.916699
vt 0.791282 0.934518
vt 0.230331 0.935743
vt 0.219439 0.911269
vt 0.231631 0.911269
vt 0.165997 0.869955
vt 0.176898 0.845477
vt 0.175581 0.869955
vt 0.548491 0.928171
vt 0.545330 0.938759
vt 0.545330 0.928802
vt 0.707326 0.943017
vt 0.707326 0.925188
vt 0.710107 0.942377
vt 0.926749 0.844450
vt 0.926749 0.818403
vt 0.929488 0.842768
vt 0.929428 0.922893
vt 0.929428 0.942305
vt 0.927031 0.925060
vt 0.270344 0.939707
vt 0.273242 0.926240
vt 0.273242 0.938911
vt 0.841101 0.332805
vt 0.839471 0.340161
vt 0.838321 0.332805
vt 0.267410 0.939709
vt 0.270343 0.926247
vt 0.270343 0.938920
vt 0.487228 0.884311
vt 0.487228 0.867406
vt 0.490045 0.883622
vt 0.165976 0.908382
vt 0.165976 0.934445
vt 0.163398 0.910062
vt 0.362011 0.939074
vt 0.364810 0.929941
vt 0.364810 0.939142
vt 0.557621 0.928171
vt 0.554780 0.938913
vt 0.554780 0.929712
vt 0.267410 0.925482
vt 0.267410 0.942023
vt 0.264706 0.926387
vt 0.400030 0.928689
vt 0.402918 0.935867
vt 0.400030 0.937377
vt 0.419069 0.928689
vt 0.400030 0.909650
vt 0.419069 0.909650
vt 0.314061 0.932002
vt 0.308787 0.919108
vt 0.314061 0.919001
vt 0.297249 0.919060
vt 0.291973 0.933370
vt 0.291973 0.919001
vt 0.291973 0.919152
vt 0.286702 0.933789
vt 0.286702 0.919001
vt 0.922509 0.954525
vt 0.926913 0.916699
vt 0.926913 0.954522
vt 0.838321 0.339387
vt 0.831739 0.332805
vt 0.838321 0.332805
vt 0.922508 0.916790
vt 0.918015 0.954516
vt 0.918015 0.916699
vt 0.898980 0.916755
vt 0.903948 0.954519
vt 0.898980 0.954575
vt 0.888759 0.916846
vt 0.893870 0.954499
vt 0.888759 0.954646
vt 0.178071 0.942626
vt 0.174785 0.924528
vt 0.178071 0.924528
vt 0.676517 0.939986
vt 0.673231 0.927873
vt 0.676517 0.927875
vt 0.184642 0.942626
vt 0.181356 0.924528
vt 0.184642 0.924528
vt 0.939181 0.937895
vt 0.935897 0.925604
vt 0.939181 0.925537
vt 0.319337 0.931744
vt 0.314061 0.919000
vt 0.319337 0.919003
vt 0.538809 0.749417
vt 0.541718 0.775314
vt 0.538809 0.776696
vt 0.929490 0.766313
vt 0.926749 0.740413
vt 0.929490 0.739036
vt 0.000000 0.912974
vt 0.013746 0.931033
vt 0.000000 0.931188
vt 0.581622 0.822257
vt 0.598770 0.843835
vt 0.581622 0.844328
vt 0.551653 0.939349
vt 0.548491 0.928802
vt 0.551653 0.928171
vt 0.080767 0.910418
vt 0.095513 0.907734
vt 0.098978 0.910418
vt 0.097394 0.888024
vt 0.101371 0.885339
vt 0.083169 0.888024
vt 0.079289 0.885339
vt 0.084330 0.907734
vt 0.581660 0.912732
vt 0.579955 0.891119
vt 0.583918 0.888528
vt 0.565728 0.891119
vt 0.561834 0.888528
vt 0.566996 0.910141
vt 0.563447 0.912732
vt 0.578180 0.910141
vt 0.354896 0.918995
vt 0.369596 0.915285
vt 0.373111 0.918995
vt 0.371113 0.888042
vt 0.375042 0.884331
vt 0.356886 0.888042
vt 0.352957 0.884331
vt 0.358410 0.915285
vt 0.328919 0.919001
vt 0.326941 0.888043
vt 0.330871 0.884331
vt 0.312714 0.888043
vt 0.308787 0.884331
vt 0.314222 0.915289
vt 0.310705 0.919001
vt 0.325407 0.915289
vt 0.468758 0.933902
vt 0.480395 0.916082
vt 0.478720 0.933902
vt 0.804048 0.933904
vt 0.792957 0.916699
vt 0.805629 0.916699
vt 0.232937 0.935743
vt 0.243822 0.911269
vt 0.242522 0.935743
vt 0.207698 0.935746
vt 0.196823 0.911268
vt 0.209014 0.911268
vt 0.557956 0.928171
vt 0.561083 0.938745
vt 0.557956 0.939356
vt 0.701694 0.942606
vt 0.701694 0.925188
vt 0.704545 0.925246
vt 0.929498 0.711753
vt 0.926749 0.685853
vt 0.929498 0.684471
vt 0.188913 0.924528
vt 0.190395 0.942839
vt 0.187495 0.942839
vt 0.596668 0.805319
vt 0.599602 0.818756
vt 0.596668 0.819545
vt 0.405584 0.938212
vt 0.405584 0.928689
vt 0.408091 0.929893
vt 0.929714 0.925537
vt 0.932612 0.938965
vt 0.929714 0.939761
vt 0.196054 0.943947
vt 0.193366 0.926320
vt 0.196054 0.924528
vt 0.673231 0.900590
vt 0.676131 0.926490
vt 0.365712 0.928337
vt 0.368511 0.939142
vt 0.365712 0.939074
vt 0.362011 0.939074
vt 0.359170 0.929878
vt 0.362011 0.928337
vt 0.186095 0.924528
vt 0.187495 0.943893
vt 0.184642 0.943893
vt 0.670638 0.690590
vt 0.619780 0.681744
vt 0.676576 0.681713
vt 0.163600 0.908382
vt 0.165932 0.870815
vt 0.165976 0.908382
vt 0.330871 0.944135
vt 0.336959 0.918999
vt 0.336959 0.944139
vt 0.062700 0.909545
vt 0.072434 0.824674
vt 0.072434 0.909546
vt 0.953605 0.820859
vt 0.947483 0.886374
vt 0.947483 0.822456
vt 0.286322 0.528691
vt 0.278763 0.613728
vt 0.278763 0.528909
vt 0.583918 0.955647
vt 0.589601 0.890095
vt 0.589601 0.954008
vt 0.947483 0.820859
vt 0.953617 0.755336
vt 0.953617 0.819255
vt 0.625718 0.757739
vt 0.676576 0.766585
vt 0.619780 0.766617
vt 0.666842 0.851489
vt 0.676576 0.766617
vt 0.676576 0.851489
vt 0.744569 0.827184
vt 0.741354 0.901085
vt 0.741354 0.827214
vt 0.660224 0.925366
vt 0.663398 0.851490
vt 0.663398 0.925367
vt 0.740495 0.827184
vt 0.744569 0.753305
vt 0.744569 0.827182
vt 0.286110 0.613728
vt 0.278763 0.698676
vt 0.278763 0.613811
vt 0.487228 0.867406
vt 0.489610 0.829838
vt 0.489610 0.867406
vt 0.950113 0.067124
vt 0.955746 0.001604
vt 0.955746 0.065523
vt 0.000000 0.824697
vt 0.018075 0.824687
vt 0.000000 0.846585
vt 0.010560 0.888610
vt 0.042774 0.844577
vt 0.042774 0.888592
vt -0.000000 0.885272
vt 0.023104 0.824685
vt 0.042774 0.829208
vt 0.000000 0.852666
vt 0.542044 0.681713
vt 0.599990 0.682895
vt 0.593931 0.691644
vt 0.599017 0.805319
vt 0.596668 0.767752
vt 0.599058 0.767752
vt 0.739910 0.944615
vt 0.733825 0.919085
vt 0.739910 0.918961
vt 0.283539 0.893362
vt 0.273805 0.808490
vt 0.283539 0.808491
vt 0.383845 0.884331
vt 0.389996 0.949847
vt 0.383845 0.951455
vt 0.278763 0.443872
vt 0.286322 0.528474
vt 0.278763 0.528691
vt 0.950113 0.067124
vt 0.955692 0.132577
vt 0.950113 0.134237
vt 0.437986 0.951695
vt 0.431846 0.886172
vt 0.437986 0.884571
vt 0.599990 0.767752
vt 0.542044 0.766570
vt 0.548103 0.757821
vt 0.536807 0.865970
vt 0.527072 0.781097
vt 0.536807 0.781097
vt 0.286669 0.779047
vt 0.283539 0.705229
vt 0.286669 0.705183
vt 0.166415 0.840371
vt 0.163125 0.766618
vt 0.166415 0.766540
vt 0.541718 0.749418
vt 0.537561 0.675469
vt 0.541718 0.675554
vt 0.591703 0.848699
vt 0.599049 0.933481
vt 0.591703 0.933564
vt 0.285929 0.854228
vt 0.283544 0.816660
vt 0.285929 0.816661
vt 0.953258 0.955065
vt 0.947483 0.889678
vt 0.953258 0.887983
vt 0.720216 0.818114
vt 0.720216 0.839998
vt 0.701775 0.817738
vt 0.709442 0.881802
vt 0.676576 0.881131
vt 0.676576 0.837124
vt 0.720216 0.878678
vt 0.676576 0.821757
vt 0.676576 0.817224
vt 0.696644 0.817633
vt 0.088163 0.757666
vt 0.164162 0.766540
vt 0.079289 0.766540
vt 0.458590 0.940434
vt 0.458590 0.914645
vt 0.460914 0.939677
vt 0.452502 0.952213
vt 0.458590 0.914645
vt 0.458590 0.952213
vt 0.101371 0.942135
vt 0.111105 0.885345
vt 0.111105 0.942141
vt 0.567972 0.912732
vt 0.561834 0.957766
vt 0.561834 0.914992
vt 0.536796 0.866249
vt 0.527072 0.931894
vt 0.527072 0.865970
vt 0.255198 0.780063
vt 0.249034 0.830494
vt 0.249034 0.782255
vt 0.095181 0.956457
vt 0.101271 0.910418
vt 0.101271 0.954067
vt 0.155288 0.690542
vt 0.079289 0.681668
vt 0.164162 0.681668
vt 0.932664 0.336124
vt 0.942395 0.277967
vt 0.942395 0.335925
vt 0.251258 0.886677
vt 0.255198 0.830721
vt 0.255198 0.886476
vt 0.716196 0.939528
vt 0.720143 0.882022
vt 0.720143 0.939405
vt 0.666842 0.766617
vt 0.660754 0.840494
vt 0.660754 0.766617
vt 0.390297 0.948624
vt 0.400030 0.884680
vt 0.400030 0.948733
vt 0.215104 0.937608
vt 0.215104 0.911268
vt 0.217404 0.936819
vt 0.950113 0.238514
vt 0.956317 0.186788
vt 0.956317 0.236437
vt 0.676576 0.817224
vt 0.676576 0.790213
vt 0.698464 0.817224
vt 0.740495 0.801443
vt 0.696480 0.753305
vt 0.740495 0.753305
vt 0.737151 0.817224
vt 0.676576 0.782699
vt 0.681110 0.753305
vt 0.704544 0.817224
vt 0.953605 0.876815
vt 0.957545 0.820859
vt 0.957545 0.876614
vt 0.127427 0.766540
vt 0.143208 0.769884
vt 0.079289 0.810555
vt 0.108683 0.830459
vt 0.079289 0.825925
vt 0.743568 0.681993
vt 0.733843 0.747637
vt 0.733843 0.681713
vt 0.481563 0.948589
vt 0.491296 0.884646
vt 0.491296 0.948699
vt 0.209014 0.957307
vt 0.215104 0.911268
vt 0.215104 0.954917
vt 0.953258 0.945489
vt 0.957205 0.887983
vt 0.957205 0.945367
vt 0.956877 0.277967
vt 0.950713 0.328399
vt 0.950713 0.280159
vt 0.927031 0.922893
vt 0.927031 0.896553
vt 0.929332 0.922104
vt 0.240160 0.757666
vt 0.249034 0.681668
vt 0.249034 0.766540
vt 0.950113 0.186375
vt 0.956317 0.134650
vt 0.956317 0.184298
vt 0.079289 0.766540
vt 0.143208 0.830459
vt 0.116198 0.830459
vt 0.143208 0.808571
vt 0.922933 0.336124
vt 0.932664 0.277967
vt 0.932664 0.335925
vt 0.143208 0.802491
vt 0.078522 0.824674
vt 0.072434 0.898551
vt 0.072434 0.824674
vt 0.324614 0.944790
vt 0.324614 0.919001
vt 0.326938 0.944033
vt 0.574111 0.912732
vt 0.567972 0.957766
vt 0.567972 0.914992
vt 0.422112 0.941367
vt 0.431846 0.884576
vt 0.431846 0.941372
vt 0.461637 0.953650
vt 0.467724 0.916082
vt 0.467724 0.953650
vt 0.173036 0.690542
vt 0.164162 0.766540
vt 0.164162 0.681668
vt 0.527072 0.675469
vt 0.461637 0.913987
vt 0.619780 0.950094
vt 0.649279 0.901615
vt 0.673231 0.900591
vt 0.251134 0.831741
vt 0.196823 0.870815
vt 0.273046 0.705183
vt 0.166415 0.845175
vt 0.591703 0.888192
vt 0.536806 0.781097
vt 0.818533 0.332805
vt 0.619780 0.766617
vt 0.259873 0.935628
vt 0.255276 0.930827
vt 0.259873 0.925482
vt 0.665764 0.850873
vt 0.660754 0.846577
vt 0.665764 0.840494
vt 0.438756 0.884570
vt 0.286702 0.340213
vt 0.022084 0.943314
vt 0.400575 0.829835
vt 0.390297 0.829835
vt 0.491528 0.675473
vt 0.491528 0.829838
vt 0.481250 0.829838
vt 0.953182 0.705206
vt 0.243822 0.887768
vt 0.659111 0.901615
vt 0.976626 0.705007
vt 0.042774 0.952657
vt 0.052540 0.952661
vt 0.196823 0.911268
vt 0.273805 0.941873
vt 0.629613 0.950094
vt 0.947483 0.753715
vt 0.860360 0.332700
vt 0.120849 0.885339
vt 0.243823 0.942465
vt 0.253955 0.780063
vt 0.255277 0.705168
vt 0.929714 0.705237
vt 0.359170 0.918995
vt 0.196823 0.832548
vt 0.542044 0.767752
vt 0.619780 0.847480
vt 0.527072 0.675683
vt 0.900895 0.331681
vt 0.581622 0.821456
vt 0.900896 0.331677
vt 0.926749 0.629915
vt 0.255277 0.925282
vt 0.762533 0.908243
vt 0.811901 0.332700
vt 0.536807 0.878038
vt 0.574111 0.912732
vt 0.824727 0.949852
vt 0.866591 0.916699
vt 0.021296 0.945971
vt 0.509300 0.675469
vt 0.744780 0.908243
vt 0.929714 0.925336
vt 0.143208 0.766540
vt 0.042774 0.824674
vt 0.375206 0.675469
vt 0.390297 0.688481
vt 0.390297 0.871596
vt 0.918015 0.916699
vt 0.140920 0.909968
vt 0.350668 0.919560
vt 0.137634 0.909979
vt 0.866591 0.917012
vt 0.716196 0.925188
vt 0.095181 0.910418
vt 0.542044 0.848616
vt 0.344378 0.919008
vt 0.359170 0.919433
vt 0.676576 0.882022
vt 0.461637 0.884536
vt 0.196823 0.870814
vt 0.720216 0.817224
vt 0.078235 0.909546
vt 0.599990 0.681713
vt 0.762533 0.908754
vt 0.732673 0.918961
vt 0.831827 0.277967
vt 0.811901 0.277967
vt 0.811901 0.022582
vt 0.059467 0.824673
vt 0.059467 0.681670
vt 0.019822 0.824672
vt 0.000000 0.824671
vt 0.019822 0.681668
vt 0.039645 0.824672
vt 0.383845 0.887030
vt 0.942395 0.332626
vt 0.165976 0.938703
vt 0.040826 0.891131
vt 0.676576 0.753297
vt 0.196823 0.831741
vt 0.405584 0.938099
vt 0.402918 0.929830
vt 0.405584 0.928689
vt 0.542044 0.909131
vt 0.319337 0.919001
vt 0.297249 0.933369
vt 0.368511 0.933784
vt 0.950113 0.276331
vt 0.825157 0.332805
vt 0.724621 0.918961
vt 0.908915 0.954519
vt 0.898980 0.954499
vt 0.326938 0.919001
vt 0.932612 0.925604
vt 0.178071 0.924528
vt 0.542044 0.928171
vt 0.302524 0.919108
vt 0.929645 0.629915
vt 0.929645 0.657192
vt 0.926749 0.655806
vt 0.926749 0.684471
vt 0.926749 0.657192
vt 0.929503 0.658573
vt 0.452502 0.932859
vt 0.779681 0.930825
vt 0.551653 0.928171
vt 0.806758 0.933904
vt 0.780286 0.916699
vt 0.220746 0.935743
vt 0.164706 0.845477
vt 0.548491 0.939349
vt 0.696270 0.944608
vt 0.696270 0.925188
vt 0.698957 0.926983
vt 0.926749 0.739036
vt 0.926749 0.711754
vt 0.929495 0.713135
vt 0.283694 0.920645
vt 0.286541 0.939854
vt 0.283694 0.940058
vt 0.270344 0.925483
vt 0.410838 0.928689
vt 0.410838 0.937377
vt 0.408091 0.935705
vt 0.267410 0.925482
vt 0.698957 0.943554
vt 0.698957 0.925188
vt 0.701694 0.926873
vt 0.286541 0.893362
vt 0.286541 0.920645
vt 0.283638 0.919263
vt 0.362011 0.928337
vt 0.557621 0.938908
vt 0.193366 0.924528
vt 0.193366 0.942120
vt 0.190395 0.940799
vt 0.860360 0.332700
vt 0.863260 0.332700
vt 0.862574 0.340113
vt 0.400031 0.928689
vt 0.308787 0.932110
vt 0.297249 0.933429
vt 0.291973 0.933941
vt 0.922509 0.916701
vt 0.831739 0.339387
vt 0.922508 0.954607
vt 0.903948 0.916699
vt 0.893870 0.916699
vt 0.174785 0.942626
vt 0.673231 0.939984
vt 0.181356 0.942626
vt 0.935897 0.937962
vt 0.314061 0.931741
vt 0.926749 0.870494
vt 0.929332 0.872174
vt 0.926749 0.896553
vt 0.929483 0.870494
vt 0.926749 0.868811
vt 0.929483 0.844450
vt 0.013746 0.912819
vt 0.598770 0.821763
vt 0.548491 0.938759
vt 0.467724 0.916082
vt 0.794086 0.933904
vt 0.198113 0.935746
vt 0.561083 0.928782
vt 0.662942 0.942786
vt 0.660224 0.941001
vt 0.662942 0.925367
vt 0.929490 0.818403
vt 0.926749 0.816722
vt 0.929490 0.792357
vt 0.262269 0.925482
vt 0.264706 0.927577
vt 0.262269 0.943854
vt 0.599602 0.806084
vt 0.143208 0.849391
vt 0.141061 0.846997
vt 0.143208 0.839869
vt 0.932612 0.926294
vt 0.707326 0.943019
vt 0.704545 0.942376
vt 0.707326 0.925188
vt 0.740319 0.908754
vt 0.742894 0.910432
vt 0.740319 0.934815
vt 0.368511 0.929941
vt 0.359170 0.939079
vt 0.259873 0.925482
vt 0.262269 0.927652
vt 0.259873 0.944899
vt 0.625718 0.690615
vt 0.670638 0.757714
vt 0.283544 0.891796
vt 0.283544 0.854228
vt 0.285921 0.854231
vt 0.330871 0.918995
vt 0.062700 0.824674
vt 0.953605 0.887983
vt 0.286322 0.613510
vt 0.583918 0.888529
vt 0.947483 0.753735
vt 0.744569 0.901055
vt 0.660224 0.851489
vt 0.740495 0.753307
vt 0.286110 0.698593
vt 0.487228 0.829839
vt 0.950113 -0.000000
vt -0.000000 0.888616
vt 0.042774 0.824674
vt 0.548103 0.690709
vt 0.285929 0.816660
vt 0.283539 0.816660
vt 0.283580 0.779093
vt 0.733825 0.944739
vt 0.273805 0.893362
vt 0.389996 0.885929
vt 0.286322 0.443655
vt 0.955692 0.068669
vt 0.431846 0.950091
vt 0.593931 0.758756
vt 0.527072 0.865970
vt 0.283539 0.779093
vt 0.163125 0.840448
vt 0.537561 0.749333
vt 0.599049 0.848616
vt 0.283544 0.854228
vt 0.947483 0.953556
vt 0.720216 0.882022
vt 0.720216 0.846078
vt 0.155288 0.757666
vt 0.088163 0.690542
vt 0.872783 0.941220
vt 0.878327 0.916699
vt 0.880771 0.916699
vt 0.452502 0.914645
vt 0.101371 0.885339
vt 0.567972 0.957651
vt 0.536796 0.932174
vt 0.255198 0.830721
vt 0.095181 0.910619
vt 0.932664 0.278166
vt 0.251258 0.830923
vt 0.716196 0.882144
vt 0.666842 0.840494
vt 0.390297 0.884571
vt 0.824727 0.941614
vt 0.830840 0.916699
vt 0.833272 0.916699
vt 0.950113 0.186375
vt 0.740495 0.817224
vt 0.676576 0.753305
vt 0.953605 0.821060
vt 0.143208 0.766540
vt 0.079289 0.830459
vt 0.743568 0.747917
vt 0.481563 0.884536
vt 0.209014 0.911469
vt 0.953258 0.888105
vt 0.956877 0.328626
vt 0.833273 0.941614
vt 0.839386 0.916699
vt 0.841818 0.916699
vt 0.240160 0.690542
vt 0.173036 0.757666
vt 0.950113 0.134237
vt 0.922933 0.278166
vt 0.078522 0.898551
vt 0.880771 0.941220
vt 0.886315 0.916699
vt 0.888759 0.916699
vt 0.574111 0.957651
vt 0.422112 0.884570
vt 0.461637 0.916082
s 0
usemtl Material.001
f 278/1/1 280/2/1 276/3/1
f 216/4/1 217/5/1 214/6/1
s 1
f 161/7/2 207/8/2 204/9/2
f 201/10/3 160/11/3 203/12/3
s 0
f 821/13/4 847/14/4 818/15/4
s 1
f 123/16/5 121/17/5 118/18/5
f 151/19/6 149/20/6 146/21/6
f 14/22/7 22/23/7 19/24/7
s 0
f 779/25/8 884/26/8 878/27/8
f 784/28/1 787/29/1 781/30/1
f 291/31/8 209/32/8 194/33/8
f 307/34/4 210/35/4 304/36/4
f 862/37/9 798/38/9 859/39/9
s 1
f 293/40/10 272/41/10 257/42/10
f 313/43/11 226/44/11 221/45/11
s 0
f 865/46/12 871/47/12 867/48/12
s 1
f 220/49/13 314/50/13 222/51/13
f 316/52/14 225/53/14 320/54/14
f 839/55/15 898/56/15 843/57/15
s 0
f 933/58/12 927/59/12 931/60/12
f 856/61/4 789/62/4 888/63/4
s 1
f 901/64/16 838/65/16 836/66/16
s 0
f 299/67/1 302/68/1 308/69/1
s 1
f 689/70/17 1160/71/17 1156/72/17
s 0
f 697/73/1 694/74/1 691/75/1
s 1
f 837/76/6 845/77/6 842/78/6
f 1162/79/18 699/80/18 695/81/18
f 18/82/19 110/83/19 107/84/19
f 145/85/20 125/86/20 122/87/20
s 0
f 1158/88/12 1167/89/12 1164/90/12
s 1
f 108/91/21 116/92/21 113/93/21
f 897/94/5 905/95/5 902/96/5
f 841/97/20 899/98/20 896/99/20
f 153/100/15 124/101/15 147/102/15
f 112/103/22 15/104/22 13/105/22
f 117/106/16 152/107/16 150/108/16
f 16/109/23 109/110/23 20/111/23
f 297/112/24 254/113/24 268/114/24
f 1157/115/25 696/116/25 690/117/25
f 1165/118/26 692/119/26 698/120/26
s 0
f 311/121/1 322/122/1 315/123/1
f 866/124/27 809/125/27 805/126/27
f 806/127/1 808/128/1 804/129/1
f 803/130/8 868/131/8 864/132/8
f 197/133/27 306/134/27 295/135/27
f 880/136/12 889/137/12 883/138/12
f 881/139/27 788/140/27 782/141/27
f 885/142/4 853/143/4 888/63/4
f 882/144/9 780/145/9 879/146/9
f 195/147/8 930/148/8 926/149/8
f 156/150/9 275/151/9 155/152/9
f 281/153/4 157/154/4 279/155/4
s 1
f 219/156/28 317/157/28 310/158/28
f 301/159/29 269/160/30 273/161/29
s 0
f 159/162/27 198/163/27 928/164/27
f 214/6/1 196/165/1 205/166/1
f 196/165/1 199/167/1 205/166/1
f 199/167/1 202/168/1 205/166/1
f 205/166/1 208/169/1 214/6/1
f 208/169/1 216/4/1 214/6/1
f 928/164/27 932/170/27 159/162/27
f 932/170/27 215/171/27 206/172/27
f 159/162/27 932/170/27 206/172/27
f 159/162/27 200/173/27 198/163/27
f 853/143/4 856/61/4 888/63/4
f 812/174/4 786/175/4 789/62/4
f 789/62/4 856/61/4 815/176/4
f 812/174/4 853/143/4 885/142/4
f 789/62/4 815/176/4 812/174/4
f 812/174/4 885/142/4 786/175/4
s 1
f 813/177/31 822/178/31 819/179/31
f 814/180/32 849/181/32 820/182/32
f 852/183/33 817/184/33 846/185/33
f 857/186/34 848/187/34 851/188/34
s 0
f 1038/189/12 1032/190/12 1036/191/12
f 909/192/4 1035/193/4 908/194/4
f 1033/195/9 906/196/9 1031/197/9
f 934/198/12 933/58/12 931/60/12
f 797/199/8 864/132/8 858/200/8
f 802/201/1 804/129/1 799/202/1
f 861/203/27 805/126/27 800/204/27
f 860/205/12 867/48/12 863/206/12
s 1
f 450/207/35 701/208/35 283/209/35
f 456/210/20 707/211/20 449/212/20
s 0
f 1108/213/12 1115/214/12 1101/215/12
f 1142/216/12 1139/217/12 1133/218/12
s 1
f 1097/219/36 1117/220/36 1094/221/36
s 0
f 1124/222/12 1104/223/12 1118/224/12
s 1
f 1154/225/37 1126/226/37 1151/227/37
f 132/228/38 134/229/38 129/230/38
f 1135/231/39 1088/232/39 1129/233/39
f 1092/234/40 1095/235/41 1089/236/40
f 471/237/42 284/238/42 465/239/42
f 143/240/19 452/241/19 139/242/19
f 829/243/43 832/244/43 825/245/43
f 1120/246/44 1144/247/44 1114/248/44
f 705/249/45 824/250/46 702/251/45
s 0
f 1148/252/12 1152/253/12 1145/254/12
f 469/255/1 451/256/1 463/257/1
s 1
f 834/258/20 1099/259/20 830/260/20
f 288/261/47 462/262/47 285/263/47
f 1110/264/19 127/265/19 1102/266/19
f 138/267/48 141/268/48 135/269/48
f 712/270/49 703/271/49 709/272/49
f 286/273/15 1131/274/15 704/275/15
f 1096/276/23 1090/277/23 136/278/23
f 1087/279/50 1093/280/50 133/281/50
s 0
f 472/282/1 466/283/1 475/284/1
s 1
f 286/273/15 470/285/15 476/286/15
f 476/286/15 1140/287/15 286/273/15
f 1140/287/15 1131/274/15 286/273/15
f 1131/274/15 1153/288/15 1119/289/15
f 1153/288/15 1146/290/15 1119/289/15
f 1119/289/15 1106/291/15 827/292/15
f 1105/293/15 833/294/15 826/295/15
f 455/296/15 467/297/15 286/273/15
f 704/275/15 710/298/15 455/296/15
f 704/275/15 455/296/15 286/273/15
f 1119/289/15 827/292/15 1131/274/15
f 827/292/15 704/275/15 1131/274/15
f 477/299/23 458/300/23 136/278/23
f 458/300/23 142/301/23 136/278/23
f 136/278/23 130/302/23 1096/276/23
f 130/302/23 1109/303/23 1096/276/23
f 1134/304/23 1141/305/23 1090/277/23
f 1141/305/23 477/299/23 1090/277/23
f 477/299/23 136/278/23 1090/277/23
f 1109/303/23 1122/306/23 1096/276/23
f 831/307/51 1100/308/35 823/309/35
f 1100/308/35 1113/310/35 823/309/35
f 1112/311/35 1143/312/35 1149/313/35
f 1125/314/35 1138/315/35 701/208/35
f 1138/315/35 474/316/35 283/209/35
f 1113/310/35 1150/317/35 1125/314/35
f 450/207/35 708/318/51 701/208/35
f 701/208/35 823/309/35 1125/314/35
f 823/309/35 1113/310/35 1125/314/35
f 1138/315/35 283/209/35 701/208/35
f 474/316/35 464/319/35 283/209/35
f 283/209/35 461/320/35 450/207/35
f 1093/280/50 1116/321/50 1103/322/50
f 1103/322/50 128/323/50 1093/280/50
f 128/323/50 133/281/50 1093/280/50
f 133/281/50 140/324/50 453/325/50
f 453/325/50 473/326/50 133/281/50
f 473/326/50 1137/327/50 1087/279/50
f 1137/327/50 1128/328/50 1087/279/50
f 473/326/50 1087/279/50 133/281/50
s 0
f 270/329/1 255/330/1 261/331/1
f 274/332/1 265/333/1 263/334/1
f 262/335/1 264/336/1 266/337/1
f 266/337/1 261/331/1 260/338/1
f 259/339/1 260/338/1 261/331/1
f 262/335/1 263/334/1 265/333/1
f 265/333/1 264/336/1 262/335/1
s 1
f 895/340/52 874/341/52 892/342/52
f 890/343/53 792/344/53 773/345/53
f 775/346/54 796/347/54 778/348/54
f 776/349/55 876/350/55 893/351/55
f 891/352/56 777/353/56 894/354/56
f 791/355/57 875/356/57 794/357/57
f 362/358/58 414/359/58 419/360/58
s 0
f 239/361/1 248/362/1 236/363/1
f 234/364/8 190/365/8 182/366/8
f 185/367/9 235/368/9 183/369/9
f 250/370/4 191/371/4 247/372/4
f 168/373/27 546/374/27 534/375/27
f 536/376/1 545/377/1 533/378/1
f 531/379/8 174/380/8 166/381/8
f 169/382/9 532/383/9 167/384/9
f 547/385/4 175/386/4 544/387/4
f 498/388/12 508/389/12 500/390/12
f 499/391/27 523/392/27 515/393/27
f 516/394/1 522/395/1 514/396/1
f 513/397/8 505/398/8 497/399/8
f 184/400/27 249/401/27 237/402/27
s 1
f 400/403/59 488/404/59 430/405/59
f 448/406/60 434/407/60 492/408/60
s 0
f 375/409/9 642/410/9 372/411/9
f 686/412/4 329/413/4 683/414/4
s 1
f 442/415/61 556/416/61 486/417/61
f 371/418/62 571/419/62 443/420/62
f 641/421/62 614/422/62 571/419/62
f 684/423/62 398/424/62 614/422/62
f 330/425/62 443/420/62 398/424/62
f 374/426/63 402/427/63 446/428/63
f 333/429/63 617/430/63 402/427/63
f 687/431/63 575/432/63 617/430/63
f 644/433/63 446/428/63 575/432/63
f 376/434/64 360/435/64 364/436/64
f 373/437/64 344/438/64 360/435/64
f 331/439/64 348/440/64 344/438/64
f 334/441/64 364/436/64 348/440/64
f 646/442/65 676/443/65 662/444/65
f 688/445/65 673/446/65 676/443/65
f 685/447/65 658/448/65 673/446/65
f 643/449/65 662/444/65 658/448/65
f 487/450/66 584/451/66 428/452/66
f 491/453/67 588/454/67 560/455/67
f 420/456/68 387/457/68 390/458/68
f 606/459/69 630/460/69 602/461/69
f 574/462/70 490/463/70 559/464/70
f 659/465/71 631/466/71 603/467/71
f 573/468/72 587/469/72 558/470/72
f 346/471/73 418/472/73 388/473/73
f 403/474/74 589/475/74 432/476/74
f 656/477/75 604/478/75 601/479/75
f 615/480/76 429/481/76 585/482/76
f 357/483/77 384/484/77 413/485/77
f 619/486/78 561/487/78 590/488/78
f 675/489/79 629/490/79 633/491/79
f 343/492/80 389/493/80 386/494/80
f 671/495/81 600/496/81 628/497/81
f 355/498/58 407/499/58 351/500/58
s 0
f 233/501/1 242/502/1 245/503/1
f 228/504/27 186/505/27 240/506/27
f 181/507/9 229/508/9 232/509/9
f 244/510/4 187/511/4 189/512/4
f 164/513/8 540/514/8 172/515/8
f 530/516/1 539/517/1 542/518/1
f 525/519/27 170/520/27 537/521/27
f 165/522/9 526/523/9 529/524/9
f 541/525/4 171/526/4 173/527/4
f 494/528/12 504/529/12 502/530/12
f 495/531/8 519/532/8 503/533/8
f 512/534/1 518/535/1 520/536/1
f 509/537/27 501/538/27 517/539/27
f 180/540/8 243/541/8 188/542/8
s 1
f 394/543/82 482/544/82 437/545/82
f 440/546/83 426/547/83 397/548/83
s 0
f 369/549/9 636/550/9 639/551/9
f 680/552/4 323/553/4 326/554/4
s 1
f 435/555/70 549/556/70 563/557/70
f 365/558/63 564/559/63 635/560/63
f 635/560/63 607/561/63 678/562/63
f 678/562/63 391/563/63 324/564/63
f 324/564/63 436/565/63 365/558/63
f 368/566/62 395/567/62 327/568/62
f 327/568/62 610/569/62 681/570/62
f 681/570/62 568/571/62 638/572/62
f 638/572/62 439/573/62 368/566/62
f 370/574/64 352/575/64 367/576/64
f 367/576/64 337/577/64 325/578/64
f 325/578/64 341/579/64 328/580/64
f 328/580/64 356/581/64 370/574/64
f 640/582/65 669/583/65 682/584/65
f 682/584/65 666/585/65 679/586/65
f 679/586/65 650/587/65 637/588/65
f 637/588/65 654/589/65 640/582/65
f 480/590/67 577/591/67 550/592/67
f 484/593/66 581/594/66 424/595/66
f 412/596/68 380/597/68 408/598/68
f 598/599/69 623/600/69 627/601/69
f 567/602/61 483/603/61 438/604/61
f 652/605/84 625/606/84 667/607/84
f 565/608/85 579/609/85 609/610/85
f 338/611/86 409/612/86 353/613/86
f 396/614/76 582/615/76 611/616/76
f 649/617/75 597/618/75 653/619/75
f 608/620/74 422/621/74 392/622/74
f 350/623/87 378/624/87 335/625/87
f 613/626/88 555/627/88 569/532/88
f 668/628/79 622/629/79 665/630/79
f 336/631/80 382/632/80 340/633/80
f 663/634/89 591/635/89 647/636/89
s 0
f 69/637/8 89/638/8 99/639/8
s 1
f 35/640/90 28/641/90 24/642/90
s 0
f 23/643/8 9/644/8 5/645/8
f 88/646/1 101/647/1 91/648/1
s 1
f 737/649/91 717/650/91 725/651/91
s 0
f 97/652/4 766/653/4 100/654/4
s 1
f 70/655/92 724/656/92 58/657/92
f 65/658/93 59/659/93 49/660/93
s 0
f 729/661/8 765/662/8 755/663/8
f 757/664/12 764/665/12 754/666/12
s 1
f 741/667/94 78/668/94 744/669/94
f 748/670/95 85/671/95 751/672/95
s 0
f 743/673/8 81/674/8 747/675/8
f 753/676/9 90/677/9 756/678/9
s 1
f 6/679/96 3/680/96 1/681/96
f 730/682/97 48/683/97 716/684/97
s 0
f 47/685/8 53/686/8 41/687/8
f 721/688/8 43/689/8 723/690/8
f 721/688/8 713/691/8 43/689/8
f 55/692/8 45/693/8 713/691/8
f 41/687/8 55/692/8 33/694/8
f 104/695/27 94/696/27 66/697/27
s 1
f 38/698/98 32/699/98 40/700/98
s 0
f 25/701/27 11/702/27 30/703/27
f 93/704/1 106/705/1 103/706/1
s 1
f 740/707/99 720/708/99 734/709/99
s 0
f 102/710/4 771/711/4 768/712/4
s 1
f 73/713/100 727/714/100 739/715/100
f 68/716/101 62/717/101 74/718/101
s 0
f 760/719/27 770/720/27 738/721/27
f 762/722/12 769/723/12 772/724/12
s 1
f 742/725/102 80/726/102 76/727/102
f 750/728/103 86/729/103 84/730/103
s 0
f 745/731/27 83/732/27 79/733/27
f 758/734/9 95/735/9 92/736/9
s 1
f 8/737/104 4/738/104 12/739/104
f 733/740/105 51/741/105 67/742/105
s 0
f 50/743/27 42/744/27 54/745/27
f 722/746/27 726/747/27 44/748/27
f 44/748/27 714/749/27 722/746/27
f 46/750/27 60/751/27 56/752/27
f 42/744/27 56/752/27 54/745/27
f 1068/753/12 1044/754/12 1080/755/12
s 1
f 936/756/106 1007/757/106 998/758/106
s 0
f 999/759/12 1006/760/12 997/761/12
f 912/762/8 1078/763/8 1042/764/8
s 1
f 1063/765/107 941/766/107 979/767/107
s 0
f 921/768/4 1076/769/4 1079/770/4
s 1
f 1067/771/108 980/772/108 985/773/108
f 1054/774/109 984/775/109 947/776/109
s 0
f 1053/777/12 1077/778/12 1041/779/12
f 1039/780/27 918/781/27 910/782/27
s 1
f 963/783/110 1019/784/110 1015/785/110
f 1023/786/111 977/787/111 975/788/111
s 0
f 1016/789/12 1028/790/12 1024/791/12
f 911/792/9 1043/793/9 1040/794/9
s 1
f 995/795/112 969/796/112 935/797/112
f 1052/798/113 948/799/113 942/800/113
s 0
f 949/801/12 961/802/12 946/803/12
f 959/804/12 982/805/12 981/806/12
f 959/804/12 944/807/12 982/805/12
f 967/808/12 983/809/12 944/807/12
f 946/803/12 967/808/12 945/810/12
s 1
f 964/811/110 1021/812/110 1017/813/110
s 0
f 960/814/12 955/815/12 991/816/12
f 968/817/12 990/818/12 955/815/12
f 923/819/4 1085/820/4 1082/821/4
f 917/822/9 1046/823/9 1049/824/9
s 1
f 1057/825/109 987/826/109 950/827/109
f 1025/828/111 978/829/111 976/830/111
f 1070/831/108 993/832/108 988/833/108
f 1002/834/112 973/835/112 940/836/112
s 0
f 1062/837/12 1086/838/12 1050/839/12
s 1
f 1061/840/113 951/841/113 957/842/113
s 0
f 960/814/12 991/816/12 994/843/12
f 952/844/12 962/845/12 953/846/12
f 1048/847/27 924/848/27 916/849/27
f 953/846/12 968/817/12 954/850/12
f 1018/851/12 1030/852/12 1026/853/12
s 1
f 938/854/106 1010/855/106 1000/856/106
f 1072/857/107 956/858/107 992/859/107
s 0
f 914/860/8 1081/861/8 1045/862/8
f 1001/863/12 1014/864/12 1004/865/12
f 1071/866/12 1047/867/12 1083/868/12
f 278/1/1 282/869/1 280/2/1
f 821/13/4 850/870/4 847/14/4
s 1
f 123/16/5 126/871/5 121/17/5
f 151/19/6 154/872/6 149/20/6
f 14/22/7 17/873/7 22/23/7
s 0
f 779/25/8 785/874/8 884/26/8
f 784/28/1 790/875/1 787/29/1
f 291/31/8 303/876/8 209/32/8
f 307/34/4 212/877/4 210/35/4
f 862/37/9 801/878/9 798/38/9
s 1
f 293/40/10 300/879/10 272/41/10
f 313/43/11 321/880/11 226/44/11
s 0
f 865/46/12 869/881/12 871/47/12
s 1
f 218/882/13 309/883/13 312/884/13
f 318/885/14 224/886/14 227/887/14
f 839/55/15 904/888/15 898/56/15
s 0
f 933/58/12 929/889/12 927/59/12
s 1
f 901/64/16 903/890/16 838/65/16
s 0
f 302/68/1 294/891/1 296/892/1
f 305/893/1 292/894/1 299/67/1
f 292/894/1 290/895/1 299/67/1
f 302/68/1 296/892/1 308/69/1
f 305/893/1 299/67/1 308/69/1
s 1
f 689/70/17 693/896/17 1160/71/17
s 0
f 697/73/1 700/897/1 694/74/1
s 1
f 837/76/6 840/898/6 845/77/6
f 1162/79/18 1166/899/18 699/80/18
f 18/82/19 21/900/19 110/83/19
f 145/85/20 148/901/20 125/86/20
s 0
f 1158/88/12 1161/902/12 1167/89/12
s 1
f 108/91/21 111/903/21 116/92/21
f 897/94/5 900/904/5 905/95/5
f 841/97/20 844/905/20 899/98/20
f 153/100/15 120/906/15 124/101/15
f 112/103/22 114/907/22 15/104/22
f 117/106/16 119/908/16 152/107/16
f 16/109/23 115/55/23 109/110/23
f 297/112/24 289/909/24 254/113/24
f 1157/115/25 1163/910/25 696/116/25
f 1165/118/26 1159/911/26 692/119/26
s 0
f 311/121/1 319/912/1 322/122/1
f 866/124/27 870/913/27 809/125/27
f 806/127/1 810/914/1 808/128/1
f 803/130/8 807/915/8 868/131/8
f 197/133/27 211/916/27 306/134/27
f 880/136/12 886/917/12 889/137/12
f 881/139/27 887/918/27 788/140/27
f 882/144/9 783/919/9 780/145/9
f 195/147/8 213/920/8 930/148/8
f 156/150/9 277/921/9 275/151/9
f 281/153/4 158/922/4 157/154/4
s 1
f 219/156/28 223/923/28 317/157/28
f 301/159/29 298/924/30 269/160/30
f 813/177/31 816/925/31 822/178/31
f 814/180/32 855/926/32 849/181/32
f 852/183/33 811/927/33 817/184/33
f 857/186/34 854/928/34 848/187/34
s 0
f 1038/189/12 1034/929/12 1032/190/12
f 909/192/4 1037/930/4 1035/193/4
f 1033/195/9 907/931/9 906/196/9
f 797/199/8 803/130/8 864/132/8
f 802/201/1 806/127/1 804/129/1
f 861/203/27 866/124/27 805/126/27
f 860/205/12 865/46/12 867/48/12
s 1
f 456/210/20 711/932/20 707/211/20
s 0
f 1108/213/12 1121/933/12 1115/214/12
f 1142/216/12 1136/934/12 1139/217/12
f 1136/934/12 1130/935/12 1139/217/12
f 1139/217/12 1127/936/12 1133/218/12
s 1
f 1097/219/36 1123/937/36 1117/220/36
s 0
f 1124/222/12 1111/938/12 1104/223/12
s 1
f 1154/225/37 1132/939/37 1126/226/37
f 132/228/38 137/940/38 134/229/38
f 1135/231/39 1091/941/39 1088/232/39
f 1092/234/40 1098/942/41 1095/235/41
f 471/237/42 287/943/42 284/238/42
f 143/240/19 459/944/19 452/241/19
f 829/243/43 835/945/43 832/244/43
f 1120/246/44 1147/946/44 1144/247/44
f 705/249/45 828/947/46 824/250/46
s 0
f 1148/252/12 1155/948/12 1152/253/12
f 469/255/1 457/949/1 451/256/1
s 1
f 834/258/20 1107/950/20 1099/259/20
f 288/261/47 468/951/47 462/262/47
f 1110/264/19 131/952/19 127/265/19
f 138/267/48 144/953/48 141/268/48
f 712/270/49 706/954/49 703/271/49
s 0
f 454/955/1 460/956/1 475/284/1
f 460/956/1 478/957/1 475/284/1
f 478/957/1 472/282/1 475/284/1
f 255/330/1 253/958/1 259/339/1
f 259/339/1 261/331/1 255/330/1
f 261/331/1 267/959/1 270/329/1
f 256/960/1 258/961/1 262/335/1
f 258/961/1 274/332/1 262/335/1
f 274/332/1 271/962/1 265/333/1
f 263/334/1 262/335/1 274/332/1
f 252/963/1 256/960/1 262/335/1
f 264/336/1 265/333/1 266/337/1
f 265/333/1 271/962/1 266/337/1
f 252/963/1 262/335/1 266/337/1
f 253/958/1 252/963/1 259/339/1
f 252/963/1 266/337/1 260/338/1
f 266/337/1 267/959/1 261/331/1
f 260/338/1 259/339/1 252/963/1
s 1
f 895/340/52 877/964/52 874/341/52
f 890/343/53 873/965/53 792/344/53
f 775/346/54 793/966/54 796/347/54
f 776/349/55 795/967/55 876/350/55
f 891/352/56 774/968/56 777/353/56
f 791/355/57 872/969/57 875/356/57
f 363/970/58 359/971/58 415/972/58
s 0
f 239/361/1 251/973/1 248/362/1
f 234/364/8 246/974/8 190/365/8
f 185/367/9 238/975/9 235/368/9
f 250/370/4 193/976/4 191/371/4
f 168/373/27 176/977/27 546/374/27
f 536/376/1 548/978/1 545/377/1
f 531/379/8 543/979/8 174/380/8
f 169/382/9 535/980/9 532/383/9
f 547/385/4 177/981/4 175/386/4
f 498/388/12 506/982/12 508/389/12
f 499/391/27 507/983/27 523/392/27
f 516/394/1 524/984/1 522/395/1
f 513/397/8 521/985/8 505/398/8
f 184/400/27 192/986/27 249/401/27
s 1
f 401/987/114 444/988/114 489/989/114
f 447/990/115 404/991/115 433/992/115
s 0
f 375/409/9 645/993/9 642/410/9
f 686/412/4 332/994/4 329/413/4
s 1
f 442/415/61 570/995/61 556/416/61
f 371/418/62 641/421/62 571/419/62
f 641/421/62 684/423/62 614/422/62
f 684/423/62 330/425/62 398/424/62
f 330/425/62 371/418/62 443/420/62
f 374/426/63 333/429/63 402/427/63
f 333/429/63 687/431/63 617/430/63
f 687/431/63 644/433/63 575/432/63
f 644/433/63 374/426/63 446/428/63
f 376/434/64 373/437/64 360/435/64
f 373/437/64 331/439/64 344/438/64
f 331/439/64 334/441/64 348/440/64
f 334/441/64 376/434/64 364/436/64
f 646/442/65 688/445/65 676/443/65
f 688/445/65 685/447/65 673/446/65
f 685/447/65 643/449/65 658/448/65
f 643/449/65 646/442/65 662/444/65
f 487/450/66 557/996/66 584/451/66
f 491/453/67 431/997/67 588/454/67
f 420/456/68 416/998/68 387/457/68
f 606/459/69 634/999/69 630/460/69
f 574/462/70 445/1000/70 490/463/70
f 660/1001/116 674/1002/116 632/1003/116
f 572/1004/117 616/1005/117 586/1006/117
f 345/1007/118 361/1008/118 417/1009/118
f 403/474/74 618/1010/74 589/475/74
f 657/1011/75 661/1012/75 605/1013/75
f 615/480/76 399/1014/76 429/481/76
f 358/1015/119 342/1016/119 385/1017/119
f 620/1018/120 576/1019/120 562/1020/120
f 675/489/79 672/1021/79 629/490/79
f 343/492/80 347/1022/80 389/493/80
f 670/1023/121 655/1024/121 599/1025/121
f 354/1026/58 411/1027/58 406/1028/58
s 0
f 233/501/1 230/1029/1 242/502/1
f 228/504/27 178/1030/27 186/505/27
f 181/507/9 179/1031/9 229/508/9
f 244/510/4 241/1032/4 187/511/4
f 164/513/8 528/1033/8 540/514/8
f 530/516/1 527/1034/1 539/517/1
f 525/519/27 162/1035/27 170/520/27
f 165/522/9 163/1036/9 526/523/9
f 541/525/4 538/1037/4 171/526/4
f 494/528/12 496/1038/12 504/529/12
f 495/531/8 511/1039/8 519/532/8
f 512/534/1 510/1040/1 518/535/1
f 509/537/27 493/1041/27 501/538/27
f 180/540/8 231/1042/8 243/541/8
s 1
f 393/1043/122 423/1044/122 481/1045/122
f 441/1046/123 485/1047/123 427/1048/123
s 0
f 369/549/9 366/1049/9 636/550/9
f 680/552/4 677/1050/4 323/553/4
s 1
f 435/555/70 479/1051/70 549/556/70
f 365/558/63 436/565/63 564/559/63
f 635/560/63 564/559/63 607/561/63
f 678/562/63 607/561/63 391/563/63
f 324/564/63 391/563/63 436/565/63
f 368/566/62 439/573/62 395/567/62
f 327/568/62 395/567/62 610/569/62
f 681/570/62 610/569/62 568/571/62
f 638/572/62 568/571/62 439/573/62
f 370/574/64 356/581/64 352/575/64
f 367/576/64 352/575/64 337/577/64
f 325/578/64 337/577/64 341/579/64
f 328/580/64 341/579/64 356/581/64
f 640/582/65 654/589/65 669/583/65
f 682/584/65 669/583/65 666/585/65
f 679/586/65 666/585/65 650/587/65
f 637/588/65 650/587/65 654/589/65
f 480/590/67 421/1052/67 577/591/67
f 484/593/66 553/1053/66 581/594/66
f 412/596/68 383/458/68 380/597/68
f 598/599/69 594/1054/69 623/600/69
f 567/602/61 552/1055/61 483/603/61
f 651/1056/124 595/1057/124 624/1058/124
f 566/1059/125 551/1060/125 580/1061/125
f 339/1062/126 381/1063/126 410/1064/126
f 396/614/76 425/1065/76 582/615/76
f 648/1066/75 593/1067/75 596/1068/75
f 608/620/74 578/1069/74 422/621/74
f 349/1070/127 405/1071/127 377/1072/127
f 612/1073/128 583/1074/128 554/1075/128
f 668/628/79 626/1076/79 622/629/79
f 336/631/80 379/1077/80 382/632/80
f 664/1078/129 621/1079/129 592/1080/129
s 0
f 63/1081/8 755/663/8 89/638/8
f 99/639/8 735/1082/8 69/637/8
f 69/637/8 63/1081/8 89/638/8
s 1
f 36/1083/90 39/1084/90 29/1085/90
s 0
f 23/643/8 27/1086/8 9/644/8
f 88/646/1 98/1087/1 101/647/1
s 1
f 737/649/91 731/1088/91 717/650/91
s 0
f 97/652/4 763/1089/4 766/653/4
s 1
f 70/655/92 736/1090/92 724/656/92
f 65/658/93 71/1091/93 59/659/93
s 0
f 735/1082/8 99/639/8 765/662/8
f 755/663/8 63/1081/8 729/661/8
f 729/661/8 735/1082/8 765/662/8
f 757/664/12 767/789/12 764/665/12
s 1
f 741/667/94 75/1092/94 78/668/94
f 748/670/95 82/1093/95 85/671/95
s 0
f 743/673/8 77/1094/8 81/674/8
f 753/676/9 87/1095/9 90/677/9
s 1
f 6/679/96 10/1096/96 3/680/96
f 730/682/97 64/1097/97 48/683/97
s 0
f 715/1098/8 713/691/8 721/688/8
f 713/691/8 45/693/8 43/689/8
f 713/691/8 33/694/8 55/692/8
f 55/692/8 57/1099/8 45/693/8
f 41/687/8 53/686/8 55/692/8
f 72/1100/27 738/721/27 104/695/27
f 94/696/27 760/719/27 66/697/27
f 66/697/27 72/1100/27 104/695/27
s 1
f 37/1101/98 26/1102/98 31/1103/98
s 0
f 25/701/27 7/1104/27 11/702/27
f 93/704/1 96/1105/1 106/705/1
s 1
f 740/707/99 728/1106/99 720/708/99
s 0
f 102/710/4 105/1107/4 771/711/4
s 1
f 73/713/100 61/1108/100 727/714/100
f 68/716/101 52/1109/101 62/717/101
s 0
f 732/1110/27 66/697/27 760/719/27
f 770/720/27 104/695/27 738/721/27
f 738/721/27 732/1110/27 760/719/27
f 762/722/12 759/1111/12 769/723/12
s 1
f 742/725/102 746/1112/102 80/726/102
f 750/728/103 752/1113/103 86/729/103
s 0
f 745/731/27 749/1114/27 83/732/27
f 758/734/9 761/1115/9 95/735/9
s 1
f 8/737/104 2/1116/104 4/738/104
f 733/740/105 719/1117/105 51/741/105
s 0
f 46/750/27 714/749/27 44/748/27
f 714/749/27 718/1118/27 722/746/27
f 56/752/27 34/1119/27 714/749/27
f 714/749/27 46/750/27 56/752/27
f 42/744/27 34/1119/27 56/752/27
f 1056/1120/12 1041/779/12 1044/754/12
f 1080/755/12 1065/1121/12 1068/753/12
f 1068/753/12 1056/1120/12 1044/754/12
s 1
f 937/1122/106 971/1123/106 1008/1124/106
s 0
f 999/759/12 1009/1125/12 1006/760/12
f 912/762/8 920/1126/8 1078/763/8
s 1
f 1063/765/107 1051/1127/107 941/766/107
s 0
f 921/768/4 919/1128/4 1076/769/4
s 1
f 1067/771/108 1064/1129/108 980/772/108
f 1054/774/109 1066/1130/109 984/775/109
s 0
f 1065/1121/12 1080/755/12 1077/778/12
f 1041/779/12 1056/1120/12 1053/777/12
f 1053/777/12 1065/1121/12 1077/778/12
f 1039/780/27 1075/1131/27 918/781/27
s 1
f 963/783/110 965/1132/110 1019/784/110
f 1023/786/111 1027/1133/111 977/787/111
s 0
f 1016/789/12 1020/1134/12 1028/790/12
f 911/792/9 913/1135/9 1043/793/9
s 1
f 996/1136/112 1005/1137/112 970/1138/112
f 1052/798/113 1055/1139/113 948/799/113
s 0
f 943/1140/12 944/807/12 959/804/12
f 944/807/12 983/809/12 982/805/12
f 944/807/12 945/810/12 967/808/12
f 967/808/12 986/1141/12 983/809/12
f 946/803/12 961/802/12 967/808/12
s 1
f 964/811/110 966/1142/110 1021/812/110
s 0
f 958/1143/12 955/815/12 960/814/12
f 955/815/12 990/818/12 991/816/12
f 955/815/12 954/850/12 968/817/12
f 968/817/12 989/1144/12 990/818/12
f 923/819/4 925/1145/4 1085/820/4
f 917/822/9 915/1146/9 1046/823/9
s 1
f 1057/825/109 1069/1147/109 987/826/109
f 1025/828/111 1029/1148/111 978/829/111
f 1070/831/108 1073/1149/108 993/832/108
f 1003/1150/112 1013/1151/112 974/1152/112
s 0
f 1074/1153/12 1083/868/12 1086/838/12
f 1050/839/12 1059/1154/12 1062/837/12
f 1062/837/12 1074/1153/12 1086/838/12
s 1
f 1061/840/113 1058/1155/113 951/841/113
s 0
f 1048/847/27 1084/1156/27 924/848/27
f 953/846/12 962/845/12 968/817/12
f 1018/851/12 1022/1157/12 1030/852/12
s 1
f 939/1158/106 972/1159/106 1011/1160/106
f 1072/857/107 1060/1161/107 956/858/107
s 0
f 914/860/8 922/1162/8 1081/861/8
f 1001/863/12 1012/1163/12 1014/864/12
f 1059/1154/12 1050/839/12 1047/867/12
f 1083/868/12 1074/1153/12 1071/866/12
f 1071/866/12 1059/1154/12 1047/867/12
