# Blender 4.4.3
# www.blender.org
mtllib pinguin.mtl
o pinguin_001
v 0.000000 0.026210 0.513352
v 0.000000 0.606468 0.322047
v 0.000000 1.283632 -0.029600
v 0.109213 0.026210 0.410501
v 0.094837 0.608129 0.305121
v 0.031937 1.277640 -0.031042
v 0.172624 0.599108 0.233241
v 0.074376 1.241941 -0.043056
v 0.188181 0.026210 0.133333
v 0.216406 0.603574 0.133451
v 0.068470 1.233584 -0.118613
v 0.063273 1.169875 -0.125919
v 0.069669 0.027063 -0.078203
v 0.000000 1.158504 -0.203714
v 0.000000 0.984166 -0.182758
v 0.000000 0.026210 0.155719
v 0.000000 1.273338 -0.120264
v 0.000000 1.218129 -0.212340
v 0.038321 0.026210 0.153337
v 0.179698 0.240565 0.254992
v 0.220188 0.237217 0.147209
v 0.180039 0.247068 -0.002486
v 0.064298 0.243978 -0.040653
v 0.000000 0.243860 -0.047571
v 0.103132 0.239871 0.326408
v 0.000000 0.240979 0.341112
v 0.195810 0.912258 0.112427
v 0.182470 0.944385 -0.025210
v 0.161901 0.941153 0.191355
v 0.096250 0.961488 0.245203
v 0.000000 0.966442 0.252891
v 0.124337 0.969710 -0.114289
v 0.211050 0.800219 0.138192
v 0.257157 0.612308 0.089803
v 0.268163 0.513083 0.057442
v 0.267775 0.519152 -0.090814
v 0.283036 0.521352 0.038543
v 0.281425 0.526794 -0.077343
v 0.280087 0.263747 -0.032521
v 0.280119 0.264177 -0.071846
v 0.290302 0.268154 -0.039810
v 0.289657 0.268342 -0.066964
v 0.031996 1.267146 -0.119209
v 0.163873 1.015828 0.095194
v 0.036657 1.209051 -0.184801
v 0.030901 1.164617 -0.172681
v 0.025612 1.202799 -0.209184
v 0.188181 0.000000 0.133333
v 0.183635 0.000012 0.011093
v 0.069669 0.000356 -0.078849
v 0.038321 0.000000 0.153337
v 0.149027 0.026977 -0.135440
v 0.108203 0.027118 -0.135736
v 0.149027 0.000302 -0.136044
v 0.108203 0.000391 -0.136409
v 0.026417 1.174052 -0.200859
v 0.069518 0.642144 -0.155868
v 0.000000 0.638839 -0.182785
v 0.000000 1.114090 -0.157839
v 0.108691 1.106570 0.089460
v 0.057634 1.199228 -0.116737
v 0.000000 1.123513 0.118295
v 0.139127 1.064297 0.006817
v 0.057952 1.119605 0.111172
v 0.000000 1.062932 0.193251
v 0.140189 1.048940 0.130779
v 0.077385 1.058017 0.187873
v 0.044544 1.186829 0.084422
v 0.162958 1.002765 0.032090
v 0.099470 1.153278 0.035992
v 0.000000 1.191439 0.091095
v 0.098443 1.116383 -0.025361
v 0.144450 1.024839 -0.041851
v 0.107883 1.084384 -0.033531
v 0.078059 1.158156 -0.082050
v 0.137817 0.419638 -0.085273
v 0.063670 1.142735 -0.116293
v 0.085807 1.146372 -0.043940
v 0.082687 1.100532 -0.095534
v 0.000000 1.087629 -0.140624
v 0.045246 1.083246 -0.123580
v 0.127947 1.084157 0.049253
v 0.088031 1.200255 -0.060672
v 0.030052 1.127054 -0.141386
v 0.060246 0.980720 -0.163288
v 0.095306 1.179383 -0.011670
v 0.081737 1.219468 0.015702
v 0.038026 1.249521 0.035780
v 0.053160 1.037675 -0.145141
v 0.000000 1.041943 -0.161871
v 0.104158 1.026330 -0.109353
v 0.000000 1.254176 0.038639
v 0.288951 0.351365 -0.075551
v 0.288496 0.434078 -0.081573
v 0.278150 0.345024 0.000778
v 0.275957 0.425178 0.027930
v 0.278042 0.346325 -0.084128
v 0.275698 0.427714 -0.092835
v 0.289666 0.350590 -0.014628
v 0.289572 0.432628 0.009979
v 0.000000 0.838082 0.293976
v 0.175715 0.815285 0.218711
v 0.099400 0.835228 0.285066
v 0.228260 0.845029 -0.038800
v 0.236512 0.807184 0.117396
v 0.238755 0.704595 0.117592
v 0.270053 0.628627 -0.066609
v 0.253831 0.728581 -0.057128
v 0.273379 0.621112 0.068343
v 0.257135 0.707214 0.093186
v 0.247582 0.629788 -0.078051
v 0.224461 0.742498 -0.068169
v 0.022257 1.189160 -0.272366
v 0.070101 0.891814 -0.171802
v 0.144184 0.881095 -0.119446
v 0.142921 0.643935 -0.114474
v 0.000000 0.404362 0.329915
v 0.102025 0.406307 0.320449
v 0.181611 0.402652 0.240198
v 0.218297 0.406414 0.130250
v 0.069523 0.420587 -0.119746
v 0.000000 0.421774 -0.130430
v 0.125051 0.243421 -0.029898
v 0.000000 0.121907 0.410101
v 0.062978 0.124327 0.410101
v 0.181277 0.135020 0.012606
v 0.065825 0.134231 -0.036870
v 0.115150 0.126444 0.364275
v 0.177746 0.131260 0.274538
v 0.204185 0.131269 0.145705
v 0.000000 0.134662 -0.039596
v 0.052577 0.026210 0.505959
v 0.127048 0.135017 -0.028208
v 0.133429 0.026821 -0.045868
v 0.000000 0.026210 0.387949
v 0.000000 1.190088 -0.345930
v 0.012473 1.187203 -0.339413
v 0.009088 1.169949 -0.338392
v 0.000000 1.168030 -0.343798
v 0.057023 1.195047 -0.145658
v 0.071859 1.212461 -0.121523
v 0.080500 1.202237 -0.096213
v 0.070753 1.185194 -0.122544
v 0.076995 1.191397 -0.107031
v 0.077299 1.210989 -0.105379
v 0.064154 1.205185 -0.134479
v 0.055723 1.216425 -0.155803
v 0.000000 1.250544 -0.167445
v 0.026945 1.244581 -0.165869
v 0.063744 1.189680 -0.134709
v 0.057750 1.192186 -0.104711
v 0.057374 1.207770 -0.104564
v 0.051133 1.208867 -0.113281
v 0.056434 1.200079 -0.101871
v 0.046686 1.199260 -0.111892
v 0.051547 1.189794 -0.113469
v 0.049383 1.190953 -0.123529
v 0.049058 1.206513 -0.123367
v 0.046218 1.198561 -0.124908
v 0.062920 1.186033 -0.117109
v 0.078379 1.199798 -0.122111
v 0.076104 1.192523 -0.110615
v 0.078835 1.200487 -0.109099
v 0.067921 1.190736 -0.105561
v 0.062207 1.212994 -0.116840
v 0.069747 1.200585 -0.100715
v 0.067381 1.209818 -0.105381
v 0.075610 1.208093 -0.110464
v 0.073460 1.209239 -0.120505
v 0.057674 1.189202 -0.128608
v 0.067750 1.191249 -0.129429
v 0.074052 1.190185 -0.120698
v 0.055311 1.198393 -0.133291
v 0.067304 1.206797 -0.129264
v 0.068636 1.198909 -0.132132
v 0.057208 1.208248 -0.128406
v 0.022565 1.178340 -0.273069
v 0.021959 1.195906 -0.273345
v 0.000000 1.205623 -0.278501
v 0.000000 1.166639 -0.278140
v 0.000000 1.158360 -0.385051
v 0.000000 1.165543 -0.389035
v 0.006801 1.165688 -0.385151
v 0.006928 1.162249 -0.383321
v 0.100664 1.160229 0.006887
v 0.112476 1.063298 -0.059282
v 0.091410 1.063265 -0.091259
v 0.097291 1.150582 -0.015088
v 0.178920 0.419432 -0.058494
v 0.178933 0.637543 -0.072601
v 0.192977 0.861690 -0.048273
v 0.183635 0.026391 0.011314
v 0.000000 0.026778 -0.032525
v 0.118165 1.113905 0.013555
v 0.026139 1.186263 -0.201885
v -0.109213 0.026210 0.410501
v -0.094837 0.608129 0.305121
v -0.031937 1.277640 -0.031042
v -0.172624 0.599108 0.233241
v -0.074376 1.241941 -0.043056
v -0.188181 0.026210 0.133333
v -0.216406 0.603574 0.133451
v -0.068470 1.233584 -0.118613
v -0.063273 1.169875 -0.125919
v -0.069669 0.027063 -0.078203
v -0.038321 0.026210 0.153337
v -0.179698 0.240565 0.254992
v -0.220188 0.237217 0.147209
v -0.180039 0.247068 -0.002486
v -0.064298 0.243978 -0.040653
v -0.103132 0.239871 0.326408
v -0.195810 0.912258 0.112427
v -0.182469 0.944385 -0.025210
v -0.161901 0.941153 0.191355
v -0.096250 0.961488 0.245203
v -0.124337 0.972793 -0.114013
v -0.211050 0.800219 0.138192
v -0.257157 0.612308 0.089803
v -0.268163 0.513083 0.057442
v -0.267775 0.519152 -0.090814
v -0.283036 0.521352 0.038543
v -0.281425 0.526794 -0.077343
v -0.280087 0.263747 -0.032521
v -0.280119 0.264177 -0.071846
v -0.290302 0.268154 -0.039810
v -0.289657 0.268342 -0.066964
v -0.031996 1.267146 -0.119209
v -0.163873 1.015828 0.095194
v -0.036657 1.209051 -0.184801
v -0.030901 1.164617 -0.172681
v -0.025612 1.202799 -0.209184
v -0.188181 0.000000 0.133333
v -0.183635 0.000012 0.011093
v -0.069669 0.000356 -0.078849
v -0.038321 0.000000 0.153337
v -0.149027 0.026977 -0.135440
v -0.108203 0.027118 -0.135736
v -0.149027 0.000302 -0.136044
v -0.108203 0.000391 -0.136409
v -0.026417 1.174052 -0.200859
v -0.069518 0.642144 -0.155868
v -0.108691 1.106570 0.089460
v -0.057634 1.199228 -0.116737
v -0.139127 1.064297 0.006817
v -0.057952 1.119605 0.111172
v -0.140189 1.048940 0.130779
v -0.077385 1.058017 0.187873
v -0.044544 1.186829 0.084422
v -0.162957 1.002765 0.032090
v -0.099470 1.153278 0.035992
v -0.098443 1.116383 -0.025361
v -0.144450 1.024839 -0.041851
v -0.107883 1.084384 -0.033531
v -0.078059 1.158156 -0.082050
v -0.137817 0.419638 -0.085273
v -0.063670 1.142735 -0.116293
v -0.085807 1.146372 -0.043940
v -0.082687 1.100532 -0.095534
v -0.045246 1.083246 -0.123580
v -0.127947 1.084157 0.049253
v -0.088031 1.200255 -0.060672
v -0.030052 1.127054 -0.141386
v -0.060246 0.979340 -0.163472
v -0.095306 1.179383 -0.011670
v -0.081737 1.219468 0.015702
v -0.038026 1.249521 0.035780
v -0.053160 1.039469 -0.144543
v -0.104158 1.026330 -0.109353
v -0.288951 0.351365 -0.075551
v -0.288496 0.434078 -0.081573
v -0.278150 0.345024 0.000778
v -0.275957 0.425178 0.027930
v -0.278042 0.346325 -0.084128
v -0.275698 0.427714 -0.092835
v -0.289666 0.350590 -0.014628
v -0.289572 0.432628 0.009979
v -0.175715 0.815285 0.218711
v -0.099400 0.835228 0.285066
v -0.228260 0.845029 -0.038800
v -0.236512 0.807184 0.117396
v -0.238755 0.704595 0.117592
v -0.270053 0.628627 -0.066609
v -0.253831 0.728581 -0.057128
v -0.273379 0.621112 0.068343
v -0.257135 0.707214 0.093186
v -0.247582 0.629788 -0.078051
v -0.224461 0.742498 -0.068169
v -0.022257 1.189160 -0.272366
v -0.070101 0.891814 -0.171802
v -0.144184 0.881095 -0.119446
v -0.142920 0.643935 -0.114474
v -0.102025 0.406307 0.320449
v -0.181611 0.402652 0.240198
v -0.218297 0.406414 0.130250
v -0.069523 0.420587 -0.119746
v -0.125051 0.243421 -0.029898
v -0.062978 0.124327 0.410101
v -0.181277 0.135020 0.012606
v -0.065825 0.134231 -0.036870
v -0.115150 0.126444 0.364275
v -0.177746 0.131260 0.274538
v -0.204185 0.131269 0.145705
v -0.052577 0.026210 0.505959
v -0.127048 0.135017 -0.028208
v -0.133429 0.026821 -0.045868
v -0.012473 1.187203 -0.339413
v -0.009088 1.169949 -0.338392
v -0.057023 1.195047 -0.145658
v -0.071859 1.212461 -0.121523
v -0.080500 1.202237 -0.096213
v -0.070753 1.185194 -0.122544
v -0.076995 1.191397 -0.107031
v -0.077299 1.210989 -0.105379
v -0.064154 1.205185 -0.134479
v -0.055723 1.216425 -0.155803
v -0.026945 1.244581 -0.165869
v -0.063744 1.189680 -0.134709
v -0.057750 1.192186 -0.104711
v -0.057374 1.207770 -0.104564
v -0.051133 1.208867 -0.113281
v -0.056434 1.200079 -0.101871
v -0.046686 1.199260 -0.111892
v -0.051547 1.189794 -0.113469
v -0.049383 1.190953 -0.123529
v -0.049058 1.206513 -0.123367
v -0.046218 1.198561 -0.124908
v -0.062920 1.186033 -0.117109
v -0.078379 1.199798 -0.122111
v -0.076104 1.192523 -0.110615
v -0.078835 1.200487 -0.109099
v -0.067921 1.190736 -0.105561
v -0.062207 1.212994 -0.116840
v -0.069747 1.200585 -0.100715
v -0.067381 1.209818 -0.105381
v -0.075610 1.208093 -0.110464
v -0.073460 1.209239 -0.120505
v -0.057674 1.189202 -0.128608
v -0.067750 1.191249 -0.129429
v -0.074052 1.190185 -0.120698
v -0.055311 1.198393 -0.133291
v -0.067304 1.206797 -0.129264
v -0.068636 1.198909 -0.132132
v -0.057208 1.208248 -0.128406
v -0.022565 1.178340 -0.273069
v -0.021959 1.195906 -0.273345
v -0.006801 1.165688 -0.385151
v -0.006928 1.162249 -0.383321
v -0.100664 1.160229 0.006887
v -0.112476 1.063298 -0.059282
v -0.091410 1.063265 -0.091259
v -0.097291 1.150582 -0.015088
v -0.178920 0.419432 -0.058494
v -0.178933 0.637543 -0.072601
v -0.192977 0.861690 -0.048273
v -0.183635 0.026391 0.011314
v 0.000000 0.893741 -0.194877
v -0.118165 1.113905 0.013555
v -0.026139 1.186263 -0.201885
v 0.183722 0.026156 0.162997
v 0.163372 0.025963 0.284943
v -0.183722 0.026156 0.162997
v -0.163372 0.025963 0.284943
v 0.000000 0.026210 0.284855
v 0.000000 0.026210 0.180524
v 0.056647 0.000208 0.017601
v 0.056647 0.026708 0.017979
v 0.000000 0.026614 0.021673
v -0.056647 0.000208 0.017601
v -0.056647 0.026708 0.017979
v -0.161764 0.026761 -0.081432
v -0.161763 0.000195 -0.081895
v 0.161763 0.000195 -0.081895
v 0.161764 0.026761 -0.081432
v 0.000000 0.322670 0.335514
v 0.102578 0.323089 0.323428
v 0.180655 0.321608 0.247595
v 0.219243 0.321815 0.138729
v 0.179479 0.333250 -0.030490
v 0.066910 0.332283 -0.080199
v 0.131434 0.331530 -0.057586
v 0.000000 0.332817 -0.089000
v -0.102578 0.323089 0.323428
v -0.180655 0.321608 0.247595
v -0.219243 0.321815 0.138729
v -0.179479 0.333250 -0.030490
v -0.066910 0.332283 -0.080199
v -0.131434 0.331530 -0.057586
v 0.178927 0.528488 -0.065547
v 0.140369 0.531786 -0.099873
v 0.000000 0.505415 0.325981
v 0.098431 0.507218 0.312785
v 0.177118 0.500880 0.236719
v 0.217352 0.504994 0.131851
v 0.069520 0.531366 -0.137807
v 0.000000 0.530307 -0.156608
v -0.178927 0.528488 -0.065547
v -0.140369 0.531786 -0.099873
v -0.098431 0.507218 0.312785
v -0.177118 0.500880 0.236719
v -0.217352 0.504994 0.131851
v -0.069520 0.531366 -0.137807
v 0.185955 0.749617 -0.060437
v 0.213728 0.701896 0.135822
v 0.097119 0.721679 0.295094
v 0.143552 0.762515 -0.116960
v 0.069810 0.766979 -0.163835
v 0.174170 0.707196 0.225976
v 0.000000 0.722275 0.308012
v 0.000000 0.766290 -0.188831
v -0.185955 0.749617 -0.060437
v -0.213728 0.701896 0.135822
v -0.097119 0.721679 0.295094
v -0.143552 0.762515 -0.116960
v -0.069809 0.766979 -0.163835
v -0.174170 0.707196 0.225976
vn 0.4104 0.9049 0.1129
vn -0.0000 0.9596 -0.2814
vn -0.0000 0.9897 0.1431
vn -0.0019 -1.0000 -0.0017
vn -0.0018 -1.0000 -0.0017
vn -0.0018 -1.0000 -0.0018
vn -0.3184 -0.3243 0.8908
vn 0.8460 -0.4873 0.2165
vn 0.9473 -0.0962 0.3057
vn 0.0001 -1.0000 -0.0018
vn -0.0000 -1.0000 -0.0032
vn 0.0016 -1.0000 -0.0034
vn 0.9909 0.0013 -0.1344
vn 0.9734 0.0038 -0.2293
vn 0.9920 -0.0178 -0.1250
vn -0.0005 0.2362 -0.9717
vn 0.4672 0.3837 -0.7966
vn 0.4599 0.2293 -0.8579
vn -0.2352 -0.3479 0.9075
vn 0.9329 0.0989 0.3463
vn -0.2651 -0.3099 0.9131
vn 0.9033 0.3301 -0.2739
vn 0.8034 0.3312 -0.4949
vn 0.3768 0.1419 -0.9154
vn -0.0000 0.1031 0.9947
vn 0.4323 0.0722 0.8988
vn 0.4207 0.0776 0.9039
vn 0.4069 0.7463 0.5268
vn -0.0000 0.5147 0.8574
vn 0.4086 0.5097 0.7572
vn -0.5274 -0.0166 -0.8495
vn 0.9835 -0.0688 -0.1675
vn 0.9974 -0.0724 -0.0051
vn 0.8969 -0.0359 -0.4407
vn 0.8407 0.4307 -0.3282
vn 0.9213 0.3683 -0.1247
vn 0.8916 0.4212 -0.1661
vn -0.3149 -0.7122 -0.6274
vn -0.2699 -0.7793 0.5656
vn 0.7576 0.2328 -0.6098
vn 0.4625 0.7120 -0.5284
vn 0.8315 0.2186 -0.5107
vn -0.0000 -0.9993 -0.0379
vn 0.7737 -0.6334 -0.0132
vn 0.8751 -0.4707 -0.1120
vn 0.7249 0.5812 0.3697
vn 0.3448 0.6371 0.6894
vn 0.7513 0.5425 0.3758
vn 0.9088 0.1098 -0.4026
vn 0.8554 0.4370 -0.2779
vn -0.0000 0.9675 -0.2529
vn -0.9910 0.0018 -0.1340
vn -0.9910 0.0008 -0.1340
vn -0.4709 0.0215 -0.8819
vn -0.9340 0.0087 -0.3572
vn -0.9361 0.0084 -0.3516
vn 0.0044 1.0000 0.0018
vn 0.0040 1.0000 0.0024
vn 0.0037 1.0000 0.0027
vn -0.0012 -1.0000 -0.0012
vn -0.0009 -1.0000 -0.0008
vn -0.0008 -1.0000 -0.0009
vn 0.9734 0.0041 -0.2292
vn 0.6270 0.0180 -0.7788
vn 0.4359 0.0671 0.8975
vn -0.0000 0.0811 0.9967
vn -0.0000 0.0597 0.9982
vn -0.0000 0.2054 0.9787
vn 0.3973 0.4037 0.8241
vn -0.0000 0.4189 0.9081
vn -0.0000 -1.0000 -0.0010
vn -0.0000 -1.0000 -0.0020
vn 0.8375 -0.2701 -0.4750
vn 0.9628 -0.0310 -0.2686
vn 0.8138 -0.1162 -0.5694
vn 0.8171 0.0411 0.5750
vn 0.8341 0.0499 0.5493
vn 0.8290 0.4877 -0.2736
vn 0.9470 -0.0738 -0.3127
vn 0.9305 -0.1900 -0.3131
vn 0.9817 -0.0006 -0.1905
vn 0.9936 0.0090 0.1122
vn 0.9961 0.0149 0.0874
vn 0.4019 0.1833 0.8971
vn 0.7976 0.3175 0.5129
vn 0.8139 0.4994 0.2968
vn 0.9900 -0.0107 -0.1406
vn 0.8532 0.0355 0.5204
vn 0.9911 0.0021 0.1333
vn -0.5167 -0.0128 -0.8560
vn -0.2703 -0.3565 0.8943
vn 0.9309 0.3105 0.1924
vn -0.4358 -0.1180 -0.8923
vn 0.8113 0.5846 0.0040
vn 0.4391 0.8545 -0.2775
vn 0.1323 -0.0000 0.9912
vn 0.9993 -0.0000 -0.0372
vn -0.4640 0.0218 -0.8856
vn -0.0000 0.3102 0.9507
vn 0.3929 0.5204 0.7582
vn 0.4821 0.2138 0.8496
vn 0.8122 -0.4594 -0.3596
vn -0.9909 0.0013 -0.1344
vn -0.9734 0.0038 -0.2293
vn -0.9734 0.0038 -0.2292
vn 0.2122 -0.3854 -0.8980
vn 0.4864 -0.2136 -0.8472
vn 0.3929 -0.3188 -0.8626
vn -0.0000 -0.2418 -0.9703
vn -0.0000 -0.4171 -0.9089
vn 0.8925 0.2651 -0.3648
vn 0.9267 0.1620 -0.3391
vn 0.8529 0.1753 -0.4918
vn 0.9539 -0.0089 0.3001
vn 0.8805 0.1272 -0.4566
vn 0.8715 0.2272 0.4345
vn 0.0009 -1.0000 -0.0008
vn 0.0012 -1.0000 -0.0012
vn 0.0008 -1.0000 -0.0009
vn 0.8284 -0.4500 -0.3335
vn 0.8753 -0.4446 -0.1900
vn 0.9807 -0.0667 -0.1837
vn 0.3655 -0.1633 -0.9164
vn 0.6300 -0.0614 -0.7741
vn 0.5688 -0.1078 -0.8154
vn -0.0000 -0.9806 -0.1961
vn 0.8606 0.4848 -0.1561
vn -0.0000 -0.3055 -0.9522
vn -0.0000 -0.1977 -0.9803
vn 0.7016 0.3786 -0.6037
vn 0.3706 0.6386 0.6744
vn -0.0000 0.6655 0.7464
vn 0.8994 0.4310 0.0730
vn 0.9328 0.3545 -0.0645
vn 0.8484 0.4151 0.3285
vn -0.0000 0.6072 0.7946
vn -0.0000 0.7098 -0.7044
vn -0.0000 0.8580 -0.5137
vn 0.9106 -0.3452 -0.2272
vn 0.9215 -0.0108 -0.3882
vn 0.8800 -0.1516 -0.4501
vn 0.8130 0.1238 -0.5690
vn 0.9614 0.0748 -0.2648
vn 0.4997 -0.1680 -0.8497
vn 0.4341 0.0722 -0.8979
vn 0.3550 -0.1833 -0.9167
vn 0.7232 -0.3998 -0.5631
vn -0.0000 -0.5270 -0.8499
vn -0.0000 -0.6897 -0.7241
vn 0.6125 -0.3494 -0.7091
vn 0.0007 0.0287 -0.9996
vn 0.9179 0.3833 0.1028
vn 0.9603 0.2763 -0.0387
vn 0.8821 0.2521 -0.3978
vn 0.8541 0.4027 -0.3291
vn 0.7277 0.3128 -0.6104
vn 0.5385 0.1396 -0.8310
vn 0.9811 0.1343 -0.1391
vn 0.9781 0.1820 -0.1011
vn 0.6780 -0.0203 -0.7348
vn 0.8316 0.1087 -0.5447
vn 0.7975 -0.0011 -0.6034
vn 0.0002 0.3929 -0.9196
vn -0.0000 0.8027 0.5964
vn -0.0000 0.0393 -0.9992
vn -0.4139 0.0008 -0.9103
vn 0.9037 0.0361 -0.4266
vn -0.3835 -0.0716 -0.9208
vn -0.2769 -0.3314 0.9019
vn 0.9565 -0.0493 0.2875
vn 0.9508 0.0457 0.3064
vn 0.8119 0.0310 0.5829
vn 0.8216 0.2216 -0.5253
vn 0.8134 0.1222 0.5687
vn 0.4388 -0.0457 -0.8974
vn 0.7235 0.0945 -0.6838
vn -0.0000 -0.0558 -0.9984
vn 0.4153 -0.1032 -0.9038
vn -0.0000 -0.1273 -0.9919
vn 0.7328 0.2521 -0.6320
vn 0.4574 0.0526 -0.8877
vn 0.9986 -0.0049 0.0523
vn 0.8476 0.0437 0.5288
vn 0.8414 0.0391 0.5389
vn 0.9113 0.0169 0.4113
vn 0.8604 0.0506 0.5071
vn 0.5521 -0.1892 -0.8120
vn 0.4785 -0.2817 -0.8317
vn 0.9727 -0.0403 -0.2287
vn 0.9985 0.0040 0.0542
vn 0.4304 0.0589 0.9007
vn 0.4291 0.0504 0.9018
vn 0.7448 -0.0403 -0.6661
vn 0.6539 -0.0812 -0.7522
vn 0.0597 0.0882 -0.9943
vn 0.4981 0.1858 -0.8470
vn 0.0109 0.2175 -0.9760
vn -0.0000 0.0467 -0.9989
vn 0.1470 -0.2166 -0.9651
vn 0.7638 0.2129 0.6094
vn -0.0006 -1.0000 0.0005
vn -0.0000 -1.0000 -0.0000
vn -0.0011 -1.0000 -0.0001
vn 0.9956 -0.0869 0.0353
vn 0.9981 -0.0377 0.0486
vn 0.2894 0.6417 0.7103
vn -0.0000 0.6323 0.7747
vn -0.0000 0.7158 0.6983
vn 0.8021 0.2410 0.5464
vn 0.6816 0.0909 -0.7260
vn 0.0034 1.0000 0.0032
vn -0.0000 -1.0000 0.0003
vn -0.0000 -0.9910 0.1336
vn 0.7141 -0.6484 -0.2641
vn 0.8656 0.1712 -0.4705
vn 0.8815 0.1249 -0.4554
vn 0.9512 0.0761 -0.2989
vn 0.0343 -0.9985 0.0437
vn -0.3072 -0.6356 0.7083
vn -0.5850 -0.7569 0.2913
vn 0.3285 0.0161 0.9444
vn 0.2315 -0.7358 0.6364
vn -0.9212 -0.0200 0.3886
vn -0.4231 -0.0065 0.9061
vn -0.3563 0.6432 0.6778
vn -0.0334 0.9985 -0.0441
vn 0.1895 0.7780 0.5990
vn -0.6386 0.7340 0.2311
vn -0.6802 -0.6839 -0.2640
vn -0.1893 -0.7792 -0.5976
vn -0.3286 -0.0150 -0.9443
vn -0.9201 -0.0257 -0.3910
vn -0.7104 0.6330 -0.3077
vn -0.2296 0.7367 -0.6360
vn 0.7149 -0.6279 0.3077
vn 0.9208 0.0275 -0.3891
vn 0.6423 -0.7304 -0.2321
vn 0.9200 0.0324 0.3906
vn 0.6785 0.6853 0.2647
vn 0.5826 0.7588 -0.2912
vn 0.3574 -0.6435 -0.6769
vn 0.4224 0.0085 -0.9064
vn 0.3062 0.6361 -0.7082
vn -0.0000 0.1519 -0.9884
vn 0.9940 -0.0186 -0.1079
vn 0.8304 0.5007 -0.2443
vn -0.0000 0.9823 -0.1875
vn -0.0000 0.2143 -0.9768
vn -0.0000 -0.9155 -0.4023
vn -0.0000 0.9249 -0.3802
vn 0.7694 0.1869 -0.6108
vn 0.8095 0.4499 -0.3773
vn -0.4104 0.9049 0.1129
vn -0.4391 0.8545 -0.2775
vn -0.0000 -1.0000 -0.0033
vn -0.0016 -1.0000 -0.0034
vn -0.0018 -1.0000 -0.0034
vn 0.3184 -0.3243 0.8908
vn -0.8460 -0.4873 0.2165
vn 0.2699 -0.7793 0.5656
vn -0.9746 -0.1499 0.1661
vn -0.9113 0.0169 0.4113
vn -0.9956 -0.0869 0.0353
vn 0.0001 -1.0000 -0.0014
vn -0.0000 0.0557 0.9984
vn -0.0000 0.0524 0.9986
vn -0.4674 0.3865 -0.7951
vn -0.9329 0.0989 0.3463
vn 0.2352 -0.3479 0.9075
vn 0.2651 -0.3099 0.9131
vn -0.9038 0.3298 -0.2727
vn -0.3768 0.1418 -0.9154
vn -0.8034 0.3311 -0.4949
vn -0.4323 0.0722 0.8988
vn -0.4207 0.0776 0.9039
vn -0.4069 0.7463 0.5268
vn -0.4086 0.5097 0.7572
vn 0.5274 -0.0166 -0.8495
vn -0.9974 -0.0724 -0.0051
vn -0.9835 -0.0688 -0.1675
vn -0.9920 -0.0178 -0.1250
vn -0.8969 -0.0359 -0.4407
vn -0.9473 -0.0962 0.3057
vn 0.9746 -0.1499 0.1661
vn -0.8407 0.4308 -0.3282
vn -0.9213 0.3683 -0.1247
vn -0.8925 0.2651 -0.3648
vn 0.3149 -0.7122 -0.6274
vn -0.8122 -0.4594 -0.3596
vn -0.7576 0.2328 -0.6098
vn -0.8315 0.2186 -0.5107
vn -0.4625 0.7120 -0.5284
vn -0.7737 -0.6334 -0.0132
vn -0.3448 0.6371 0.6894
vn -0.7249 0.5812 0.3697
vn -0.7513 0.5425 0.3758
vn -0.9088 0.1098 -0.4026
vn -0.8554 0.4370 -0.2779
vn 0.9910 0.0018 -0.1340
vn 0.9910 0.0008 -0.1340
vn 0.9910 0.0020 -0.1339
vn 0.9340 0.0087 -0.3572
vn 0.4709 0.0215 -0.8819
vn 0.9361 0.0084 -0.3516
vn -0.0034 1.0000 0.0032
vn -0.0040 1.0000 0.0024
vn -0.0037 1.0000 0.0027
vn 0.0018 -1.0000 -0.0017
vn 0.0019 -1.0000 -0.0017
vn 0.0018 -1.0000 -0.0018
vn -0.6270 0.0180 -0.7788
vn -0.6204 0.0182 -0.7841
vn -0.4359 0.0671 0.8975
vn -0.3973 0.4037 0.8241
vn 0.0006 -1.0000 0.0005
vn -0.8375 -0.2701 -0.4750
vn -0.8138 -0.1162 -0.5694
vn -0.9627 -0.0310 -0.2686
vn -0.8171 0.0411 0.5750
vn -0.8341 0.0499 0.5493
vn -0.8290 0.4877 -0.2736
vn -0.9470 -0.0738 -0.3127
vn -0.8113 0.5846 0.0040
vn -0.9817 -0.0006 -0.1905
vn -0.9936 0.0090 0.1122
vn -0.9850 -0.0052 -0.1724
vn -0.7976 0.3175 0.5129
vn -0.4019 0.1833 0.8971
vn -0.9961 0.0149 0.0874
vn -0.8139 0.4994 0.2968
vn -0.9900 -0.0108 -0.1406
vn -0.8532 0.0355 0.5204
vn 0.5167 -0.0128 -0.8560
vn 0.2703 -0.3565 0.8943
vn 0.4139 0.0008 -0.9103
vn -0.9309 0.3105 0.1924
vn -0.8715 0.2272 0.4345
vn 0.4358 -0.1180 -0.8923
vn -0.1323 -0.0000 0.9912
vn -0.9993 -0.0000 -0.0372
vn 0.4640 0.0218 -0.8856
vn -0.3929 0.5204 0.7582
vn 0.0018 -1.0000 -0.0034
vn -0.9370 -0.0394 0.3471
vn -0.7638 0.2129 0.6094
vn -0.2122 -0.3854 -0.8980
vn -0.4863 -0.2136 -0.8473
vn -0.2917 -0.2744 -0.9163
vn -0.9267 0.1620 -0.3391
vn -0.8529 0.1753 -0.4918
vn -0.9539 -0.0089 0.3001
vn -0.9508 0.0457 0.3064
vn -0.9910 0.0020 -0.1339
vn -0.8284 -0.4500 -0.3335
vn -0.9807 -0.0667 -0.1837
vn -0.8753 -0.4446 -0.1900
vn -0.3655 -0.1633 -0.9164
vn -0.6300 -0.0614 -0.7742
vn -0.4153 -0.1032 -0.9038
vn -0.8606 0.4848 -0.1561
vn -0.4582 0.2271 -0.8593
vn -0.7005 0.3812 -0.6033
vn -0.3706 0.6386 0.6744
vn -0.9328 0.3545 -0.0645
vn -0.8994 0.4310 0.0730
vn -0.8916 0.4212 -0.1661
vn -0.8484 0.4151 0.3285
vn -0.9215 -0.0108 -0.3882
vn -0.9106 -0.3452 -0.2271
vn -0.8800 -0.1516 -0.4501
vn -0.9614 0.0748 -0.2648
vn -0.8130 0.1238 -0.5690
vn -0.4997 -0.1680 -0.8497
vn -0.4341 0.0722 -0.8979
vn -0.6129 0.0197 -0.7899
vn -0.7232 -0.3998 -0.5631
vn -0.6125 -0.3494 -0.7091
vn -0.9179 0.3833 0.1028
vn -0.9603 0.2763 -0.0387
vn -0.9305 -0.1900 -0.3131
vn -0.8821 0.2521 -0.3978
vn -0.8540 0.4048 -0.3269
vn -0.7284 0.3139 -0.6090
vn -0.5387 0.1413 -0.8306
vn -0.9811 0.1343 -0.1391
vn -0.9781 0.1820 -0.1011
vn -0.6780 -0.0200 -0.7348
vn -0.8323 0.1072 -0.5439
vn -0.7234 0.0932 -0.6841
vn -0.9037 0.0361 -0.4266
vn -0.8805 0.1272 -0.4566
vn 0.3835 -0.0716 -0.9208
vn 0.2769 -0.3314 0.9019
vn -0.9565 -0.0493 0.2875
vn -0.8119 0.0310 0.5830
vn -0.9911 0.0021 0.1333
vn -0.8216 0.2216 -0.5253
vn -0.8133 0.1224 0.5688
vn -0.4388 -0.0457 -0.8974
vn -0.4570 0.0522 -0.8879
vn -0.7332 0.2557 -0.6302
vn -0.9986 -0.0049 0.0523
vn -0.8476 0.0437 0.5288
vn -0.9985 0.0040 0.0542
vn -0.4821 0.2138 0.8496
vn -0.3929 -0.3188 -0.8626
vn -0.5521 -0.1892 -0.8120
vn -0.9727 -0.0403 -0.2287
vn -0.9784 -0.0161 -0.2061
vn -0.8414 0.0391 0.5389
vn -0.4304 0.0589 0.9007
vn -0.5688 -0.1078 -0.8154
vn -0.7447 -0.0403 -0.6661
vn -0.0597 0.0882 -0.9943
vn -0.4981 0.1858 -0.8470
vn -0.1470 -0.2165 -0.9651
vn 0.0005 -1.0000 -0.0011
vn 0.0003 -1.0000 -0.0010
vn -0.8604 0.0506 0.5071
vn -0.9981 -0.0377 0.0486
vn -0.2894 0.6417 0.7103
vn -0.8021 0.2410 0.5464
vn -0.3550 -0.1833 -0.9167
vn -0.6816 0.0909 -0.7260
vn -0.0044 1.0000 0.0018
vn -0.0044 1.0000 0.0019
vn -0.7141 -0.6483 -0.2641
vn -0.8751 -0.4707 -0.1120
vn -0.9940 -0.0186 -0.1079
vn -0.8656 0.1712 -0.4705
vn -0.8815 0.1249 -0.4554
vn -0.9512 0.0761 -0.2989
vn -0.0343 -0.9985 0.0437
vn 0.3072 -0.6356 0.7083
vn -0.2315 -0.7358 0.6364
vn -0.3285 0.0161 0.9444
vn 0.4231 -0.0065 0.9061
vn 0.9212 -0.0200 0.3886
vn 0.5850 -0.7569 0.2913
vn 0.3563 0.6432 0.6778
vn -0.1895 0.7780 0.5990
vn 0.0334 0.9985 -0.0441
vn 0.6386 0.7340 0.2311
vn 0.6802 -0.6839 -0.2640
vn 0.9201 -0.0257 -0.3910
vn 0.3286 -0.0150 -0.9443
vn 0.1893 -0.7791 -0.5976
vn 0.7104 0.6330 -0.3077
vn 0.2296 0.7367 -0.6360
vn -0.7149 -0.6279 0.3077
vn -0.6423 -0.7304 -0.2321
vn -0.9208 0.0275 -0.3891
vn -0.9200 0.0324 0.3906
vn -0.6785 0.6853 0.2647
vn -0.5826 0.7588 -0.2912
vn -0.3574 -0.6435 -0.6769
vn -0.4224 0.0085 -0.9064
vn -0.3062 0.6361 -0.7082
vn -0.0109 0.2175 -0.9760
vn -0.8304 0.5007 -0.2443
vn -0.7694 0.1869 -0.6108
vn -0.8095 0.4499 -0.3773
vn 0.0011 -1.0000 -0.0001
vn 0.9370 -0.0394 0.3471
vn -0.4291 0.0504 0.9018
vn -0.9702 -0.0587 -0.2353
vn -0.4785 -0.2817 -0.8317
vn 0.9702 -0.0587 -0.2353
vn 0.2917 -0.2744 -0.9163
vn -0.6539 -0.0812 -0.7522
vn 0.9784 -0.0161 -0.2061
vn -0.7974 -0.0011 -0.6034
vn 0.9850 -0.0052 -0.1724
vn -0.0022 -1.0000 -0.0015
vn 0.0044 1.0000 0.0019
vn 0.6204 0.0182 -0.7841
vn -0.0003 -1.0000 -0.0010
vn -0.0005 -1.0000 -0.0011
vn 0.6130 0.0197 -0.7899
vn 0.0022 -1.0000 -0.0015
vt 0.886880 0.559678
vt 0.886879 0.559678
vt 0.886863 0.559691
vt 0.886862 0.559684
vt 0.886852 0.559679
vt 0.886858 0.559685
vt 0.886858 0.559688
vt 0.886852 0.559681
vt 0.886855 0.559683
vt 0.886863 0.559679
vt 0.886859 0.559683
vt 0.886852 0.559691
vt 0.679415 0.472210
vt 0.679551 0.471751
vt 0.679378 0.472417
vt 0.886861 0.559689
vt 0.886863 0.559688
vt 0.886863 0.559685
vt 0.886852 0.559686
vt 0.886858 0.559686
vt 0.886863 0.559680
vt 0.886858 0.559679
vt 0.679602 0.471864
vt 0.679809 0.471417
vt 0.679468 0.472493
vt 0.886834 0.559598
vt 0.886833 0.559598
vt 0.886835 0.559598
vt 0.886858 0.559689
vt 0.886853 0.559689
vt 0.886862 0.559704
vt 0.886852 0.559685
vt 0.886857 0.559682
vt 0.886858 0.559684
vt 0.886852 0.559684
vt 0.886852 0.559687
vt 0.886852 0.559688
vt 0.886879 0.559672
vt 0.886863 0.559684
vt 0.886858 0.559687
vt 0.886852 0.559680
vt 0.886855 0.559680
vt 0.886858 0.559680
vt 0.886859 0.559687
vt 0.679094 0.473476
vt 0.679110 0.473464
vt 0.679108 0.473493
vt 0.679094 0.473507
vt 0.679089 0.473470
vt 0.679973 0.471046
vt 0.680105 0.470628
vt 0.886859 0.559682
vt 0.030443 0.774635
vt 0.679105 0.473430
vt 0.679148 0.473442
vt 0.679129 0.473453
vt 0.886849 0.559573
vt 0.886832 0.559598
vt 0.886867 0.559697
vt 0.679084 0.473433
vt 0.679094 0.473418
vt 0.679541 0.471909
vt 0.886852 0.559689
vt 0.679528 0.472369
vt 0.679351 0.473077
vt 0.886735 0.559598
vt 0.886735 0.559607
vt 0.886729 0.559599
vt 0.679121 0.473533
vt 0.679121 0.473617
vt 0.679105 0.473521
vt 0.886880 0.559672
vt 0.679418 0.473099
vt 0.679370 0.473147
vt 0.680128 0.470615
vt 0.886856 0.559689
vt 0.680072 0.470857
vt 0.679427 0.472521
vt 0.679289 0.473189
vt 0.679679 0.471514
vt 0.679967 0.470814
vt 0.679176 0.473375
vt 0.679244 0.473489
vt 0.679212 0.473478
vt 0.679568 0.471669
vt 0.679166 0.473195
vt 0.886863 0.559686
vt 0.886859 0.559689
vt 0.886863 0.559687
vt 0.679167 0.473243
vt 0.679203 0.473308
vt 0.679135 0.473299
vt 0.679120 0.473418
vt 0.679103 0.473402
vt 0.679216 0.473259
vt 0.679214 0.473067
vt 0.886858 0.559681
vt 0.886863 0.559683
vt 0.679129 0.473480
vt 0.679125 0.473506
vt 0.886863 0.559681
vt 0.886858 0.559683
vt 0.679180 0.473468
vt 0.679155 0.473474
vt 0.679116 0.473613
vt 0.679124 0.473675
vt 0.679104 0.473659
vt 0.679117 0.473614
vt 0.679098 0.473511
vt 0.886852 0.559683
vt 0.886854 0.559684
vt 0.679159 0.473702
vt 0.886852 0.559682
vt 0.886865 0.559704
vt 0.886872 0.559704
vt 0.031173 0.773263
vt 0.031270 0.773263
vt 0.031201 0.773263
vt 0.886733 0.559606
vt 0.886740 0.559597
vt 0.886733 0.559615
vt 0.886725 0.559615
vt 0.886735 0.559608
vt 0.886740 0.559616
vt 0.886626 0.559782
vt 0.886670 0.559875
vt 0.886595 0.559782
vt 0.886688 0.559844
vt 0.886657 0.559844
vt 0.886688 0.559658
vt 0.886657 0.559640
vt 0.886688 0.559626
vt 0.886781 0.559800
vt 0.886688 0.559875
vt 0.886750 0.559782
vt 0.886719 0.559844
vt 0.886706 0.559626
vt 0.886719 0.559658
vt 0.886657 0.559702
vt 0.886657 0.559720
vt 0.886657 0.559658
vt 0.886688 0.559720
vt 0.886688 0.559689
vt 0.886719 0.559676
vt 0.886781 0.559782
vt 0.886719 0.559720
vt 0.886661 0.559813
vt 0.886688 0.559782
vt 0.886657 0.559782
vt 0.886688 0.559813
vt 0.886719 0.559809
vt 0.886719 0.559782
vt 0.886657 0.559755
vt 0.886688 0.559751
vt 0.886715 0.559751
vt 0.679132 0.473682
vt 0.030832 0.773263
vt 0.031160 0.773452
vt 0.886871 0.559704
vt 0.886870 0.559704
vt 0.886864 0.559704
vt 0.679568 0.471895
vt 0.886866 0.559700
vt 0.886858 0.559691
vt 0.679090 0.473441
vt 0.679146 0.473636
vt 0.679579 0.472265
vt 0.679959 0.470797
s 1
usemtl material.002
f 6/1/1 17/2/2 3/2/3
f 55/3/4 372/4/5 50/5/6
f 95/6/7 41/7/8 99/7/9
f 19/5/10 367/8/11 366/9/12
f 49/10/13 373/11/14 192/12/15
f 15/13/16 89/14/17 85/15/18
f 34/6/19 110/7/20 106/6/21
f 28/16/22 104/17/23 191/18/24
f 408/19/25 5/6/26 404/20/27
f 88/1/28 71/2/29 68/1/30
f 104/17/23 112/18/31 191/18/24
f 126/21/32 9/22/33 192/12/15
f 41/7/8 93/17/34 99/7/9
f 74/23/35 194/24/36 63/25/37
f 40/18/38 41/7/8 39/6/39
f 45/1/40 149/1/41 147/1/42
f 180/26/43 138/27/44 177/28/45
f 60/1/46 67/29/47 66/30/48
f 45/1/49 47/31/50 18/1/51
f 366/9/52 51/10/53 19/5/53
f 53/3/54 50/5/55 13/5/56
f 134/32/57 373/11/58 13/5/59
f 365/33/60 48/10/61 51/10/62
f 372/4/63 52/10/64 373/11/14
f 391/34/65 2/32/66 390/35/67
f 101/36/68 30/7/69 31/37/70
f 364/32/71 16/32/72 19/5/10
f 12/1/73 75/1/74 77/38/75
f 7/32/76 391/34/65 392/39/77
f 11/1/78 145/1/79 141/1/80
f 388/39/81 10/6/82 393/34/83
f 103/40/84 29/37/85 30/7/69
f 393/34/83 7/32/76 392/39/77
f 87/1/86 88/1/28 68/1/30
f 402/18/87 33/40/88 403/6/89
f 111/18/90 35/6/91 34/6/19
f 27/7/92 104/17/23 28/16/22
f 97/18/93 39/6/39 95/6/7
f 8/1/94 43/1/95 6/1/1
f 51/10/96 9/22/96 19/5/96
f 48/10/97 192/12/15 9/22/33
f 52/10/64 55/3/98 53/3/54
f 26/41/99 125/42/100 25/43/101
f 97/18/93 42/17/102 40/18/38
f 233/12/103 370/11/104 371/44/105
f 379/45/106 76/46/107 380/47/108
f 379/45/106 24/48/109 381/49/110
f 194/24/36 72/50/111 188/51/112
f 107/17/113 37/7/114 38/17/115
f 105/7/116 27/7/92 33/40/88
f 232/10/117 368/52/118 235/10/119
f 46/53/120 56/53/121 195/53/122
f 394/54/123 116/55/124 389/56/125
f 46/57/120 14/26/126 56/58/121
f 178/59/127 18/1/51 47/31/50
f 394/54/123 122/60/128 395/61/129
f 91/62/130 85/15/18 89/14/17
f 64/1/131 65/63/132 67/29/47
f 67/29/47 31/37/70 30/7/69
f 82/64/133 69/65/134 63/25/37
f 29/37/85 67/29/47 30/7/69
f 70/1/135 64/1/131 60/1/46
f 68/1/30 62/2/136 64/1/131
f 18/1/137 148/1/138 149/1/41
f 146/66/139 61/67/140 140/68/141
f 72/38/111 79/38/142 78/1/143
f 22/69/144 133/70/145 123/71/146
f 46/1/147 59/72/148 14/26/149
f 84/1/150 80/72/151 59/72/148
f 82/64/133 66/73/48 44/74/152
f 185/75/153 194/24/36 188/51/112
f 44/76/152 29/37/85 27/7/92
f 70/77/135 82/64/133 194/24/36
f 146/1/139 11/1/78 141/1/80
f 140/1/141 150/1/154 46/1/147
f 73/78/155 69/65/134 28/79/22
f 187/80/156 89/14/17 81/81/157
f 78/1/143 83/1/158 86/1/159
f 81/72/157 77/38/75 79/38/142
f 84/1/150 12/1/73 77/38/75
f 75/1/74 78/1/143 79/38/142
f 88/1/28 8/1/94 6/1/1
f 405/82/160 191/83/161 402/84/162
f 63/25/37 194/24/36 82/64/133
f 90/85/163 81/81/157 89/14/17
f 86/1/159 8/1/94 87/1/86
f 92/2/164 6/1/1 3/2/3
f 77/38/75 75/1/74 79/38/142
f 85/15/18 356/86/165 15/13/16
f 36/18/166 94/17/167 98/18/168
f 98/18/168 93/17/34 97/18/93
f 36/18/166 96/6/169 35/6/91
f 98/18/168 95/6/7 96/6/169
f 100/7/170 38/17/115 37/7/114
f 99/7/9 94/17/167 100/7/170
f 35/6/91 100/7/170 37/7/114
f 96/6/169 99/7/9 100/7/170
f 34/6/19 37/7/114 109/7/171
f 407/87/172 5/6/26 7/32/76
f 407/87/172 10/6/82 403/6/89
f 69/88/134 27/7/92 28/16/22
f 108/17/173 111/18/90 112/18/31
f 106/6/21 105/7/116 33/40/88
f 111/18/90 38/17/115 36/18/166
f 105/7/116 108/17/173 104/17/23
f 108/17/173 109/7/171 107/17/113
f 112/18/31 33/40/88 191/18/24
f 112/18/31 34/6/19 106/6/21
f 27/7/92 102/89/174 33/40/88
f 406/90/175 115/91/176 405/82/160
f 409/92/177 57/93/178 58/94/179
f 73/78/155 32/95/180 91/62/130
f 114/96/181 32/95/180 115/91/176
f 377/97/182 119/98/183 376/8/184
f 25/43/101 129/21/185 20/41/186
f 380/47/108 189/99/187 378/100/188
f 378/101/189 120/102/190 377/97/182
f 376/8/184 118/102/191 375/97/192
f 115/91/176 28/79/22 191/83/161
f 389/56/125 190/103/193 388/104/194
f 127/105/195 134/106/196 13/107/197
f 131/108/198 23/109/199 127/105/195
f 125/42/100 128/43/200 25/43/101
f 4/22/201 363/110/202 360/18/203
f 130/43/204 20/41/186 129/21/185
f 126/21/32 21/43/205 130/43/204
f 132/111/206 124/41/207 1/5/208
f 125/42/100 4/22/209 128/43/200
f 123/71/146 127/105/195 23/109/199
f 133/70/145 192/112/210 134/106/196
f 53/3/211 373/11/58 52/10/211
f 135/113/212 132/111/202 1/5/202
f 139/114/213 184/115/214 138/115/44
f 177/116/45 195/117/122 56/118/121
f 144/1/215 12/1/73 143/1/216
f 145/119/79 61/67/140 141/120/80
f 144/121/215 61/67/140 142/122/217
f 150/123/154 61/67/140 143/124/216
f 75/1/74 142/1/217 83/1/158
f 8/1/94 142/1/217 145/1/79
f 148/1/138 43/1/95 149/1/41
f 149/1/41 11/1/78 147/1/42
f 147/1/42 146/1/139 140/1/141
f 150/1/154 12/1/73 46/1/147
f 45/1/40 18/1/137 149/1/41
f 160/125/218 151/126/219 156/127/220
f 166/128/221 151/126/219 164/129/222
f 155/130/223 151/131/219 154/132/224
f 166/128/221 152/133/225 154/134/224
f 165/135/226 152/133/225 167/136/227
f 155/130/223 152/137/225 153/138/228
f 160/125/218 157/139/229 170/140/230
f 155/130/223 157/139/229 156/141/220
f 173/142/231 157/139/229 159/143/232
f 165/135/226 158/144/233 153/145/228
f 173/142/231 158/144/233 176/146/234
f 155/130/223 158/144/233 159/143/232
f 160/125/218 162/147/235 164/129/222
f 161/148/236 162/147/235 172/149/237
f 166/128/221 162/147/235 163/150/238
f 165/135/226 168/151/239 169/152/240
f 166/128/221 168/151/239 167/136/227
f 161/148/236 168/151/239 163/150/238
f 160/125/218 171/153/241 172/149/237
f 173/142/231 171/153/241 170/140/230
f 161/148/236 171/153/241 175/154/242
f 165/135/226 174/155/243 176/146/234
f 161/148/236 174/155/243 169/152/240
f 173/142/231 174/155/243 175/154/242
f 193/156/244 127/105/195 13/107/197
f 138/157/44 113/158/245 177/116/45
f 137/159/246 179/31/247 178/59/127
f 14/26/126 177/28/45 56/58/121
f 182/160/248 184/115/214 181/114/249
f 136/160/250 183/159/251 182/160/248
f 138/115/44 183/159/251 137/159/246
f 186/38/252 187/72/156 79/38/142
f 70/77/135 194/24/36 185/75/153
f 185/1/153 86/1/159 87/1/86
f 187/72/156 81/72/157 79/38/142
f 188/1/112 72/38/111 78/1/143
f 70/1/135 87/1/86 68/1/30
f 195/161/122 45/1/49 46/1/120
f 74/23/35 73/78/155 186/162/252
f 186/162/252 91/62/130 187/80/156
f 185/1/153 188/1/112 86/1/159
f 70/1/135 185/1/153 87/1/86
f 86/1/159 188/1/112 78/1/143
f 72/38/111 74/38/35 79/38/142
f 74/38/35 186/38/252 79/38/142
f 113/163/245 137/159/246 178/59/127
f 113/163/245 47/31/50 195/161/122
f 45/1/40 140/1/141 46/1/147
f 45/1/40 147/1/42 140/1/141
f 198/1/253 17/2/2 227/1/254
f 193/5/255 369/9/256 205/5/257
f 271/6/258 225/7/259 223/6/260
f 361/52/261 301/41/262 302/43/263
f 367/8/11 206/6/264 369/9/256
f 375/97/192 117/110/265 374/8/266
f 15/13/16 267/14/267 90/85/163
f 285/7/268 218/6/269 281/6/270
f 213/16/271 354/18/272 279/17/273
f 197/6/274 408/19/25 412/20/275
f 71/2/29 266/1/276 248/1/277
f 287/18/278 279/17/273 354/18/272
f 201/22/279 298/21/280 355/5/281
f 269/17/282 225/7/259 275/7/283
f 129/21/185 359/52/284 130/43/204
f 253/23/285 357/24/286 251/50/287
f 224/18/288 225/7/259 226/17/289
f 229/1/290 315/1/291 316/1/292
f 180/26/43 307/27/293 139/26/213
f 247/29/294 242/1/295 246/30/296
f 229/1/297 18/1/51 231/31/298
f 369/9/299 235/10/300 368/52/301
f 234/22/302 237/12/303 205/5/304
f 237/12/305 370/11/306 205/5/307
f 371/44/308 239/3/309 234/22/310
f 371/44/105 236/5/311 238/10/312
f 398/34/313 2/32/66 197/6/274
f 215/7/314 101/36/68 31/37/70
f 196/164/315 363/110/202 135/113/212
f 204/1/316 256/38/317 254/1/318
f 398/34/313 199/32/319 399/39/320
f 203/1/321 313/1/322 200/1/323
f 396/39/324 202/6/325 353/18/326
f 214/37/327 278/40/328 215/7/314
f 400/34/329 199/32/319 202/6/325
f 265/1/330 248/1/277 266/1/276
f 410/18/331 217/40/332 354/18/272
f 286/18/333 219/6/334 220/18/335
f 212/7/336 279/17/273 280/7/337
f 273/18/338 223/6/260 224/18/288
f 227/1/254 200/1/323 198/1/253
f 201/22/339 235/10/339 206/6/339
f 355/5/281 232/10/340 201/22/279
f 236/5/311 239/3/341 238/10/312
f 26/41/99 297/42/342 124/41/207
f 273/18/338 226/17/289 269/17/282
f 366/9/12 193/5/255 13/5/343
f 362/3/344 300/43/345 301/41/262
f 386/45/346 255/46/347 295/165/348
f 24/48/109 386/45/346 381/49/110
f 357/24/286 351/51/349 251/50/287
f 282/17/350 221/7/351 284/7/352
f 280/7/337 217/40/332 212/7/336
f 13/5/56 365/33/353 366/9/52
f 230/53/354 358/53/355 240/53/356
f 401/54/357 291/55/358 241/93/359
f 230/57/354 240/58/356 14/26/126
f 345/59/360 18/1/51 179/31/247
f 122/60/128 401/54/357 395/61/129
f 263/15/361 268/62/362 267/14/267
f 65/63/132 245/1/363 247/29/294
f 31/37/70 247/29/294 215/7/314
f 249/65/364 260/64/365 244/25/366
f 214/37/327 247/29/294 246/30/296
f 245/1/363 250/1/367 242/1/295
f 62/2/136 248/1/277 245/1/363
f 18/1/137 316/1/292 148/1/138
f 243/67/368 314/66/369 308/68/370
f 251/38/287 257/1/371 258/38/372
f 209/69/373 304/70/374 298/166/375
f 230/1/376 59/72/148 262/1/377
f 80/72/151 262/1/377 59/72/148
f 246/73/296 260/64/365 228/74/378
f 348/75/379 351/51/349 357/24/286
f 214/37/327 228/76/378 212/7/336
f 250/77/367 260/64/365 242/167/295
f 203/1/321 314/1/369 309/1/380
f 308/1/370 230/1/376 317/1/381
f 249/65/364 252/78/382 213/79/271
f 267/14/267 350/80/383 259/81/384
f 261/1/385 257/1/371 264/1/386
f 259/72/384 256/38/317 262/1/377
f 262/1/377 204/1/316 230/1/376
f 254/1/318 258/38/372 257/1/371
f 266/1/276 200/1/323 265/1/330
f 413/82/387 354/83/388 290/91/389
f 244/25/366 260/64/365 357/24/286
f 267/14/267 80/168/151 90/85/163
f 200/1/323 264/1/386 265/1/330
f 92/2/164 198/1/253 266/1/276
f 256/38/317 258/38/372 254/1/318
f 356/86/165 263/15/361 15/13/16
f 220/18/335 270/17/390 222/17/391
f 274/18/392 269/17/282 270/17/390
f 220/18/335 272/6/393 274/18/392
f 274/18/392 271/6/258 273/18/338
f 222/17/391 276/7/394 221/7/351
f 270/17/390 275/7/283 276/7/394
f 219/6/334 276/7/394 272/6/393
f 272/6/393 275/7/283 271/6/258
f 218/6/269 221/7/351 219/6/334
f 415/87/395 197/6/274 412/20/275
f 202/6/325 415/87/395 411/6/396
f 212/7/336 249/88/364 213/16/271
f 286/18/333 283/17/397 287/18/278
f 280/7/337 281/6/270 217/40/332
f 286/18/333 222/17/391 282/17/350
f 283/17/397 280/7/337 279/17/273
f 283/17/397 284/7/352 285/7/268
f 217/40/332 287/18/278 354/18/272
f 287/18/278 218/6/269 286/18/333
f 212/7/336 277/89/398 214/37/327
f 414/90/399 290/91/389 289/96/400
f 409/92/177 241/93/359 414/90/399
f 216/95/401 252/78/382 268/62/362
f 216/95/401 289/96/400 290/91/389
f 384/97/402 293/98/403 294/102/404
f 211/43/405 301/41/262 300/43/345
f 387/47/406 352/99/407 255/46/347
f 385/101/408 294/102/404 352/98/409
f 383/8/410 292/102/411 293/98/403
f 213/79/271 290/91/389 354/83/388
f 397/56/412 353/103/413 291/55/358
f 299/105/414 305/106/415 304/70/374
f 210/109/416 131/108/198 299/105/414
f 297/42/342 211/43/405 300/43/345
f 361/52/417 201/22/418 206/6/264
f 207/41/419 302/43/263 301/41/262
f 208/43/420 298/21/280 302/43/263
f 124/41/207 303/111/421 1/5/208
f 297/42/342 196/164/422 303/111/421
f 296/71/423 299/105/414 304/70/374
f 355/112/424 304/70/374 305/106/415
f 305/32/425 370/11/306 355/5/426
f 135/113/212 303/111/202 196/164/315
f 347/115/427 139/114/213 307/115/293
f 344/116/428 358/117/355 288/158/429
f 204/1/316 312/1/430 311/1/431
f 243/67/368 313/119/322 309/120/380
f 243/67/368 312/121/430 310/122/432
f 243/67/368 317/123/381 311/124/431
f 254/1/318 310/1/432 312/1/430
f 310/1/432 200/1/323 313/1/322
f 227/1/254 148/1/138 316/1/292
f 203/1/321 316/1/292 315/1/291
f 315/1/291 308/1/370 314/1/369
f 204/1/316 317/1/381 230/1/376
f 229/1/290 316/1/292 18/1/137
f 327/125/433 318/126/434 331/129/435
f 333/128/436 318/126/434 321/134/437
f 322/130/438 318/131/434 323/141/439
f 333/128/436 319/133/440 334/136/441
f 332/135/442 319/133/440 320/145/443
f 322/130/438 319/137/440 321/132/437
f 327/125/433 324/139/444 323/127/439
f 322/130/438 324/139/444 326/143/445
f 340/142/446 324/139/444 337/140/447
f 332/135/442 325/144/448 343/146/449
f 340/142/446 325/144/448 326/143/445
f 322/130/438 325/144/448 320/138/443
f 327/125/433 329/147/450 339/149/451
f 328/148/452 329/147/450 330/150/453
f 333/128/436 329/147/450 331/129/435
f 332/135/442 335/151/454 334/136/441
f 333/128/436 335/151/454 330/150/453
f 328/148/452 335/151/454 336/152/455
f 327/125/433 338/153/456 337/140/447
f 340/142/446 338/153/456 342/154/457
f 328/148/452 338/153/456 339/149/451
f 332/135/442 341/155/458 336/152/455
f 328/148/452 341/155/458 342/154/457
f 340/142/446 341/155/458 343/146/449
f 299/105/414 193/156/244 205/107/459
f 307/157/293 344/116/428 288/158/429
f 306/159/460 179/31/247 136/160/250
f 14/26/126 344/28/428 180/26/43
f 182/160/248 347/115/427 346/159/461
f 136/160/250 346/159/461 306/159/460
f 346/159/461 307/115/293 306/159/460
f 349/38/462 258/38/372 350/72/383
f 250/77/367 348/75/379 357/24/286
f 348/1/379 265/1/330 264/1/386
f 350/72/383 258/38/372 259/72/384
f 351/1/349 257/1/371 251/38/287
f 250/1/367 248/1/277 265/1/330
f 358/161/355 229/1/297 231/31/298
f 252/78/382 253/23/285 349/162/462
f 268/62/362 349/162/462 350/80/383
f 348/1/379 264/1/386 351/1/349
f 250/1/367 265/1/330 348/1/379
f 264/1/386 257/1/371 351/1/349
f 251/38/287 258/38/372 253/38/285
f 253/38/285 258/38/372 349/38/462
f 288/163/429 306/159/460 307/115/293
f 231/31/298 288/163/429 358/161/355
f 229/1/290 230/1/376 308/1/370
f 229/1/290 308/1/370 315/1/291
f 201/22/279 361/52/261 302/43/263
f 9/22/33 130/43/204 359/52/284
f 364/32/71 360/18/203 363/110/202
f 364/32/71 362/3/463 361/52/417
f 128/43/200 360/18/464 129/21/185
f 205/5/304 368/52/301 234/22/302
f 371/44/308 368/52/118 233/12/118
f 365/33/60 372/4/5 49/10/60
f 382/97/465 117/110/265 292/102/411
f 211/43/405 374/8/266 382/97/465
f 207/41/419 382/97/465 383/8/410
f 209/21/466 384/97/402 385/101/408
f 296/71/423 385/100/467 387/47/406
f 208/43/420 383/8/410 384/97/402
f 381/49/110 295/165/348 122/60/128
f 210/109/416 387/47/406 386/45/346
f 25/43/101 374/8/266 26/41/99
f 20/41/186 375/97/192 25/43/101
f 22/21/468 377/97/182 21/43/205
f 123/71/146 378/100/188 22/69/144
f 21/43/205 376/8/184 20/41/186
f 121/165/469 381/49/110 122/60/128
f 23/109/199 380/47/108 123/71/146
f 255/46/347 396/104/470 397/56/412
f 395/61/129 241/93/359 58/94/179
f 295/165/348 397/56/412 401/54/357
f 294/102/404 399/39/320 400/34/329
f 352/98/409 400/34/329 396/39/324
f 292/102/411 399/39/320 293/98/403
f 292/102/411 390/35/67 398/34/313
f 76/46/107 388/104/194 189/99/187
f 57/93/178 395/61/129 58/94/179
f 121/165/469 389/56/125 76/46/107
f 120/102/190 392/39/77 119/98/183
f 189/98/471 393/34/83 120/102/190
f 392/39/77 118/102/191 119/98/183
f 118/102/191 390/35/67 117/110/265
f 409/92/177 289/96/400 356/86/165
f 241/93/359 413/82/387 414/90/399
f 217/40/332 415/87/395 277/89/398
f 277/89/398 412/20/275 278/40/328
f 291/55/358 410/84/472 413/82/387
f 353/18/326 411/6/396 410/18/331
f 412/20/275 101/36/68 278/40/328
f 114/96/181 409/92/177 356/86/165
f 57/93/178 405/82/160 116/55/124
f 33/40/88 407/87/172 403/6/89
f 102/89/174 404/20/27 407/87/172
f 116/55/124 402/84/162 190/103/193
f 190/18/473 403/6/89 10/6/82
f 101/36/68 404/20/27 103/40/84
f 6/1/1 43/1/95 17/2/2
f 55/3/4 54/10/474 372/4/5
f 95/6/7 39/6/39 41/7/8
f 19/5/10 16/32/72 367/8/11
f 49/10/13 372/4/63 373/11/14
f 15/13/16 90/85/163 89/14/17
f 34/6/19 109/7/171 110/7/20
f 408/19/25 2/32/66 5/6/26
f 88/1/28 92/2/164 71/2/29
f 104/17/23 108/17/173 112/18/31
f 126/21/32 130/43/204 9/22/33
f 41/7/8 42/17/102 93/17/34
f 74/23/35 72/50/111 194/24/36
f 40/18/38 42/17/102 41/7/8
f 180/26/43 139/26/213 138/27/44
f 60/1/46 64/1/131 67/29/47
f 366/9/52 365/33/353 51/10/53
f 53/3/54 55/3/98 50/5/55
f 134/32/57 192/12/475 373/11/58
f 365/33/60 49/10/60 48/10/61
f 372/4/63 54/10/476 52/10/64
f 391/34/65 5/6/26 2/32/66
f 101/36/68 103/40/84 30/7/69
f 9/22/477 359/52/478 19/5/10
f 359/52/478 364/32/71 19/5/10
f 7/32/76 5/6/26 391/34/65
f 11/1/78 8/1/94 145/1/79
f 388/39/81 190/18/473 10/6/82
f 103/40/84 102/89/174 29/37/85
f 393/34/83 10/6/82 7/32/76
f 402/18/87 191/18/24 33/40/88
f 111/18/90 36/18/166 35/6/91
f 27/7/92 105/7/116 104/17/23
f 97/18/93 40/18/38 39/6/39
f 8/1/94 11/1/78 43/1/95
f 51/10/96 48/10/96 9/22/96
f 48/10/97 49/10/13 192/12/15
f 52/10/64 54/10/476 55/3/98
f 26/41/99 124/41/207 125/42/100
f 97/18/93 93/17/34 42/17/102
f 233/12/103 355/5/281 370/11/104
f 379/45/106 121/165/469 76/46/107
f 379/45/106 23/109/199 24/48/109
f 107/17/113 109/7/171 37/7/114
f 232/10/117 233/12/118 368/52/118
f 394/54/123 57/93/178 116/55/124
f 178/59/127 179/31/247 18/1/51
f 394/54/123 121/165/469 122/60/128
f 91/62/130 32/95/180 85/15/18
f 64/1/131 62/2/136 65/63/132
f 67/29/47 65/63/132 31/37/70
f 82/64/133 44/74/152 69/65/134
f 29/37/85 66/30/48 67/29/47
f 70/1/135 68/1/30 64/1/131
f 68/1/30 71/2/29 62/2/136
f 146/66/139 141/120/80 61/67/140
f 22/69/144 126/166/479 133/70/145
f 46/1/147 84/1/150 59/72/148
f 84/1/150 81/72/157 80/72/151
f 82/64/133 60/167/46 66/73/48
f 44/76/152 66/30/48 29/37/85
f 70/77/135 60/167/46 82/64/133
f 146/1/139 147/1/42 11/1/78
f 73/78/155 63/25/37 69/65/134
f 187/80/156 91/62/130 89/14/17
f 78/1/143 75/1/74 83/1/158
f 81/72/157 84/1/150 77/38/75
f 84/1/150 46/1/147 12/1/73
f 88/1/28 87/1/86 8/1/94
f 405/82/160 115/91/176 191/83/161
f 90/85/163 80/168/151 81/81/157
f 86/1/159 83/1/158 8/1/94
f 92/2/164 88/1/28 6/1/1
f 85/15/18 114/96/181 356/86/165
f 36/18/166 38/17/115 94/17/167
f 98/18/168 94/17/167 93/17/34
f 36/18/166 98/18/168 96/6/169
f 98/18/168 97/18/93 95/6/7
f 100/7/170 94/17/167 38/17/115
f 99/7/9 93/17/34 94/17/167
f 35/6/91 96/6/169 100/7/170
f 96/6/169 95/6/7 99/7/9
f 34/6/19 35/6/91 37/7/114
f 407/87/172 404/20/27 5/6/26
f 407/87/172 7/32/76 10/6/82
f 69/88/134 44/76/152 27/7/92
f 108/17/173 107/17/113 111/18/90
f 106/6/21 110/7/20 105/7/116
f 111/18/90 107/17/113 38/17/115
f 105/7/116 110/7/20 108/17/173
f 108/17/173 110/7/20 109/7/171
f 112/18/31 106/6/21 33/40/88
f 112/18/31 111/18/90 34/6/19
f 27/7/92 29/37/85 102/89/174
f 406/90/175 114/96/181 115/91/176
f 409/92/177 406/90/175 57/93/178
f 73/78/155 28/79/22 32/95/180
f 114/96/181 85/15/18 32/95/180
f 377/97/182 120/102/190 119/98/183
f 25/43/101 128/43/200 129/21/185
f 380/47/108 76/46/107 189/99/187
f 378/101/189 189/98/471 120/102/190
f 376/8/184 119/98/183 118/102/191
f 115/91/176 32/95/180 28/79/22
f 389/56/125 116/55/124 190/103/193
f 127/105/195 133/70/145 134/106/196
f 131/108/198 24/48/109 23/109/199
f 4/22/201 135/113/212 363/110/202
f 130/43/204 21/43/205 20/41/186
f 126/21/32 22/21/468 21/43/205
f 132/111/206 125/42/100 124/41/207
f 125/42/100 132/111/206 4/22/209
f 123/71/146 133/70/145 127/105/195
f 133/70/145 126/166/479 192/112/210
f 53/3/211 13/5/59 373/11/58
f 135/113/212 4/22/201 132/111/202
f 139/114/213 181/114/249 184/115/214
f 177/116/45 113/158/245 195/117/122
f 144/1/215 75/1/74 12/1/73
f 145/119/79 142/122/217 61/67/140
f 144/121/215 143/124/216 61/67/140
f 150/123/154 140/68/141 61/67/140
f 75/1/74 144/1/215 142/1/217
f 8/1/94 83/1/158 142/1/217
f 148/1/138 17/2/2 43/1/95
f 149/1/41 43/1/95 11/1/78
f 150/1/154 143/1/216 12/1/73
f 160/125/218 164/129/222 151/126/219
f 166/128/221 154/134/224 151/126/219
f 155/130/223 156/141/220 151/131/219
f 166/128/221 167/136/227 152/133/225
f 165/135/226 153/145/228 152/133/225
f 155/130/223 154/132/224 152/137/225
f 160/125/218 156/127/220 157/139/229
f 155/130/223 159/143/232 157/139/229
f 173/142/231 170/140/230 157/139/229
f 165/135/226 176/146/234 158/144/233
f 173/142/231 159/143/232 158/144/233
f 155/130/223 153/138/228 158/144/233
f 160/125/218 172/149/237 162/147/235
f 161/148/236 163/150/238 162/147/235
f 166/128/221 164/129/222 162/147/235
f 165/135/226 167/136/227 168/151/239
f 166/128/221 163/150/238 168/151/239
f 161/148/236 169/152/240 168/151/239
f 160/125/218 170/140/230 171/153/241
f 173/142/231 175/154/242 171/153/241
f 161/148/236 172/149/237 171/153/241
f 165/135/226 169/152/240 174/155/243
f 161/148/236 175/154/242 174/155/243
f 173/142/231 176/146/234 174/155/243
f 193/156/244 131/108/198 127/105/195
f 137/159/246 136/160/250 179/31/247
f 14/26/126 180/26/43 177/28/45
f 182/160/248 183/159/251 184/115/214
f 136/160/250 137/159/246 183/159/251
f 138/115/44 184/115/214 183/159/251
f 195/161/122 47/31/50 45/1/49
f 74/23/35 63/25/37 73/78/155
f 186/162/252 73/78/155 91/62/130
f 113/163/245 138/115/44 137/159/246
f 113/163/245 178/59/127 47/31/50
f 198/1/253 3/2/3 17/2/2
f 193/5/255 367/8/11 369/9/256
f 271/6/258 275/7/283 225/7/259
f 361/52/261 362/3/344 301/41/262
f 367/8/11 16/32/72 206/6/264
f 375/97/192 118/102/191 117/110/265
f 15/13/16 263/15/361 267/14/267
f 285/7/268 284/7/352 218/6/269
f 197/6/274 2/32/66 408/19/25
f 71/2/29 92/2/164 266/1/276
f 287/18/278 283/17/397 279/17/273
f 201/22/279 302/43/263 298/21/280
f 269/17/282 226/17/289 225/7/259
f 129/21/185 360/18/464 359/52/284
f 253/23/285 244/25/366 357/24/286
f 224/18/288 223/6/260 225/7/259
f 180/26/43 344/28/428 307/27/293
f 247/29/294 245/1/363 242/1/295
f 369/9/299 206/6/300 235/10/300
f 234/22/302 239/3/341 237/12/303
f 237/12/305 236/5/305 370/11/306
f 371/44/308 238/10/480 239/3/309
f 371/44/105 370/11/104 236/5/311
f 398/34/313 390/35/67 2/32/66
f 215/7/314 278/40/328 101/36/68
f 196/164/315 362/3/463 363/110/202
f 398/34/313 197/6/274 199/32/319
f 203/1/321 309/1/380 313/1/322
f 396/39/324 400/34/329 202/6/325
f 214/37/327 277/89/398 278/40/328
f 400/34/329 399/39/320 199/32/319
f 410/18/331 411/6/396 217/40/332
f 286/18/333 218/6/269 219/6/334
f 212/7/336 213/16/271 279/17/273
f 273/18/338 271/6/258 223/6/260
f 227/1/254 203/1/321 200/1/323
f 201/22/339 232/10/339 235/10/339
f 355/5/281 233/12/103 232/10/340
f 236/5/311 237/12/303 239/3/341
f 26/41/99 211/43/405 297/42/342
f 273/18/338 224/18/288 226/17/289
f 366/9/12 367/8/11 193/5/255
f 362/3/344 196/164/422 300/43/345
f 386/45/346 387/47/406 255/46/347
f 24/48/109 210/109/416 386/45/346
f 282/17/350 222/17/391 221/7/351
f 13/5/56 50/5/55 365/33/353
f 401/54/357 397/56/412 291/55/358
f 345/59/360 231/31/298 18/1/51
f 122/60/128 295/165/348 401/54/357
f 263/15/361 216/95/401 268/62/362
f 65/63/132 62/2/136 245/1/363
f 31/37/70 65/63/132 247/29/294
f 249/65/364 228/74/378 260/64/365
f 214/37/327 215/7/314 247/29/294
f 245/1/363 248/1/277 250/1/367
f 62/2/136 71/2/29 248/1/277
f 243/67/368 309/120/380 314/66/369
f 209/69/373 296/71/423 304/70/374
f 230/1/376 14/26/149 59/72/148
f 80/72/151 259/72/384 262/1/377
f 246/73/296 242/167/295 260/64/365
f 214/37/327 246/30/296 228/76/378
f 250/77/367 357/24/286 260/64/365
f 203/1/321 315/1/291 314/1/369
f 249/65/364 244/25/366 252/78/382
f 267/14/267 268/62/362 350/80/383
f 261/1/385 254/1/318 257/1/371
f 259/72/384 258/38/372 256/38/317
f 262/1/377 256/38/317 204/1/316
f 266/1/276 198/1/253 200/1/323
f 413/82/387 410/84/472 354/83/388
f 267/14/267 259/81/384 80/168/151
f 200/1/323 261/1/385 264/1/386
f 92/2/164 3/2/3 198/1/253
f 356/86/165 289/96/400 263/15/361
f 220/18/335 274/18/392 270/17/390
f 274/18/392 273/18/338 269/17/282
f 220/18/335 219/6/334 272/6/393
f 274/18/392 272/6/393 271/6/258
f 222/17/391 270/17/390 276/7/394
f 270/17/390 269/17/282 275/7/283
f 219/6/334 221/7/351 276/7/394
f 272/6/393 276/7/394 275/7/283
f 218/6/269 284/7/352 221/7/351
f 415/87/395 199/32/319 197/6/274
f 202/6/325 199/32/319 415/87/395
f 212/7/336 228/76/378 249/88/364
f 286/18/333 282/17/350 283/17/397
f 280/7/337 285/7/268 281/6/270
f 286/18/333 220/18/335 222/17/391
f 283/17/397 285/7/268 280/7/337
f 283/17/397 282/17/350 284/7/352
f 217/40/332 281/6/270 287/18/278
f 287/18/278 281/6/270 218/6/269
f 212/7/336 217/40/332 277/89/398
f 414/90/399 413/82/387 290/91/389
f 409/92/177 58/94/179 241/93/359
f 216/95/401 213/79/271 252/78/382
f 216/95/401 263/15/361 289/96/400
f 384/97/402 383/8/410 293/98/403
f 211/43/405 207/41/419 301/41/262
f 387/47/406 385/100/467 352/99/407
f 385/101/408 384/97/402 294/102/404
f 383/8/410 382/97/465 292/102/411
f 213/79/271 216/95/401 290/91/389
f 397/56/412 396/104/470 353/103/413
f 299/105/414 205/107/459 305/106/415
f 210/109/416 24/48/109 131/108/198
f 16/32/72 364/32/71 206/6/264
f 364/32/71 361/52/417 206/6/264
f 207/41/419 208/43/420 302/43/263
f 208/43/420 209/21/466 298/21/280
f 124/41/207 297/42/342 303/111/421
f 297/42/342 300/43/345 196/164/422
f 296/71/423 210/109/416 299/105/414
f 355/112/424 298/166/375 304/70/374
f 305/32/425 205/5/307 370/11/306
f 135/113/212 1/5/202 303/111/202
f 347/115/427 181/114/249 139/114/213
f 344/116/428 240/118/356 358/117/355
f 204/1/316 254/1/318 312/1/430
f 243/67/368 310/122/432 313/119/322
f 243/67/368 311/124/431 312/121/430
f 243/67/368 308/68/370 317/123/381
f 254/1/318 261/1/385 310/1/432
f 310/1/432 261/1/385 200/1/323
f 227/1/254 17/2/2 148/1/138
f 203/1/321 227/1/254 316/1/292
f 204/1/316 311/1/431 317/1/381
f 327/125/433 323/127/439 318/126/434
f 333/128/436 331/129/435 318/126/434
f 322/130/438 321/132/437 318/131/434
f 333/128/436 321/134/437 319/133/440
f 332/135/442 334/136/441 319/133/440
f 322/130/438 320/138/443 319/137/440
f 327/125/433 337/140/447 324/139/444
f 322/130/438 323/141/439 324/139/444
f 340/142/446 326/143/445 324/139/444
f 332/135/442 320/145/443 325/144/448
f 340/142/446 343/146/449 325/144/448
f 322/130/438 326/143/445 325/144/448
f 327/125/433 331/129/435 329/147/450
f 328/148/452 339/149/451 329/147/450
f 333/128/436 330/150/453 329/147/450
f 332/135/442 336/152/455 335/151/454
f 333/128/436 334/136/441 335/151/454
f 328/148/452 330/150/453 335/151/454
f 327/125/433 339/149/451 338/153/456
f 340/142/446 337/140/447 338/153/456
f 328/148/452 342/154/457 338/153/456
f 332/135/442 343/146/449 341/155/458
f 328/148/452 336/152/455 341/155/458
f 340/142/446 342/154/457 341/155/458
f 299/105/414 131/108/198 193/156/244
f 306/159/460 345/59/360 179/31/247
f 14/26/126 240/58/356 344/28/428
f 182/160/248 181/114/249 347/115/427
f 136/160/250 182/160/248 346/159/461
f 346/159/461 347/115/427 307/115/293
f 358/161/355 230/1/354 229/1/297
f 252/78/382 244/25/366 253/23/285
f 268/62/362 252/78/382 349/162/462
f 288/163/429 345/59/360 306/159/460
f 231/31/298 345/59/360 288/163/429
f 364/32/71 359/52/478 360/18/203
f 364/32/71 363/110/202 362/3/463
f 128/43/200 4/22/209 360/18/464
f 205/5/304 369/9/299 368/52/301
f 371/44/308 234/22/310 368/52/118
f 365/33/60 50/5/6 372/4/5
f 382/97/465 374/8/266 117/110/265
f 211/43/405 26/41/99 374/8/266
f 207/41/419 211/43/405 382/97/465
f 209/21/466 208/43/420 384/97/402
f 296/71/423 209/69/373 385/100/467
f 208/43/420 207/41/419 383/8/410
f 381/49/110 386/45/346 295/165/348
f 210/109/416 296/71/423 387/47/406
f 25/43/101 375/97/192 374/8/266
f 20/41/186 376/8/184 375/97/192
f 22/21/468 378/101/189 377/97/182
f 123/71/146 380/47/108 378/100/188
f 21/43/205 377/97/182 376/8/184
f 121/165/469 379/45/106 381/49/110
f 23/109/199 379/45/106 380/47/108
f 255/46/347 352/99/407 396/104/470
f 395/61/129 401/54/357 241/93/359
f 295/165/348 255/46/347 397/56/412
f 294/102/404 293/98/403 399/39/320
f 352/98/409 294/102/404 400/34/329
f 292/102/411 398/34/313 399/39/320
f 292/102/411 117/110/265 390/35/67
f 76/46/107 389/56/125 388/104/194
f 57/93/178 394/54/123 395/61/129
f 121/165/469 394/54/123 389/56/125
f 120/102/190 393/34/83 392/39/77
f 189/98/471 388/39/81 393/34/83
f 392/39/77 391/34/65 118/102/191
f 118/102/191 391/34/65 390/35/67
f 409/92/177 414/90/399 289/96/400
f 241/93/359 291/55/358 413/82/387
f 217/40/332 411/6/396 415/87/395
f 277/89/398 415/87/395 412/20/275
f 291/55/358 353/103/413 410/84/472
f 353/18/326 202/6/325 411/6/396
f 412/20/275 408/19/25 101/36/68
f 114/96/181 406/90/175 409/92/177
f 57/93/178 406/90/175 405/82/160
f 33/40/88 102/89/174 407/87/172
f 102/89/174 103/40/84 404/20/27
f 116/55/124 405/82/160 402/84/162
f 190/18/473 402/18/87 403/6/89
f 101/36/68 408/19/25 404/20/27
